<?xml version="1.0" encoding="UTF-8" standalone="no"?>
<svg xmlns:xlink="http://www.w3.org/1999/xlink" height="71.0px" width="71.0px" xmlns="http://www.w3.org/2000/svg">
  <g transform="matrix(1.0, 0.0, 0.0, 1.0, 1.0, 1.0)">
    <path d="M-1.0 34.5 Q-1.0 49.2 9.4 59.6 19.8 70.0 34.5 70.0 49.2 70.0 59.55 59.6 70.0 49.2 70.0 34.5 70.0 19.85 59.55 9.4 49.2 -1.0 34.5 -1.0 19.8 -1.0 9.4 9.4 -1.0 19.85 -1.0 34.5" fill="#666666" fill-rule="evenodd" stroke="none">
      <animate attributeName="fill" dur="2s" repeatCount="indefinite" values="#666666;#666667"/>
      <animate attributeName="fill-opacity" dur="2s" repeatCount="indefinite" values="1.0;0.0"/>
      <animate attributeName="d" dur="2s" repeatCount="indefinite" values="M-1.0 34.5 Q-1.0 49.2 9.4 59.6 19.8 70.0 34.5 70.0 49.2 70.0 59.55 59.6 70.0 49.2 70.0 34.5 70.0 19.85 59.55 9.4 49.2 -1.0 34.5 -1.0 19.8 -1.0 9.4 9.4 -1.0 19.85 -1.0 34.5;M0.0 34.5 Q0.0 48.8 10.1 58.9 20.2 69.0 34.5 69.0 48.8 69.0 58.85 58.9 69.0 48.8 69.0 34.5 69.0 20.25 58.85 10.1 48.8 0.0 34.5 0.0 20.2 0.0 10.1 10.1 0.0 20.25 0.0 34.5"/>
    </path>
    <path d="M-1.0 34.5 Q-1.0 19.85 9.4 9.4 19.8 -1.0 34.5 -1.0 49.2 -1.0 59.55 9.4 70.0 19.85 70.0 34.5 70.0 49.2 59.55 59.6 49.2 70.0 34.5 70.0 19.8 70.0 9.4 59.6 -1.0 49.2 -1.0 34.5" fill="none" stroke="#000000" stroke-linecap="round" stroke-linejoin="round" stroke-opacity="0.0" stroke-width="1.0">
      <animate attributeName="stroke" dur="2s" repeatCount="indefinite" values="#000000;#000001"/>
      <animate attributeName="stroke-width" dur="2s" repeatCount="indefinite" values="0.0;0.0"/>
      <animate attributeName="fill-opacity" dur="2s" repeatCount="indefinite" values="0.0;0.0"/>
      <animate attributeName="d" dur="2s" repeatCount="indefinite" values="M-1.0 34.5 Q-1.0 19.85 9.4 9.4 19.8 -1.0 34.5 -1.0 49.2 -1.0 59.55 9.4 70.0 19.85 70.0 34.5 70.0 49.2 59.55 59.6 49.2 70.0 34.5 70.0 19.8 70.0 9.4 59.6 -1.0 49.2 -1.0 34.5;M0.0 34.5 Q0.0 20.25 10.1 10.1 20.2 0.0 34.5 0.0 48.8 0.0 58.85 10.1 69.0 20.25 69.0 34.5 69.0 48.8 58.85 58.9 48.8 69.0 34.5 69.0 20.2 69.0 10.1 58.9 0.0 48.8 0.0 34.5"/>
    </path>
  </g>
</svg>
