<?xml version="1.0" encoding="UTF-8" standalone="no"?>
<svg xmlns:xlink="http://www.w3.org/1999/xlink" height="15.6px" width="127.15px" xmlns="http://www.w3.org/2000/svg">
  <g transform="matrix(1.0, 0.0, 0.0, 1.0, 0.25, 0.25)">
    <use height="15.6" transform="matrix(1.0, 0.0, 0.0, 1.0, -0.25, -0.25)" width="127.15" xlink:href="#shape0"/>
  </g>
  <defs>
    <g id="shape0" transform="matrix(1.0, 0.0, 0.0, 1.0, 0.25, 0.25)">
      <path d="M2.0 2.3 L0.9 3.95 Q-0.15 6.0 0.05 7.7 L0.6 10.55 1.95 13.6 4.35 12.95 8.55 12.15 34.75 12.0 59.15 12.0 59.75 13.3 Q60.45 14.6 61.05 14.9 L64.0 14.8 Q62.45 13.8 62.9 12.8 63.2 12.2 65.05 11.95 L66.85 11.8 67.5 11.45 74.45 11.45 74.8 11.1 97.0 10.85 Q120.45 10.25 126.65 8.45 124.55 7.0 95.8 5.4 L67.5 4.15 66.85 3.4 63.55 3.4 Q62.55 0.3 61.5 0.1 L60.0 0.0 59.25 0.05 59.9 1.65 Q60.35 3.25 59.3 3.25 22.8 3.0 17.6 3.25 L12.2 3.6 7.8 3.35 3.5 2.65 2.0 2.3 Z" fill="none" stroke="#000000" stroke-linecap="round" stroke-linejoin="round" stroke-opacity="0.49803922" stroke-width="0.5"/>
    </g>
  </defs>
</svg>
