<?xml version="1.0" encoding="UTF-8" standalone="no"?>
<svg xmlns:xlink="http://www.w3.org/1999/xlink" height="37.0px" width="32.0px" xmlns="http://www.w3.org/2000/svg">
  <g transform="matrix(1.0, 0.0, 0.0, 1.0, -0.9, 0.0)">
    <use height="37.0" transform="matrix(1.0, 0.0, 0.0, 1.0, 0.9, 0.0)" width="32.0" xlink:href="#shape0"/>
  </g>
  <defs>
    <g id="shape0" transform="matrix(1.0, 0.0, 0.0, 1.0, -0.9, 0.0)">
      <path d="M29.8 0.4 L29.95 0.4 31.5 0.0 Q34.7 10.5 30.65 19.2 L29.2 18.7 29.2 18.65 Q32.6 9.95 29.8 0.4 M28.9 0.65 Q31.55 9.9 28.2 18.3 26.2 17.6 22.05 16.8 L18.4 16.05 18.25 15.75 17.9 15.55 Q10.3 15.2 6.45 15.8 6.25 15.8 6.1 16.0 6.0 16.15 6.05 16.35 3.8 16.65 1.65 17.25 0.45 10.1 1.15 2.95 15.7 3.5 28.9 0.6 L28.9 0.65 M6.55 16.35 Q12.2 15.5 17.8 16.05 16.8 23.35 17.65 37.0 L9.25 37.0 Q9.05 27.05 5.9 18.3 L6.45 16.35 6.55 16.35" fill="#ffffff" fill-rule="evenodd" stroke="none"/>
    </g>
  </defs>
</svg>
