<?xml version="1.0" encoding="UTF-8" standalone="no"?>
<svg xmlns:xlink="http://www.w3.org/1999/xlink" height="33.1px" width="111.05px" xmlns="http://www.w3.org/2000/svg">
  <g transform="matrix(1.0, 0.0, 0.0, 1.0, 0.75, 0.75)">
    <use height="33.1" transform="matrix(1.0, 0.0, 0.0, 1.0, -0.75, -0.75)" width="111.05" xlink:href="#shape0"/>
  </g>
  <defs>
    <g id="shape0" transform="matrix(1.0, 0.0, 0.0, 1.0, 0.75, 0.75)">
      <path d="M47.7 14.1 L49.45 15.15 50.5 16.0 Q42.5 20.55 35.3 21.75 L26.15 22.9 21.8 23.3 20.75 23.45 20.35 23.5 Q19.45 23.7 19.3 23.9 L19.0 24.8 18.5 25.65 18.1 25.9 17.8 25.55 17.5 24.1 17.3 22.3 Q17.05 21.45 15.8 20.15 14.4 18.6 13.05 18.4 11.5 18.2 10.2 18.9 8.9 19.55 8.7 20.7 8.4 22.1 8.5 23.1 8.7 24.7 9.85 26.8 10.1 27.4 9.4 28.7 L7.9 30.5 Q6.4 31.9 5.55 31.5 4.7 31.05 2.95 27.65 L1.0 23.8 Q0.45 22.7 0.15 19.35 L0.0 16.2 0.0 13.9 Q0.1 11.25 0.5 9.6 0.9 7.7 2.8 4.1 4.55 0.7 5.2 0.15 5.7 -0.3 7.15 0.8 8.6 1.85 9.5 3.35 L9.9 4.1 Q10.0 4.4 9.7 5.15 L8.8 7.1 Q8.2 8.45 8.2 9.35 L8.3 11.25 Q8.5 12.1 8.9 12.6 9.8 13.5 10.95 13.9 L12.5 14.1 Q13.4 14.0 14.55 13.3 16.2 12.3 16.95 10.7 L17.5 8.5 17.9 6.5 18.1 6.05 18.35 6.0 18.95 6.9 19.6 8.05 20.25 8.3 20.7 8.3 Q21.1 8.3 21.1 8.5 L26.75 8.85 34.65 9.65 37.3 10.2 40.5 10.9 Q44.6 12.05 47.7 14.1 M6.5 2.8 L7.5 3.65 Q7.75 4.05 7.5 5.75 L7.0 8.1 Q6.9 8.65 6.4 8.5 L6.05 8.35 3.7 7.15 Q3.5 7.1 3.3 6.85 L3.1 6.5 Q3.05 6.25 4.05 4.35 5.05 2.45 5.4 2.45 5.85 2.45 6.5 2.8 M3.65 10.3 L6.9 13.1 Q9.75 15.7 9.75 16.05 9.8 16.4 7.15 19.0 L4.0 21.75 3.0 21.8 Q2.45 21.65 2.1 21.1 1.65 20.35 1.45 18.2 L1.3 16.1 1.35 13.65 Q1.5 11.05 2.1 10.5 2.5 10.15 2.9 10.1 L3.65 10.3 M7.25 24.2 L7.7 26.05 7.95 27.7 7.05 28.55 Q6.15 29.3 5.8 29.2 5.5 29.1 4.5 27.6 L3.65 26.1 3.55 25.8 Q3.5 25.45 3.7 25.3 L5.1 24.35 Q6.3 23.6 6.7 23.7 7.0 23.7 7.1 23.85 L7.25 24.2" fill="none" stroke="#000000" stroke-linecap="round" stroke-linejoin="round" stroke-opacity="0.49803922" stroke-width="1.5"/>
      <path d="M49.45 15.15 L47.7 14.1 Q44.6 12.05 40.5 10.9 L37.3 10.2 34.65 9.65 26.75 8.85 21.1 8.5 Q21.1 8.3 20.7 8.3 L20.25 8.3 19.6 8.05 18.95 6.9 18.35 6.0 18.1 6.05 17.9 6.5 17.5 8.5 16.95 10.7 Q16.2 12.3 14.55 13.3 13.4 14.0 12.5 14.1 L10.95 13.9 Q9.8 13.5 8.9 12.6 8.5 12.1 8.3 11.25 L8.2 9.35 Q8.2 8.45 8.8 7.1 L9.7 5.15 Q10.0 4.4 9.9 4.1 L9.5 3.35 Q8.6 1.85 7.15 0.8 5.7 -0.3 5.2 0.15 4.55 0.7 2.8 4.1 0.9 7.7 0.5 9.6 0.1 11.25 0.0 13.9 L0.0 16.2 0.15 19.35 Q0.45 22.7 1.0 23.8 L2.95 27.65 Q4.7 31.05 5.55 31.5 6.4 31.9 7.9 30.5 L9.4 28.7 Q10.1 27.4 9.85 26.8 8.7 24.7 8.5 23.1 8.4 22.1 8.7 20.7 8.9 19.55 10.2 18.9 11.5 18.2 13.05 18.4 14.4 18.6 15.8 20.15 17.05 21.45 17.3 22.3 L17.5 24.1 17.8 25.55 18.1 25.9 18.5 25.65 19.0 24.8 19.3 23.9 Q19.45 23.7 20.35 23.5 L20.75 23.45 21.8 23.3 26.15 22.9 35.3 21.75 Q42.5 20.55 50.5 16.0 L49.45 15.15 M6.5 2.8 L7.5 3.65 Q7.75 4.05 7.5 5.75 L7.0 8.1 Q6.9 8.65 6.4 8.5 L6.05 8.35 3.7 7.15 Q3.5 7.1 3.3 6.85 L3.1 6.5 Q3.05 6.25 4.05 4.35 5.05 2.45 5.4 2.45 5.85 2.45 6.5 2.8 M2.9 10.1 L3.65 10.3 6.9 13.1 Q9.75 15.7 9.75 16.05 9.8 16.4 7.15 19.0 L4.0 21.75 3.0 21.8 Q2.45 21.65 2.1 21.1 1.65 20.35 1.45 18.2 L1.3 16.1 1.35 13.65 Q1.5 11.05 2.1 10.5 2.5 10.15 2.9 10.1 M7.25 24.2 L7.7 26.05 7.95 27.7 7.05 28.55 Q6.15 29.3 5.8 29.2 5.5 29.1 4.5 27.6 L3.65 26.1 3.55 25.8 Q3.5 25.45 3.7 25.3 L5.1 24.35 Q6.3 23.6 6.7 23.7 7.0 23.7 7.1 23.85 L7.25 24.2" fill="none" stroke="#000000" stroke-linecap="round" stroke-linejoin="round" stroke-width="0.5"/>
      <path d="M94.3 21.75 L85.2 22.9 80.85 23.3 79.8 23.45 79.4 23.5 Q78.45 23.7 78.35 23.9 L78.05 24.8 77.5 25.65 77.15 25.9 76.85 25.55 76.55 24.1 76.3 22.3 Q76.05 21.45 74.85 20.15 73.45 18.6 72.05 18.4 70.55 18.2 69.25 18.9 67.9 19.55 67.7 20.7 67.45 22.1 67.55 23.1 67.75 24.7 68.85 26.8 69.15 27.4 68.45 28.7 L66.9 30.5 Q65.45 31.9 64.6 31.5 63.75 31.05 62.0 27.65 L60.05 23.8 Q59.45 22.7 59.2 19.35 L59.05 16.2 59.05 13.9 Q59.15 11.25 59.5 9.6 59.95 7.7 61.85 4.1 63.6 0.7 64.25 0.15 64.75 -0.3 66.2 0.8 67.65 1.85 68.55 3.35 L68.95 4.1 68.75 5.15 67.85 7.1 Q67.25 8.45 67.25 9.35 L67.35 11.25 Q67.5 12.1 67.95 12.6 68.85 13.5 70.0 13.9 L71.5 14.1 Q72.45 14.0 73.6 13.3 75.25 12.3 76.0 10.7 L76.55 8.5 76.95 6.5 77.15 6.05 77.4 6.0 78.0 6.9 78.65 8.05 79.25 8.3 79.75 8.3 80.15 8.5 85.8 8.85 93.65 9.65 96.3 10.2 99.5 10.9 Q103.65 12.05 106.75 14.1 L108.45 15.15 109.55 16.0 Q101.5 20.55 94.3 21.75 M66.5 5.75 L66.05 8.1 Q65.95 8.65 65.45 8.5 L65.05 8.35 62.7 7.15 62.3 6.85 62.1 6.5 Q62.05 6.25 63.05 4.35 64.05 2.45 64.45 2.45 L65.5 2.8 66.5 3.65 Q66.8 4.05 66.5 5.75 M62.65 10.3 L65.95 13.1 Q68.8 15.7 68.8 16.05 68.85 16.4 66.2 19.0 L63.05 21.75 62.05 21.8 Q61.45 21.65 61.1 21.1 60.65 20.35 60.45 18.2 L60.35 16.1 60.4 13.65 Q60.5 11.05 61.1 10.5 61.55 10.15 61.95 10.1 L62.65 10.3 M65.7 23.7 Q66.05 23.7 66.1 23.85 L66.25 24.2 66.75 26.05 67.0 27.7 66.05 28.55 Q65.2 29.3 64.85 29.2 64.5 29.1 63.55 27.6 L62.65 26.1 62.6 25.8 Q62.5 25.45 62.7 25.3 L64.1 24.35 Q65.35 23.6 65.7 23.7" fill="none" stroke="#000000" stroke-linecap="round" stroke-linejoin="round" stroke-opacity="0.49803922" stroke-width="1.5"/>
      <path d="M106.75 14.1 L108.45 15.15 109.55 16.0 Q101.5 20.55 94.3 21.75 L85.2 22.9 80.85 23.3 79.8 23.45 79.4 23.5 Q78.45 23.7 78.35 23.9 L78.05 24.8 77.5 25.65 77.15 25.9 76.85 25.55 76.55 24.1 76.3 22.3 Q76.05 21.45 74.85 20.15 73.45 18.6 72.05 18.4 70.55 18.2 69.25 18.9 67.9 19.55 67.7 20.7 67.45 22.1 67.55 23.1 67.75 24.7 68.85 26.8 69.15 27.4 68.45 28.7 L66.9 30.5 Q65.45 31.9 64.6 31.5 63.75 31.05 62.0 27.65 L60.05 23.8 Q59.45 22.7 59.2 19.35 L59.05 16.2 59.05 13.9 Q59.15 11.25 59.5 9.6 59.95 7.7 61.85 4.1 63.6 0.7 64.25 0.15 64.75 -0.3 66.2 0.8 67.65 1.85 68.55 3.35 L68.95 4.1 68.75 5.15 67.85 7.1 Q67.25 8.45 67.25 9.35 L67.35 11.25 Q67.5 12.1 67.95 12.6 68.85 13.5 70.0 13.9 L71.5 14.1 Q72.45 14.0 73.6 13.3 75.25 12.3 76.0 10.7 L76.55 8.5 76.95 6.5 77.15 6.05 77.4 6.0 78.0 6.9 78.65 8.05 79.25 8.3 79.75 8.3 80.15 8.5 85.8 8.85 93.65 9.65 96.3 10.2 99.5 10.9 Q103.65 12.05 106.75 14.1 M66.5 5.75 L66.05 8.1 Q65.95 8.65 65.45 8.5 L65.05 8.35 62.7 7.15 62.3 6.85 62.1 6.5 Q62.05 6.25 63.05 4.35 64.05 2.45 64.45 2.45 L65.5 2.8 66.5 3.65 Q66.8 4.05 66.5 5.75 M61.95 10.1 L62.65 10.3 65.95 13.1 Q68.8 15.7 68.8 16.05 68.85 16.4 66.2 19.0 L63.05 21.75 62.05 21.8 Q61.45 21.65 61.1 21.1 60.65 20.35 60.45 18.2 L60.35 16.1 60.4 13.65 Q60.5 11.05 61.1 10.5 61.55 10.15 61.95 10.1 M65.7 23.7 Q66.05 23.7 66.1 23.85 L66.25 24.2 66.75 26.05 67.0 27.7 66.05 28.55 Q65.2 29.3 64.85 29.2 64.5 29.1 63.55 27.6 L62.65 26.1 62.6 25.8 Q62.5 25.45 62.7 25.3 L64.1 24.35 Q65.35 23.6 65.7 23.7" fill="none" stroke="#000000" stroke-linecap="round" stroke-linejoin="round" stroke-width="0.5"/>
    </g>
  </defs>
</svg>
