<?xml version="1.0" encoding="UTF-8" standalone="no"?>
<svg xmlns:xlink="http://www.w3.org/1999/xlink" height="39.95px" width="43.2px" xmlns="http://www.w3.org/2000/svg">
  <g transform="matrix(1.0, 0.0, 0.0, 1.0, -2.25, -1.0)">
    <use height="39.95" transform="matrix(1.0, 0.0, 0.0, 1.0, 2.25, 1.0)" width="43.2" xlink:href="#shape0"/>
  </g>
  <defs>
    <g id="shape0" transform="matrix(1.0, 0.0, 0.0, 1.0, -2.25, -1.0)">
      <path d="M40.55 4.25 L40.6 4.35 40.6 4.4 40.65 4.55 40.7 4.65 40.75 4.75 40.85 4.8 40.9 4.95 40.95 5.05 41.0 5.15 41.05 5.2 41.1 5.35 41.25 5.45 41.3 5.55 41.3 5.6 41.35 5.75 41.45 5.85 41.5 5.9 41.5 6.05 41.6 6.15 41.65 6.25 41.7 6.3 41.7 6.45 41.75 6.55 41.8 6.65 41.95 6.7 42.0 6.85 42.0 6.9 42.05 6.9 42.05 6.95 42.1 7.05 42.1 7.1 42.15 7.25 42.25 7.35 42.25 7.45 42.35 7.55 42.35 7.65 42.45 7.75 42.5 7.8 42.5 7.95 42.55 8.05 42.6 8.15 42.75 8.2 42.8 8.35 42.8 8.45 42.85 8.55 42.9 8.6 42.9 8.7 42.95 8.75 43.05 8.85 43.05 8.95 43.15 9.05 43.2 9.15 43.2 9.25 43.25 9.3 43.3 9.45 43.35 9.55 43.45 9.65 43.45 9.7 43.5 9.85 43.55 9.95 43.6 10.05 43.65 10.1 43.7 10.25 43.8 10.35 43.85 10.45 43.9 10.55 43.9 10.65 43.9 10.75 43.95 10.85 44.0 10.95 44.05 11.05 44.05 11.15 44.1 11.2 44.1 11.35 44.25 11.45 44.25 11.55 44.3 11.65 44.35 11.75 44.4 11.85 44.45 11.95 44.45 12.05 44.55 12.15 44.55 12.25 44.6 12.4 44.65 12.45 44.7 12.55 44.75 12.65 44.75 12.8 44.85 12.85 44.85 12.95 44.95 13.05 44.95 13.15 45.0 13.25 45.05 13.3 45.05 13.4 45.05 13.55 45.1 13.65 45.1 13.7 45.15 13.8 45.15 13.95 45.3 14.0 45.35 14.1 45.4 14.2 45.45 14.3 45.45 14.65 45.45 15.55 45.45 16.4 45.45 17.35 45.45 18.2 45.45 19.15 45.45 20.05 45.45 20.9 45.45 21.85 45.45 22.75 45.45 23.65 45.45 24.55 45.45 25.4 45.45 26.35 45.45 27.25 45.45 28.15 45.45 29.05 45.45 29.9 45.45 30.85 45.45 31.75 45.45 32.65 45.45 32.7 45.4 32.7 45.4 32.75 45.35 32.75 45.3 32.85 45.2 33.0 45.2 33.05 45.1 33.15 45.1 33.25 45.1 33.4 45.0 33.45 44.95 33.55 44.95 33.6 44.85 33.65 44.7 33.65 44.65 33.75 44.45 33.65 44.4 33.6 44.4 33.5 44.4 33.4 44.4 33.25 44.4 33.2 44.45 33.1 44.45 33.0 44.55 32.85 44.55 32.75 44.65 32.7 44.45 32.7 44.45 32.6 44.45 31.7 44.45 30.9 44.45 30.0 44.45 29.05 44.45 28.2 44.45 27.25 44.45 26.4 44.45 25.5 44.45 24.55 44.45 23.7 44.45 22.75 44.45 21.85 44.45 21.0 44.45 20.05 44.45 19.2 44.45 18.25 44.45 17.35 44.45 16.45 44.45 15.55 44.45 15.45 44.4 15.4 44.4 15.25 44.4 15.15 44.4 15.05 44.4 14.95 44.4 14.85 44.4 14.75 44.4 14.65 44.4 14.55 44.25 14.5 44.25 14.4 44.1 14.3 44.05 14.15 44.0 14.1 44.0 14.0 43.9 13.9 43.85 13.75 43.8 13.7 43.7 13.6 43.65 13.45 43.6 13.35 43.5 13.3 43.45 13.2 43.35 13.05 43.25 13.0 43.2 12.9 43.15 12.8 43.1 12.65 43.05 12.6 42.95 12.5 42.9 12.4 42.85 12.25 42.8 12.2 42.75 12.1 42.6 11.95 42.55 11.85 42.55 11.8 42.5 11.7 42.5 11.55 42.4 11.5 42.4 11.4 42.35 11.3 42.25 11.15 42.2 11.1 42.15 11.0 42.1 10.85 42.05 10.75 41.95 10.7 41.85 10.6 41.8 10.45 41.75 10.35 41.65 10.3 41.6 10.2 41.45 10.05 41.4 9.95 41.35 9.9 41.25 9.8 41.2 9.65 41.1 9.6 41.05 9.5 41.0 9.35 40.9 9.25 40.85 9.2 40.7 9.1 40.65 8.95 40.55 8.85 40.45 8.8 40.45 8.7 40.35 8.55 40.25 8.45 40.2 8.4 40.1 8.3 40.0 8.15 39.95 8.05 39.85 8.0 39.8 7.85 39.75 7.75 39.6 7.7 39.6 7.6 39.55 7.45 39.5 7.35 39.45 7.3 39.45 7.6 39.45 7.85 39.45 8.15 39.45 8.45 39.45 8.55 39.15 8.55 38.25 8.55 36.2 8.55 36.2 8.6 36.2 8.75 36.2 8.85 36.2 8.95 36.2 9.05 36.2 9.15 36.2 9.25 36.2 9.3 36.2 9.45 36.95 9.45 36.95 9.55 36.95 9.65 37.75 9.7 37.95 9.7 38.05 9.7 38.05 9.85 38.05 9.95 38.05 10.05 38.05 10.1 38.05 10.25 38.05 10.35 38.05 10.45 38.05 10.55 38.05 10.65 38.05 10.7 38.75 10.7 38.95 10.75 38.95 10.85 38.95 11.0 38.95 11.1 38.95 11.15 38.95 11.3 38.95 11.4 38.95 11.5 38.95 11.55 38.95 11.7 38.95 11.8 38.35 11.8 38.35 11.85 38.35 11.95 38.35 12.1 38.35 12.2 38.35 12.25 38.35 12.4 38.35 12.45 38.75 12.45 38.95 12.5 38.95 12.6 38.95 12.7 38.95 12.85 38.95 12.9 39.1 12.9 39.1 13.0 39.1 13.15 39.1 13.25 39.1 13.3 39.1 13.4 39.1 13.55 39.1 13.65 39.1 13.7 39.1 13.8 39.1 13.95 38.95 14.0 38.95 14.1 38.95 15.05 38.95 15.85 38.95 16.7 38.95 17.65 38.95 18.55 38.95 19.4 38.95 20.35 38.95 21.2 38.95 22.15 38.95 23.05 38.95 23.9 38.95 24.85 38.95 25.75 38.95 26.65 38.95 27.55 38.95 28.4 38.95 29.35 38.95 30.25 38.95 31.15 38.95 32.05 38.95 33.0 38.95 33.85 38.95 34.75 38.95 35.65 38.95 36.0 38.95 36.1 38.95 36.2 38.95 36.25 38.95 36.4 38.95 36.8 38.95 36.9 38.95 37.0 38.95 37.1 38.95 37.2 38.95 37.3 38.7 37.3 38.6 37.4 Q38.5 37.4 38.45 37.5 L38.45 37.6 38.45 37.7 38.45 37.75 38.45 37.9 38.95 37.9 38.95 38.0 38.95 38.1 38.95 38.15 38.95 38.3 38.95 38.4 38.95 38.5 38.95 38.8 38.95 38.9 38.95 39.05 38.95 39.15 38.95 39.2 38.95 39.35 38.05 39.35 38.05 39.45 38.05 39.55 38.05 39.7 38.05 39.8 38.05 39.85 38.05 39.95 37.3 40.0 37.3 40.15 37.3 40.25 37.3 40.3 37.3 40.45 37.3 40.55 36.95 40.55 36.95 40.65 36.95 40.75 32.35 40.9 32.35 40.95 31.15 40.95 31.1 40.85 31.0 40.7 31.0 40.65 30.6 40.65 30.6 40.55 30.6 40.45 30.6 40.3 30.6 40.25 30.6 40.15 30.6 40.0 30.4 39.95 30.4 39.9 30.05 39.85 29.85 39.75 29.85 39.6 29.6 39.55 29.6 39.45 29.6 39.35 28.9 39.35 28.9 39.2 28.9 39.15 28.9 39.05 28.9 38.9 28.9 38.8 28.9 38.75 28.9 38.65 28.9 38.5 28.9 38.4 28.9 38.35 28.9 38.25 28.9 38.15 29.3 38.15 29.3 38.05 29.3 37.95 29.3 37.85 29.3 37.7 29.3 37.65 29.3 37.55 29.3 37.4 29.3 37.3 29.3 37.2 28.9 37.2 28.9 37.1 28.9 36.2 28.9 35.3 28.9 34.35 28.9 33.5 28.9 32.6 28.9 31.7 28.9 30.8 28.9 29.85 28.9 29.0 28.9 28.05 28.9 27.15 28.9 26.3 28.9 25.35 28.9 24.5 28.9 23.55 28.9 22.65 28.9 21.8 28.9 20.85 28.9 19.95 28.9 19.05 28.9 18.15 28.9 17.3 28.9 16.35 28.9 15.45 28.9 14.55 28.9 13.65 28.9 13.55 28.9 13.4 28.9 13.25 28.9 13.15 28.9 13.0 28.9 12.9 28.9 12.7 28.9 12.6 28.9 12.5 29.05 12.5 29.3 12.5 29.3 12.4 29.3 12.25 29.3 12.2 29.3 12.1 29.3 11.95 29.3 11.85 29.3 11.8 28.9 11.8 28.9 11.7 28.9 11.55 28.9 11.5 28.9 11.4 28.9 11.3 28.9 11.15 28.9 11.1 28.9 11.0 28.9 10.85 28.9 10.75 28.9 10.7 29.7 10.6 29.7 10.45 29.7 10.35 29.7 10.3 29.7 10.2 29.7 10.05 29.85 9.95 29.85 9.9 29.85 9.8 29.85 9.7 30.1 9.65 30.15 9.6 30.2 9.55 30.5 9.5 30.5 9.45 31.3 9.3 31.3 9.25 31.3 9.15 31.3 9.05 31.7 8.95 31.7 8.85 31.7 8.75 31.85 8.75 31.85 8.6 31.85 8.55 31.85 8.45 31.85 8.35 31.85 8.2 31.85 8.15 31.85 8.05 31.85 7.95 31.85 7.8 31.85 7.75 32.0 7.65 32.0 7.55 32.1 7.45 32.25 7.35 32.3 7.25 32.35 7.1 32.35 7.05 32.5 6.95 32.5 6.85 32.5 6.65 32.5 6.45 32.5 6.25 32.5 6.05 32.5 5.85 32.5 5.75 32.5 5.45 32.5 5.35 32.5 5.15 32.5 4.95 32.5 4.75 32.5 4.55 32.5 4.35 32.5 4.1 32.5 4.05 31.4 4.05 31.4 3.95 31.4 3.9 31.3 3.9 31.3 3.8 31.3 3.65 31.3 3.55 31.3 3.5 31.3 3.35 31.3 3.25 31.3 3.15 31.3 3.1 31.3 2.95 31.3 2.85 31.3 2.75 31.3 2.7 31.3 2.55 31.3 2.45 31.3 2.4 31.3 2.3 31.3 2.2 31.4 2.2 31.4 2.15 31.4 2.05 31.4 1.95 32.0 2.0 32.0 1.95 32.35 1.95 32.35 1.8 32.35 1.75 32.35 1.65 32.35 1.5 32.35 1.4 33.15 1.4 33.35 1.35 33.35 1.3 34.5 1.35 38.1 1.4 38.1 1.35 38.1 1.25 38.1 1.1 38.1 1.0 39.2 1.0 39.25 1.1 39.35 1.25 39.35 1.35 39.35 1.4 39.35 1.5 39.35 1.65 39.35 1.75 39.35 1.8 39.35 1.95 39.35 2.05 39.35 2.15 39.35 2.2 39.6 2.2 39.7 2.35 39.75 2.45 39.75 2.5 39.75 2.6 39.8 2.75 39.8 2.85 39.8 2.9 39.85 3.05 39.9 3.15 39.95 3.25 40.0 3.3 40.1 3.45 40.2 3.55 40.25 3.65 40.3 3.7 40.35 3.85 40.45 3.95 40.5 4.0 40.5 4.1 40.55 4.25 M20.3 11.05 L20.35 11.1 20.35 11.3 20.45 11.4 20.45 11.45 20.55 11.55 20.6 11.65 20.7 11.75 20.85 11.8 20.85 11.9 20.85 12.1 20.9 12.15 21.0 12.2 21.05 12.3 21.1 12.45 21.25 12.55 21.25 12.7 21.35 12.85 21.45 12.9 21.55 12.95 21.6 13.05 21.6 13.25 21.65 13.35 21.7 13.4 21.8 13.45 21.95 13.6 22.0 13.7 22.05 13.7 22.1 13.75 22.1 14.0 22.2 14.1 22.3 14.1 22.35 14.2 22.45 14.35 22.5 14.4 22.6 14.45 22.7 14.5 22.75 14.7 22.8 14.8 22.75 14.85 22.85 14.95 22.9 15.1 23.05 15.15 23.1 15.2 23.15 15.3 23.25 15.4 23.3 15.5 23.45 15.55 23.5 15.6 23.55 15.7 23.6 15.8 23.7 15.9 23.85 15.95 23.9 16.0 23.9 16.15 23.95 16.25 24.0 16.35 24.1 16.4 24.25 16.45 24.25 16.65 24.25 16.75 24.25 16.9 24.2 17.1 23.7 17.5 23.5 17.65 22.95 18.05 22.75 18.2 22.6 18.2 22.45 18.2 22.1 18.6 22.0 18.8 21.8 19.05 21.75 19.35 21.7 19.4 21.6 19.65 21.25 20.05 21.25 20.2 21.05 20.4 20.85 20.5 20.65 20.5 20.45 20.5 20.35 20.5 20.2 20.5 20.15 20.45 20.1 20.5 19.9 20.55 19.7 20.55 19.55 20.5 19.45 20.45 19.35 20.35 19.3 20.2 19.2 20.15 19.1 20.1 19.05 20.05 18.95 20.0 18.75 20.0 18.6 20.0 18.3 20.1 18.2 20.1 18.1 20.15 17.85 20.3 17.6 20.5 17.35 20.65 17.2 20.55 17.0 20.5 16.95 20.5 16.8 20.5 16.7 20.45 16.6 20.35 16.5 20.3 16.35 20.3 16.25 20.2 16.15 20.15 16.1 20.1 16.05 20.0 15.95 19.9 15.85 19.8 15.8 19.75 15.7 19.65 15.65 19.6 15.5 19.55 15.45 19.4 15.4 19.35 15.4 19.2 15.35 19.05 15.3 19.0 15.3 18.85 15.2 18.7 15.2 18.6 15.1 18.5 15.1 18.45 14.95 18.4 14.75 18.3 14.75 18.25 14.7 18.2 14.6 18.1 14.5 18.05 14.45 17.9 14.35 17.85 14.3 17.8 14.2 17.75 14.1 17.65 14.0 17.5 13.95 17.5 13.9 17.4 13.85 17.3 13.8 17.1 13.75 17.1 13.6 17.0 13.55 16.9 13.45 16.75 13.4 16.6 13.35 16.45 13.25 16.35 13.2 16.2 13.15 16.0 13.1 15.95 13.1 15.8 13.1 15.6 13.1 15.55 13.0 15.45 13.0 15.25 13.0 15.1 13.0 14.9 13.0 14.8 13.0 14.65 13.0 14.45 13.0 14.35 13.0 14.1 13.0 14.0 13.0 13.8 13.15 13.7 13.1 13.55 13.05 13.4 13.0 13.3 13.0 13.15 13.0 12.95 13.0 12.85 13.0 12.65 13.0 12.5 13.0 12.3 13.0 12.2 13.0 12.1 13.0 11.85 13.0 11.75 13.0 11.65 13.0 11.5 13.1 11.35 13.1 11.15 13.1 11.05 13.1 10.85 13.1 10.7 13.1 10.55 13.1 10.35 13.1 10.25 13.1 10.05 13.1 9.9 13.1 9.8 13.1 9.55 13.1 9.45 13.1 9.25 13.1 9.15 13.1 8.95 13.1 8.8 13.1 8.6 13.1 8.45 13.1 8.35 13.0 8.2 13.0 8.1 12.95 8.05 12.85 7.85 12.85 7.7 12.85 7.6 12.85 7.4 12.85 7.3 12.8 7.2 12.75 7.05 12.7 6.9 12.65 6.9 12.5 6.8 12.45 6.65 12.45 6.55 12.35 6.5 12.25 6.5 12.1 6.35 12.1 6.3 12.0 6.2 11.85 6.2 11.7 6.2 11.55 6.15 11.45 6.15 11.35 6.1 11.25 6.1 11.1 6.05 10.95 5.95 10.8 5.95 10.6 5.95 10.5 6.05 10.4 6.1 10.15 6.2 10.05 6.2 10.05 6.25 10.1 6.45 10.1 6.5 10.1 6.65 10.1 6.9 10.1 7.0 10.15 7.2 10.15 7.25 10.1 7.35 10.0 7.6 10.0 7.7 10.0 7.85 10.0 8.05 10.0 8.2 10.0 8.35 10.0 8.45 10.0 8.7 10.0 8.8 10.0 8.9 10.0 9.15 9.95 9.3 10.0 9.45 10.0 9.55 10.0 9.8 10.0 9.9 10.0 10.0 10.05 10.1 10.05 10.3 10.05 10.45 10.1 10.65 10.05 10.75 10.0 11.0 10.0 11.15 10.0 11.4 10.0 11.5 10.0 11.7 9.95 11.8 9.95 12.05 10.0 12.15 10.0 12.3 10.0 12.45 10.0 12.55 10.05 12.65 10.05 12.9 10.0 13.05 10.0 13.25 10.0 13.3 10.05 13.35 10.05 13.45 10.05 13.65 10.1 13.75 10.15 13.95 10.15 14.1 10.2 14.15 10.2 14.35 10.2 14.45 10.2 14.65 10.2 14.75 10.25 14.85 10.2 14.85 10.25 14.95 10.25 15.05 10.35 15.1 10.4 15.2 10.45 15.3 10.4 15.55 10.45 15.6 10.45 15.65 10.5 15.8 10.5 15.95 10.5 16.0 10.5 16.25 10.6 16.35 10.6 16.4 10.6 16.65 10.6 16.75 10.7 16.8 10.7 17.0 10.8 17.1 10.8 17.2 10.85 17.35 10.85 17.5 10.9 17.55 10.95 17.75 10.95 17.85 10.95 17.95 11.0 18.1 11.0 18.25 11.1 18.3 11.15 18.5 11.15 18.65 11.25 18.7 11.25 18.85 11.3 18.95 11.3 19.05 11.35 19.25 11.35 19.35 11.35 19.45 11.45 19.6 11.45 19.75 11.5 19.9 11.55 20.0 11.55 20.15 11.6 20.2 11.65 20.35 11.7 20.5 11.7 20.65 11.7 20.8 11.7 20.9 11.7 21.1 11.75 21.15 11.85 21.25 11.85 21.4 11.95 21.55 11.9 21.65 11.9 21.85 11.95 21.95 12.0 22.05 12.1 22.15 12.1 22.3 12.1 22.4 12.1 22.55 12.2 22.7 12.2 22.8 12.25 22.95 12.3 23.05 12.35 23.15 12.3 23.3 12.4 23.4 12.4 23.55 12.45 23.65 12.45 23.8 12.6 23.9 12.6 24.0 12.65 24.1 12.65 24.3 12.65 24.45 12.7 24.6 12.7 24.65 12.7 24.85 12.7 24.95 12.7 25.05 12.75 25.25 12.8 25.4 12.85 25.5 12.85 25.7 12.85 25.75 12.85 25.9 12.95 26.0 12.95 26.25 13.0 26.3 13.0 26.45 13.0 26.55 13.05 26.7 13.0 26.9 13.05 27.05 13.05 27.2 13.1 27.4 13.0 27.5 13.0 27.75 13.0 27.85 13.1 27.95 13.05 28.15 13.05 28.35 13.1 28.4 13.1 28.55 13.15 28.65 13.15 28.9 13.15 29.0 13.15 29.15 13.15 29.3 13.15 29.45 13.15 29.65 13.15 29.8 13.2 30.0 13.15 30.1 13.1 30.35 13.1 30.45 13.15 30.6 13.15 30.75 13.15 30.8 13.05 30.95 13.1 31.15 13.1 31.3 13.0 31.55 13.0 31.65 13.05 31.75 13.0 31.9 13.0 31.95 12.95 32.1 12.85 32.3 12.85 32.45 12.85 32.65 12.85 32.75 12.85 33.0 12.8 33.15 12.85 33.25 12.85 33.45 12.85 33.55 12.85 33.8 12.75 34.1 12.75 34.2 12.7 34.35 12.75 34.55 12.75 34.65 12.75 34.85 12.75 34.95 12.7 35.15 12.75 35.3 12.75 35.45 12.75 35.65 12.7 35.8 12.65 36.1 12.6 36.2 12.6 36.4 12.6 36.55 12.65 36.65 12.65 36.85 12.65 37.0 12.6 37.2 12.65 37.25 12.65 37.4 12.45 37.6 12.4 37.85 12.4 38.0 12.4 38.1 12.4 38.3 12.4 38.45 12.3 38.7 12.3 38.8 12.25 39.1 12.2 39.25 12.2 39.45 12.25 39.55 12.2 39.8 12.2 39.9 12.2 40.1 12.2 40.2 12.05 40.35 11.85 40.55 11.7 40.55 11.5 40.6 11.3 40.65 11.1 40.65 10.95 40.65 10.8 40.65 10.6 40.65 10.45 40.65 10.25 40.7 10.15 40.7 10.0 40.7 9.85 40.7 9.8 40.7 9.7 40.7 9.6 40.85 9.35 40.85 9.25 40.85 9.1 40.85 9.0 40.85 8.9 40.9 8.75 40.9 8.65 40.9 8.6 40.85 8.4 40.85 8.2 40.85 8.1 40.85 7.95 40.85 7.8 40.85 7.65 40.75 7.6 40.75 7.55 40.7 7.5 40.75 7.4 40.7 7.25 40.75 7.2 40.75 7.15 40.7 7.1 40.75 7.0 40.7 6.85 40.75 6.85 40.7 6.75 40.7 6.65 40.65 6.6 40.7 6.45 40.7 6.4 40.7 6.35 40.7 6.3 40.65 6.15 40.7 6.05 40.7 6.05 40.65 5.95 40.7 5.9 40.65 5.85 40.65 5.7 40.65 5.6 40.65 5.5 40.65 5.3 40.65 5.2 40.65 5.15 40.65 5.0 40.65 4.75 40.65 4.6 40.6 4.55 40.6 4.5 40.55 4.4 40.5 4.25 40.5 4.2 40.45 4.15 40.45 4.1 40.35 4.05 40.35 3.9 40.25 3.75 40.25 3.7 40.25 3.6 40.2 3.6 40.15 3.4 40.15 3.35 40.1 3.25 40.0 3.15 39.95 3.05 39.9 3.0 39.8 2.95 39.7 2.95 39.5 2.95 39.45 2.95 39.25 2.95 39.2 2.95 39.1 2.95 39.0 2.95 38.9 2.95 38.8 2.95 38.75 2.9 38.75 2.9 38.65 2.9 38.6 2.95 38.45 2.95 38.35 2.9 38.25 2.9 38.15 2.9 38.05 2.9 37.95 2.9 37.85 2.9 37.75 2.9 37.65 2.85 37.65 2.85 37.6 2.85 37.5 2.85 37.4 2.85 37.3 2.9 37.25 2.85 37.2 2.85 37.1 2.85 37.0 2.75 36.95 2.85 36.85 2.85 36.8 2.85 36.75 2.85 36.6 2.85 36.5 2.75 36.5 2.75 36.4 2.75 36.35 2.7 36.2 2.75 36.1 2.7 36.1 2.7 36.05 2.7 35.9 2.7 35.8 2.75 35.7 2.7 35.7 2.75 35.6 2.7 35.45 2.75 35.4 2.7 35.35 2.7 35.25 2.7 35.05 2.75 35.0 2.7 34.95 2.75 34.85 2.75 34.75 2.7 34.7 2.7 34.65 2.65 34.6 2.65 34.55 2.65 34.35 2.65 34.3 2.65 34.2 2.65 34.1 2.65 33.95 2.6 33.85 2.65 33.8 2.65 33.55 2.65 33.45 2.65 33.4 2.6 33.35 2.65 33.2 2.65 33.15 2.65 33.05 2.6 32.9 2.65 32.85 2.6 32.75 2.6 32.7 2.6 32.5 2.65 32.45 2.6 32.35 2.6 32.05 2.6 31.95 2.6 31.75 2.6 31.65 2.6 31.55 2.6 31.4 2.6 31.3 2.55 31.2 2.55 31.15 2.5 31.1 2.55 30.95 2.5 30.9 2.55 30.8 2.55 30.65 2.5 30.55 2.5 30.5 2.5 30.4 2.4 30.35 2.4 30.2 2.4 30.15 2.5 30.05 2.4 30.05 2.4 30.0 2.4 29.85 2.4 29.4 2.4 29.3 2.4 29.1 2.35 29.05 2.3 29.0 2.35 28.9 2.3 28.9 2.35 28.75 2.3 28.65 2.3 28.6 2.25 28.5 2.3 28.4 2.25 28.35 2.3 28.3 2.3 28.25 2.25 28.15 2.25 28.05 2.25 27.95 2.25 27.9 2.25 27.75 2.3 27.65 2.25 27.55 2.25 27.3 2.3 27.2 2.3 27.15 2.3 27.05 2.3 26.9 2.3 26.8 2.3 26.5 2.3 26.4 2.3 26.15 2.3 26.1 2.25 26.0 2.3 25.95 2.3 25.8 2.3 25.7 2.3 25.55 2.3 25.5 2.3 25.35 2.4 25.25 2.4 25.05 2.4 24.85 2.5 24.8 2.5 24.65 2.5 24.6 2.5 24.5 2.55 24.4 2.5 24.3 2.5 24.25 2.55 24.15 2.55 24.05 2.6 24.0 2.6 23.85 2.65 23.7 2.65 23.5 2.7 23.4 2.7 23.3 2.7 23.25 2.75 23.15 2.75 23.05 2.85 22.95 2.9 22.8 2.9 22.7 2.95 22.55 2.95 22.4 3.0 22.35 3.0 22.25 3.0 22.05 3.05 22.05 3.1 22.0 3.1 21.9 3.15 21.8 3.15 21.65 3.25 21.6 3.3 21.5 3.3 21.45 3.4 21.3 3.4 21.2 3.4 21.1 3.4 21.05 3.45 20.9 3.45 20.85 3.5 20.7 3.6 20.5 3.65 20.5 3.65 20.45 3.7 20.3 3.7 20.15 3.75 20.1 3.75 20.0 3.75 19.9 3.8 19.75 3.85 19.65 3.85 19.55 3.9 19.4 4.05 19.35 4.1 19.25 4.1 19.05 4.1 19.0 4.15 19.0 4.15 18.85 4.2 18.7 4.2 18.65 4.25 18.55 4.35 18.45 4.35 18.3 4.4 18.25 4.5 18.1 4.45 18.05 4.5 17.95 4.5 17.85 4.5 17.7 4.55 17.55 4.55 17.5 4.65 17.35 4.65 17.2 4.65 17.1 4.75 17.1 4.75 17.05 4.75 16.95 4.75 16.9 4.75 16.75 4.75 16.65 4.85 16.6 4.8 16.45 4.85 16.35 4.85 16.25 4.9 16.2 4.9 16.0 4.9 15.95 4.9 15.8 4.95 15.65 4.9 15.6 4.9 15.55 4.95 15.5 4.9 15.4 4.95 15.25 4.9 15.2 4.9 15.15 4.95 15.05 4.95 14.9 5.0 14.85 5.0 14.7 5.0 14.55 5.1 14.5 5.0 14.45 5.0 14.35 5.1 14.15 5.1 14.1 5.0 14.05 5.15 14.0 5.15 13.9 5.15 13.65 5.15 13.55 5.2 13.45 5.2 13.35 5.2 13.25 5.2 13.15 5.2 13.05 5.2 12.95 5.2 12.9 5.2 12.8 5.2 12.7 5.15 12.7 5.15 12.55 5.2 12.4 5.15 12.4 5.15 12.3 5.15 12.2 5.15 12.1 5.15 11.95 5.15 11.85 5.15 11.7 5.15 11.55 5.15 11.45 5.15 11.4 5.15 11.2 5.15 11.0 5.15 10.8 5.15 10.65 5.15 10.55 5.15 10.45 5.15 10.35 5.15 9.9 5.15 9.8 5.15 9.65 5.15 9.55 5.15 9.5 5.15 9.3 5.2 9.2 5.15 9.15 5.15 9.1 5.0 8.95 4.95 8.9 4.95 8.8 4.9 8.6 5.15 8.4 5.1 8.4 5.2 8.35 5.2 8.3 5.15 8.2 5.15 8.1 5.2 8.05 5.15 8.0 5.2 7.85 5.2 7.75 5.2 7.65 5.2 7.6 5.25 7.4 5.25 7.25 5.2 7.2 5.15 7.0 5.2 6.9 5.2 6.85 5.3 6.65 5.35 6.6 5.35 6.5 5.35 6.35 5.4 6.2 5.4 6.15 5.5 6.05 5.55 5.95 5.65 5.8 5.65 5.7 5.75 5.5 5.85 5.4 5.95 5.3 5.9 5.3 6.05 5.1 6.25 5.0 6.4 5.0 6.6 5.0 6.75 5.0 6.75 4.95 6.65 4.85 6.6 4.7 6.65 4.6 6.8 4.35 7.05 3.95 7.15 3.7 7.35 3.5 7.5 3.2 7.6 3.05 7.75 2.8 8.9 1.65 9.0 1.5 9.05 1.4 9.35 1.3 9.45 1.25 9.65 1.25 9.8 1.25 10.05 1.2 10.15 1.2 10.35 1.05 10.55 1.05 10.7 1.05 10.85 1.05 11.0 1.05 11.2 1.05 11.3 1.05 11.5 1.05 11.7 1.05 11.75 1.05 11.95 1.1 12.05 1.2 12.2 1.2 12.25 1.25 12.4 1.3 12.45 1.3 12.65 1.4 12.75 1.4 12.85 1.4 13.0 1.45 13.15 1.5 13.25 1.6 13.4 1.6 13.45 1.65 13.6 1.65 13.7 1.7 13.85 1.75 13.95 1.8 14.1 1.85 14.2 1.95 14.3 1.95 14.35 2.0 14.45 2.1 14.55 2.15 14.65 2.3 14.7 2.35 14.75 2.4 14.85 2.45 14.95 2.55 15.0 2.7 15.1 2.75 15.1 2.8 15.25 2.85 15.35 2.95 15.4 3.1 15.5 3.1 15.6 3.2 15.65 3.25 15.7 3.35 15.8 3.5 15.95 3.5 16.0 3.6 16.05 3.7 16.05 3.85 16.1 3.9 16.15 4.0 16.25 4.1 16.35 4.25 16.4 4.25 16.5 4.35 16.55 4.4 16.55 4.6 16.6 4.65 16.7 4.7 16.8 4.8 16.9 4.95 16.95 5.0 16.95 5.1 17.0 5.2 17.0 5.4 17.25 5.55 17.35 5.75 17.45 5.8 17.45 5.9 17.5 6.05 17.6 6.1 17.65 6.15 17.7 6.25 17.75 6.35 17.75 6.5 17.9 6.6 17.95 6.65 18.05 6.7 18.05 6.9 18.1 6.95 18.2 7.1 18.25 7.2 18.3 7.3 18.3 7.4 18.35 7.55 18.45 7.65 18.6 7.65 18.6 7.8 18.6 7.95 18.65 8.05 18.75 8.05 18.8 8.2 18.85 8.35 18.95 8.45 18.95 8.5 19.05 8.55 19.1 8.75 19.15 8.8 19.2 8.95 19.3 9.05 19.35 9.15 19.4 9.15 19.45 9.3 19.5 9.45 19.5 9.55 19.6 9.65 19.55 9.85 19.7 9.9 19.75 9.95 19.8 10.05 19.85 10.25 19.9 10.3 19.95 10.35 20.05 10.55 20.05 10.7 20.1 10.7 20.2 10.8 20.3 10.95 20.3 11.05 M13.95 11.8 L13.9 11.8 13.95 11.85 13.95 11.8 M5.2 37.95 L5.25 37.95 5.2 37.9 5.2 37.95 M35.8 38.1 L35.85 38.1 35.85 38.05 35.8 38.05 35.8 38.1" fill="#ffffff" fill-rule="evenodd" stroke="none"/>
    </g>
  </defs>
</svg>
