<?xml version="1.0" encoding="UTF-8" standalone="no"?>
<svg xmlns:xlink="http://www.w3.org/1999/xlink" height="23.55px" width="139.45px" xmlns="http://www.w3.org/2000/svg">
  <g transform="matrix(1.0, 0.0, 0.0, 1.0, 0.0, 0.0)">
    <use height="23.55" transform="matrix(1.0, 0.0, 0.0, 1.0, 0.0, 0.0)" width="139.45" xlink:href="#shape0"/>
  </g>
  <defs>
    <g id="shape0" transform="matrix(1.0, 0.0, 0.0, 1.0, 0.0, 0.0)">
      <path d="M6.3 15.45 Q6.95 16.05 7.85 16.05 8.75 16.05 9.35 15.45 10.0 14.8 10.0 13.9 10.0 13.0 9.35 12.4 8.75 11.75 7.85 11.75 6.95 11.75 6.3 12.4 5.7 13.0 5.7 13.9 5.7 14.8 6.3 15.45 M1.85 9.0 Q1.5 9.0 1.25 9.25 1.0 9.5 1.0 9.85 L1.25 10.45 1.85 10.7 2.4 10.45 2.65 9.85 2.4 9.25 1.85 9.0 M53.95 9.0 Q53.05 9.0 52.45 9.65 51.8 10.25 51.8 11.15 51.8 12.05 52.45 12.7 53.05 13.3 53.95 13.3 54.85 13.3 55.5 12.7 56.1 12.05 56.1 11.15 56.1 10.25 55.5 9.65 54.85 9.0 53.95 9.0 M104.85 9.15 L105.1 8.5 104.85 7.8 104.2 7.5 78.45 6.7 Q77.8 6.75 77.3 7.25 76.7 7.8 76.7 8.6 76.7 9.35 77.3 9.9 77.8 10.4 78.45 10.45 L104.2 9.45 104.85 9.15 M139.45 4.55 L126.5 17.45 Q109.6 23.75 90.75 20.95 L90.4 20.65 Q90.0 20.3 89.65 20.25 L88.9 20.45 88.55 20.65 88.35 20.4 Q88.05 20.1 87.75 20.1 L87.35 20.3 87.25 20.5 87.1 20.25 Q86.9 19.95 86.6 19.95 86.35 19.95 86.2 20.15 L86.1 20.35 85.7 20.05 84.8 19.7 Q84.4 19.7 84.2 19.95 84.05 20.05 84.05 20.2 L83.8 19.95 83.25 19.7 82.9 19.95 82.85 20.2 82.7 19.95 Q82.5 19.7 82.25 19.7 L81.9 19.95 81.8 20.2 81.55 20.0 80.7 19.75 Q80.25 19.8 80.0 20.1 L79.8 20.4 79.65 20.2 79.15 20.05 78.85 20.4 78.8 20.7 78.6 20.5 78.1 20.45 Q77.9 20.55 77.85 20.85 L77.85 21.15 77.45 21.0 76.55 21.1 Q76.15 21.3 76.05 21.7 L76.0 22.1 75.55 22.35 74.4 21.1 Q73.05 19.85 72.15 20.25 71.2 20.6 70.8 22.1 L70.6 23.55 68.6 23.55 Q68.35 21.9 67.25 22.9 L66.5 22.6 Q66.4 20.95 65.05 21.9 L64.4 21.6 Q64.2 20.05 62.95 20.95 L62.2 20.75 Q62.1 19.25 60.75 20.1 L57.75 19.0 Q54.2 17.95 51.75 18.1 49.2 18.25 45.6 19.5 L42.1 20.75 39.8 20.3 36.15 19.2 Q30.45 17.65 24.55 18.2 20.8 18.5 12.9 20.6 L5.1 22.7 3.7 22.8 3.0 22.75 1.8 20.95 1.5 15.85 0.7 14.05 Q-0.1 11.95 0.0 10.45 0.05 8.7 2.2 7.9 L4.3 7.4 4.65 6.85 Q5.15 6.2 9.95 5.1 15.45 3.8 22.2 3.05 L35.25 2.25 Q38.7 2.2 40.95 2.3 44.2 2.45 46.9 3.1 L48.9 3.7 51.7 3.9 51.85 4.3 Q52.1 4.7 52.55 4.75 L53.2 4.35 53.3 4.0 54.25 4.1 54.45 4.45 Q54.65 4.8 55.05 4.8 55.45 4.8 55.65 4.5 L55.75 4.15 56.7 4.15 56.95 4.5 Q57.3 4.85 57.7 4.8 L58.25 4.4 58.35 4.0 59.25 3.85 59.6 4.1 60.3 4.25 Q60.6 4.15 60.7 3.65 L60.7 3.25 61.4 3.0 61.8 3.2 62.55 3.25 62.85 2.65 62.8 2.25 63.5 1.85 63.95 1.95 64.7 1.9 64.9 1.3 64.8 0.85 Q65.65 0.45 66.45 0.0 L66.7 0.55 67.75 1.6 Q68.4 2.0 69.3 2.2 L70.1 2.3 99.65 1.65 102.15 3.05 107.25 5.5 Q111.55 7.2 112.6 5.2 112.95 4.6 111.7 3.15 L110.35 1.8 Q124.9 2.2 139.45 4.55" fill="#ffffff" fill-rule="evenodd" stroke="none"/>
    </g>
  </defs>
</svg>
