<?xml version="1.0" encoding="UTF-8" standalone="no"?>
<svg xmlns:xlink="http://www.w3.org/1999/xlink" height="29.55px" width="77.35px" xmlns="http://www.w3.org/2000/svg">
  <g transform="matrix(1.0, 0.0, 0.0, 1.0, 0.75, 0.75)">
    <use height="29.55" transform="matrix(1.0, 0.0, 0.0, 1.0, -0.75, -0.75)" width="77.35" xlink:href="#shape0"/>
  </g>
  <defs>
    <g id="shape0" transform="matrix(1.0, 0.0, 0.0, 1.0, 0.75, 0.75)">
      <path d="M75.45 0.55 L75.75 1.55 75.85 3.35 75.75 5.3 75.45 6.3 75.2 6.7 59.9 6.7 59.7 6.55 59.45 6.65 47.65 6.65 47.35 6.85 46.9 6.7 41.95 6.7 41.95 5.85 40.35 5.85 40.35 5.1 39.2 5.1 39.2 6.8 39.55 7.05 39.55 7.85 39.2 8.1 39.1 9.7 28.0 9.7 27.75 9.85 27.4 10.35 25.4 15.2 24.9 15.8 24.1 15.9 19.05 16.1 18.3 15.8 17.05 15.35 16.3 15.3 15.55 15.45 14.65 15.5 14.3 15.4 11.75 26.05 11.7 27.25 12.25 28.05 1.7 27.9 1.8 25.5 Q2.05 22.6 2.7 19.9 3.4 17.25 4.45 14.9 L5.15 13.45 5.5 12.55 Q5.65 11.95 5.3 11.6 L4.0 10.95 2.75 10.5 2.3 10.15 2.3 8.95 2.45 8.3 0.65 8.1 0.25 7.95 Q-0.05 7.75 0.0 7.35 0.1 6.85 0.65 6.8 L1.15 6.85 1.45 5.6 2.9 6.55 3.55 3.4 4.6 1.35 4.6 0.55 5.4 1.0 8.55 1.0 8.8 1.25 19.55 1.25 19.55 1.5 25.5 1.5 25.5 1.3 35.9 1.3 35.9 0.0 38.3 0.0 38.6 0.3 38.6 1.2 38.95 1.15 39.25 1.6 39.25 2.4 40.35 2.4 40.35 1.7 41.75 1.7 41.75 0.3 46.85 0.3 47.2 0.1 47.65 0.3 59.75 0.3 60.1 0.2 75.2 0.2 75.45 0.55 M25.1 9.8 L19.55 9.9 18.35 11.15 17.8 11.9 Q17.4 12.4 17.35 13.15 L17.45 14.1 17.65 14.6 17.3 14.85 16.9 14.05 Q16.5 13.1 16.55 12.5 16.7 11.55 17.3 10.7 L17.85 10.1 17.05 10.3 Q16.2 10.55 15.85 11.0 15.25 11.55 15.1 12.25 14.9 13.0 15.2 13.6 15.45 14.25 16.0 14.6 16.55 15.05 17.3 15.15 L18.75 15.2 19.85 15.25 22.2 15.35 24.4 15.25 25.4 13.05 26.15 10.95 26.15 10.65 26.0 10.2 25.5 9.9 25.1 9.8" fill="none" stroke="#000000" stroke-linecap="round" stroke-linejoin="round" stroke-width="0.5"/>
      <path d="M75.45 0.55 L75.75 1.55 75.85 3.35 75.75 5.3 75.45 6.3 75.2 6.7 59.9 6.7 59.7 6.55 59.45 6.65 47.65 6.65 47.35 6.85 46.9 6.7 41.95 6.7 41.95 5.85 40.35 5.85 40.35 5.1 39.2 5.1 39.2 6.8 39.55 7.05 39.55 7.85 39.2 8.1 39.1 9.7 28.0 9.7 27.75 9.85 27.4 10.35 25.4 15.2 24.9 15.8 24.1 15.9 19.05 16.1 18.3 15.8 17.05 15.35 16.3 15.3 15.55 15.45 14.65 15.5 14.3 15.4 11.75 26.05 11.7 27.25 12.25 28.05 1.7 27.9 1.8 25.5 Q2.05 22.6 2.7 19.9 3.4 17.25 4.45 14.9 L5.15 13.45 5.5 12.55 Q5.65 11.95 5.3 11.6 L4.0 10.95 2.75 10.5 2.3 10.15 2.3 8.95 2.45 8.3 0.65 8.1 0.25 7.95 Q-0.05 7.75 0.0 7.35 0.1 6.85 0.65 6.8 L1.15 6.85 1.45 5.6 2.9 6.55 3.55 3.4 4.6 1.35 4.6 0.55 5.4 1.0 8.55 1.0 8.8 1.25 19.55 1.25 19.55 1.5 25.5 1.5 25.5 1.3 35.9 1.3 35.9 0.0 38.3 0.0 38.6 0.3 38.6 1.2 38.95 1.15 39.25 1.6 39.25 2.4 40.35 2.4 40.35 1.7 41.75 1.7 41.75 0.3 46.85 0.3 47.2 0.1 47.65 0.3 59.75 0.3 60.1 0.2 75.2 0.2 75.45 0.55 M25.1 9.8 L19.55 9.9 18.35 11.15 17.8 11.9 Q17.4 12.4 17.35 13.15 L17.45 14.1 17.65 14.6 17.3 14.85 16.9 14.05 Q16.5 13.1 16.55 12.5 16.7 11.55 17.3 10.7 L17.85 10.1 17.05 10.3 Q16.2 10.55 15.85 11.0 15.25 11.55 15.1 12.25 14.9 13.0 15.2 13.6 15.45 14.25 16.0 14.6 16.55 15.05 17.3 15.15 L18.75 15.2 19.85 15.25 22.2 15.35 24.4 15.25 25.4 13.05 26.15 10.95 26.15 10.65 26.0 10.2 25.5 9.9 25.1 9.8" fill="none" stroke="#000000" stroke-linecap="round" stroke-linejoin="round" stroke-opacity="0.4" stroke-width="1.5"/>
    </g>
  </defs>
</svg>
