<?xml version="1.0" encoding="UTF-8" standalone="no"?>
<svg xmlns:xlink="http://www.w3.org/1999/xlink" height="37.65px" width="37.15px" xmlns="http://www.w3.org/2000/svg">
  <g transform="matrix(1.0, 0.0, 0.0, 1.0, -2.7, 0.45)">
    <use height="37.65" transform="matrix(1.0, 0.0, 0.0, 1.0, 2.7, -0.45)" width="37.15" xlink:href="#shape0"/>
  </g>
  <defs>
    <g id="shape0" transform="matrix(1.0, 0.0, 0.0, 1.0, -2.7, 0.45)">
      <path d="M6.9 -0.15 L6.4 0.35 9.5 3.45 10.3 2.65 10.85 3.1 6.25 7.65 5.75 7.2 6.4 6.55 3.5 3.5 2.95 3.9 2.7 3.7 3.0 1.65 4.65 0.15 6.55 -0.45 6.9 -0.15 M37.85 36.8 L36.65 37.2 32.6 33.2 36.0 29.8 39.85 34.0 39.5 35.1 38.75 36.0 37.85 36.8 M19.95 18.55 L21.25 19.9 21.85 19.4 20.4 18.15 19.95 18.55 M22.5 16.05 L22.0 16.65 23.25 17.95 23.9 17.35 22.5 16.05 M20.9 17.65 L22.25 18.95 22.8 18.4 21.45 17.1 20.9 17.65 M24.4 16.8 L25.75 18.2 21.15 22.75 6.75 8.35 11.35 3.8 24.3 16.85 24.4 16.8 M18.9 19.75 L20.25 21.0 20.8 20.4 19.55 19.1 18.9 19.75 M21.7 23.3 L26.2 18.75 26.25 18.8 27.7 17.85 28.05 18.3 27.4 18.95 27.75 19.25 28.4 18.55 28.8 18.95 28.05 19.65 28.4 20.0 29.05 19.35 29.55 19.75 28.8 20.45 29.1 20.8 29.85 20.05 30.5 20.65 30.75 23.3 34.5 27.05 34.45 28.15 35.15 28.9 31.7 32.3 30.95 31.6 29.9 31.65 26.2 27.85 23.55 27.65 22.95 26.95 23.6 26.3 23.2 25.9 22.5 26.6 22.2 26.2 22.85 25.55 22.5 25.25 21.9 25.85 21.45 25.45 22.2 24.8 21.8 24.45 21.15 25.15 20.75 24.75 21.7 23.3" fill="#ffffff" fill-rule="evenodd" stroke="none"/>
    </g>
  </defs>
</svg>
