<?xml version="1.0" encoding="UTF-8" standalone="no"?>
<svg xmlns:xlink="http://www.w3.org/1999/xlink" height="31.15px" width="44.6px" xmlns="http://www.w3.org/2000/svg">
  <g transform="matrix(1.0, 0.0, 0.0, 1.0, 0.0, 0.0)">
    <use height="31.15" transform="matrix(1.0, 0.0, 0.0, 1.0, 0.0, 0.0)" width="44.6" xlink:href="#shape0"/>
  </g>
  <defs>
    <g id="shape0" transform="matrix(1.0, 0.0, 0.0, 1.0, 0.0, 0.0)">
      <path d="M44.6 4.1 L44.6 26.85 Q41.85 15.1 44.6 4.1 M41.5 6.3 Q41.5 3.05 38.3 3.05 L6.05 3.05 Q2.8 3.05 2.8 6.3 L2.8 23.95 Q2.8 27.2 6.05 27.2 L38.3 27.2 Q41.5 27.2 41.5 23.95 L41.5 6.3 M42.05 0.0 Q44.15 0.0 44.55 1.8 L44.3 2.65 Q40.9 15.05 44.3 28.35 L44.55 29.35 Q44.2 31.15 42.05 31.15 L2.55 31.15 Q0.05 31.15 0.0 28.7 L0.3 27.45 0.3 27.4 Q3.35 14.95 0.3 3.25 L0.05 2.15 Q0.25 0.0 2.55 0.0 L42.05 0.0 M40.25 6.3 L40.25 23.95 Q40.25 25.9 38.3 25.9 L6.05 25.9 Q4.1 25.9 4.1 23.95 L4.1 6.3 Q4.1 4.35 6.05 4.35 L38.3 4.35 Q40.25 4.35 40.25 6.3 M26.35 10.1 L21.85 12.8 17.35 10.15 Q19.6 9.0 21.9 7.9 L26.35 10.1 M21.6 6.65 L15.85 9.45 15.85 9.5 15.75 9.5 8.65 12.9 8.35 13.2 Q8.25 13.4 8.3 13.6 L8.55 13.95 14.05 18.2 14.15 18.25 14.2 18.3 21.45 23.85 21.8 24.0 22.2 23.85 29.5 18.25 29.55 18.2 35.1 13.95 35.3 13.6 35.3 13.2 35.0 12.9 27.9 9.5 27.75 9.45 22.15 6.65 21.85 6.6 21.6 6.65 M21.8 22.6 L15.65 17.85 21.85 14.25 28.0 17.85 21.8 22.6 M23.1 13.5 L27.65 10.8 33.5 13.6 29.1 17.0 23.1 13.5 M16.0 10.8 L20.6 13.5 14.55 17.0 10.1 13.6 16.0 10.8 M0.0 25.85 L0.0 4.75 Q2.35 15.0 0.0 25.85" fill="#ffffff" fill-rule="evenodd" stroke="none"/>
    </g>
  </defs>
</svg>
