<?xml version="1.0" encoding="UTF-8" standalone="no"?>
<svg xmlns:xlink="http://www.w3.org/1999/xlink" height="33.25px" width="14.8px" xmlns="http://www.w3.org/2000/svg">
  <g transform="matrix(1.0, 0.0, 0.0, 1.0, -1.6, 0.1)">
    <use height="33.25" transform="matrix(1.0, 0.0, 0.0, 1.0, 1.6, -0.1)" width="14.8" xlink:href="#shape0"/>
  </g>
  <defs>
    <g id="shape0" transform="matrix(1.0, 0.0, 0.0, 1.0, -1.6, 0.1)">
      <path d="M14.65 8.8 L14.65 22.85 13.95 23.2 12.75 24.0 Q12.3 24.4 12.55 24.85 12.8 25.25 13.3 25.0 L15.65 23.85 15.65 8.1 11.0 0.65 5.5 0.65 4.5 0.8 Q4.05 1.0 4.05 1.65 4.05 2.65 5.25 2.8 L5.25 4.8 3.75 6.1 3.05 6.1 Q2.35 6.1 2.35 6.8 L2.35 10.0 3.5 11.1 3.5 13.45 4.05 13.45 4.05 15.85 3.5 15.85 3.5 18.35 4.05 18.35 4.05 20.75 3.5 20.75 3.5 23.25 4.05 23.25 4.05 25.65 3.5 25.65 3.5 27.95 2.35 30.0 2.35 31.7 Q2.35 32.4 3.05 32.4 L11.95 32.4 Q12.65 32.4 12.65 31.7 L12.65 30.0 11.45 27.95 11.45 25.65 10.95 25.65 10.95 23.25 11.45 23.25 11.45 20.75 10.95 20.75 10.95 18.35 11.45 18.35 11.45 15.85 10.95 15.85 10.95 13.45 11.45 13.45 11.45 11.1 12.65 10.0 12.65 7.65 14.65 8.8 Z" fill="none" stroke="#000000" stroke-linecap="round" stroke-linejoin="round" stroke-opacity="0.3019608" stroke-width="1.5"/>
      <path d="M14.65 8.8 L14.65 22.85 13.95 23.2 12.75 24.0 Q12.3 24.4 12.55 24.85 12.8 25.25 13.3 25.0 L15.65 23.85 15.65 8.1 11.0 0.65 5.5 0.65 4.5 0.8 Q4.05 1.0 4.05 1.65 4.05 2.65 5.25 2.8 L5.25 4.8 3.75 6.1 3.05 6.1 Q2.35 6.1 2.35 6.8 L2.35 10.0 3.5 11.1 3.5 13.45 4.05 13.45 4.05 15.85 3.5 15.85 3.5 18.35 4.05 18.35 4.05 20.75 3.5 20.75 3.5 23.25 4.05 23.25 4.05 25.65 3.5 25.65 3.5 27.95 2.35 30.0 2.35 31.7 Q2.35 32.4 3.05 32.4 L11.95 32.4 Q12.65 32.4 12.65 31.7 L12.65 30.0 11.45 27.95 11.45 25.65 10.95 25.65 10.95 23.25 11.45 23.25 11.45 20.75 10.95 20.75 10.95 18.35 11.45 18.35 11.45 15.85 10.95 15.85 10.95 13.45 11.45 13.45 11.45 11.1 12.65 10.0 12.65 7.65 14.65 8.8 Z" fill="none" stroke="#000000" stroke-linecap="round" stroke-linejoin="round" stroke-width="0.5"/>
    </g>
  </defs>
</svg>
