<?xml version="1.0" encoding="UTF-8" standalone="no"?>
<svg xmlns:xlink="http://www.w3.org/1999/xlink" height="26.9px" width="61.15px" xmlns="http://www.w3.org/2000/svg">
  <g transform="matrix(1.0, 0.0, 0.0, 1.0, 0.15, 0.6)">
    <use height="26.9" transform="matrix(1.0, 0.0, 0.0, 1.0, -0.15, -0.6)" width="61.15" xlink:href="#shape0"/>
  </g>
  <defs>
    <g id="shape0" transform="matrix(1.0, 0.0, 0.0, 1.0, 0.15, 0.6)">
      <path d="M51.25 -0.4 L54.6 -0.6 Q57.15 -0.35 59.3 2.55 L61.0 5.55 56.05 4.55 53.6 7.45 54.95 10.05 60.35 11.05 60.2 12.0 Q59.8 13.3 57.8 14.45 54.7 16.2 52.8 15.95 L52.25 18.25 Q50.75 17.65 49.05 17.2 L49.2 15.9 48.25 15.85 48.1 17.3 48.05 17.3 Q47.8 17.05 47.5 17.1 L42.15 16.1 Q39.3 15.85 22.0 20.85 6.25 25.45 5.1 26.1 4.35 26.5 3.05 26.1 1.35 25.45 0.3 23.3 -0.7 21.15 0.5 19.6 L1.95 18.65 20.2 14.1 Q38.5 9.4 40.3 8.5 42.0 7.85 45.2 4.3 L48.2 0.95 49.4 0.05 49.45 0.15 49.85 -0.05 49.1 7.1 50.05 7.2 50.8 -0.2 51.25 -0.4 M43.6 8.3 L43.35 13.55 43.4 14.05 43.75 14.15 45.7 14.35 45.95 14.3 46.15 14.15 46.3 13.9 46.75 8.6 46.55 8.2 46.25 8.05 44.15 7.9 43.9 7.9 43.75 8.1 43.6 8.3 M40.85 12.9 Q40.75 12.15 40.25 11.6 L40.2 11.55 Q39.6 11.0 38.7 10.85 L38.3 11.0 37.9 11.0 6.0 18.75 5.7 19.0 5.6 19.35 5.75 19.65 Q7.7 21.1 7.25 23.65 7.1 23.85 7.25 23.95 L7.5 24.15 7.85 24.25 39.5 14.9 39.6 14.9 40.25 14.45 Q40.85 13.85 40.85 13.0 L40.85 12.9 M38.4 12.0 L38.85 11.95 Q39.2 11.95 39.5 12.3 L39.45 12.3 39.85 13.0 39.6 13.7 39.5 13.75 39.25 13.95 39.25 13.9 8.3 23.0 Q8.5 20.85 7.15 19.45 L38.1 12.0 38.2 12.0 38.4 12.0 M3.75 20.05 Q2.85 20.2 2.25 20.8 1.65 21.4 1.65 22.3 1.65 23.3 2.35 23.9 3.0 24.5 3.9 24.45 4.8 24.45 5.4 23.85 6.0 23.2 6.0 22.2 6.0 21.4 5.35 20.75 4.7 20.15 3.75 20.05" fill="#ffffff" fill-rule="evenodd" stroke="none"/>
    </g>
  </defs>
</svg>
