<?xml version="1.0" encoding="UTF-8" standalone="no"?>
<svg xmlns:xlink="http://www.w3.org/1999/xlink" height="25.05px" width="140.95px" xmlns="http://www.w3.org/2000/svg">
  <g transform="matrix(1.0, 0.0, 0.0, 1.0, 0.75, 0.75)">
    <use height="25.05" transform="matrix(1.0, 0.0, 0.0, 1.0, -0.75, -0.75)" width="140.95" xlink:href="#shape0"/>
  </g>
  <defs>
    <g id="shape0" transform="matrix(1.0, 0.0, 0.0, 1.0, 0.75, 0.75)">
      <path d="M139.45 4.55 Q124.9 2.2 110.35 1.8 L111.7 3.15 Q112.95 4.6 112.6 5.2 111.55 7.2 107.25 5.5 L102.15 3.05 99.65 1.65 70.1 2.3 69.3 2.2 Q68.4 2.0 67.75 1.6 L66.7 0.55 66.45 0.0 Q65.65 0.45 64.8 0.85 L64.9 1.3 64.7 1.9 63.95 1.95 63.5 1.85 62.8 2.25 62.85 2.65 62.55 3.25 61.8 3.2 61.4 3.0 60.7 3.25 60.7 3.65 Q60.6 4.15 60.3 4.25 L59.6 4.1 59.25 3.85 58.35 4.0 58.25 4.4 57.7 4.8 Q57.3 4.85 56.95 4.5 L56.7 4.15 55.75 4.15 55.65 4.5 Q55.45 4.8 55.05 4.8 54.65 4.8 54.45 4.45 L54.25 4.1 53.3 4.0 53.2 4.35 52.55 4.75 Q52.1 4.7 51.85 4.3 L51.7 3.9 48.9 3.7 46.9 3.1 Q44.2 2.45 40.95 2.3 38.7 2.2 35.25 2.25 L22.2 3.05 Q15.45 3.8 9.95 5.1 5.15 6.2 4.65 6.85 L4.3 7.4 2.2 7.9 Q0.05 8.7 0.0 10.45 -0.1 11.95 0.7 14.05 L1.5 15.85 1.8 20.95 3.0 22.75 3.7 22.8 5.1 22.7 12.9 20.6 Q20.8 18.5 24.55 18.2 30.45 17.65 36.15 19.2 L39.8 20.3 42.1 20.75 45.6 19.5 Q49.2 18.25 51.75 18.1 54.2 17.95 57.75 19.0 L60.75 20.1 Q62.1 19.25 62.2 20.75 L62.95 20.95 Q64.2 20.05 64.4 21.6 L65.05 21.9 Q66.4 20.95 66.5 22.6 L67.25 22.9 Q68.35 21.9 68.6 23.55 L70.6 23.55 70.8 22.1 Q71.2 20.6 72.15 20.25 73.05 19.85 74.4 21.1 L75.55 22.35 76.0 22.1 76.05 21.7 Q76.15 21.3 76.55 21.1 L77.45 21.0 77.85 21.15 77.85 20.85 Q77.9 20.55 78.1 20.45 L78.6 20.5 78.8 20.7 78.85 20.4 79.15 20.05 79.65 20.2 79.8 20.4 80.0 20.1 Q80.25 19.8 80.7 19.75 L81.55 20.0 81.8 20.2 81.9 19.95 82.25 19.7 Q82.5 19.7 82.7 19.95 L82.85 20.2 82.9 19.95 83.25 19.7 83.8 19.95 84.05 20.2 Q84.05 20.05 84.2 19.95 84.4 19.7 84.8 19.7 L85.7 20.05 86.1 20.35 86.2 20.15 Q86.35 19.95 86.6 19.95 86.9 19.95 87.1 20.25 L87.25 20.5 87.35 20.3 87.75 20.1 Q88.05 20.1 88.35 20.4 L88.55 20.65 88.9 20.45 89.65 20.25 Q90.0 20.3 90.4 20.65 L90.75 20.95 Q109.6 23.75 126.5 17.45 L139.45 4.55 M104.85 9.15 L104.2 9.45 78.45 10.45 Q77.8 10.4 77.3 9.9 76.7 9.35 76.7 8.6 76.7 7.8 77.3 7.25 77.8 6.75 78.45 6.7 L104.2 7.5 104.85 7.8 105.1 8.5 104.85 9.15 M55.5 9.65 Q56.1 10.25 56.1 11.15 56.1 12.05 55.5 12.7 54.85 13.3 53.95 13.3 53.05 13.3 52.45 12.7 51.8 12.05 51.8 11.15 51.8 10.25 52.45 9.65 53.05 9.0 53.95 9.0 54.85 9.0 55.5 9.65 M1.85 9.0 L2.4 9.25 2.65 9.85 2.4 10.45 1.85 10.7 1.25 10.45 1.0 9.85 Q1.0 9.5 1.25 9.25 1.5 9.0 1.85 9.0 M6.3 15.45 Q5.7 14.8 5.7 13.9 5.7 13.0 6.3 12.4 6.95 11.75 7.85 11.75 8.75 11.75 9.35 12.4 10.0 13.0 10.0 13.9 10.0 14.8 9.35 15.45 8.75 16.05 7.85 16.05 6.95 16.05 6.3 15.45" fill="none" stroke="#000000" stroke-linecap="round" stroke-linejoin="round" stroke-opacity="0.49803922" stroke-width="1.5"/>
      <path d="M139.45 4.55 Q124.9 2.2 110.35 1.8 L111.7 3.15 Q112.95 4.6 112.6 5.2 111.55 7.2 107.25 5.5 L102.15 3.05 99.65 1.65 70.1 2.3 69.3 2.2 Q68.4 2.0 67.75 1.6 L66.7 0.55 66.45 0.0 Q65.65 0.45 64.8 0.85 L64.9 1.3 64.7 1.9 63.95 1.95 63.5 1.85 62.8 2.25 62.85 2.65 62.55 3.25 61.8 3.2 61.4 3.0 60.7 3.25 60.7 3.65 Q60.6 4.15 60.3 4.25 L59.6 4.1 59.25 3.85 58.35 4.0 58.25 4.4 57.7 4.8 Q57.3 4.85 56.95 4.5 L56.7 4.15 55.75 4.15 55.65 4.5 Q55.45 4.8 55.05 4.8 54.65 4.8 54.45 4.45 L54.25 4.1 53.3 4.0 53.2 4.35 52.55 4.75 Q52.1 4.7 51.85 4.3 L51.7 3.9 48.9 3.7 46.9 3.1 Q44.2 2.45 40.95 2.3 38.7 2.2 35.25 2.25 L22.2 3.05 Q15.45 3.8 9.95 5.1 5.15 6.2 4.65 6.85 L4.3 7.4 2.2 7.9 Q0.05 8.7 0.0 10.45 -0.1 11.95 0.7 14.05 L1.5 15.85 1.8 20.95 3.0 22.75 3.7 22.8 5.1 22.7 12.9 20.6 Q20.8 18.5 24.55 18.2 30.45 17.65 36.15 19.2 L39.8 20.3 42.1 20.75 45.6 19.5 Q49.2 18.25 51.75 18.1 54.2 17.95 57.75 19.0 L60.75 20.1 Q62.1 19.25 62.2 20.75 L62.95 20.95 Q64.2 20.05 64.4 21.6 L65.05 21.9 Q66.4 20.95 66.5 22.6 L67.25 22.9 Q68.35 21.9 68.6 23.55 L70.6 23.55 70.8 22.1 Q71.2 20.6 72.15 20.25 73.05 19.85 74.4 21.1 L75.55 22.35 76.0 22.1 76.05 21.7 Q76.15 21.3 76.55 21.1 L77.45 21.0 77.85 21.15 77.85 20.85 Q77.9 20.55 78.1 20.45 L78.6 20.5 78.8 20.7 78.85 20.4 79.15 20.05 79.65 20.2 79.8 20.4 80.0 20.1 Q80.25 19.8 80.7 19.75 L81.55 20.0 81.8 20.2 81.9 19.95 82.25 19.7 Q82.5 19.7 82.7 19.95 L82.85 20.2 82.9 19.95 83.25 19.7 83.8 19.95 84.05 20.2 Q84.05 20.05 84.2 19.95 84.4 19.7 84.8 19.7 L85.7 20.05 86.1 20.35 86.2 20.15 Q86.35 19.95 86.6 19.95 86.9 19.95 87.1 20.25 L87.25 20.5 87.35 20.3 87.75 20.1 Q88.05 20.1 88.35 20.4 L88.55 20.65 88.9 20.45 89.65 20.25 Q90.0 20.3 90.4 20.65 L90.75 20.95 Q109.6 23.75 126.5 17.45 L139.45 4.55 M104.85 9.15 L104.2 9.45 78.45 10.45 Q77.8 10.4 77.3 9.9 76.7 9.35 76.7 8.6 76.7 7.8 77.3 7.25 77.8 6.75 78.45 6.7 L104.2 7.5 104.85 7.8 105.1 8.5 104.85 9.15 M55.5 9.65 Q56.1 10.25 56.1 11.15 56.1 12.05 55.5 12.7 54.85 13.3 53.95 13.3 53.05 13.3 52.45 12.7 51.8 12.05 51.8 11.15 51.8 10.25 52.45 9.65 53.05 9.0 53.95 9.0 54.85 9.0 55.5 9.65 M1.85 9.0 L2.4 9.25 2.65 9.85 2.4 10.45 1.85 10.7 1.25 10.45 1.0 9.85 Q1.0 9.5 1.25 9.25 1.5 9.0 1.85 9.0 M6.3 15.45 Q5.7 14.8 5.7 13.9 5.7 13.0 6.3 12.4 6.95 11.75 7.85 11.75 8.75 11.75 9.35 12.4 10.0 13.0 10.0 13.9 10.0 14.8 9.35 15.45 8.75 16.05 7.85 16.05 6.95 16.05 6.3 15.45" fill="none" stroke="#000000" stroke-linecap="round" stroke-linejoin="round" stroke-width="0.5"/>
    </g>
  </defs>
</svg>
