<?xml version="1.0" encoding="UTF-8" standalone="no"?>
<svg xmlns:xlink="http://www.w3.org/1999/xlink" height="82.5px" width="82.25px" xmlns="http://www.w3.org/2000/svg">
  <g transform="matrix(1.0, 0.0, 0.0, 1.0, 0.0, 2.2)">
    <use height="82.5" transform="matrix(1.0, 0.0, 0.0, 1.0, 0.0, -2.2)" width="82.25" xlink:href="#shape0"/>
  </g>
  <defs>
    <g id="shape0" transform="matrix(1.0, 0.0, 0.0, 1.0, 0.0, 2.2)">
      <path d="M81.0 13.0 L74.75 19.25 69.7 24.25 61.9 22.45 41.35 42.95 Q42.05 44.5 42.05 46.3 42.05 49.7 39.6 52.1 37.2 54.55 33.8 54.55 30.45 54.55 27.95 52.1 25.5 49.7 25.5 46.3 25.5 42.95 27.95 40.45 30.45 38.0 33.8 38.0 35.75 38.0 37.35 38.8 L58.0 18.25 56.15 10.3 57.35 9.1 66.5 0.0 68.7 -2.2 69.25 0.0 71.5 9.25 74.75 10.0 82.25 11.75 81.0 13.0 M46.45 14.8 L46.9 15.0 47.2 15.1 Q51.1 16.7 54.45 19.2 L50.1 23.5 Q47.65 21.8 44.8 20.65 L44.55 20.55 44.2 20.4 42.95 19.95 41.5 19.55 39.6 19.1 38.55 18.9 37.1 18.7 36.9 18.65 33.9 18.5 Q28.3 18.5 23.3 20.6 18.3 22.7 14.35 26.55 10.4 30.55 8.3 35.65 6.15 40.75 6.15 46.3 6.15 51.8 8.3 56.85 10.4 61.9 14.35 65.85 18.3 69.85 23.3 71.9 L26.0 72.85 28.5 73.5 29.2 73.65 30.2 73.8 31.75 73.95 33.9 74.05 33.95 74.05 34.15 74.05 Q39.7 74.05 44.8 71.95 49.9 69.9 53.8 65.9 57.75 61.9 59.8 56.9 61.9 51.85 61.9 46.3 61.9 40.8 59.8 35.65 58.65 32.75 56.85 30.25 L61.2 25.9 Q63.85 29.35 65.5 33.45 68.05 39.7 68.05 46.45 68.05 53.2 65.5 59.35 63.0 65.5 58.15 70.35 53.4 75.25 47.2 77.75 40.95 80.3 34.15 80.3 L33.95 80.3 33.85 80.3 31.25 80.2 29.35 80.0 28.15 79.8 27.3 79.65 24.2 78.85 20.95 77.7 Q14.85 75.2 10.0 70.3 5.2 65.45 2.6 59.3 0.0 53.15 0.0 46.4 0.0 39.65 2.6 33.4 5.2 27.2 10.0 22.35 14.85 17.6 20.95 15.05 27.05 12.5 33.9 12.5 L37.55 12.7 37.75 12.75 39.55 13.0 40.85 13.2 43.15 13.75 44.9 14.25 46.45 14.8 M41.55 26.45 L41.85 26.55 42.05 26.6 Q43.75 27.3 45.3 28.3 L41.2 32.45 40.1 31.95 39.9 31.9 39.75 31.8 39.05 31.55 38.25 31.35 37.2 31.1 36.6 30.95 35.8 30.9 35.7 30.85 34.0 30.75 Q30.9 30.75 28.15 31.95 25.35 33.1 23.2 35.2 21.0 37.45 19.8 40.3 18.6 43.1 18.6 46.2 18.6 49.25 19.8 52.1 21.0 54.85 23.2 57.05 25.35 59.3 28.15 60.4 L29.65 60.95 31.05 61.3 31.4 61.4 31.95 61.5 32.8 61.55 34.05 61.6 34.2 61.6 Q37.25 61.6 40.1 60.4 42.9 59.3 45.1 57.05 47.25 54.85 48.4 52.1 49.6 49.3 49.6 46.2 49.6 43.15 48.4 40.3 L47.9 39.15 52.0 35.1 53.55 38.15 Q55.15 42.1 55.15 46.35 55.15 50.6 53.55 54.45 51.95 58.3 48.9 61.35 45.95 64.45 42.05 66.0 38.1 67.65 33.85 67.65 L33.7 67.65 33.65 67.65 32.0 67.55 30.8 67.45 30.05 67.3 29.5 67.2 27.55 66.7 25.55 66.0 Q21.7 64.4 18.65 61.35 15.6 58.3 14.0 54.4 12.35 50.55 12.35 46.3 12.35 42.05 14.0 38.15 15.6 34.25 18.65 31.2 21.7 28.2 25.55 26.6 29.35 25.0 33.65 25.0 L35.95 25.1 36.1 25.15 37.25 25.3 38.05 25.4 39.5 25.75 40.6 26.1 41.55 26.45" fill="#417ca9" fill-rule="evenodd" stroke="none"/>
    </g>
  </defs>
</svg>
