<?xml version="1.0" encoding="UTF-8" standalone="no"?>
<svg xmlns:xlink="http://www.w3.org/1999/xlink" height="28.8px" width="30.25px" xmlns="http://www.w3.org/2000/svg">
  <g transform="matrix(1.0, 0.0, 0.0, 1.0, -11.3, -6.25)">
    <use height="28.8" transform="matrix(1.0, 0.0, 0.0, 1.0, 11.3, 6.25)" width="30.25" xlink:href="#shape0"/>
  </g>
  <defs>
    <g id="shape0" transform="matrix(1.0, 0.0, 0.0, 1.0, -11.3, -6.25)">
      <path d="M41.55 32.0 Q41.55 33.2 40.75 34.1 39.85 35.05 38.55 35.05 L31.9 35.05 32.05 33.5 32.3 31.25 32.5 28.95 32.75 27.1 33.2 25.1 33.9 23.2 34.8 21.15 36.4 16.8 34.65 7.85 32.2 8.15 32.75 15.65 32.25 16.75 31.7 17.8 31.15 19.0 30.55 19.9 29.9 20.4 29.15 20.75 25.55 20.75 24.25 20.85 23.2 21.1 22.2 21.4 21.75 22.1 21.25 23.05 20.85 24.2 20.5 25.45 19.75 28.5 19.9 35.05 15.9 35.05 14.7 34.8 Q14.2 34.55 13.75 34.1 L13.05 33.15 12.8 32.0 12.8 9.3 Q12.8 8.0 13.75 7.1 14.7 6.25 15.9 6.25 L38.55 6.25 Q39.85 6.25 40.75 7.1 41.55 8.0 41.55 9.3 L41.55 32.0 M27.4 13.2 Q26.0 13.2 25.0 14.2 24.05 15.2 24.05 16.55 24.05 17.95 25.0 19.0 26.0 20.0 27.4 20.0 28.8 20.0 29.8 19.0 30.75 17.95 30.75 16.55 30.75 15.2 29.8 14.2 28.8 13.2 27.4 13.2 M11.3 17.85 L11.4 18.4 11.3 19.05 11.3 17.85 M23.8 35.05 L22.65 35.05 23.2 28.05 23.8 35.05" fill="#9d511b" fill-rule="evenodd" stroke="none"/>
    </g>
  </defs>
</svg>
