<?xml version="1.0" encoding="UTF-8" standalone="no"?>
<svg xmlns:xlink="http://www.w3.org/1999/xlink" height="36.1px" width="57.8px" xmlns="http://www.w3.org/2000/svg">
  <g transform="matrix(1.0, 0.0, 0.0, 1.0, 0.8, -0.15)">
    <use height="36.1" transform="matrix(1.0, 0.0, 0.0, 1.0, -0.8, 0.15)" width="57.8" xlink:href="#shape0"/>
  </g>
  <defs>
    <g id="shape0" transform="matrix(1.0, 0.0, 0.0, 1.0, 0.8, -0.15)">
      <path d="M51.45 6.85 L50.75 6.85 50.7 6.8 50.65 6.7 50.45 6.6 50.4 6.55 50.2 6.45 50.15 6.45 50.2 6.4 50.2 6.2 50.2 6.05 50.15 5.85 50.1 5.75 50.0 5.55 49.95 5.4 49.95 5.3 49.95 5.25 49.95 5.15 49.95 5.05 50.0 5.0 50.0 4.9 50.05 4.8 50.05 4.7 50.05 4.65 50.0 4.6 49.95 4.5 49.85 4.4 49.8 4.35 49.65 4.3 49.5 4.3 49.55 4.2 49.55 4.0 49.55 3.85 49.5 3.65 49.45 3.55 49.3 3.35 49.3 3.2 49.3 3.15 49.3 3.05 49.3 2.95 49.3 2.85 49.2 2.85 49.15 2.75 48.95 2.65 48.95 2.6 48.75 2.5 48.7 2.5 48.55 2.45 48.5 2.4 48.3 2.3 48.2 2.3 48.15 2.25 48.0 2.2 47.8 2.2 47.65 2.25 47.6 2.3 46.85 2.3 46.8 2.25 46.7 2.2 46.55 2.2 46.55 2.15 46.5 2.1 46.4 2.05 46.3 1.95 46.25 1.85 46.1 1.75 46.05 1.65 46.05 1.55 45.95 1.45 45.85 1.35 45.8 1.3 45.65 1.2 45.5 1.1 45.4 1.05 45.2 1.0 45.0 0.9 44.9 0.9 44.9 0.95 44.8 0.95 44.75 1.0 44.7 1.0 9.6 1.0 9.4 1.0 9.25 1.0 9.2 1.05 9.15 1.1 9.1 1.1 9.1 1.15 8.9 1.2 8.75 1.25 8.7 1.3 8.6 1.35 8.5 1.4 8.5 1.5 8.4 1.55 8.4 1.65 8.4 1.75 8.35 1.8 8.25 1.9 8.2 2.0 8.1 2.1 8.05 2.15 7.95 2.2 7.95 2.3 7.9 2.4 7.8 2.3 7.65 2.3 7.5 2.35 7.4 2.4 7.3 2.45 7.05 2.5 7.05 2.45 6.9 2.45 6.75 2.4 6.7 2.3 6.5 2.2 6.4 2.15 6.25 2.1 5.8 2.1 5.65 2.1 5.6 2.15 5.45 2.25 5.3 2.35 5.25 2.45 5.25 2.5 5.25 2.6 5.25 2.65 5.25 2.75 5.25 2.85 5.25 2.9 5.15 2.95 5.0 3.0 4.9 3.05 4.85 3.15 4.8 3.2 4.75 3.3 4.7 3.4 4.65 3.5 4.65 3.55 4.55 3.6 4.55 3.7 4.55 3.8 4.55 4.05 4.55 4.15 4.55 4.2 4.65 4.3 4.65 4.35 4.7 4.45 4.75 4.5 2.05 4.5 2.05 4.4 2.0 4.35 1.95 4.3 1.75 4.2 1.65 4.2 1.65 4.25 1.4 4.3 1.25 4.3 1.2 4.35 0.95 4.4 0.75 4.5 0.6 4.55 0.55 4.6 0.45 4.65 0.4 4.75 0.35 4.85 0.3 4.95 0.2 5.05 0.1 5.15 0.0 5.25 -0.05 5.35 -0.05 5.4 -0.05 5.5 0.0 5.55 -0.05 5.55 -0.05 5.65 -0.05 5.75 -0.05 5.8 -0.05 5.9 -0.05 5.95 -0.05 6.05 -0.05 6.1 -0.05 6.2 -0.05 6.3 -0.05 6.4 -0.05 6.45 -0.05 6.55 -0.05 6.6 -0.05 6.7 -0.05 6.8 -0.05 6.85 -0.05 6.95 -0.05 7.05 -0.05 7.15 -0.05 7.25 -0.05 7.35 -0.05 7.45 -0.05 7.55 -0.05 7.6 -0.05 7.7 -0.05 7.8 -0.05 7.9 -0.05 8.0 -0.05 8.1 -0.05 8.2 -0.05 8.3 -0.05 8.35 -0.05 8.45 -0.05 8.55 -0.05 8.65 -0.05 8.75 -0.05 8.85 -0.05 8.95 -0.05 9.0 -0.05 9.1 -0.05 9.2 -0.05 9.25 -0.05 9.35 -0.05 9.4 -0.05 9.5 -0.05 9.6 -0.05 9.7 -0.05 9.75 -0.05 9.85 -0.05 9.9 -0.05 10.0 -0.05 10.1 -0.05 10.15 -0.05 10.25 -0.05 10.35 -0.05 10.45 -0.05 10.55 -0.05 10.65 -0.05 10.75 -0.05 10.85 -0.05 10.9 -0.05 11.0 -0.05 11.1 -0.05 11.2 -0.05 11.3 -0.05 11.4 -0.05 11.5 -0.05 11.55 -0.05 11.65 -0.05 11.75 -0.05 11.85 -0.05 11.95 -0.05 12.05 -0.05 12.15 -0.05 12.25 -0.05 12.3 -0.05 12.4 -0.05 12.5 -0.05 12.55 -0.05 12.65 -0.05 12.7 -0.05 12.8 -0.05 12.9 -0.05 13.0 -0.05 13.05 -0.05 13.15 -0.05 13.2 -0.05 13.3 -0.05 13.4 -0.05 13.45 -0.05 13.55 -0.05 13.65 -0.05 13.75 -0.05 13.85 -0.05 13.95 -0.05 14.05 -0.05 14.1 -0.05 14.2 -0.05 14.3 -0.05 14.4 -0.05 14.5 -0.05 14.6 -0.05 14.7 -0.05 14.8 -0.05 14.85 -0.05 14.95 -0.05 15.05 -0.05 15.15 -0.05 15.25 -0.05 15.35 -0.05 15.45 -0.05 15.55 -0.05 15.6 -0.05 15.7 -0.05 15.8 -0.05 15.85 -0.05 15.95 -0.05 16.0 -0.05 16.1 -0.05 16.2 -0.05 16.3 -0.05 16.35 -0.05 16.45 -0.05 16.5 -0.05 16.6 -0.05 16.65 -0.05 16.75 -0.05 16.85 -0.05 16.95 -0.05 17.05 -0.05 17.15 -0.05 17.25 -0.05 17.35 -0.05 17.4 -0.05 17.5 -0.05 17.6 -0.05 17.7 -0.05 17.8 -0.05 17.9 -0.05 18.0 -0.05 18.1 -0.05 18.15 -0.05 18.25 -0.05 18.35 -0.05 18.45 -0.05 18.55 0.05 18.65 0.1 18.75 0.3 18.8 0.6 18.85 0.85 18.9 1.3 19.0 1.55 19.0 1.9 18.95 2.05 18.9 2.2 18.9 2.4 18.9 2.55 18.9 2.6 18.85 2.7 18.85 2.75 18.75 2.85 18.7 2.95 18.65 3.0 18.55 3.1 18.5 3.1 18.4 3.15 18.3 3.15 18.2 3.25 18.15 3.3 18.05 3.35 18.0 3.4 17.9 3.4 17.8 3.45 17.75 3.45 17.65 3.55 17.55 3.55 17.5 3.6 17.45 3.7 17.4 3.8 17.2 3.85 17.05 3.9 16.95 3.95 16.9 3.95 16.8 3.95 16.7 4.0 16.55 4.1 16.35 4.2 16.2 4.2 16.05 4.35 15.9 4.4 15.7 4.55 15.55 4.55 15.4 4.6 15.2 4.6 15.05 4.75 14.85 4.8 14.75 4.85 14.55 4.9 14.4 4.95 14.2 5.0 14.1 5.2 13.9 5.3 13.8 5.3 13.7 5.3 13.6 5.3 13.5 5.35 13.4 5.35 13.35 5.35 13.25 5.35 13.15 5.4 13.05 5.45 13.05 5.45 12.95 5.5 12.85 5.5 12.75 5.5 12.65 5.5 12.6 5.5 12.5 5.5 12.4 5.5 12.35 5.55 12.3 5.55 12.2 5.6 12.1 5.6 12.0 5.6 11.95 5.65 11.85 5.65 11.75 5.65 11.7 5.7 11.6 5.7 11.55 5.75 11.45 5.75 11.35 5.75 11.25 5.8 11.2 5.9 11.2 5.9 11.3 5.9 11.4 5.95 11.5 5.95 11.55 5.95 11.65 6.0 11.75 6.1 11.85 6.2 11.9 6.3 11.95 6.3 12.05 6.3 12.1 6.3 12.2 6.4 12.3 6.5 12.35 6.7 12.4 12.15 12.4 12.25 12.4 12.4 12.4 12.5 12.4 12.6 12.4 12.85 12.4 12.95 12.4 13.0 12.4 13.15 12.4 13.25 12.45 13.3 12.5 13.3 12.55 13.35 12.65 13.4 12.7 13.45 12.75 13.55 12.85 13.6 12.95 13.8 13.0 13.95 13.0 14.0 12.95 14.05 12.85 17.45 12.75 17.6 12.75 17.75 12.8 17.95 12.85 18.1 12.85 18.15 12.8 18.25 12.75 18.35 12.65 18.35 12.6 18.4 12.5 18.4 12.4 18.45 12.35 18.55 12.4 18.65 12.5 18.7 12.6 18.7 12.65 18.7 12.75 18.7 12.85 18.7 12.95 18.7 13.0 18.8 13.05 18.85 13.15 18.85 13.25 18.85 13.35 18.85 13.4 18.85 13.5 18.85 13.6 18.8 13.65 18.7 13.75 18.7 13.8 18.7 13.9 18.7 14.0 18.7 14.1 18.7 14.15 18.7 14.25 18.7 14.3 18.7 14.4 18.7 14.5 18.7 14.55 18.7 14.65 18.7 14.75 18.7 14.85 18.65 14.9 18.65 14.95 18.65 15.05 18.65 15.15 18.55 15.2 18.5 15.3 18.5 15.4 18.5 15.5 18.5 15.6 18.4 15.6 18.4 15.7 18.35 15.8 18.3 15.9 18.3 15.95 18.3 16.05 18.3 16.15 18.3 16.25 18.2 16.3 18.2 16.35 18.2 16.45 18.1 16.55 18.05 16.65 18.05 16.7 18.05 16.8 18.05 16.9 17.95 16.95 17.95 17.05 17.95 17.1 17.95 17.2 17.95 17.3 17.95 17.4 17.9 17.5 17.9 17.6 17.85 17.6 17.85 17.7 17.85 17.75 17.85 17.85 17.85 17.95 17.85 18.05 17.85 18.15 17.85 18.25 17.85 18.35 17.8 18.45 17.75 18.5 17.75 18.6 17.75 18.7 17.75 18.8 17.75 18.9 17.75 19.0 17.75 19.1 17.75 19.2 17.75 19.25 17.75 19.35 17.75 19.45 17.75 19.55 17.75 19.65 17.75 19.75 17.75 19.85 17.75 19.95 17.75 20.0 17.75 20.1 17.75 20.2 17.75 20.3 17.75 20.4 17.75 20.5 17.75 20.6 17.75 20.7 17.75 20.75 17.75 20.85 17.75 20.9 17.75 21.0 17.75 21.05 17.75 21.15 17.75 21.25 17.75 21.35 17.75 21.4 17.75 21.5 17.75 21.55 17.75 21.65 17.75 21.75 17.75 21.8 17.75 21.9 17.75 22.0 17.75 22.1 17.75 22.2 17.75 22.3 17.85 22.4 17.85 22.5 17.85 22.55 17.85 22.65 17.85 22.75 17.85 22.85 17.85 22.95 17.85 23.05 17.9 23.15 17.95 23.25 17.95 23.3 17.95 23.4 17.95 23.5 17.95 23.6 18.05 23.7 18.15 23.8 18.35 23.85 18.4 23.85 18.5 23.9 18.6 23.95 18.75 23.95 18.95 23.95 18.95 24.0 18.95 24.1 18.95 24.2 18.95 24.3 18.95 24.4 18.95 24.5 18.95 24.6 18.95 24.7 18.95 24.75 18.95 24.85 18.95 24.95 18.95 25.05 18.95 25.15 18.95 25.25 18.95 25.35 18.95 25.4 18.95 25.5 18.95 25.6 18.95 25.7 18.95 25.8 18.95 25.9 18.95 26.0 18.95 26.1 18.95 26.15 18.95 26.25 18.95 26.35 18.95 26.4 18.95 26.5 18.95 26.55 18.95 26.65 19.0 26.75 19.05 26.85 19.05 26.9 19.05 27.0 19.05 27.05 19.05 27.15 19.05 27.25 19.05 27.3 19.05 27.4 19.05 27.5 19.05 27.6 19.1 27.65 19.15 27.7 19.15 27.8 19.15 27.9 19.2 27.95 19.25 28.05 19.3 28.15 19.3 28.25 19.3 28.35 19.3 28.45 19.3 28.55 19.35 28.65 19.4 28.7 19.4 28.8 19.4 28.9 19.4 29.0 19.4 29.1 19.45 29.2 19.5 29.3 19.5 29.4 19.5 29.45 19.5 29.55 19.5 29.65 19.5 29.7 19.5 29.8 19.5 29.85 19.5 29.95 19.55 30.05 19.6 30.15 19.6 30.2 19.6 30.3 19.6 30.35 19.6 30.45 19.6 30.5 19.6 30.6 19.65 30.7 19.7 30.8 19.75 30.9 19.75 31.0 19.75 31.1 19.8 31.2 19.8 31.25 19.8 31.35 19.8 31.45 19.8 31.55 19.85 31.6 19.95 31.65 19.95 31.75 19.95 31.85 19.95 31.95 20.0 32.0 20.05 32.1 20.05 32.2 20.05 32.3 20.05 32.4 20.15 32.5 20.15 32.6 20.15 32.7 20.15 32.75 20.15 32.85 20.2 32.95 20.25 33.0 20.25 33.05 20.25 33.15 20.25 33.25 20.3 33.35 20.35 33.45 20.4 33.5 20.4 33.6 20.4 33.65 20.5 33.75 20.5 33.8 20.5 33.9 20.5 34.0 20.5 34.1 20.5 34.15 20.6 34.25 20.6 34.3 20.6 34.4 20.7 34.5 20.7 34.55 20.7 34.65 20.7 34.75 20.75 34.85 20.85 34.9 20.85 34.95 20.9 35.05 21.0 35.15 21.2 35.2 21.25 35.2 21.25 35.25 21.5 35.25 21.6 35.25 21.7 35.25 22.5 35.25 22.7 35.3 22.7 35.35 22.9 35.45 23.15 35.5 25.15 35.5 25.3 35.45 25.35 35.45 25.5 35.35 25.75 35.3 25.8 35.3 25.95 35.25 27.65 35.25 27.8 35.25 27.85 35.15 27.95 35.05 27.95 34.95 27.95 34.9 27.9 34.85 27.85 34.75 27.85 34.65 27.85 34.55 27.85 34.5 27.85 34.4 27.85 34.3 27.85 34.25 27.85 34.15 27.85 34.1 27.85 34.0 27.85 33.9 27.85 33.8 27.85 33.75 27.85 33.65 27.8 33.6 27.75 33.5 27.55 33.45 27.5 33.45 27.5 33.35 27.45 33.25 27.45 33.15 27.45 33.05 27.4 33.0 27.3 32.95 27.25 32.85 27.2 32.75 27.2 32.7 27.2 32.6 27.15 32.5 27.1 32.4 27.1 32.35 27.0 32.3 27.0 32.2 27.0 32.1 27.0 32.0 26.95 31.95 26.9 31.85 26.85 31.75 26.85 31.65 26.85 31.6 26.8 31.55 26.75 31.45 26.75 31.35 26.75 31.25 26.75 31.2 26.75 31.1 26.7 31.0 26.65 30.95 26.65 30.9 26.65 30.8 26.65 30.7 26.65 30.6 26.65 30.5 26.65 30.45 26.55 30.35 26.55 30.3 26.55 30.2 26.55 30.15 26.55 30.05 26.55 29.95 26.55 29.85 26.55 29.8 26.5 29.7 26.4 29.65 26.4 29.55 26.4 29.45 26.4 29.4 26.4 29.3 26.4 29.2 26.4 29.1 26.4 29.05 26.35 29.0 26.35 28.9 26.35 28.8 26.35 28.7 26.35 28.65 26.35 28.55 26.35 28.45 26.35 28.35 26.3 28.35 26.2 28.25 26.2 28.15 26.2 28.05 26.2 27.95 26.2 27.9 26.2 27.8 26.2 27.7 26.1 27.65 26.1 27.6 26.1 27.5 26.1 27.4 26.1 27.3 26.1 27.25 26.1 27.15 26.1 27.05 26.05 27.0 26.0 26.9 26.0 26.85 26.0 26.75 26.0 26.65 26.0 26.55 26.0 26.5 26.0 26.4 26.0 26.35 26.0 26.25 25.95 26.15 25.9 26.1 25.9 26.0 25.9 25.9 25.9 25.8 25.9 25.7 25.9 25.6 25.9 25.5 25.9 25.4 25.9 25.35 25.9 25.25 25.9 25.15 25.85 25.05 25.75 25.05 25.75 24.95 25.75 24.85 25.75 24.75 25.75 24.7 25.75 24.6 25.75 24.5 25.75 24.4 25.75 24.3 25.75 24.2 25.85 24.1 25.85 24.0 25.9 23.95 25.9 23.85 25.9 23.75 26.0 23.7 26.05 23.6 26.1 23.55 26.1 23.5 26.1 23.4 26.1 23.3 26.1 23.25 26.1 23.15 26.1 23.05 26.1 22.95 26.1 22.85 26.05 22.75 26.05 22.65 26.0 22.55 26.0 22.5 26.0 22.4 26.0 22.3 26.0 22.2 26.0 22.1 26.0 22.0 26.0 21.9 26.0 21.8 25.95 21.75 25.9 21.65 25.9 21.55 25.9 21.5 25.9 21.4 25.9 21.35 25.9 21.25 25.9 21.15 25.85 21.05 25.8 21.0 25.75 20.9 25.75 20.85 25.75 20.75 25.75 20.7 25.75 20.6 25.75 20.5 25.75 20.4 25.75 20.3 25.75 20.2 25.75 20.1 25.75 20.0 25.75 19.95 25.7 19.85 25.65 19.75 25.65 19.65 25.65 19.55 25.65 19.45 25.65 19.35 25.65 19.25 25.65 19.2 25.65 19.1 25.65 19.0 25.65 18.9 25.65 18.8 25.65 18.7 25.65 18.6 25.65 18.5 25.65 18.45 25.65 18.35 25.65 18.25 25.65 18.15 25.65 18.05 25.65 17.95 25.65 17.85 25.65 17.75 25.65 17.7 25.65 17.6 25.65 17.55 25.7 17.45 25.75 17.4 25.75 17.3 25.75 17.2 25.75 17.1 25.75 17.05 25.75 16.95 25.75 16.9 25.75 16.8 25.75 16.7 25.75 16.65 25.75 16.55 25.75 16.45 25.75 16.35 25.75 16.25 25.75 16.15 25.75 16.05 25.75 15.95 25.75 15.9 25.75 15.8 25.75 15.7 25.75 15.6 25.8 15.6 25.85 15.55 25.95 15.45 26.0 15.4 26.25 15.4 26.35 15.4 26.45 15.35 30.05 15.25 30.2 15.25 30.25 15.2 31.75 15.2 31.85 15.2 31.95 15.15 32.4 15.05 32.55 15.0 32.65 14.9 32.7 14.85 32.85 14.75 32.9 14.7 32.9 14.6 32.9 14.5 32.95 14.45 33.0 14.35 33.0 14.25 33.1 14.15 33.15 14.1 33.15 14.05 33.15 13.95 33.15 13.85 33.15 13.75 33.15 13.7 33.15 13.6 33.15 13.5 33.25 13.4 33.25 13.3 33.25 13.2 33.3 13.1 33.3 13.05 33.45 12.95 33.55 12.85 33.6 12.75 33.7 12.7 33.8 12.65 34.0 12.55 34.0 12.45 34.0 12.35 34.0 12.3 34.0 12.2 34.1 12.1 34.1 12.05 34.1 11.95 34.1 11.9 34.1 11.8 34.1 11.7 34.1 11.6 34.1 11.55 34.1 11.45 34.1 11.4 34.1 11.3 34.05 11.2 34.0 11.15 34.05 11.1 41.8 11.1 41.95 11.15 41.95 11.2 41.95 11.3 41.95 11.4 41.95 11.5 41.95 11.55 41.95 11.65 41.95 11.75 41.95 11.85 41.95 11.95 41.95 12.05 41.95 12.15 41.95 12.25 41.95 12.3 41.95 12.4 41.95 12.5 41.95 12.55 41.95 12.65 41.95 12.7 41.95 12.8 41.95 12.9 41.95 13.0 41.95 13.05 41.95 13.15 41.95 13.2 41.95 13.3 41.95 13.4 41.95 13.45 41.95 13.55 41.95 13.65 41.95 13.75 41.95 13.85 41.95 13.95 41.95 14.05 41.95 14.1 41.95 14.2 41.95 14.3 41.95 14.4 41.95 14.5 41.95 14.6 41.95 14.7 41.95 14.8 41.95 14.85 41.95 14.95 41.95 15.05 41.95 15.15 41.95 15.25 41.95 15.35 41.95 15.45 41.95 15.55 41.95 15.6 41.95 15.7 41.95 15.8 41.95 15.85 41.95 15.95 41.95 16.0 41.95 16.1 41.95 16.2 41.95 16.3 41.95 16.35 41.95 16.45 41.95 16.5 41.95 16.6 41.95 16.65 41.95 16.75 41.95 16.85 41.95 16.95 41.95 17.05 41.95 17.15 41.95 17.25 41.95 17.35 41.95 17.4 41.95 17.5 41.95 17.6 41.95 17.7 41.95 17.8 41.95 17.9 41.95 18.0 41.95 18.1 41.95 18.15 41.9 18.25 41.85 18.35 41.8 18.45 41.8 18.55 41.8 18.65 41.8 18.75 41.8 18.85 41.8 18.9 41.8 19.0 41.8 19.1 41.8 19.2 41.8 19.3 41.75 19.4 41.7 19.5 41.7 19.6 41.7 19.65 41.7 19.75 41.7 19.8 41.7 19.9 41.7 19.95 41.7 20.05 41.7 20.15 41.7 20.25 41.7 20.3 41.7 20.4 41.7 20.45 41.7 20.55 41.7 20.65 41.7 20.7 41.7 20.8 41.7 20.9 41.7 21.0 41.7 21.1 41.7 21.2 41.7 21.3 41.7 21.4 41.7 21.45 41.7 21.55 41.7 21.75 41.7 21.85 41.7 21.95 41.7 22.0 41.7 22.1 41.7 22.15 41.75 22.25 41.8 22.35 41.8 22.45 41.85 22.5 41.95 22.6 41.95 22.65 42.0 22.75 42.0 22.85 42.05 22.9 42.1 23.0 42.15 23.1 42.2 23.2 42.3 23.25 42.4 23.3 42.45 23.4 42.55 23.5 42.6 23.6 42.7 23.65 42.75 23.75 42.9 23.85 43.05 23.95 43.1 23.95 43.3 24.05 43.45 24.15 43.6 24.2 43.7 24.25 43.8 24.3 43.9 24.3 44.1 24.3 44.15 24.35 44.35 24.4 44.55 24.45 44.55 24.5 44.7 24.5 44.9 24.55 44.95 24.6 45.15 24.65 45.2 24.7 45.3 24.7 45.4 24.8 45.6 24.85 46.1 24.9 46.2 24.95 46.35 24.95 46.45 24.95 46.6 24.95 46.65 24.9 46.75 24.85 46.75 24.75 46.8 24.7 46.85 24.6 46.85 24.5 46.85 24.4 46.85 24.3 46.85 24.2 46.85 24.1 46.85 24.0 46.85 23.95 46.85 23.85 46.85 23.75 46.85 23.7 46.85 23.6 46.85 23.55 46.85 23.45 46.85 23.35 46.85 23.25 46.85 23.2 46.85 23.1 46.85 23.05 46.85 22.95 46.85 22.85 46.85 22.8 46.85 22.7 46.85 22.6 46.85 22.5 46.85 22.4 46.85 22.3 46.85 22.2 46.85 22.15 46.85 22.05 46.85 21.95 46.85 21.85 46.85 21.75 46.85 21.65 46.85 21.55 46.85 21.45 46.85 21.4 46.85 21.3 46.85 21.2 46.85 21.1 46.85 21.0 46.85 20.9 46.85 20.8 46.85 20.7 46.85 20.65 46.85 20.55 46.85 20.45 46.85 20.4 46.85 20.3 46.85 20.25 46.85 20.15 46.85 20.05 46.85 19.95 46.85 19.9 46.85 19.8 46.85 19.75 46.85 19.65 46.85 19.6 46.85 19.5 46.85 19.4 46.85 19.3 46.85 19.2 46.85 19.1 46.85 19.0 46.85 18.9 46.85 18.85 46.85 18.75 46.85 18.65 46.85 18.55 46.85 18.45 46.85 18.35 46.85 18.25 46.85 18.15 46.85 18.1 46.85 18.0 46.85 17.9 46.85 17.8 46.85 17.7 46.85 17.6 46.85 17.5 46.85 17.4 46.85 17.35 46.85 17.25 46.85 17.15 46.85 17.05 46.85 16.95 46.85 16.85 46.85 16.75 46.85 16.65 46.85 16.6 46.85 16.5 46.85 16.45 46.85 16.35 46.85 16.3 46.85 16.2 46.85 16.1 46.85 16.0 46.85 15.95 46.85 15.85 46.85 15.8 46.85 15.7 46.85 15.6 46.85 15.55 46.85 15.45 46.85 15.35 46.85 15.25 46.85 15.15 46.85 15.05 46.85 14.95 46.85 14.85 46.85 14.8 46.85 14.7 46.85 14.6 46.85 14.5 46.85 14.4 46.85 14.3 46.85 14.2 46.85 14.1 46.85 14.05 46.85 13.95 46.85 13.85 46.85 13.75 46.85 13.65 46.85 13.55 46.85 13.45 46.85 13.4 46.85 13.3 46.85 13.2 46.85 13.15 46.85 13.05 46.85 13.0 46.85 12.9 46.85 12.8 46.85 12.7 46.85 12.65 46.85 12.55 46.85 12.5 46.85 12.4 46.85 12.3 46.85 12.25 46.85 12.15 46.85 12.05 46.85 11.95 46.85 11.85 46.85 11.75 46.85 11.7 46.95 11.65 46.95 11.55 47.0 11.5 47.0 11.4 47.05 11.3 47.2 11.2 47.35 11.2 47.4 11.1 47.4 11.05 47.45 11.05 47.6 11.0 47.85 10.85 48.05 10.7 48.2 10.55 48.25 10.4 48.35 10.25 48.5 10.25 48.55 10.3 48.75 10.35 48.8 10.35 48.85 10.45 48.95 10.55 49.05 10.65 49.15 10.75 49.2 10.85 49.3 10.9 49.35 11.0 49.45 11.1 49.55 11.2 49.65 11.2 49.7 11.3 49.8 11.4 49.9 11.5 49.95 11.55 50.0 11.65 50.05 11.75 50.1 11.85 50.15 11.9 50.25 11.95 50.3 12.05 50.5 12.1 50.7 12.05 50.75 11.95 50.8 11.9 50.8 11.85 50.8 11.75 50.8 11.65 50.8 11.55 50.8 11.5 50.9 11.4 50.95 11.3 50.95 11.2 50.95 11.1 50.95 11.0 50.95 10.9 50.95 10.85 50.9 10.75 50.85 10.65 50.8 10.55 50.9 10.5 51.05 10.35 51.1 10.3 51.75 10.25 51.75 10.15 55.95 10.15 56.25 9.85 56.25 7.15 56.0 6.9 51.45 6.9 51.45 6.85 Z" fill="none" stroke="#000000" stroke-linecap="round" stroke-linejoin="round" stroke-opacity="0.4" stroke-width="1.5"/>
      <path d="M50.65 6.7 L50.45 6.6 50.4 6.55 50.2 6.45 50.15 6.45 50.2 6.4 50.2 6.2 50.2 6.05 50.15 5.85 50.1 5.75 50.0 5.55 49.95 5.4 49.95 5.3 49.95 5.25 49.95 5.15 49.95 5.05 50.0 5.0 50.0 4.9 50.05 4.8 50.05 4.7 50.05 4.65 50.0 4.6 49.95 4.5 49.85 4.4 49.8 4.35 49.65 4.3 49.5 4.3 49.55 4.2 49.55 4.0 49.55 3.85 49.5 3.65 49.45 3.55 49.3 3.35 49.3 3.2 49.3 3.15 49.3 3.05 49.3 2.95 49.3 2.85 49.2 2.85 49.15 2.75 48.95 2.65 48.95 2.6 48.75 2.5 48.7 2.5 48.55 2.45 48.5 2.4 48.3 2.3 48.2 2.3 48.15 2.25 48.0 2.2 47.8 2.2 47.65 2.25 47.6 2.3 46.85 2.3 46.8 2.25 46.7 2.2 46.55 2.2 46.55 2.15 46.5 2.1 46.4 2.05 46.3 1.95 46.25 1.85 46.1 1.75 46.05 1.65 46.05 1.55 45.95 1.45 45.85 1.35 45.8 1.3 45.65 1.2 45.5 1.1 45.4 1.05 45.2 1.0 45.0 0.9 44.9 0.9 44.9 0.95 44.8 0.95 44.75 1.0 44.7 1.0 9.6 1.0 9.4 1.0 9.25 1.0 9.2 1.05 9.15 1.1 9.1 1.1 9.1 1.15 8.9 1.2 8.75 1.25 8.7 1.3 8.6 1.35 8.5 1.4 8.5 1.5 8.4 1.55 8.4 1.65 8.4 1.75 8.35 1.8 8.25 1.9 8.2 2.0 8.1 2.1 8.05 2.15 7.95 2.2 7.95 2.3 7.9 2.4 7.8 2.3 7.65 2.3 7.5 2.35 7.4 2.4 7.3 2.45 7.05 2.5 7.05 2.45 6.9 2.45 6.75 2.4 6.7 2.3 6.5 2.2 6.4 2.15 6.25 2.1 5.8 2.1 5.65 2.1 5.6 2.15 5.45 2.25 5.3 2.35 5.25 2.45 5.25 2.5 5.25 2.6 5.25 2.65 5.25 2.75 5.25 2.85 5.25 2.9 5.15 2.95 5.0 3.0 4.9 3.05 4.85 3.15 4.8 3.2 4.75 3.3 4.7 3.4 4.65 3.5 4.65 3.55 4.55 3.6 4.55 3.7 4.55 3.8 4.55 4.05 4.55 4.15 4.55 4.2 4.65 4.3 4.65 4.35 4.7 4.45 4.75 4.5 2.05 4.5 2.05 4.4 2.0 4.35 1.95 4.3 1.75 4.2 1.65 4.2 1.65 4.25 1.4 4.3 1.25 4.3 1.2 4.35 0.95 4.4 0.75 4.5 0.6 4.55 0.55 4.6 0.45 4.65 0.4 4.75 0.35 4.85 0.3 4.95 0.2 5.05 0.1 5.15 0.0 5.25 -0.05 5.35 -0.05 5.4 -0.05 5.5 0.0 5.55 -0.05 5.55 -0.05 5.65 -0.05 5.75 -0.05 5.8 -0.05 5.9 -0.05 5.95 -0.05 6.05 -0.05 6.1 -0.05 6.2 -0.05 6.3 -0.05 6.4 -0.05 6.45 -0.05 6.55 -0.05 6.6 -0.05 6.7 -0.05 6.8 -0.05 6.85 -0.05 6.95 -0.05 7.05 -0.05 7.15 -0.05 7.25 -0.05 7.35 -0.05 7.45 -0.05 7.55 -0.05 7.6 -0.05 7.7 -0.05 7.8 -0.05 7.9 -0.05 8.0 -0.05 8.1 -0.05 8.2 -0.05 8.3 -0.05 8.35 -0.05 8.45 -0.05 8.55 -0.05 8.65 -0.05 8.75 -0.05 8.85 -0.05 8.95 -0.05 9.0 -0.05 9.1 -0.05 9.2 -0.05 9.25 -0.05 9.35 -0.05 9.4 -0.05 9.5 -0.05 9.6 -0.05 9.7 -0.05 9.75 -0.05 9.85 -0.05 9.9 -0.05 10.0 -0.05 10.1 -0.05 10.15 -0.05 10.25 -0.05 10.35 -0.05 10.45 -0.05 10.55 -0.05 10.65 -0.05 10.75 -0.05 10.85 -0.05 10.9 -0.05 11.0 -0.05 11.1 -0.05 11.2 -0.05 11.3 -0.05 11.4 -0.05 11.5 -0.05 11.55 -0.05 11.65 -0.05 11.75 -0.05 11.85 -0.05 11.95 -0.05 12.05 -0.05 12.15 -0.05 12.25 -0.05 12.3 -0.05 12.4 -0.05 12.5 -0.05 12.55 -0.05 12.65 -0.05 12.7 -0.05 12.8 -0.05 12.9 -0.05 13.0 -0.05 13.05 -0.05 13.15 -0.05 13.2 -0.05 13.3 -0.05 13.4 -0.05 13.45 -0.05 13.55 -0.05 13.65 -0.05 13.75 -0.05 13.85 -0.05 13.95 -0.05 14.05 -0.05 14.1 -0.05 14.2 -0.05 14.3 -0.05 14.4 -0.05 14.5 -0.05 14.6 -0.05 14.7 -0.05 14.8 -0.05 14.85 -0.05 14.95 -0.05 15.05 -0.05 15.15 -0.05 15.25 -0.05 15.35 -0.05 15.45 -0.05 15.55 -0.05 15.6 -0.05 15.7 -0.05 15.8 -0.05 15.85 -0.05 15.95 -0.05 16.0 -0.05 16.1 -0.05 16.2 -0.05 16.3 -0.05 16.35 -0.05 16.45 -0.05 16.5 -0.05 16.6 -0.05 16.65 -0.05 16.75 -0.05 16.85 -0.05 16.95 -0.05 17.05 -0.05 17.15 -0.05 17.25 -0.05 17.35 -0.05 17.4 -0.05 17.5 -0.05 17.6 -0.05 17.7 -0.05 17.8 -0.05 17.9 -0.05 18.0 -0.05 18.1 -0.05 18.15 -0.05 18.25 -0.05 18.35 -0.05 18.45 -0.05 18.55 0.05 18.65 0.1 18.75 0.3 18.8 0.6 18.85 0.85 18.9 1.3 19.0 1.55 19.0 1.9 18.95 2.05 18.9 2.2 18.9 2.4 18.9 2.55 18.9 2.6 18.85 2.7 18.85 2.75 18.75 2.85 18.7 2.95 18.65 3.0 18.55 3.1 18.5 3.1 18.4 3.15 18.3 3.15 18.2 3.25 18.15 3.3 18.05 3.35 18.0 3.4 17.9 3.4 17.8 3.45 17.75 3.45 17.65 3.55 17.55 3.55 17.5 3.6 17.45 3.7 17.4 3.8 17.2 3.85 17.05 3.9 16.95 3.95 16.9 3.95 16.8 3.95 16.7 4.0 16.55 4.1 16.35 4.2 16.2 4.2 16.05 4.35 15.9 4.4 15.7 4.55 15.55 4.55 15.4 4.6 15.2 4.6 15.05 4.75 14.85 4.8 14.75 4.85 14.55 4.9 14.4 4.95 14.2 5.0 14.1 5.2 13.9 5.3 13.8 5.3 13.7 5.3 13.6 5.3 13.5 5.35 13.4 5.35 13.35 5.35 13.25 5.35 13.15 5.4 13.05 5.45 13.05 5.45 12.95 5.5 12.85 5.5 12.75 5.5 12.65 5.5 12.6 5.5 12.5 5.5 12.4 5.5 12.35 5.55 12.3 5.55 12.2 5.6 12.1 5.6 12.0 5.6 11.95 5.65 11.85 5.65 11.75 5.65 11.7 5.7 11.6 5.7 11.55 5.75 11.45 5.75 11.35 5.75 11.25 5.8 11.2 5.9 11.2 5.9 11.3 5.9 11.4 5.95 11.5 5.95 11.55 5.95 11.65 6.0 11.75 6.1 11.85 6.2 11.9 6.3 11.95 6.3 12.05 6.3 12.1 6.3 12.2 6.4 12.3 6.5 12.35 6.7 12.4 12.15 12.4 12.25 12.4 12.4 12.4 12.5 12.4 12.6 12.4 12.85 12.4 12.95 12.4 13.0 12.4 13.15 12.4 13.25 12.45 13.3 12.5 13.3 12.55 13.35 12.65 13.4 12.7 13.45 12.75 13.55 12.85 13.6 12.95 13.8 13.0 13.95 13.0 14.0 12.95 14.05 12.85 17.45 12.75 17.6 12.75 17.75 12.8 17.95 12.85 18.1 12.85 18.15 12.8 18.25 12.75 18.35 12.65 18.35 12.6 18.4 12.5 18.4 12.4 18.45 12.35 18.55 12.4 18.65 12.5 18.7 12.6 18.7 12.65 18.7 12.75 18.7 12.85 18.7 12.95 18.7 13.0 18.8 13.05 18.85 13.15 18.85 13.25 18.85 13.35 18.85 13.4 18.85 13.5 18.85 13.6 18.8 13.65 18.7 13.75 18.7 13.8 18.7 13.9 18.7 14.0 18.7 14.1 18.7 14.15 18.7 14.25 18.7 14.3 18.7 14.4 18.7 14.5 18.7 14.55 18.7 14.65 18.7 14.75 18.7 14.85 18.65 14.9 18.65 14.95 18.65 15.05 18.65 15.15 18.55 15.2 18.5 15.3 18.5 15.4 18.5 15.5 18.5 15.6 18.4 15.6 18.4 15.7 18.35 15.8 18.3 15.9 18.3 15.95 18.3 16.05 18.3 16.15 18.3 16.25 18.2 16.3 18.2 16.35 18.2 16.45 18.1 16.55 18.05 16.65 18.05 16.7 18.05 16.8 18.05 16.9 17.95 16.95 17.95 17.05 17.95 17.1 17.95 17.2 17.95 17.3 17.95 17.4 17.9 17.5 17.9 17.6 17.85 17.6 17.85 17.7 17.85 17.75 17.85 17.85 17.85 17.95 17.85 18.05 17.85 18.15 17.85 18.25 17.85 18.35 17.8 18.45 17.75 18.5 17.75 18.6 17.75 18.7 17.75 18.8 17.75 18.9 17.75 19.0 17.75 19.1 17.75 19.2 17.75 19.25 17.75 19.35 17.75 19.45 17.75 19.55 17.75 19.65 17.75 19.75 17.75 19.85 17.75 19.95 17.75 20.0 17.75 20.1 17.75 20.2 17.75 20.3 17.75 20.4 17.75 20.5 17.75 20.6 17.75 20.7 17.75 20.75 17.75 20.85 17.75 20.9 17.75 21.0 17.75 21.05 17.75 21.15 17.75 21.25 17.75 21.35 17.75 21.4 17.75 21.5 17.75 21.55 17.75 21.65 17.75 21.75 17.75 21.8 17.75 21.9 17.75 22.0 17.75 22.1 17.75 22.2 17.75 22.3 17.85 22.4 17.85 22.5 17.85 22.55 17.85 22.65 17.85 22.75 17.85 22.85 17.85 22.95 17.85 23.05 17.9 23.15 17.95 23.25 17.95 23.3 17.95 23.4 17.95 23.5 17.95 23.6 18.05 23.7 18.15 23.8 18.35 23.85 18.4 23.85 18.5 23.9 18.6 23.95 18.75 23.95 18.95 23.95 18.95 24.0 18.95 24.1 18.95 24.2 18.95 24.3 18.95 24.4 18.95 24.5 18.95 24.6 18.95 24.7 18.95 24.75 18.95 24.85 18.95 24.95 18.95 25.05 18.95 25.15 18.95 25.25 18.95 25.35 18.95 25.4 18.95 25.5 18.95 25.6 18.95 25.7 18.95 25.8 18.95 25.9 18.95 26.0 18.95 26.1 18.95 26.15 18.95 26.25 18.95 26.35 18.95 26.4 18.95 26.5 18.95 26.55 18.95 26.65 19.0 26.75 19.05 26.85 19.05 26.9 19.05 27.0 19.05 27.05 19.05 27.15 19.05 27.25 19.05 27.3 19.05 27.4 19.05 27.5 19.05 27.6 19.1 27.65 19.15 27.7 19.15 27.8 19.15 27.9 19.2 27.95 19.25 28.05 19.3 28.15 19.3 28.25 19.3 28.35 19.3 28.45 19.3 28.55 19.35 28.65 19.4 28.7 19.4 28.8 19.4 28.9 19.4 29.0 19.4 29.1 19.45 29.2 19.5 29.3 19.5 29.4 19.5 29.45 19.5 29.55 19.5 29.65 19.5 29.7 19.5 29.8 19.5 29.85 19.5 29.95 19.55 30.05 19.6 30.15 19.6 30.2 19.6 30.3 19.6 30.35 19.6 30.45 19.6 30.5 19.6 30.6 19.65 30.7 19.7 30.8 19.75 30.9 19.75 31.0 19.75 31.1 19.8 31.2 19.8 31.25 19.8 31.35 19.8 31.45 19.8 31.55 19.85 31.6 19.95 31.65 19.95 31.75 19.95 31.85 19.95 31.95 20.0 32.0 20.05 32.1 20.05 32.2 20.05 32.3 20.05 32.4 20.15 32.5 20.15 32.6 20.15 32.7 20.15 32.75 20.15 32.85 20.2 32.95 20.25 33.0 20.25 33.05 20.25 33.15 20.25 33.25 20.3 33.35 20.35 33.45 20.4 33.5 20.4 33.6 20.4 33.65 20.5 33.75 20.5 33.8 20.5 33.9 20.5 34.0 20.5 34.1 20.5 34.15 20.6 34.25 20.6 34.3 20.6 34.4 20.7 34.5 20.7 34.55 20.7 34.65 20.7 34.75 20.75 34.85 20.85 34.9 20.85 34.95 20.9 35.05 21.0 35.15 21.2 35.2 21.25 35.2 21.25 35.25 21.5 35.25 21.6 35.25 21.7 35.25 22.5 35.25 22.7 35.3 22.7 35.35 22.9 35.45 23.15 35.5 25.15 35.5 25.3 35.45 25.35 35.45 25.5 35.35 25.75 35.3 25.8 35.3 25.95 35.25 27.65 35.25 27.8 35.25 27.85 35.15 27.95 35.05 27.95 34.95 27.95 34.9 27.9 34.85 27.85 34.75 27.85 34.65 27.85 34.55 27.85 34.5 27.85 34.4 27.85 34.3 27.85 34.25 27.85 34.15 27.85 34.1 27.85 34.0 27.85 33.9 27.85 33.8 27.85 33.75 27.85 33.65 27.8 33.6 27.75 33.5 27.55 33.45 27.5 33.45 27.5 33.35 27.45 33.25 27.45 33.15 27.45 33.05 27.4 33.0 27.3 32.95 27.25 32.85 27.2 32.75 27.2 32.7 27.2 32.6 27.15 32.5 27.1 32.4 27.1 32.35 27.0 32.3 27.0 32.2 27.0 32.1 27.0 32.0 26.95 31.95 26.9 31.85 26.85 31.75 26.85 31.65 26.85 31.6 26.8 31.55 26.75 31.45 26.75 31.35 26.75 31.25 26.75 31.2 26.75 31.1 26.7 31.0 26.65 30.95 26.65 30.9 26.65 30.8 26.65 30.7 26.65 30.6 26.65 30.5 26.65 30.45 26.55 30.35 26.55 30.3 26.55 30.2 26.55 30.15 26.55 30.05 26.55 29.95 26.55 29.85 26.55 29.8 26.5 29.7 26.4 29.65 26.4 29.55 26.4 29.45 26.4 29.4 26.4 29.3 26.4 29.2 26.4 29.1 26.4 29.05 26.35 29.0 26.35 28.9 26.35 28.8 26.35 28.7 26.35 28.65 26.35 28.55 26.35 28.45 26.35 28.35 26.3 28.35 26.2 28.25 26.2 28.15 26.2 28.05 26.2 27.95 26.2 27.9 26.2 27.8 26.2 27.7 26.1 27.65 26.1 27.6 26.1 27.5 26.1 27.4 26.1 27.3 26.1 27.25 26.1 27.15 26.1 27.05 26.05 27.0 26.0 26.9 26.0 26.85 26.0 26.75 26.0 26.65 26.0 26.55 26.0 26.5 26.0 26.4 26.0 26.35 26.0 26.25 25.95 26.15 25.9 26.1 25.9 26.0 25.9 25.9 25.9 25.8 25.9 25.7 25.9 25.6 25.9 25.5 25.9 25.4 25.9 25.35 25.9 25.25 25.9 25.15 25.85 25.05 25.75 25.05 25.75 24.95 25.75 24.85 25.75 24.75 25.75 24.7 25.75 24.6 25.75 24.5 25.75 24.4 25.75 24.3 25.75 24.2 25.85 24.1 25.85 24.0 25.9 23.95 25.9 23.85 25.9 23.75 26.0 23.7 26.05 23.6 26.1 23.55 26.1 23.5 26.1 23.4 26.1 23.3 26.1 23.25 26.1 23.15 26.1 23.05 26.1 22.95 26.1 22.85 26.05 22.75 26.05 22.65 26.0 22.55 26.0 22.5 26.0 22.4 26.0 22.3 26.0 22.2 26.0 22.1 26.0 22.0 26.0 21.9 26.0 21.8 25.95 21.75 25.9 21.65 25.9 21.55 25.9 21.5 25.9 21.4 25.9 21.35 25.9 21.25 25.9 21.15 25.85 21.05 25.8 21.0 25.75 20.9 25.75 20.85 25.75 20.75 25.75 20.7 25.75 20.6 25.75 20.5 25.75 20.4 25.75 20.3 25.75 20.2 25.75 20.1 25.75 20.0 25.75 19.95 25.7 19.85 25.65 19.75 25.65 19.65 25.65 19.55 25.65 19.45 25.65 19.35 25.65 19.25 25.65 19.2 25.65 19.1 25.65 19.0 25.65 18.9 25.65 18.8 25.65 18.7 25.65 18.6 25.65 18.5 25.65 18.45 25.65 18.35 25.65 18.25 25.65 18.15 25.65 18.05 25.65 17.95 25.65 17.85 25.65 17.75 25.65 17.7 25.65 17.6 25.65 17.55 25.7 17.45 25.75 17.4 25.75 17.3 25.75 17.2 25.75 17.1 25.75 17.05 25.75 16.95 25.75 16.9 25.75 16.8 25.75 16.7 25.75 16.65 25.75 16.55 25.75 16.45 25.75 16.35 25.75 16.25 25.75 16.15 25.75 16.05 25.75 15.95 25.75 15.9 25.75 15.8 25.75 15.7 25.75 15.6 25.8 15.6 25.85 15.55 25.95 15.45 26.0 15.4 26.25 15.4 26.35 15.4 26.45 15.35 30.05 15.25 30.2 15.25 30.25 15.2 31.75 15.2 31.85 15.2 31.95 15.15 32.4 15.05 32.55 15.0 32.65 14.9 32.7 14.85 32.85 14.75 32.9 14.7 32.9 14.6 32.9 14.5 32.95 14.45 33.0 14.35 33.0 14.25 33.1 14.15 33.15 14.1 33.15 14.05 33.15 13.95 33.15 13.85 33.15 13.75 33.15 13.7 33.15 13.6 33.15 13.5 33.25 13.4 33.25 13.3 33.25 13.2 33.3 13.1 33.3 13.05 33.45 12.95 33.55 12.85 33.6 12.75 33.7 12.7 33.8 12.65 34.0 12.55 34.0 12.45 34.0 12.35 34.0 12.3 34.0 12.2 34.1 12.1 34.1 12.05 34.1 11.95 34.1 11.9 34.1 11.8 34.1 11.7 34.1 11.6 34.1 11.55 34.1 11.45 34.1 11.4 34.1 11.3 34.05 11.2 34.0 11.15 34.05 11.1 41.8 11.1 41.95 11.15 41.95 11.2 41.95 11.3 41.95 11.4 41.95 11.5 41.95 11.55 41.95 11.65 41.95 11.75 41.95 11.85 41.95 11.95 41.95 12.05 41.95 12.15 41.95 12.25 41.95 12.3 41.95 12.4 41.95 12.5 41.95 12.55 41.95 12.65 41.95 12.7 41.95 12.8 41.95 12.9 41.95 13.0 41.95 13.05 41.95 13.15 41.95 13.2 41.95 13.3 41.95 13.4 41.95 13.45 41.95 13.55 41.95 13.65 41.95 13.75 41.95 13.85 41.95 13.95 41.95 14.05 41.95 14.1 41.95 14.2 41.95 14.3 41.95 14.4 41.95 14.5 41.95 14.6 41.95 14.7 41.95 14.8 41.95 14.85 41.95 14.95 41.95 15.05 41.95 15.15 41.95 15.25 41.95 15.35 41.95 15.45 41.95 15.55 41.95 15.6 41.95 15.7 41.95 15.8 41.95 15.85 41.95 15.95 41.95 16.0 41.95 16.1 41.95 16.2 41.95 16.3 41.95 16.35 41.95 16.45 41.95 16.5 41.95 16.6 41.95 16.65 41.95 16.75 41.95 16.85 41.95 16.95 41.95 17.05 41.95 17.15 41.95 17.25 41.95 17.35 41.95 17.4 41.95 17.5 41.95 17.6 41.95 17.7 41.95 17.8 41.95 17.9 41.95 18.0 41.95 18.1 41.95 18.15 41.9 18.25 41.85 18.35 41.8 18.45 41.8 18.55 41.8 18.65 41.8 18.75 41.8 18.85 41.8 18.9 41.8 19.0 41.8 19.1 41.8 19.2 41.8 19.3 41.75 19.4 41.7 19.5 41.7 19.6 41.7 19.65 41.7 19.75 41.7 19.8 41.7 19.9 41.7 19.95 41.7 20.05 41.7 20.15 41.7 20.25 41.7 20.3 41.7 20.4 41.7 20.45 41.7 20.55 41.7 20.65 41.7 20.7 41.7 20.8 41.7 20.9 41.7 21.0 41.7 21.1 41.7 21.2 41.7 21.3 41.7 21.4 41.7 21.45 41.7 21.55 41.7 21.75 41.7 21.85 41.7 21.95 41.7 22.0 41.7 22.1 41.7 22.15 41.75 22.25 41.8 22.35 41.8 22.45 41.85 22.5 41.95 22.6 41.95 22.65 42.0 22.75 42.0 22.85 42.05 22.9 42.1 23.0 42.15 23.1 42.2 23.2 42.3 23.25 42.4 23.3 42.45 23.4 42.55 23.5 42.6 23.6 42.7 23.65 42.75 23.75 42.9 23.85 43.05 23.95 43.1 23.95 43.3 24.05 43.45 24.15 43.6 24.2 43.7 24.25 43.8 24.3 43.9 24.3 44.1 24.3 44.15 24.35 44.35 24.4 44.55 24.45 44.55 24.5 44.7 24.5 44.9 24.55 44.95 24.6 45.15 24.65 45.2 24.7 45.3 24.7 45.4 24.8 45.6 24.85 46.1 24.9 46.2 24.95 46.35 24.95 46.45 24.95 46.6 24.95 46.65 24.9 46.75 24.85 46.75 24.75 46.8 24.7 46.85 24.6 46.85 24.5 46.85 24.4 46.85 24.3 46.85 24.2 46.85 24.1 46.85 24.0 46.85 23.95 46.85 23.85 46.85 23.75 46.85 23.7 46.85 23.6 46.85 23.55 46.85 23.45 46.85 23.35 46.85 23.25 46.85 23.2 46.85 23.1 46.85 23.05 46.85 22.95 46.85 22.85 46.85 22.8 46.85 22.7 46.85 22.6 46.85 22.5 46.85 22.4 46.85 22.3 46.85 22.2 46.85 22.15 46.85 22.05 46.85 21.95 46.85 21.85 46.85 21.75 46.85 21.65 46.85 21.55 46.85 21.45 46.85 21.4 46.85 21.3 46.85 21.2 46.85 21.1 46.85 21.0 46.85 20.9 46.85 20.8 46.85 20.7 46.85 20.65 46.85 20.55 46.85 20.45 46.85 20.4 46.85 20.3 46.85 20.25 46.85 20.15 46.85 20.05 46.85 19.95 46.85 19.9 46.85 19.8 46.85 19.75 46.85 19.65 46.85 19.6 46.85 19.5 46.85 19.4 46.85 19.3 46.85 19.2 46.85 19.1 46.85 19.0 46.85 18.9 46.85 18.85 46.85 18.75 46.85 18.65 46.85 18.55 46.85 18.45 46.85 18.35 46.85 18.25 46.85 18.15 46.85 18.1 46.85 18.0 46.85 17.9 46.85 17.8 46.85 17.7 46.85 17.6 46.85 17.5 46.85 17.4 46.85 17.35 46.85 17.25 46.85 17.15 46.85 17.05 46.85 16.95 46.85 16.85 46.85 16.75 46.85 16.65 46.85 16.6 46.85 16.5 46.85 16.45 46.85 16.35 46.85 16.3 46.85 16.2 46.85 16.1 46.85 16.0 46.85 15.95 46.85 15.85 46.85 15.8 46.85 15.7 46.85 15.6 46.85 15.55 46.85 15.45 46.85 15.35 46.85 15.25 46.85 15.15 46.85 15.05 46.85 14.95 46.85 14.85 46.85 14.8 46.85 14.7 46.85 14.6 46.85 14.5 46.85 14.4 46.85 14.3 46.85 14.2 46.85 14.1 46.85 14.05 46.85 13.95 46.85 13.85 46.85 13.75 46.85 13.65 46.85 13.55 46.85 13.45 46.85 13.4 46.85 13.3 46.85 13.2 46.85 13.15 46.85 13.05 46.85 13.0 46.85 12.9 46.85 12.8 46.85 12.7 46.85 12.65 46.85 12.55 46.85 12.5 46.85 12.4 46.85 12.3 46.85 12.25 46.85 12.15 46.85 12.05 46.85 11.95 46.85 11.85 46.85 11.75 46.85 11.7 46.95 11.65 46.95 11.55 47.0 11.5 47.0 11.4 47.05 11.3 47.2 11.2 47.35 11.2 47.4 11.1 47.4 11.05 47.45 11.05 47.6 11.0 47.85 10.85 48.05 10.7 48.2 10.55 48.25 10.4 48.35 10.25 48.5 10.25 48.55 10.3 48.75 10.35 48.8 10.35 48.85 10.45 48.95 10.55 49.05 10.65 49.15 10.75 49.2 10.85 49.3 10.9 49.35 11.0 49.45 11.1 49.55 11.2 49.65 11.2 49.7 11.3 49.8 11.4 49.9 11.5 49.95 11.55 50.0 11.65 50.05 11.75 50.1 11.85 50.15 11.9 50.25 11.95 50.3 12.05 50.5 12.1 50.7 12.05 50.75 11.95 50.8 11.9 50.8 11.85 50.8 11.75 50.8 11.65 50.8 11.55 50.8 11.5 50.9 11.4 50.95 11.3 50.95 11.2 50.95 11.1 50.95 11.0 50.95 10.9 50.95 10.85 50.9 10.75 50.85 10.65 50.8 10.55 50.9 10.5 51.05 10.35 51.1 10.3 51.75 10.25 51.75 10.15 55.95 10.15 56.25 9.85 56.25 7.15 56.0 6.9 51.45 6.9 51.45 6.85 50.75 6.85 50.7 6.8 50.65 6.7 Z" fill="none" stroke="#000000" stroke-linecap="round" stroke-linejoin="round" stroke-width="0.5"/>
    </g>
  </defs>
</svg>
