<?xml version="1.0" encoding="UTF-8" standalone="no"?>
<svg xmlns:xlink="http://www.w3.org/1999/xlink" height="35.75px" width="27.3px" xmlns="http://www.w3.org/2000/svg">
  <g transform="matrix(1.0, 0.0, 0.0, 1.0, 0.0, 0.0)">
    <use height="35.75" transform="matrix(1.0, 0.0, 0.0, 1.0, 0.0, 0.0)" width="27.3" xlink:href="#shape0"/>
  </g>
  <defs>
    <g id="shape0" transform="matrix(1.0, 0.0, 0.0, 1.0, 0.0, 0.0)">
      <path d="M26.35 18.75 L19.5 18.9 19.5 16.7 26.35 16.9 Q26.7 16.9 27.0 17.2 L27.3 17.85 27.0 18.55 26.35 18.75 M24.3 8.5 Q24.7 8.6 24.85 8.9 L24.95 9.65 24.6 10.25 19.5 13.25 19.5 10.65 23.6 8.6 24.3 8.5 M18.3 2.45 L18.75 2.95 18.7 3.65 17.05 6.75 16.25 6.55 14.65 6.55 17.05 2.7 Q17.25 2.4 17.65 2.25 L18.3 2.45 M10.5 6.55 L8.3 6.55 8.45 0.95 Q8.45 0.5 8.75 0.25 9.0 0.0 9.4 0.0 9.75 0.0 10.05 0.25 L10.35 0.95 10.5 6.55 M1.75 2.7 L4.1 6.55 1.6 6.55 0.15 3.65 Q-0.05 3.3 0.05 2.95 L0.45 2.45 Q0.8 2.15 1.15 2.25 1.5 2.4 1.75 2.7 M17.35 29.35 L18.7 32.05 18.75 32.8 18.3 33.3 17.65 33.45 Q17.25 33.35 17.05 33.0 L14.9 29.5 16.25 29.5 16.8 29.45 17.35 29.35 M10.35 34.8 L10.05 35.5 9.4 35.75 8.75 35.5 Q8.45 35.2 8.45 34.8 L8.3 29.5 10.5 29.5 10.35 34.8 M3.9 29.5 L1.75 33.0 1.15 33.45 0.45 33.3 0.05 32.8 Q-0.05 32.4 0.15 32.05 L1.35 29.5 3.9 29.5 M24.85 26.85 L24.3 27.25 23.6 27.15 19.5 24.9 19.5 22.4 24.6 25.5 24.95 26.1 24.85 26.85" fill="#990000" fill-rule="evenodd" stroke="none"/>
    </g>
  </defs>
</svg>
