<?xml version="1.0" encoding="UTF-8" standalone="no"?>
<svg xmlns:xlink="http://www.w3.org/1999/xlink" height="32.9px" width="19.3px" xmlns="http://www.w3.org/2000/svg">
  <g transform="matrix(1.0, 0.0, 0.0, 1.0, 1.0, 1.0)">
    <use height="32.9" transform="matrix(1.0, 0.0, 0.0, 1.0, -1.0, -1.0)" width="19.3" xlink:href="#shape0"/>
  </g>
  <defs>
    <g id="shape0" transform="matrix(1.0, 0.0, 0.0, 1.0, 1.0, 1.0)">
      <path d="M9.55 5.75 Q13.6 5.9 17.3 7.3 L17.3 24.2 17.2 25.5 17.2 25.55 Q17.2 26.85 16.25 28.0 L15.9 28.45 15.8 28.45 14.65 29.3 Q12.2 30.9 8.65 30.9 5.1 30.9 2.6 29.3 0.1 27.7 0.1 25.5 L0.1 25.4 0.0 24.2 0.0 7.3 Q3.8 5.9 7.9 5.75 L7.9 0.0 9.55 0.0 9.55 5.75 Z" fill="none" stroke="#000000" stroke-linecap="round" stroke-linejoin="round" stroke-opacity="0.4" stroke-width="2.0"/>
      <path d="M8.75 10.2 Q10.35 10.2 11.5 11.35 12.7 12.5 12.7 14.15 12.7 15.75 11.5 16.85 10.35 18.05 8.75 18.05 7.05 18.05 5.9 16.85 4.7 15.75 4.7 14.15 4.7 12.5 5.9 11.35 7.05 10.2 8.75 10.2" fill="#000000" fill-rule="evenodd" stroke="none"/>
      <path d="M7.9 5.75 L7.9 0.0 9.55 0.0 9.55 5.75 Q13.6 5.9 17.3 7.3 L17.3 24.2 17.2 25.5 17.2 25.55 Q17.2 26.85 16.25 28.0 L15.9 28.45 15.8 28.45 14.65 29.3 Q12.2 30.9 8.65 30.9 5.1 30.9 2.6 29.3 0.1 27.7 0.1 25.5 L0.1 25.4 0.0 24.2 0.0 7.3 Q3.8 5.9 7.9 5.75 M8.75 10.2 Q7.05 10.2 5.9 11.35 4.7 12.5 4.7 14.15 4.7 15.75 5.9 16.85 7.05 18.05 8.75 18.05 10.35 18.05 11.5 16.85 12.7 15.75 12.7 14.15 12.7 12.5 11.5 11.35 10.35 10.2 8.75 10.2 M8.75 9.0 Q6.55 9.0 5.0 10.45 3.5 12.0 3.5 14.15 3.5 16.3 5.0 17.8 6.55 19.3 8.75 19.3 10.9 19.3 12.4 17.8 13.95 16.3 13.95 14.15 13.95 12.0 12.4 10.45 10.9 9.0 8.75 9.0 10.9 9.0 12.4 10.45 13.95 12.0 13.95 14.15 13.95 16.3 12.4 17.8 10.9 19.3 8.75 19.3 6.55 19.3 5.0 17.8 3.5 16.3 3.5 14.15 3.5 12.0 5.0 10.45 6.55 9.0 8.75 9.0" fill="#cc0000" fill-rule="evenodd" stroke="none"/>
      <path d="M8.75 9.0 Q10.9 9.0 12.4 10.45 13.95 12.0 13.95 14.15 13.95 16.3 12.4 17.8 10.9 19.3 8.75 19.3 6.55 19.3 5.0 17.8 3.5 16.3 3.5 14.15 3.5 12.0 5.0 10.45 6.55 9.0 8.75 9.0 Z" fill="none" stroke="#000000" stroke-linecap="butt" stroke-linejoin="miter" stroke-miterlimit="10.0" stroke-width="1.0"/>
    </g>
  </defs>
</svg>
