<?xml version="1.0" encoding="UTF-8" standalone="no"?>
<svg xmlns:xlink="http://www.w3.org/1999/xlink" height="36.75px" width="146.05px" xmlns="http://www.w3.org/2000/svg">
  <g transform="matrix(1.0, 0.0, 0.0, 1.0, 7.7, -3.15)">
    <use height="35.75" transform="matrix(1.0, 0.0, 0.0, 1.0, -7.25, 3.75)" width="145.05" xlink:href="#sprite0"/>
    <use height="36.75" transform="matrix(1.0, 0.0, 0.0, 1.0, -7.7, 3.15)" width="146.05" xlink:href="#sprite1"/>
  </g>
  <defs>
    <g id="sprite0" transform="matrix(1.0, 0.0, 0.0, 1.0, 2.45, 4.25)">
      <use height="35.75" transform="matrix(1.0, 0.0, 0.0, 1.0, -2.45, -4.25)" width="145.05" xlink:href="#shape0"/>
    </g>
    <g id="shape0" transform="matrix(1.0, 0.0, 0.0, 1.0, 2.45, 4.25)">
      <path d="M142.5 -4.25 L142.6 -0.85 142.5 31.5 -2.35 31.5 -2.45 2.15 3.95 -4.25 142.5 -4.25" fill="#000000" fill-opacity="0.6" fill-rule="evenodd" stroke="none"/>
    </g>
    <g id="sprite1" transform="matrix(1.0, 0.0, 0.0, 1.0, 0.5, 0.5)">
      <use height="36.75" transform="matrix(1.0, 0.0, 0.0, 1.0, -0.5, -0.5)" width="146.05" xlink:href="#shape1"/>
    </g>
    <g id="shape1" transform="matrix(1.0, 0.0, 0.0, 1.0, 0.5, 0.5)">
      <path d="M144.95 0.0 L6.4 0.0 0.0 6.4 0.1 35.75 144.95 35.75 145.05 3.4 144.95 0.0 Z" fill="none" stroke="#6e7d5c" stroke-linecap="round" stroke-linejoin="round" stroke-width="1.0"/>
    </g>
  </defs>
</svg>
