<?xml version="1.0" encoding="UTF-8" standalone="no"?>
<svg xmlns:xlink="http://www.w3.org/1999/xlink" height="33.05px" width="171.25px" xmlns="http://www.w3.org/2000/svg">
  <g transform="matrix(1.0, 0.0, 0.0, 1.0, 0.75, 0.75)">
    <use height="33.05" transform="matrix(1.0, 0.0, 0.0, 1.0, -0.75, -0.75)" width="171.25" xlink:href="#shape0"/>
  </g>
  <defs>
    <g id="shape0" transform="matrix(1.0, 0.0, 0.0, 1.0, 0.75, 0.75)">
      <path d="M169.75 1.8 L169.75 5.35 153.95 5.35 153.95 6.65 166.25 6.65 166.25 6.95 166.75 8.1 Q166.9 9.25 166.25 10.15 L166.05 10.5 153.35 10.5 Q153.35 10.35 152.85 10.7 L152.5 11.0 149.6 11.0 149.15 10.5 139.7 10.5 138.65 11.95 136.95 12.25 136.5 12.25 136.5 14.05 136.3 14.55 135.65 14.85 134.25 14.85 134.25 11.6 133.45 11.6 132.45 11.95 132.4 11.85 131.95 11.6 131.65 12.1 131.55 12.25 130.05 12.75 102.3 12.75 101.3 11.65 101.1 11.35 86.25 11.95 85.5 11.35 85.45 11.2 85.15 11.0 70.65 11.0 69.0 11.6 67.7 12.1 66.55 13.1 65.75 14.2 65.0 15.05 Q64.8 15.35 64.1 15.35 L62.8 15.55 61.0 15.8 59.35 15.8 58.5 15.8 57.7 15.7 56.7 15.8 Q56.4 15.95 55.75 17.25 L54.45 20.35 Q53.65 22.05 53.15 23.8 52.5 25.4 52.5 26.2 L52.5 26.8 Q53.15 27.9 53.6 28.1 53.95 28.3 53.95 28.6 L54.25 28.9 53.15 29.6 50.75 28.6 48.45 27.9 45.7 27.6 43.65 27.35 42.95 26.65 Q42.95 26.15 43.6 25.7 L44.7 23.6 46.15 21.0 47.3 18.25 47.8 16.3 47.3 16.3 47.15 14.85 Q46.95 14.2 46.35 14.05 45.35 13.6 44.3 14.05 L40.55 15.55 32.75 18.75 Q28.15 20.55 23.15 22.9 17.95 25.05 13.6 27.0 L6.2 30.25 3.1 31.55 2.45 31.25 1.9 30.65 0.0 11.95 46.0 6.0 47.3 5.85 48.65 5.35 49.3 5.2 49.9 5.05 50.55 4.85 Q52.0 3.9 52.7 3.9 L52.5 3.9 54.9 2.8 Q57.0 1.8 60.35 1.75 L66.75 1.5 76.7 1.5 89.65 1.75 91.9 1.75 93.7 0.05 95.0 0.05 95.8 0.7 96.1 1.3 96.75 1.75 164.45 1.75 165.85 0.0 166.55 0.05 167.95 1.75 168.3 1.8 169.75 1.8 M63.3 10.15 Q62.7 9.55 61.7 9.55 L58.0 9.55 Q57.0 9.55 56.4 10.15 56.0 10.7 56.0 11.5 56.0 13.25 58.0 13.25 L61.7 13.25 Q63.75 13.25 63.75 11.5 63.75 10.7 63.3 10.15" fill="none" stroke="#000000" stroke-linecap="round" stroke-linejoin="round" stroke-opacity="0.4" stroke-width="1.5"/>
      <path d="M169.75 1.8 L169.75 5.35 153.95 5.35 153.95 6.65 166.25 6.65 166.25 6.95 166.75 8.1 Q166.9 9.25 166.25 10.15 L166.05 10.5 153.35 10.5 Q153.35 10.35 152.85 10.7 L152.5 11.0 149.6 11.0 149.15 10.5 139.7 10.5 138.65 11.95 136.95 12.25 136.5 12.25 136.5 14.05 136.3 14.55 135.65 14.85 134.25 14.85 134.25 11.6 133.45 11.6 132.45 11.95 132.4 11.85 131.95 11.6 131.65 12.1 131.55 12.25 130.05 12.75 102.3 12.75 101.3 11.65 101.1 11.35 86.25 11.95 85.5 11.35 85.45 11.2 85.15 11.0 70.65 11.0 69.0 11.6 67.7 12.1 66.55 13.1 65.75 14.2 65.0 15.05 Q64.8 15.35 64.1 15.35 L62.8 15.55 61.0 15.8 59.35 15.8 58.5 15.8 57.7 15.7 56.7 15.8 Q56.4 15.95 55.75 17.25 L54.45 20.35 Q53.65 22.05 53.15 23.8 52.5 25.4 52.5 26.2 L52.5 26.8 Q53.15 27.9 53.6 28.1 53.95 28.3 53.95 28.6 L54.25 28.9 53.15 29.6 50.75 28.6 48.45 27.9 45.7 27.6 43.65 27.35 42.95 26.65 Q42.95 26.15 43.6 25.7 L44.7 23.6 46.15 21.0 47.3 18.25 47.8 16.3 47.3 16.3 47.15 14.85 Q46.95 14.2 46.35 14.05 45.35 13.6 44.3 14.05 L40.55 15.55 32.75 18.75 Q28.15 20.55 23.15 22.9 17.95 25.05 13.6 27.0 L6.2 30.25 3.1 31.55 2.45 31.25 1.9 30.65 0.0 11.95 46.0 6.0 47.3 5.85 48.65 5.35 49.3 5.2 49.9 5.05 50.55 4.85 Q52.0 3.9 52.7 3.9 L52.5 3.9 54.9 2.8 Q57.0 1.8 60.35 1.75 L66.75 1.5 76.7 1.5 89.65 1.75 91.9 1.75 93.7 0.05 95.0 0.05 95.8 0.7 96.1 1.3 96.75 1.75 164.45 1.75 165.85 0.0 166.55 0.05 167.95 1.75 168.3 1.8 169.75 1.8 M61.7 9.55 L58.0 9.55 Q57.0 9.55 56.4 10.15 56.0 10.7 56.0 11.5 56.0 13.25 58.0 13.25 L61.7 13.25 Q63.75 13.25 63.75 11.5 63.75 10.7 63.3 10.15 62.7 9.55 61.7 9.55" fill="none" stroke="#000000" stroke-linecap="round" stroke-linejoin="round" stroke-width="0.5"/>
    </g>
  </defs>
</svg>
