<?xml version="1.0" encoding="UTF-8" standalone="no"?>
<svg xmlns:xlink="http://www.w3.org/1999/xlink" height="25.4px" width="136.25px" xmlns="http://www.w3.org/2000/svg">
  <g transform="matrix(1.0, 0.0, 0.0, 1.0, 0.75, 0.75)">
    <use height="25.4" transform="matrix(1.0, 0.0, 0.0, 1.0, -0.75, -0.75)" width="136.25" xlink:href="#shape0"/>
  </g>
  <defs>
    <g id="shape0" transform="matrix(1.0, 0.0, 0.0, 1.0, 0.75, 0.75)">
      <path d="M127.35 7.2 L110.0 5.2 Q101.75 4.75 82.9 4.5 L65.65 4.35 65.25 2.35 Q64.65 0.25 63.6 0.05 L62.55 0.2 Q61.8 0.55 61.1 1.7 L61.25 1.8 61.45 2.35 61.25 2.85 60.75 3.05 60.35 2.95 59.3 3.85 59.4 4.2 59.15 4.7 58.65 4.95 Q58.35 4.95 58.15 4.7 L57.95 4.5 56.9 4.75 56.9 4.85 56.65 5.4 56.15 5.6 Q55.85 5.6 55.65 5.4 L55.45 4.95 54.2 5.1 54.2 5.15 54.0 5.7 Q53.8 5.9 53.5 5.9 L52.95 5.7 52.75 5.2 51.6 5.15 51.4 5.65 50.85 5.85 Q50.55 5.85 50.35 5.65 L50.15 5.1 50.15 5.05 45.35 4.75 29.4 4.3 20.15 4.65 20.15 4.7 19.95 5.2 19.45 5.4 Q19.1 5.4 18.9 5.2 L18.7 4.75 17.75 4.8 17.75 4.85 17.55 5.35 17.05 5.55 16.5 5.35 16.3 4.9 15.4 4.95 15.4 5.0 15.15 5.5 14.65 5.75 Q14.35 5.75 14.15 5.5 L13.95 5.05 12.85 5.15 12.85 5.25 12.65 5.75 12.1 5.95 Q11.8 5.95 11.6 5.75 L11.4 5.3 10.5 5.4 10.5 5.45 10.3 5.95 9.75 6.2 Q9.45 6.2 9.25 5.95 L9.05 5.5 8.1 5.6 8.1 5.7 7.9 6.2 7.4 6.45 6.85 6.2 6.65 5.8 4.05 6.3 Q3.55 6.6 3.3 7.2 L3.2 7.75 2.6 7.8 0.0 11.2 2.6 14.2 3.55 14.15 3.4 14.45 Q3.35 14.9 3.65 15.35 L6.05 18.5 8.7 21.65 10.35 22.9 12.3 23.0 Q13.1 22.8 13.6 21.9 L13.65 21.85 13.5 21.75 13.35 21.4 Q13.35 21.15 13.5 21.0 13.65 20.85 13.9 20.85 L14.2 20.95 14.55 20.7 15.0 20.45 14.95 20.25 Q14.95 20.05 15.1 19.9 15.25 19.75 15.45 19.75 L15.85 19.9 15.95 20.05 16.8 19.8 16.75 19.7 Q16.75 19.45 16.9 19.3 17.1 19.15 17.3 19.15 17.5 19.15 17.65 19.3 L17.8 19.55 18.75 19.45 18.7 19.35 18.85 19.0 19.25 18.85 Q19.45 18.85 19.6 19.0 L19.75 19.3 20.75 19.25 20.75 19.2 20.95 18.85 Q21.1 18.7 21.3 18.7 L21.65 18.85 21.8 19.2 22.4 19.15 23.0 19.15 23.15 18.8 23.5 18.65 Q23.75 18.65 23.9 18.8 L24.05 19.15 34.95 19.3 46.65 19.0 Q52.65 18.55 54.85 18.8 57.5 19.05 59.25 20.4 L60.5 21.7 61.3 22.85 62.05 23.65 Q62.5 23.95 63.2 23.9 64.45 23.8 65.15 21.85 L65.5 20.45 65.6 19.85 71.35 19.85 Q72.0 18.35 73.0 18.95 L73.15 18.75 Q73.3 18.6 73.6 18.6 L74.0 18.75 74.2 18.95 74.55 18.75 75.65 18.6 76.75 18.75 77.15 18.95 77.3 18.75 77.75 18.6 78.2 18.75 78.35 18.95 78.5 18.75 78.95 18.6 79.4 18.75 79.55 18.95 79.95 18.75 81.05 18.6 82.1 18.75 82.5 18.95 82.65 18.75 Q82.85 18.6 83.1 18.6 L83.55 18.75 83.7 18.95 83.9 18.75 Q84.05 18.6 84.35 18.6 L84.75 18.75 84.95 18.95 Q85.05 18.85 85.3 18.75 L86.4 18.6 87.5 18.75 87.9 18.95 88.05 18.75 Q88.25 18.6 88.5 18.6 L88.95 18.75 89.1 18.95 89.25 18.75 Q89.45 18.6 89.7 18.6 L90.15 18.75 90.3 18.95 90.7 18.75 91.75 18.6 92.85 18.75 93.25 18.95 93.4 18.75 Q93.6 18.6 93.85 18.6 L94.3 18.75 94.7 19.05 Q95.8 18.55 96.25 19.65 L120.05 19.85 134.75 8.6 127.35 7.2 M5.0 9.9 Q5.4 10.3 5.4 10.85 5.4 11.35 5.0 11.75 L4.1 12.1 Q3.55 12.1 3.2 11.75 2.8 11.35 2.8 10.85 2.8 10.3 3.2 9.9 3.55 9.55 4.1 9.55 4.65 9.55 5.0 9.9" fill="none" stroke="#000000" stroke-linecap="round" stroke-linejoin="round" stroke-opacity="0.49803922" stroke-width="1.5"/>
      <path d="M127.35 7.2 L110.0 5.2 Q101.75 4.75 82.9 4.5 L65.65 4.35 65.25 2.35 Q64.65 0.25 63.6 0.05 L62.55 0.2 Q61.8 0.55 61.1 1.7 L61.25 1.8 61.45 2.35 61.25 2.85 60.75 3.05 60.35 2.95 59.3 3.85 59.4 4.2 59.15 4.7 58.65 4.95 Q58.35 4.95 58.15 4.7 L57.95 4.5 56.9 4.75 56.9 4.85 56.65 5.4 56.15 5.6 Q55.85 5.6 55.65 5.4 L55.45 4.95 54.2 5.1 54.2 5.15 54.0 5.7 Q53.8 5.9 53.5 5.9 L52.95 5.7 52.75 5.2 51.6 5.15 51.4 5.65 50.85 5.85 Q50.55 5.85 50.35 5.65 L50.15 5.1 50.15 5.05 45.35 4.75 29.4 4.3 20.15 4.65 20.15 4.7 19.95 5.2 19.45 5.4 Q19.1 5.4 18.9 5.2 L18.7 4.75 17.75 4.8 17.75 4.85 17.55 5.35 17.05 5.55 16.5 5.35 16.3 4.9 15.4 4.95 15.4 5.0 15.15 5.5 14.65 5.75 Q14.35 5.75 14.15 5.5 L13.95 5.05 12.85 5.15 12.85 5.25 12.65 5.75 12.1 5.95 Q11.8 5.95 11.6 5.75 L11.4 5.3 10.5 5.4 10.5 5.45 10.3 5.95 9.75 6.2 Q9.45 6.2 9.25 5.95 L9.05 5.5 8.1 5.6 8.1 5.7 7.9 6.2 7.4 6.45 6.85 6.2 6.65 5.8 4.05 6.3 Q3.55 6.6 3.3 7.2 L3.2 7.75 2.6 7.8 0.0 11.2 2.6 14.2 3.55 14.15 3.4 14.45 Q3.35 14.9 3.65 15.35 L6.05 18.5 8.7 21.65 10.35 22.9 12.3 23.0 Q13.1 22.8 13.6 21.9 L13.65 21.85 13.5 21.75 13.35 21.4 Q13.35 21.15 13.5 21.0 13.65 20.85 13.9 20.85 L14.2 20.95 14.55 20.7 15.0 20.45 14.95 20.25 Q14.95 20.05 15.1 19.9 15.25 19.75 15.45 19.75 L15.85 19.9 15.95 20.05 16.8 19.8 16.75 19.7 Q16.75 19.45 16.9 19.3 17.1 19.15 17.3 19.15 17.5 19.15 17.65 19.3 L17.8 19.55 18.75 19.45 18.7 19.35 18.85 19.0 19.25 18.85 Q19.45 18.85 19.6 19.0 L19.75 19.3 20.75 19.25 20.75 19.2 20.95 18.85 Q21.1 18.7 21.3 18.7 L21.65 18.85 21.8 19.2 22.4 19.15 23.0 19.15 23.15 18.8 23.5 18.65 Q23.75 18.65 23.9 18.8 L24.05 19.15 34.95 19.3 46.65 19.0 Q52.65 18.55 54.85 18.8 57.5 19.05 59.25 20.4 L60.5 21.7 61.3 22.85 62.05 23.65 Q62.5 23.95 63.2 23.9 64.45 23.8 65.15 21.85 L65.5 20.45 65.6 19.85 71.35 19.85 Q72.0 18.35 73.0 18.95 L73.15 18.75 Q73.3 18.6 73.6 18.6 L74.0 18.75 74.2 18.95 74.55 18.75 75.65 18.6 76.75 18.75 77.15 18.95 77.3 18.75 77.75 18.6 78.2 18.75 78.35 18.95 78.5 18.75 78.95 18.6 79.4 18.75 79.55 18.95 79.95 18.75 81.05 18.6 82.1 18.75 82.5 18.95 82.65 18.75 Q82.85 18.6 83.1 18.6 L83.55 18.75 83.7 18.95 83.9 18.75 Q84.05 18.6 84.35 18.6 L84.75 18.75 84.95 18.95 Q85.05 18.85 85.3 18.75 L86.4 18.6 87.5 18.75 87.9 18.95 88.05 18.75 Q88.25 18.6 88.5 18.6 L88.95 18.75 89.1 18.95 89.25 18.75 Q89.45 18.6 89.7 18.6 L90.15 18.75 90.3 18.95 90.7 18.75 91.75 18.6 92.85 18.75 93.25 18.95 93.4 18.75 Q93.6 18.6 93.85 18.6 L94.3 18.75 94.7 19.05 Q95.8 18.55 96.25 19.65 L120.05 19.85 134.75 8.6 127.35 7.2 M5.05 9.95 Q5.45 10.35 5.45 10.9 5.45 11.4 5.05 11.8 4.7 12.15 4.15 12.15 3.6 12.15 3.25 11.8 L2.85 10.9 Q2.85 10.35 3.25 9.95 3.6 9.6 4.15 9.6 4.7 9.6 5.05 9.95" fill="none" stroke="#000000" stroke-linecap="round" stroke-linejoin="round" stroke-width="0.5"/>
    </g>
  </defs>
</svg>
