<?xml version="1.0" encoding="UTF-8" standalone="no"?>
<svg xmlns:xlink="http://www.w3.org/1999/xlink" height="33.75px" width="33.75px" xmlns="http://www.w3.org/2000/svg">
  <g transform="matrix(1.0, 0.0, 0.0, 1.0, 0.0, 0.0)">
    <use height="33.75" transform="matrix(1.0, 0.0, 0.0, 1.0, 0.0, 0.0)" width="33.75" xlink:href="#shape0"/>
  </g>
  <defs>
    <g id="shape0" transform="matrix(1.0, 0.0, 0.0, 1.0, 0.0, 0.0)">
      <path d="M33.75 0.0 L33.75 33.75 0.0 33.75 0.0 0.0 33.75 0.0" fill="#ffffff" fill-opacity="0.0" fill-rule="evenodd" stroke="none"/>
      <path d="M20.85 11.25 L20.7 10.5 Q20.45 8.9 19.8 8.25 L19.3 7.9 18.7 7.55 18.7 14.6 21.45 15.4 22.9 16.05 24.05 17.05 Q25.1 18.0 25.6 19.35 L26.1 20.8 26.2 22.2 Q26.2 25.65 23.9 27.9 21.8 30.0 18.7 30.35 L18.7 31.85 15.2 31.85 15.2 30.3 13.3 29.9 11.85 29.25 Q10.25 28.55 8.95 26.7 7.8 24.95 7.55 22.4 L7.55 21.75 12.2 21.0 12.4 21.75 Q12.75 23.9 13.55 24.95 14.35 25.8 15.2 26.25 L15.2 18.25 Q13.55 17.8 11.7 16.85 9.85 15.85 9.1 14.35 8.6 13.6 8.4 12.7 L8.15 10.85 Q8.15 8.2 9.7 6.25 L10.8 5.05 Q12.3 3.75 15.2 3.4 L15.2 1.85 18.7 1.85 18.7 3.4 Q21.2 3.75 22.8 4.95 L24.1 6.25 Q25.25 7.75 25.55 9.85 L25.7 10.6 20.85 11.25 M20.7 20.25 L20.1 19.7 18.7 19.15 18.7 26.25 19.6 25.75 20.35 25.15 Q21.35 24.0 21.35 22.4 21.35 21.1 20.7 20.25 M13.15 11.75 L13.75 12.7 15.2 13.65 15.2 7.5 13.85 8.35 Q13.05 9.3 13.05 10.55 L13.15 11.75" fill="#ffffff" fill-rule="evenodd" stroke="none"/>
    </g>
  </defs>
</svg>
