<?xml version="1.0" encoding="UTF-8" standalone="no"?>
<svg xmlns:xlink="http://www.w3.org/1999/xlink" height="32.1px" width="138.5px" xmlns="http://www.w3.org/2000/svg">
  <g transform="matrix(1.0, 0.0, 0.0, 1.0, 0.75, 0.75)">
    <use height="32.1" transform="matrix(1.0, 0.0, 0.0, 1.0, -0.75, -0.75)" width="138.5" xlink:href="#shape0"/>
  </g>
  <defs>
    <g id="shape0" transform="matrix(1.0, 0.0, 0.0, 1.0, 0.75, 0.75)">
      <path d="M130.6 8.4 L137.0 7.75 136.85 8.1 134.65 10.4 Q132.1 12.9 130.75 13.7 L126.0 16.4 Q122.55 18.2 119.9 18.75 L113.4 20.05 106.3 20.7 100.8 20.85 100.2 20.85 95.15 20.7 86.9 19.35 80.9 17.95 80.6 17.85 73.3 17.75 72.8 17.05 Q72.45 17.25 71.8 17.6 L67.6 19.15 Q63.9 20.5 63.6 20.2 L63.05 19.4 62.65 18.4 61.6 15.7 Q60.55 13.45 59.9 12.65 59.15 11.75 58.2 11.15 57.15 10.55 56.25 10.55 L53.95 10.75 Q52.45 11.15 51.8 12.1 L50.75 13.8 50.3 14.7 49.6 14.85 48.55 14.75 44.65 14.05 39.6 13.6 36.85 13.65 34.4 14.05 31.9 14.6 30.55 14.85 29.9 14.8 28.9 14.4 27.25 13.85 Q26.3 13.7 25.6 14.1 L24.0 15.2 Q23.15 15.95 22.7 17.0 L21.8 19.15 21.05 20.45 19.95 20.7 Q19.3 20.8 18.95 20.5 L17.65 19.1 Q16.65 18.0 16.1 17.9 L14.75 17.75 Q13.75 17.8 12.5 18.65 11.3 19.45 8.65 22.45 L5.55 26.1 3.2 28.8 1.1 30.6 Q0.4 30.6 0.05 28.25 L0.1 25.6 Q0.35 23.25 0.8 21.75 1.65 19.1 2.5 17.5 3.95 14.6 6.25 12.3 8.8 9.85 12.3 7.55 15.45 5.45 17.75 4.6 21.15 3.35 26.2 2.3 L32.0 1.25 43.7 0.0 44.5 0.15 44.8 0.35 49.45 0.5 54.0 0.7 54.4 0.4 57.6 0.4 73.85 1.65 74.3 1.9 Q74.75 2.2 74.85 2.6 74.85 2.95 74.95 2.75 L75.0 2.6 74.85 1.8 80.3 1.85 80.3 2.7 78.7 2.7 79.05 3.45 Q79.55 4.2 80.05 4.35 L86.4 4.2 92.05 3.85 94.25 3.55 98.9 5.05 100.8 5.6 Q105.0 6.8 108.15 7.25 L123.9 8.7 130.6 8.4 Z" fill="none" stroke="#000000" stroke-linecap="round" stroke-linejoin="round" stroke-width="0.5"/>
      <path d="M130.6 8.4 L137.0 7.75 136.85 8.1 134.65 10.4 Q132.1 12.9 130.75 13.7 L126.0 16.4 Q122.55 18.2 119.9 18.75 L113.4 20.05 106.3 20.7 100.8 20.85 100.2 20.85 95.15 20.7 86.9 19.35 80.9 17.95 80.6 17.85 73.3 17.75 72.8 17.05 Q72.45 17.25 71.8 17.6 L67.6 19.15 Q63.9 20.5 63.6 20.2 L63.05 19.4 62.65 18.4 61.6 15.7 Q60.55 13.45 59.9 12.65 59.15 11.75 58.2 11.15 57.15 10.55 56.25 10.55 L53.95 10.75 Q52.45 11.15 51.8 12.1 L50.75 13.8 50.3 14.7 49.6 14.85 48.55 14.75 44.65 14.05 39.6 13.6 36.85 13.65 34.4 14.05 31.9 14.6 30.55 14.85 29.9 14.8 28.9 14.4 27.25 13.85 Q26.3 13.7 25.6 14.1 L24.0 15.2 Q23.15 15.95 22.7 17.0 L21.8 19.15 21.05 20.45 19.95 20.7 Q19.3 20.8 18.95 20.5 L17.65 19.1 Q16.65 18.0 16.1 17.9 L14.75 17.75 Q13.75 17.8 12.5 18.65 11.3 19.45 8.65 22.45 L5.55 26.1 3.2 28.8 1.1 30.6 Q0.4 30.6 0.05 28.25 L0.1 25.6 Q0.35 23.25 0.8 21.75 1.65 19.1 2.5 17.5 3.95 14.6 6.25 12.3 8.8 9.85 12.3 7.55 15.45 5.45 17.75 4.6 21.15 3.35 26.2 2.3 L32.0 1.25 43.7 0.0 44.5 0.15 44.8 0.35 49.45 0.5 54.0 0.7 54.4 0.4 57.6 0.4 73.85 1.65 74.3 1.9 Q74.75 2.2 74.85 2.6 74.85 2.95 74.95 2.75 L75.0 2.6 74.85 1.8 80.3 1.85 80.3 2.7 78.7 2.7 79.05 3.45 Q79.55 4.2 80.05 4.35 L86.4 4.2 92.05 3.85 94.25 3.55 98.9 5.05 100.8 5.6 Q105.0 6.8 108.15 7.25 L123.9 8.7 130.6 8.4 Z" fill="none" stroke="#000000" stroke-linecap="round" stroke-linejoin="round" stroke-opacity="0.49803922" stroke-width="1.5"/>
    </g>
  </defs>
</svg>
