<?xml version="1.0" encoding="UTF-8" standalone="no"?>
<svg xmlns:xlink="http://www.w3.org/1999/xlink" height="25.4px" width="77.85px" xmlns="http://www.w3.org/2000/svg">
  <g transform="matrix(1.0, 0.0, 0.0, 1.0, -0.95, -0.75)">
    <use height="25.4" transform="matrix(1.0, 0.0, 0.0, 1.0, 0.95, 0.75)" width="77.85" xlink:href="#shape0"/>
  </g>
  <defs>
    <g id="shape0" transform="matrix(1.0, 0.0, 0.0, 1.0, -0.95, -0.75)">
      <path d="M78.65 11.2 L78.8 13.1 78.65 15.0 77.8 16.8 68.9 16.9 68.8 9.25 77.85 9.65 78.65 11.2 M65.25 9.15 L66.9 9.25 66.85 16.9 65.25 16.9 64.35 17.95 46.05 17.95 Q46.75 15.75 46.75 13.45 46.75 10.5 45.7 8.0 L64.25 8.0 65.25 9.15 M34.9 10.35 L40.05 10.35 40.05 15.85 34.9 15.85 34.9 21.45 29.5 21.45 29.5 15.85 24.15 15.85 24.15 10.35 29.5 10.35 29.5 5.5 34.9 5.5 34.9 10.35 M18.7 7.8 Q17.5 10.45 17.5 13.45 17.5 16.0 18.25 18.0 L12.65 18.0 12.75 7.75 18.7 7.8 M2.45 8.6 L3.15 8.6 3.15 9.7 9.45 9.7 9.45 7.8 11.05 7.8 10.95 17.95 9.45 17.95 9.5 16.35 3.3 16.35 3.25 17.4 2.65 17.4 0.95 14.85 0.95 11.35 2.45 8.6" fill="#ffffff" fill-rule="evenodd" stroke="none"/>
      <path d="M39.95 5.5 Q43.3 8.85 43.3 13.45 43.3 18.0 39.95 21.35 36.7 24.7 32.05 24.7 27.45 24.7 24.1 21.35 20.85 18.1 20.85 13.45 20.85 8.75 24.1 5.5 27.4 2.2 32.05 2.2 36.75 2.2 39.95 5.5 Z" fill="none" stroke="#ffffff" stroke-linecap="round" stroke-linejoin="round" stroke-width="2.95"/>
    </g>
  </defs>
</svg>
