<?xml version="1.0" encoding="UTF-8" standalone="no"?>
<svg xmlns:xlink="http://www.w3.org/1999/xlink" height="36.55px" width="49.6px" xmlns="http://www.w3.org/2000/svg">
  <g transform="matrix(1.0, 0.0, 0.0, 1.0, -1.75, 0.8)">
    <use height="36.55" transform="matrix(1.0, 0.0, 0.0, 1.0, 1.75, -0.8)" width="49.6" xlink:href="#shape0"/>
  </g>
  <defs>
    <g id="shape0" transform="matrix(1.0, 0.0, 0.0, 1.0, -1.75, 0.8)">
      <path d="M50.25 4.4 L49.25 4.05 48.85 4.15 48.5 4.25 48.15 4.05 47.6 3.7 45.4 3.1 45.35 2.85 45.1 2.6 44.25 2.55 43.4 2.5 Q42.65 2.0 42.15 1.8 L38.0 0.95 37.25 1.0 36.6 1.2 35.05 0.7 33.5 0.1 31.9 0.2 Q31.6 0.3 31.6 0.65 L31.5 1.05 31.0 1.55 30.15 1.4 Q29.35 1.55 29.3 1.9 29.25 2.2 29.35 2.4 L28.15 2.1 18.85 2.1 18.15 2.25 Q18.0 2.35 17.8 2.4 L17.55 1.8 15.45 1.5 11.9 1.4 9.5 1.0 9.3 0.85 Q9.15 0.65 8.85 0.6 L6.45 0.25 5.45 1.05 4.45 2.05 Q4.0 2.65 4.0 3.75 L4.0 8.85 Q4.0 9.65 4.5 10.1 L5.85 11.3 Q6.75 12.3 6.7 13.05 L6.3 14.85 5.8 16.05 4.45 21.4 2.75 28.45 Q2.3 30.45 2.6 31.4 2.85 32.35 4.05 32.8 L8.95 34.05 13.25 34.95 14.7 34.75 Q15.9 35.25 15.9 34.4 15.55 31.7 15.65 30.35 15.85 28.55 17.3 22.95 17.5 22.15 18.05 21.05 L18.65 19.8 Q18.75 18.6 19.65 18.6 L24.6 18.6 Q25.35 18.6 26.1 17.4 L26.15 17.85 26.5 18.25 27.8 18.0 35.6 18.0 36.45 18.15 Q37.15 18.2 37.15 17.2 L37.15 15.0 Q37.15 14.6 37.9 14.6 L43.55 14.5 44.6 14.25 48.05 13.3 Q49.4 12.85 49.6 12.0 L50.55 5.1 50.6 4.55 50.25 4.4 M24.05 12.2 Q24.35 12.2 24.55 12.6 L24.75 13.25 24.75 13.8 Q24.75 14.45 24.1 15.05 23.4 15.65 22.4 15.65 L20.5 15.65 Q19.8 15.65 19.8 14.9 L19.8 12.9 Q19.8 12.2 20.5 12.2 L24.05 12.2" fill="none" stroke="#000000" stroke-linecap="round" stroke-linejoin="round" stroke-opacity="0.4" stroke-width="1.5"/>
      <path d="M50.25 4.4 L49.25 4.05 48.85 4.15 48.5 4.25 48.15 4.05 47.6 3.7 45.4 3.1 45.35 2.85 45.1 2.6 44.25 2.55 43.4 2.5 Q42.65 2.0 42.15 1.8 L38.0 0.95 37.25 1.0 36.6 1.2 35.05 0.7 33.5 0.1 31.9 0.2 Q31.6 0.3 31.6 0.65 L31.5 1.05 31.0 1.55 30.15 1.4 Q29.35 1.55 29.3 1.9 29.25 2.2 29.35 2.4 L28.15 2.1 18.85 2.1 18.15 2.25 Q18.0 2.35 17.8 2.4 L17.55 1.8 15.45 1.5 11.9 1.4 9.5 1.0 9.3 0.85 Q9.15 0.65 8.85 0.6 L6.45 0.25 5.45 1.05 4.45 2.05 Q4.0 2.65 4.0 3.75 L4.0 8.85 Q4.0 9.65 4.5 10.1 L5.85 11.3 Q6.75 12.3 6.7 13.05 L6.3 14.85 5.8 16.05 4.45 21.4 2.75 28.45 Q2.3 30.45 2.6 31.4 2.85 32.35 4.05 32.8 L8.95 34.05 13.25 34.95 14.7 34.75 Q15.9 35.25 15.9 34.4 15.55 31.7 15.65 30.35 15.85 28.55 17.3 22.95 17.5 22.15 18.05 21.05 L18.65 19.8 Q18.75 18.6 19.65 18.6 L24.6 18.6 Q25.35 18.6 26.1 17.4 L26.15 17.85 26.5 18.25 27.8 18.0 35.6 18.0 36.45 18.15 Q37.15 18.2 37.15 17.2 L37.15 15.0 Q37.15 14.6 37.9 14.6 L43.55 14.5 44.6 14.25 48.05 13.3 Q49.4 12.85 49.6 12.0 L50.55 5.1 50.6 4.55 50.25 4.4 M24.05 12.2 Q24.35 12.2 24.55 12.6 L24.75 13.25 24.75 13.8 Q24.75 14.45 24.1 15.05 23.4 15.65 22.4 15.65 L20.5 15.65 Q19.8 15.65 19.8 14.9 L19.8 12.9 Q19.8 12.2 20.5 12.2 L24.05 12.2" fill="none" stroke="#000000" stroke-linecap="round" stroke-linejoin="round" stroke-width="0.5"/>
    </g>
  </defs>
</svg>
