<?xml version="1.0" encoding="UTF-8" standalone="no"?>
<svg xmlns:xlink="http://www.w3.org/1999/xlink" height="33.45px" width="165.7px" xmlns="http://www.w3.org/2000/svg">
  <g transform="matrix(1.0, 0.0, 0.0, 1.0, 0.0, 0.0)">
    <use height="33.45" transform="matrix(1.0, 0.0, 0.0, 1.0, 0.0, 0.0)" width="165.7" xlink:href="#shape0"/>
  </g>
  <defs>
    <g id="shape0" transform="matrix(1.0, 0.0, 0.0, 1.0, 0.0, 0.0)">
      <path d="M164.1 15.65 L160.45 18.35 160.0 18.65 Q153.2 23.1 147.85 24.45 141.3 26.15 134.65 26.35 127.75 26.6 121.3 25.25 L115.95 24.0 112.1 23.1 103.35 22.0 Q98.2 21.7 88.5 21.95 L79.85 22.2 79.3 23.4 74.1 23.3 73.7 22.7 Q73.1 22.05 72.15 21.55 L70.1 20.85 69.2 20.7 68.9 25.0 67.7 26.15 Q66.35 27.5 65.75 28.6 65.15 29.65 64.55 31.7 L64.0 33.45 61.2 33.45 61.3 32.05 Q61.5 30.4 61.95 29.25 L63.05 27.0 63.6 26.1 62.7 24.65 Q61.65 23.1 60.8 22.4 L59.05 20.65 58.4 19.7 56.3 18.8 Q53.8 18.1 51.9 18.85 L47.85 20.75 Q45.45 21.9 43.1 22.4 40.45 23.0 35.55 22.55 L27.2 21.25 20.95 19.8 16.15 19.05 12.15 19.25 10.3 19.5 8.45 21.0 8.05 22.8 Q7.6 24.65 7.15 24.9 L5.35 26.0 4.05 25.9 3.05 25.15 Q2.0 24.2 1.55 23.05 1.05 21.9 1.2 19.4 L1.45 17.1 0.0 16.15 0.0 13.85 1.1 13.3 1.2 11.4 Q1.4 9.3 1.85 8.45 2.4 7.45 3.05 7.1 L4.7 6.6 Q5.5 6.45 5.95 6.95 L6.2 7.45 16.65 6.85 33.8 6.3 48.4 7.05 58.3 7.7 61.25 7.2 63.25 6.5 64.5 6.55 64.8 6.95 66.0 5.85 67.9 3.6 68.95 1.2 69.2 0.0 71.6 0.0 71.6 1.25 71.05 3.8 69.85 6.0 69.1 6.95 83.2 7.15 82.3 5.75 85.6 7.15 87.95 7.25 86.85 5.65 90.55 7.25 92.85 7.25 91.75 5.65 95.45 7.35 97.6 7.35 96.5 5.95 100.1 7.45 102.35 7.6 101.4 5.95 104.85 7.6 107.25 7.7 106.25 6.05 109.7 7.7 112.2 7.8 111.0 6.2 114.15 7.8 116.75 7.6 115.9 6.3 119.35 7.8 121.2 7.85 126.7 7.6 135.95 6.6 136.95 7.35 139.6 9.0 Q144.05 11.6 148.05 12.55 152.05 13.5 159.3 14.05 L160.45 14.15 165.7 14.4 164.1 15.65" fill="#ffffff" fill-rule="evenodd" stroke="none"/>
    </g>
  </defs>
</svg>
