<?xml version="1.0" encoding="UTF-8" standalone="no"?>
<svg xmlns:xlink="http://www.w3.org/1999/xlink" height="30.6px" width="140.85px" xmlns="http://www.w3.org/2000/svg">
  <g transform="matrix(1.0, 0.0, 0.0, 1.0, 4.2, 0.75)">
    <use height="30.6" transform="matrix(1.0, 0.0, 0.0, 1.0, -4.2, -0.75)" width="140.85" xlink:href="#shape0"/>
  </g>
  <defs>
    <g id="shape0" transform="matrix(1.0, 0.0, 0.0, 1.0, 4.2, 0.75)">
      <path d="M124.85 16.6 L119.65 18.2 Q113.65 19.9 109.7 20.55 L99.7 21.45 95.85 21.6 94.35 21.6 94.1 20.9 Q93.65 20.05 92.7 19.35 91.85 18.65 90.55 18.35 L89.8 18.25 61.7 18.1 61.25 18.3 61.05 18.55 61.0 18.7 60.35 21.8 59.3 26.3 59.15 26.7 58.9 27.05 57.95 27.35 57.25 27.45 55.85 27.4 53.85 27.25 53.5 27.05 53.25 26.7 Q53.25 26.3 53.8 25.55 L54.55 24.7 55.5 23.45 56.4 21.7 56.4 20.35 56.35 19.45 56.05 19.45 55.35 18.6 54.1 17.25 52.55 16.25 Q51.2 15.65 49.6 15.7 48.05 15.8 46.8 16.75 45.45 17.7 44.8 19.35 L43.95 21.5 43.7 21.95 43.5 22.1 43.05 22.25 Q42.8 22.25 42.4 21.85 L41.45 20.45 40.95 19.55 40.4 18.6 Q39.65 17.6 38.45 16.95 37.1 16.25 35.95 16.1 34.5 15.95 33.35 16.75 L31.35 18.15 30.25 18.9 29.5 18.95 28.65 18.6 27.05 18.1 24.55 17.9 22.5 18.4 Q21.7 18.75 20.9 19.4 L19.75 20.4 Q19.3 20.75 18.9 20.9 L17.4 21.35 16.25 21.55 14.4 22.15 Q13.55 22.6 12.6 23.6 L11.25 25.3 9.5 27.6 7.95 28.2 7.05 28.0 2.3 20.4 0.95 18.7 0.0 17.25 0.15 16.25 0.65 15.25 1.6 14.15 2.85 12.75 3.75 11.35 4.55 10.15 5.35 9.6 5.95 9.5 7.05 9.4 9.35 9.0 11.65 8.4 14.55 7.2 Q17.0 6.1 18.45 5.5 L22.1 4.2 25.1 3.3 28.3 2.9 Q30.15 2.75 31.9 2.85 L34.9 3.25 37.85 3.55 41.2 3.6 44.25 3.45 45.45 3.35 45.5 3.05 45.8 3.0 45.95 3.3 46.45 3.25 46.45 2.95 46.85 2.85 46.95 3.2 47.45 3.15 47.45 2.8 47.85 2.75 47.9 3.1 48.4 3.05 48.4 2.65 48.75 2.65 48.8 2.9 49.25 2.85 49.25 2.45 49.65 2.4 49.7 2.75 50.1 2.7 50.1 2.2 50.45 2.15 50.55 2.55 50.95 2.45 50.95 1.95 51.3 1.95 51.4 2.3 51.7 2.3 51.75 1.85 52.15 1.8 52.2 2.2 52.5 2.1 52.5 1.75 52.85 1.7 52.95 1.95 53.45 1.8 54.2 1.45 54.65 1.15 55.0 0.85 55.5 0.75 55.85 0.8 56.55 0.4 57.25 0.05 58.0 0.0 58.6 0.15 59.3 0.5 60.3 0.85 61.05 0.85 61.5 0.75 Q61.8 0.75 62.6 1.3 L63.4 1.9 67.35 2.65 73.4 3.8 78.7 4.3 83.2 4.35 Q86.85 4.25 89.25 3.2 L91.45 2.1 93.25 1.2 94.15 1.05 94.9 1.2 95.15 1.6 95.5 2.3 Q95.95 3.25 96.35 3.4 L97.2 3.35 97.65 2.7 97.65 1.9 97.55 1.6 98.05 1.6 98.25 2.0 98.7 2.8 99.15 3.6 99.8 4.0 100.7 3.95 Q101.25 3.8 101.25 3.25 L101.15 2.2 101.0 1.85 101.6 1.95 101.85 2.35 102.35 3.1 102.75 3.85 103.4 4.3 104.15 4.25 104.6 3.75 104.5 2.85 104.25 2.35 104.75 2.4 105.0 2.75 105.35 3.35 105.65 4.0 106.25 4.5 107.8 4.4 108.05 3.9 108.0 3.3 107.75 2.75 107.55 2.55 108.25 2.6 108.5 3.05 108.9 3.9 109.3 4.5 109.8 4.8 110.4 5.0 110.95 4.85 Q111.35 4.55 111.3 3.95 L111.05 3.35 110.85 3.0 111.4 3.05 111.65 3.45 112.0 4.05 112.3 4.6 112.75 5.1 113.5 5.35 114.3 5.25 Q114.8 4.9 114.65 4.0 L114.5 3.5 114.35 3.25 115.05 3.4 115.2 3.6 115.6 4.4 115.9 4.85 116.55 5.5 Q116.85 5.75 117.25 5.75 L117.85 5.5 118.1 4.95 118.05 4.4 117.75 3.9 117.55 3.65 118.15 3.8 118.4 4.1 118.7 4.65 119.0 5.2 119.5 5.7 120.1 6.0 120.8 5.75 121.05 5.2 120.95 4.6 120.7 4.2 120.5 4.05 135.1 5.9 124.85 16.6" fill="none" stroke="#000000" stroke-linecap="butt" stroke-linejoin="miter" stroke-miterlimit="10.0" stroke-width="0.5"/>
      <path d="M56.85 24.2 Q57.35 24.2 57.75 24.55 58.1 24.95 58.1 25.45 L57.75 26.3 Q57.35 26.65 56.85 26.65 56.3 26.65 55.95 26.3 55.6 25.95 55.6 25.45 55.6 24.95 55.95 24.55 56.3 24.2 56.85 24.2" fill="none" stroke="#000000" stroke-linecap="round" stroke-linejoin="round" stroke-width="0.5"/>
      <path d="M124.85 16.6 L119.65 18.2 Q113.65 19.9 109.7 20.55 L99.7 21.45 95.85 21.6 94.35 21.6 94.1 20.9 Q93.65 20.05 92.7 19.35 91.85 18.65 90.55 18.35 L89.8 18.25 61.7 18.1 61.25 18.3 61.05 18.55 61.0 18.7 60.35 21.8 59.3 26.3 59.15 26.7 58.9 27.05 57.95 27.35 57.25 27.45 55.85 27.4 53.85 27.25 53.5 27.05 53.25 26.7 Q53.25 26.3 53.8 25.55 L54.55 24.7 55.5 23.45 56.4 21.7 56.4 20.35 56.35 19.45 56.05 19.45 55.35 18.6 54.1 17.25 52.55 16.25 Q51.2 15.65 49.6 15.7 48.05 15.8 46.8 16.75 45.45 17.7 44.8 19.35 L43.95 21.5 43.7 21.95 43.5 22.1 43.05 22.25 Q42.8 22.25 42.4 21.85 L41.45 20.45 40.95 19.55 40.4 18.6 Q39.65 17.6 38.45 16.95 37.1 16.25 35.95 16.1 34.5 15.95 33.35 16.75 L31.35 18.15 30.25 18.9 29.5 18.95 28.65 18.6 27.05 18.1 24.55 17.9 22.5 18.4 Q21.7 18.75 20.9 19.4 L19.75 20.4 Q19.3 20.75 18.9 20.9 L17.4 21.35 16.25 21.55 14.4 22.15 Q13.55 22.6 12.6 23.6 L11.25 25.3 9.5 27.6 7.95 28.2 7.05 28.0 2.3 20.4 0.95 18.7 0.0 17.25 0.15 16.25 0.65 15.25 1.6 14.15 2.85 12.75 3.75 11.35 4.55 10.15 5.35 9.6 5.95 9.5 7.05 9.4 9.35 9.0 11.65 8.4 14.55 7.2 Q17.0 6.1 18.45 5.5 L22.1 4.2 25.1 3.3 28.3 2.9 Q30.15 2.75 31.9 2.85 L34.9 3.25 37.85 3.55 41.2 3.6 44.25 3.45 45.45 3.35 45.5 3.05 45.8 3.0 45.95 3.3 46.45 3.25 46.45 2.95 46.85 2.85 46.95 3.2 47.45 3.15 47.45 2.8 47.85 2.75 47.9 3.1 48.4 3.05 48.4 2.65 48.75 2.65 48.8 2.9 49.25 2.85 49.25 2.45 49.65 2.4 49.7 2.75 50.1 2.7 50.1 2.2 50.45 2.15 50.55 2.55 50.95 2.45 50.95 1.95 51.3 1.95 51.4 2.3 51.7 2.3 51.75 1.85 52.15 1.8 52.2 2.2 52.5 2.1 52.5 1.75 52.85 1.7 52.95 1.95 53.45 1.8 54.2 1.45 54.65 1.15 55.0 0.85 55.5 0.75 55.85 0.8 56.55 0.4 57.25 0.05 58.0 0.0 58.6 0.15 59.3 0.5 60.3 0.85 61.05 0.85 61.5 0.75 Q61.8 0.75 62.6 1.3 L63.4 1.9 67.35 2.65 73.4 3.8 78.7 4.3 83.2 4.35 Q86.85 4.25 89.25 3.2 L91.45 2.1 93.25 1.2 94.15 1.05 94.9 1.2 95.15 1.6 95.5 2.3 Q95.95 3.25 96.35 3.4 L97.2 3.35 97.65 2.7 97.65 1.9 97.55 1.6 98.05 1.6 98.25 2.0 98.7 2.8 99.15 3.6 99.8 4.0 100.7 3.95 Q101.25 3.8 101.25 3.25 L101.15 2.2 101.0 1.85 101.6 1.95 101.85 2.35 102.35 3.1 102.75 3.85 103.4 4.3 104.15 4.25 104.6 3.75 104.5 2.85 104.25 2.35 104.75 2.4 105.0 2.75 105.35 3.35 105.65 4.0 106.25 4.5 107.8 4.4 108.05 3.9 108.0 3.3 107.75 2.75 107.55 2.55 108.25 2.6 108.5 3.05 108.9 3.9 109.3 4.5 109.8 4.8 110.4 5.0 110.95 4.85 Q111.35 4.55 111.3 3.95 L111.05 3.35 110.85 3.0 111.4 3.05 111.65 3.45 112.0 4.05 112.3 4.6 112.75 5.1 113.5 5.35 114.3 5.25 Q114.8 4.9 114.65 4.0 L114.5 3.5 114.35 3.25 115.05 3.4 115.2 3.6 115.6 4.4 115.9 4.85 116.55 5.5 Q116.85 5.75 117.25 5.75 L117.85 5.5 118.1 4.95 118.05 4.4 117.75 3.9 117.55 3.65 118.15 3.8 118.4 4.1 118.7 4.65 119.0 5.2 119.5 5.7 120.1 6.0 120.8 5.75 121.05 5.2 120.95 4.6 120.7 4.2 120.5 4.05 135.1 5.9 124.85 16.6" fill="none" stroke="#000000" stroke-linecap="butt" stroke-linejoin="miter" stroke-miterlimit="10.0" stroke-opacity="0.49803922" stroke-width="1.5"/>
      <path d="M56.85 24.2 Q57.35 24.2 57.75 24.55 58.1 24.95 58.1 25.45 L57.75 26.3 Q57.35 26.65 56.85 26.65 56.3 26.65 55.95 26.3 55.6 25.95 55.6 25.45 55.6 24.95 55.95 24.55 56.3 24.2 56.85 24.2" fill="none" stroke="#000000" stroke-linecap="round" stroke-linejoin="round" stroke-opacity="0.49803922" stroke-width="1.5"/>
    </g>
  </defs>
</svg>
