<?xml version="1.0" encoding="UTF-8" standalone="no"?>
<svg xmlns:xlink="http://www.w3.org/1999/xlink" height="35.0px" width="25.8px" xmlns="http://www.w3.org/2000/svg">
  <g transform="matrix(1.0, 0.0, 0.0, 1.0, 0.0, 0.0)">
    <use height="35.0" transform="matrix(1.0, 0.0, 0.0, 1.0, 0.0, 0.0)" width="25.8" xlink:href="#shape0"/>
  </g>
  <defs>
    <g id="shape0" transform="matrix(1.0, 0.0, 0.0, 1.0, 0.0, 0.0)">
      <path d="M22.9 12.2 L23.65 13.4 24.0 14.35 24.35 15.6 24.6 16.9 24.85 17.8 24.9 17.95 25.5 19.8 25.55 20.0 25.8 20.95 25.7 21.45 25.45 21.65 25.2 21.9 25.2 22.0 25.0 23.3 24.5 25.65 23.85 27.9 23.1 29.25 22.5 30.05 21.6 31.0 20.85 31.95 20.45 32.45 20.35 32.9 20.15 33.35 19.4 33.85 18.3 34.35 16.6 34.85 15.05 35.0 12.75 34.55 Q11.95 34.15 11.8 33.85 L11.6 33.15 11.6 32.7 11.25 32.45 9.45 31.1 Q8.25 30.1 7.7 28.65 L7.15 27.6 6.6 26.75 5.75 25.15 Q5.4 24.35 5.4 22.85 L5.25 22.7 5.15 22.5 5.05 22.25 4.75 21.65 4.75 21.25 4.95 20.75 5.1 20.45 5.2 20.25 5.2 18.7 5.2 17.0 5.4 15.55 5.6 15.0 6.05 13.75 Q6.25 13.1 6.75 12.55 L7.25 11.85 7.8 11.0 6.15 10.05 6.0 10.4 5.45 11.15 4.1 13.6 3.6 14.55 3.2 15.35 2.7 16.15 2.7 17.25 2.6 19.65 2.55 22.0 2.5 23.1 2.65 23.45 2.6 26.0 2.25 26.15 1.95 26.3 1.8 26.35 1.75 26.7 1.75 27.25 1.75 28.0 1.15 28.25 1.0 28.05 0.85 27.85 0.8 27.95 0.8 28.0 0.75 28.3 0.7 28.75 0.7 29.35 0.0 29.6 0.45 18.0 4.5 8.8 4.7 8.2 4.35 7.2 Q4.15 6.7 4.35 6.15 4.4 4.5 5.4 3.2 6.4 1.95 8.05 1.55 L8.6 0.35 8.6 0.3 8.85 0.15 9.1 0.1 9.35 0.0 10.75 0.05 13.2 0.1 15.75 0.25 17.25 0.3 19.45 0.35 20.05 0.45 20.6 0.95 20.35 1.8 19.5 2.45 18.8 2.35 18.45 2.1 18.35 3.3 18.3 4.95 18.2 7.2 18.2 7.35 18.35 7.35 18.55 7.45 18.85 7.55 19.2 7.7 20.1 8.6 21.55 10.35 22.9 12.2 M16.65 1.3 L16.2 1.25 15.35 1.15 14.5 1.05 13.9 1.05 13.1 1.3 Q12.55 1.55 12.05 1.95 L12.75 2.35 13.4 2.9 Q15.0 4.5 14.9 6.5 L14.85 7.15 14.6 7.8 15.0 7.8 15.15 7.65 15.25 7.55 15.5 7.35 15.9 6.95 15.95 6.95 16.7 6.85 17.2 6.8 17.2 1.65 16.9 1.5 16.65 1.3 M11.1 2.85 L10.65 3.4 10.65 8.0 12.35 7.8 13.85 7.7 14.05 6.5 Q14.2 5.55 13.85 4.85 L12.9 3.4 12.2 2.85 Q11.8 2.6 11.35 2.5 L11.1 2.85 M9.1 5.2 L8.3 6.35 7.65 7.45 7.1 8.25 6.85 8.65 6.7 8.95 6.5 9.45 Q7.25 10.05 8.15 10.3 L8.55 9.6 9.05 9.05 9.35 8.45 9.65 8.05 9.7 8.05 9.9 8.05 10.4 8.0 9.85 8.0 9.85 4.25 9.1 5.2 M5.75 4.0 Q5.05 4.95 5.05 6.2 L5.1 7.35 7.65 2.55 Q6.5 3.05 5.75 4.0" fill="#6e7d5c" fill-rule="evenodd" stroke="none"/>
    </g>
  </defs>
</svg>
