<?xml version="1.0" encoding="UTF-8" standalone="no"?>
<svg xmlns:xlink="http://www.w3.org/1999/xlink" height="36.5px" width="41.25px" xmlns="http://www.w3.org/2000/svg">
  <g transform="matrix(1.0, 0.0, 0.0, 1.0, 0.0, 0.0)">
    <use height="36.5" transform="matrix(1.0, 0.0, 0.0, 1.0, 0.0, 0.0)" width="41.25" xlink:href="#shape0"/>
  </g>
  <defs>
    <g id="shape0" transform="matrix(1.0, 0.0, 0.0, 1.0, 0.0, 0.0)">
      <path d="M15.75 12.75 Q13.95 12.75 12.7 13.75 11.55 14.65 11.95 16.15 L15.2 26.7 20.05 26.7 20.05 16.0 Q20.0 14.7 18.85 13.75 17.55 12.75 15.75 12.75 M3.1 13.75 Q2.1 14.55 1.9 15.65 L1.9 15.85 13.9 25.8 11.05 16.45 11.05 16.4 Q10.5 14.75 9.25 13.75 L9.3 13.75 Q8.0 12.75 6.2 12.75 4.35 12.75 3.1 13.75 M28.4 13.75 L28.45 13.75 Q27.15 12.75 25.35 12.75 23.55 12.75 22.25 13.75 21.1 14.7 21.05 16.0 L21.05 26.7 25.9 26.7 29.15 15.95 29.2 15.9 29.2 15.85 Q29.55 14.6 28.4 13.75 M30.1 16.15 L30.05 16.2 27.15 25.8 39.2 15.85 39.2 15.65 Q39.0 14.55 38.0 13.75 L38.05 13.75 Q36.75 12.75 34.9 12.75 33.1 12.75 31.85 13.75 30.6 14.75 30.1 16.15 M41.25 12.0 L41.25 12.05 41.25 13.0 41.25 13.05 40.9 14.85 40.05 16.35 26.75 27.35 26.75 36.05 26.6 36.4 26.25 36.5 14.85 36.5 14.5 36.4 14.35 36.05 14.35 27.35 1.15 16.45 0.95 16.2 Q-0.1 13.9 0.0 12.25 L0.0 12.2 Q-0.05 8.75 3.7 5.7 10.1 0.05 21.35 0.05 L21.95 0.05 22.75 0.1 23.5 0.15 24.05 0.2 Q34.4 1.1 39.05 6.7 41.25 9.3 41.25 12.0" fill="#ffffff" fill-rule="evenodd" stroke="none"/>
    </g>
  </defs>
</svg>
