<?xml version="1.0" encoding="UTF-8" standalone="no"?>
<svg xmlns:xlink="http://www.w3.org/1999/xlink" height="30.55px" width="56.3px" xmlns="http://www.w3.org/2000/svg">
  <g transform="matrix(1.0, 0.0, 0.0, 1.0, 0.9, 4.6)">
    <use height="30.55" transform="matrix(1.0, 0.0, 0.0, 1.0, -0.9, -4.6)" width="56.3" xlink:href="#shape0"/>
  </g>
  <defs>
    <g id="shape0" transform="matrix(1.0, 0.0, 0.0, 1.0, 0.9, 4.6)">
      <path d="M50.85 -3.5 L55.4 9.85 54.25 11.85 38.0 14.3 36.15 13.9 34.55 9.9 19.65 15.9 19.9 18.1 16.05 20.5 1.55 25.95 Q-1.2 23.1 -0.85 19.3 L13.5 13.3 17.6 12.5 19.1 14.3 33.95 8.3 32.5 4.6 33.3 2.7 48.95 -4.6 50.85 -3.5 M48.0 0.7 L47.75 0.4 47.35 0.3 36.1 4.5 Q35.9 4.5 35.8 4.7 L35.8 5.2 36.1 5.45 36.4 5.45 47.75 1.4 48.0 1.1 48.0 0.7 M49.15 4.2 L48.75 4.2 37.1 7.65 36.75 7.9 36.7 8.3 36.95 8.55 37.35 8.65 49.0 5.1 49.35 4.9 49.4 4.5 49.15 4.2 M50.0 7.95 L38.5 10.65 38.1 10.85 38.0 11.25 38.3 11.55 38.7 11.7 50.2 8.9 50.45 8.7 50.55 8.3 50.35 8.05 50.0 7.95" fill="#ffffff" fill-rule="evenodd" stroke="none"/>
    </g>
  </defs>
</svg>
