<?xml version="1.0" encoding="UTF-8" standalone="no"?>
<svg xmlns:xlink="http://www.w3.org/1999/xlink" height="27.5px" width="117.8px" xmlns="http://www.w3.org/2000/svg">
  <g transform="matrix(1.0, 0.0, 0.0, 1.0, -0.1, 3.0)">
    <use height="27.5" transform="matrix(1.0, 0.0, 0.0, 1.0, 0.1, -3.0)" width="117.8" xlink:href="#shape0"/>
  </g>
  <defs>
    <g id="shape0" transform="matrix(1.0, 0.0, 0.0, 1.0, -0.1, 3.0)">
      <path d="M55.3 -1.85 Q55.65 -1.4 55.2 -0.65 55.05 -0.4 54.65 -0.3 L53.95 -0.1 Q53.15 0.25 53.4 1.7 53.6 3.1 54.2 3.9 L54.75 4.45 54.75 5.75 68.45 5.75 75.3 6.1 84.25 6.85 102.35 7.65 113.55 6.85 117.15 6.4 114.65 9.5 Q111.7 12.9 109.45 14.4 105.45 16.95 99.45 18.15 L86.95 19.2 65.05 19.2 64.6 19.15 64.35 18.35 63.85 17.15 Q63.35 16.15 62.4 15.5 61.4 14.8 59.85 14.75 58.25 14.7 56.95 15.4 55.15 16.35 54.1 18.15 L53.4 19.75 Q53.15 21.25 53.95 21.6 L54.65 21.8 Q55.05 21.9 55.2 22.1 55.65 22.85 55.3 23.35 54.95 23.85 54.0 23.75 52.85 23.6 51.8 22.75 50.5 21.7 50.5 20.1 L50.5 16.45 50.4 15.6 Q50.25 15.25 49.85 15.25 L43.35 16.2 29.0 17.15 14.6 16.45 7.2 15.75 Q6.1 15.75 5.25 16.8 L4.25 18.4 Q3.95 18.9 3.4 18.95 2.9 18.95 2.5 18.4 2.1 17.8 2.05 13.1 L1.2 12.05 Q0.85 11.35 0.85 10.55 0.85 9.8 1.2 9.1 1.5 8.45 2.05 8.05 2.15 3.65 2.5 3.1 2.9 2.5 3.4 2.55 3.95 2.55 4.25 3.1 L5.25 4.65 Q6.1 5.75 7.2 5.75 L14.6 5.05 29.0 4.3 43.35 5.25 49.85 6.2 50.4 5.85 50.5 5.05 50.5 1.4 Q50.5 -0.2 51.8 -1.25 52.85 -2.1 54.0 -2.25 54.95 -2.35 55.3 -1.85 Z" fill="none" stroke="#000000" stroke-linecap="round" stroke-linejoin="round" stroke-opacity="0.4" stroke-width="1.5"/>
      <path d="M54.0 -2.25 Q54.95 -2.35 55.3 -1.85 55.65 -1.4 55.2 -0.65 55.05 -0.4 54.65 -0.3 L53.95 -0.1 Q53.15 0.25 53.4 1.7 53.6 3.1 54.2 3.9 L54.75 4.45 54.75 5.75 68.45 5.75 75.3 6.1 84.25 6.85 102.35 7.65 113.55 6.85 117.15 6.4 114.65 9.5 Q111.7 12.9 109.45 14.4 105.45 16.95 99.45 18.15 L86.95 19.2 65.05 19.2 64.6 19.15 64.35 18.35 63.85 17.15 Q63.35 16.15 62.4 15.5 61.4 14.8 59.85 14.75 58.25 14.7 56.95 15.4 55.15 16.35 54.1 18.15 L53.4 19.75 Q53.15 21.25 53.95 21.6 L54.65 21.8 Q55.05 21.9 55.2 22.1 55.65 22.85 55.3 23.35 54.95 23.85 54.0 23.75 52.85 23.6 51.8 22.75 50.5 21.7 50.5 20.1 L50.5 16.45 50.4 15.6 Q50.25 15.25 49.85 15.25 L43.35 16.2 29.0 17.15 14.6 16.45 7.2 15.75 Q6.1 15.75 5.25 16.8 L4.25 18.4 Q3.95 18.9 3.4 18.95 2.9 18.95 2.5 18.4 2.1 17.8 2.05 13.1 L1.2 12.05 Q0.85 11.35 0.85 10.55 0.85 9.8 1.2 9.1 1.5 8.45 2.05 8.05 2.15 3.65 2.5 3.1 2.9 2.5 3.4 2.55 3.95 2.55 4.25 3.1 L5.25 4.65 Q6.1 5.75 7.2 5.75 L14.6 5.05 29.0 4.3 43.35 5.25 49.85 6.2 50.4 5.85 50.5 5.05 50.5 1.4 Q50.5 -0.2 51.8 -1.25 52.85 -2.1 54.0 -2.25 Z" fill="none" stroke="#000000" stroke-linecap="round" stroke-linejoin="round" stroke-width="0.5"/>
    </g>
  </defs>
</svg>
