<?xml version="1.0" encoding="UTF-8" standalone="no"?>
<svg xmlns:xlink="http://www.w3.org/1999/xlink" height="32.9px" width="43.1px" xmlns="http://www.w3.org/2000/svg">
  <g transform="matrix(1.0, 0.0, 0.0, 1.0, 0.75, 0.75)">
    <use height="32.9" transform="matrix(1.0, 0.0, 0.0, 1.0, -0.75, -0.75)" width="43.1" xlink:href="#shape0"/>
  </g>
  <defs>
    <g id="shape0" transform="matrix(1.0, 0.0, 0.0, 1.0, 0.75, 0.75)">
      <path d="M40.5 0.7 L26.8 0.75 26.8 1.2 20.85 1.2 20.85 0.75 7.1 0.75 6.9 0.2 5.4 0.05 4.95 0.7 4.45 0.75 3.65 0.75 Q3.3 0.7 2.85 1.15 L2.0 2.15 0.55 4.6 Q0.35 4.9 0.35 6.2 L0.35 7.45 Q0.35 8.3 0.5 8.5 L0.95 9.05 1.75 9.55 3.65 10.3 Q4.95 11.05 5.05 11.6 5.15 12.35 4.55 14.15 L3.2 17.5 Q2.4 19.0 1.45 21.6 L0.3 25.5 Q-0.3 28.7 0.3 28.8 L13.05 31.35 14.25 31.3 14.6 31.1 14.7 30.9 Q14.75 30.65 14.4 30.5 L13.2 29.75 12.95 25.9 Q12.95 25.35 16.2 16.7 L23.0 16.9 26.65 16.6 28.75 16.25 Q29.3 16.2 29.3 15.85 L29.1 14.6 28.9 12.8 Q28.8 11.6 28.95 11.2 29.15 10.7 29.75 10.5 L30.4 10.35 40.6 10.2 41.25 9.75 41.5 8.9 41.55 5.2 41.35 1.55 Q41.35 1.2 40.95 0.95 L40.5 0.7 M26.5 11.0 L22.05 10.95 Q21.8 11.9 22.25 12.55 L23.25 13.9 Q23.65 14.25 24.2 14.35 24.7 14.4 24.65 14.6 24.6 14.85 24.25 14.85 L23.6 14.85 22.4 14.15 Q21.35 13.25 21.05 12.65 L20.85 10.95 19.95 10.9 Q19.15 10.9 18.55 11.55 18.05 12.15 18.05 12.95 L18.05 14.3 Q18.15 14.9 19.05 15.25 20.35 15.75 21.55 15.65 L23.75 15.4 25.2 15.45 26.65 15.55 27.5 15.45 27.9 15.05 28.0 13.45 Q27.95 12.2 27.6 11.6 L26.9 11.0 26.5 10.9 26.5 11.0" fill="none" stroke="#000000" stroke-linecap="round" stroke-linejoin="round" stroke-opacity="0.4" stroke-width="1.5"/>
      <path d="M40.5 0.7 L26.8 0.75 26.8 1.2 20.85 1.2 20.85 0.75 7.1 0.75 6.9 0.2 5.4 0.05 4.95 0.7 4.45 0.75 3.65 0.75 Q3.3 0.7 2.85 1.15 L2.0 2.15 0.55 4.6 Q0.35 4.9 0.35 6.2 L0.35 7.45 Q0.35 8.3 0.5 8.5 L0.95 9.05 1.75 9.55 3.65 10.3 Q4.95 11.05 5.05 11.6 5.15 12.35 4.55 14.15 L3.2 17.5 Q2.4 19.0 1.45 21.6 L0.3 25.5 Q-0.3 28.7 0.3 28.8 L13.05 31.35 14.25 31.3 14.6 31.1 14.7 30.9 Q14.75 30.65 14.4 30.5 L13.2 29.75 12.95 25.9 Q12.95 25.35 16.2 16.7 L23.0 16.9 26.65 16.6 28.75 16.25 Q29.3 16.2 29.3 15.85 L29.1 14.6 28.9 12.8 Q28.8 11.6 28.95 11.2 29.15 10.7 29.75 10.5 L30.4 10.35 40.6 10.2 41.25 9.75 41.5 8.9 41.55 5.2 41.35 1.55 Q41.35 1.2 40.95 0.95 L40.5 0.7 M26.9 11.0 L26.5 10.9 26.5 11.0 22.05 10.95 Q21.8 11.9 22.25 12.55 L23.25 13.9 Q23.65 14.25 24.2 14.35 24.7 14.4 24.65 14.6 24.6 14.85 24.25 14.85 L23.6 14.85 22.4 14.15 Q21.35 13.25 21.05 12.65 L20.85 10.95 19.95 10.9 Q19.15 10.9 18.55 11.55 18.05 12.15 18.05 12.95 L18.05 14.3 Q18.15 14.9 19.05 15.25 20.35 15.75 21.55 15.65 L23.75 15.4 25.2 15.45 26.65 15.55 27.5 15.45 27.9 15.05 28.0 13.45 Q27.95 12.2 27.6 11.6 L26.9 11.0" fill="none" stroke="#000000" stroke-linecap="round" stroke-linejoin="round" stroke-width="0.5"/>
    </g>
  </defs>
</svg>
