<?xml version="1.0" encoding="UTF-8" standalone="no"?>
<svg xmlns:xlink="http://www.w3.org/1999/xlink" height="41.2px" width="32.9px" xmlns="http://www.w3.org/2000/svg">
  <g transform="matrix(1.0, 0.0, 0.0, 1.0, -2.35, 2.15)">
    <use height="41.2" transform="matrix(1.0, 0.0, 0.0, 1.0, 2.35, -2.15)" width="32.9" xlink:href="#shape0"/>
  </g>
  <defs>
    <g id="shape0" transform="matrix(1.0, 0.0, 0.0, 1.0, -2.35, 2.15)">
      <path d="M13.75 37.55 Q13.8 34.55 14.0 33.65 L14.15 32.95 13.75 30.85 13.1 29.0 10.5 26.3 7.65 23.5 3.9 19.95 Q3.75 19.7 4.1 18.1 L4.4 16.25 4.4 10.45 4.5 10.2 Q4.7 8.15 5.15 7.65 5.35 7.4 6.75 6.8 L5.9 3.35 Q5.85 2.85 6.5 1.55 7.25 0.45 7.6 0.3 L10.4 -0.2 Q11.65 0.8 11.8 1.55 L12.25 4.0 12.8 4.1 12.4 1.3 13.55 -0.3 14.85 -0.55 16.3 -0.65 17.4 0.45 18.15 1.75 18.05 4.7 18.9 4.75 18.95 2.5 21.55 2.0 22.8 3.0 Q23.8 3.95 23.8 4.25 L23.7 5.3 24.7 5.45 24.9 4.7 Q25.0 4.5 26.05 4.35 L27.3 4.25 Q28.55 5.1 29.1 6.05 L30.55 6.45 33.45 10.0 Q34.1 10.75 33.45 17.85 32.6 28.25 32.2 28.65 31.1 30.0 31.1 30.6 L31.1 37.55 13.75 37.55" fill="#d3ba9f" fill-rule="evenodd" stroke="none"/>
      <path d="M31.1 37.55 L31.1 30.6 Q31.1 30.0 32.2 28.65 32.6 28.25 33.45 17.85 34.1 10.75 33.45 10.0 L30.55 6.45 29.1 6.05 Q28.55 5.1 27.3 4.25 L26.05 4.35 Q25.0 4.5 24.9 4.7 L24.7 5.45 23.7 5.3 23.8 4.25 Q23.8 3.95 22.8 3.0 L21.55 2.0 18.95 2.5 18.9 4.75 18.05 4.7 18.15 1.75 17.4 0.45 16.3 -0.65 14.85 -0.55 13.55 -0.3 12.4 1.3 12.8 4.1 12.25 4.0 11.8 1.55 Q11.65 0.8 10.4 -0.2 L7.6 0.3 Q7.25 0.45 6.5 1.55 5.85 2.85 5.9 3.35 L6.75 6.8 Q5.35 7.4 5.15 7.65 4.7 8.15 4.5 10.2 L4.4 10.45 4.4 16.25 4.1 18.1 Q3.75 19.7 3.9 19.95 L7.65 23.5 10.5 26.3 13.1 29.0 13.75 30.85 14.15 32.95 14.0 33.65 Q13.8 34.55 13.75 37.55" fill="none" stroke="#666666" stroke-linecap="butt" stroke-linejoin="miter" stroke-miterlimit="10.0" stroke-width="3.0"/>
      <path d="M31.15 6.35 L34.05 9.9 Q34.75 10.65 34.05 17.75 33.2 28.15 32.8 28.55 31.75 29.9 31.75 30.5 L31.75 37.45 14.35 37.45 Q14.4 34.5 14.6 33.55 L14.75 32.85 14.35 30.75 13.65 28.9 11.1 26.2 8.3 23.4 4.5 19.85 Q4.35 19.65 4.7 18.0 L5.05 16.15 5.05 10.35 Q4.95 10.0 6.15 8.4 L7.4 6.95 8.35 3.4 26.55 5.45 28.9 5.8 31.15 6.35" fill="#ffffff" fill-rule="evenodd" stroke="none"/>
      <path d="M27.8 10.6 L32.6 10.25 27.8 12.1 30.6 14.55 28.7 14.05 Q27.2 16.25 26.55 16.35 L24.55 16.5 24.4 20.55 22.8 25.1 23.3 21.05 22.65 19.7 21.8 18.3 19.65 18.1 17.5 17.85 16.3 16.75 14.55 15.65 13.15 15.0 9.65 17.85 11.15 15.4 11.1 14.05 10.15 12.6 10.55 9.15 27.8 10.6" fill="#333333" fill-rule="evenodd" stroke="none"/>
      <path d="M26.85 12.1 L22.3 16.1 12.4 13.55 9.65 1.4 13.8 1.4 17.5 2.0 20.0 2.75 22.8 4.2 26.55 5.1 26.85 12.1" fill="#333333" fill-rule="evenodd" stroke="none"/>
      <path d="M11.8 1.6 L12.25 4.1 12.4 6.7 Q12.25 7.45 7.25 8.75 L5.9 3.35 Q5.85 2.8 6.5 1.6 7.25 0.45 7.55 0.3 L10.4 -0.2 Q11.65 0.8 11.8 1.6" fill="#ffffff" fill-rule="evenodd" stroke="none"/>
      <path d="M11.8 1.6 L12.25 4.1 12.4 6.7 Q12.25 7.45 7.25 8.75 L5.9 3.35 Q5.85 2.8 6.5 1.6 7.25 0.45 7.55 0.3 L10.4 -0.2 Q11.65 0.8 11.8 1.6 Z" fill="none" stroke="#666666" stroke-linecap="butt" stroke-linejoin="miter" stroke-miterlimit="10.0" stroke-width="0.5"/>
      <path d="M13.55 -0.3 L14.85 -0.55 16.3 -0.65 17.4 0.45 18.15 1.75 18.15 5.3 18.15 9.65 18.15 12.9 13.8 12.1 12.4 1.3 13.55 -0.3" fill="#ffffff" fill-rule="evenodd" stroke="none"/>
      <path d="M13.55 -0.3 L14.85 -0.55 16.3 -0.65 17.4 0.45 18.15 1.75 18.15 5.3 18.15 9.65 18.15 12.9 13.8 12.1 12.4 1.3 13.55 -0.3 Z" fill="none" stroke="#666666" stroke-linecap="butt" stroke-linejoin="miter" stroke-miterlimit="10.0" stroke-width="0.5"/>
      <path d="M21.55 2.0 L22.8 3.0 Q23.8 3.95 23.8 4.25 L23.25 13.55 22.45 14.15 Q21.7 14.55 21.4 14.55 L20.05 14.25 Q19.05 13.8 18.95 13.55 18.8 3.75 18.95 2.5 L21.55 2.0" fill="#ffffff" fill-rule="evenodd" stroke="none"/>
      <path d="M21.55 2.0 L22.8 3.0 Q23.8 3.95 23.8 4.25 L23.25 13.55 22.45 14.15 Q21.7 14.55 21.4 14.55 L20.05 14.25 Q19.05 13.8 18.95 13.55 18.8 3.75 18.95 2.5 L21.55 2.0 Z" fill="none" stroke="#666666" stroke-linecap="butt" stroke-linejoin="miter" stroke-miterlimit="10.0" stroke-width="0.5"/>
      <path d="M28.4 5.1 Q29.3 5.95 29.4 6.45 L29.05 10.0 28.45 13.2 Q28.4 13.4 27.3 13.8 L26.05 14.05 Q23.7 13.45 23.8 12.45 24.4 5.6 24.9 4.7 25.0 4.5 26.05 4.35 L27.3 4.25 28.4 5.1" fill="#ffffff" fill-rule="evenodd" stroke="none"/>
      <path d="M28.4 5.1 Q29.3 5.95 29.4 6.45 L29.05 10.0 28.45 13.2 Q28.4 13.4 27.3 13.8 L26.05 14.05 Q23.7 13.45 23.8 12.45 24.4 5.6 24.9 4.7 25.0 4.5 26.05 4.35 L27.3 4.25 28.4 5.1 Z" fill="none" stroke="#666666" stroke-linecap="butt" stroke-linejoin="miter" stroke-miterlimit="10.0" stroke-width="1.0"/>
      <path d="M17.3 5.85 Q17.15 7.7 16.6 8.2 L11.6 12.35 12.35 14.9 5.0 11.7 Q5.0 8.4 5.75 7.55 6.1 7.1 11.0 5.1 L15.9 3.0 16.65 3.15 Q17.3 3.5 17.4 3.75 L17.3 5.85" fill="#ffffff" fill-rule="evenodd" stroke="none"/>
      <path d="M4.2 11.35 Q4.2 8.05 4.95 7.2 5.25 6.8 10.15 4.75 L15.05 2.65 15.8 2.8 Q16.5 3.15 16.55 3.4 L16.5 5.5 Q16.3 7.35 15.75 7.9 L10.75 12.0 11.5 14.55" fill="none" stroke="#666666" stroke-linecap="butt" stroke-linejoin="miter" stroke-miterlimit="10.0" stroke-width="1.0"/>
      <path d="M10.5 5.25 L12.0 4.85 13.8 5.25 10.5 5.25" fill="#666666" fill-rule="evenodd" stroke="none"/>
    </g>
  </defs>
</svg>
