<?xml version="1.0" encoding="UTF-8" standalone="no"?>
<svg xmlns:xlink="http://www.w3.org/1999/xlink" height="42.95px" width="123.6px" xmlns="http://www.w3.org/2000/svg">
  <g transform="matrix(1.0, 0.0, 0.0, 1.0, 0.0, 0.0)">
    <use height="42.95" transform="matrix(1.0, 0.0, 0.0, 1.0, 0.0, 0.0)" width="123.6" xlink:href="#shape0"/>
  </g>
  <defs>
    <g id="shape0" transform="matrix(1.0, 0.0, 0.0, 1.0, 0.0, 0.0)">
      <path d="M90.65 4.1 Q120.35 15.5 123.6 39.7 99.85 18.6 74.65 17.95 L74.15 18.5 71.05 18.85 Q66.15 24.1 61.05 24.2 L59.95 22.25 Q59.45 21.45 58.55 20.7 56.65 19.0 52.95 19.0 48.3 19.0 42.1 22.45 39.35 23.85 36.85 25.75 34.45 25.5 31.5 25.85 25.35 26.5 21.6 29.35 20.75 29.95 20.35 31.25 L19.0 36.7 Q18.4 38.35 17.25 39.45 L16.65 40.05 Q13.9 42.95 9.85 42.95 5.8 42.95 2.9 40.05 0.0 37.3 0.0 33.1 0.0 31.6 0.8 29.35 1.9 27.0 3.4 25.45 8.85 19.7 16.4 15.6 23.95 11.6 35.7 8.65 L41.1 7.85 46.45 7.5 51.7 7.1 56.95 6.25 Q61.45 5.15 64.95 3.35 L70.9 0.0 75.15 3.15 Q75.8 2.75 75.55 2.0 L74.05 0.05 78.55 0.65 80.0 2.75 Q80.3 3.25 80.8 3.1 L81.15 1.0 84.25 3.9 84.5 1.9 87.5 4.85 87.5 2.85 90.65 5.9 90.65 4.1 M83.0 8.85 Q83.0 9.6 83.5 10.1 84.0 10.6 84.75 10.6 85.4 10.6 85.9 10.1 86.5 9.6 86.5 8.85 86.5 8.15 85.9 7.6 85.4 7.1 84.75 7.1 84.0 7.1 83.5 7.6 83.0 8.25 83.0 8.85 M81.65 7.6 Q81.65 6.65 81.05 6.1 80.4 5.4 79.5 5.4 78.65 5.4 78.0 6.1 77.3 6.75 77.3 7.6 77.3 8.5 78.0 9.15 78.55 9.75 79.5 9.75 80.5 9.75 81.05 9.15 81.65 8.6 81.65 7.6 M90.4 9.35 Q90.1 8.9 89.4 8.9 88.75 8.9 88.35 9.35 87.9 9.75 87.9 10.35 87.9 10.85 88.35 11.4 L89.4 11.85 90.4 11.4 90.9 10.35 Q90.9 9.75 90.4 9.35 M14.6 28.35 Q12.6 26.35 9.65 26.35 6.75 26.35 4.75 28.35 2.75 30.35 2.75 33.3 2.75 36.2 4.75 38.2 6.75 40.3 9.65 40.3 12.6 40.3 14.6 38.2 16.65 36.2 16.65 33.3 16.65 30.35 14.6 28.35" fill="#ffffff" fill-rule="evenodd" stroke="none"/>
    </g>
  </defs>
</svg>
