<?xml version="1.0" encoding="UTF-8" standalone="no"?>
<svg xmlns:xlink="http://www.w3.org/1999/xlink" height="45.35px" width="49.85px" xmlns="http://www.w3.org/2000/svg">
  <g transform="matrix(1.0, 0.0, 0.0, 1.0, 0.0, 0.0)">
    <use height="45.35" transform="matrix(1.0, 0.0, 0.0, 1.0, 0.0, 0.0)" width="49.85" xlink:href="#shape0"/>
  </g>
  <defs>
    <g id="shape0" transform="matrix(1.0, 0.0, 0.0, 1.0, 0.0, 0.0)">
      <path d="M37.6 2.85 Q38.05 2.75 38.45 3.1 L39.0 3.75 Q39.15 4.2 38.95 4.65 L36.85 8.55 35.8 8.3 33.8 8.3 36.85 3.45 37.6 2.85 M26.3 0.35 Q26.65 0.0 27.15 0.0 27.6 0.0 27.95 0.35 28.35 0.65 28.35 1.2 L28.55 8.3 25.75 8.3 25.95 1.2 Q25.95 0.65 26.3 0.35 M33.9 14.55 Q33.9 13.85 33.25 13.85 L19.35 13.85 18.9 14.05 Q18.65 14.2 18.65 14.55 L18.65 23.4 18.9 23.9 19.35 24.05 33.25 24.05 Q33.9 24.05 33.9 23.4 L33.9 14.55 M36.5 12.0 Q37.05 12.65 37.05 13.5 L37.05 32.45 Q37.05 33.3 36.5 33.9 35.95 34.55 35.0 34.55 L2.1 34.55 Q1.3 34.55 0.65 33.9 0.0 33.3 0.0 32.45 L0.0 13.5 Q0.0 12.65 0.65 12.0 1.3 11.4 2.1 11.4 L35.0 11.4 Q35.95 11.4 36.5 12.0 M39.95 13.55 L45.15 10.9 46.05 10.8 Q46.55 10.9 46.75 11.3 47.0 11.7 46.85 12.25 L46.4 13.0 39.95 16.85 39.95 13.55 M22.2 18.2 L22.1 18.8 22.75 18.45 22.9 18.8 22.35 19.1 22.9 19.4 22.75 19.8 22.1 19.5 22.2 20.1 21.75 20.1 21.75 19.5 21.2 19.8 21.0 19.4 21.5 19.1 21.0 18.8 21.2 18.45 21.75 18.8 21.75 18.2 22.2 18.2 M27.75 18.2 L27.7 18.8 28.3 18.45 28.45 18.8 27.85 19.1 28.45 19.4 28.3 19.8 27.7 19.5 27.75 20.1 27.3 20.1 27.3 19.5 26.75 19.8 26.6 19.4 27.05 19.1 26.6 18.8 26.75 18.45 27.3 18.8 27.3 18.2 27.75 18.2 M25.0 18.2 L24.85 18.8 25.5 18.45 25.7 18.8 25.1 19.1 25.7 19.4 25.5 19.8 24.85 19.5 25.0 20.1 24.5 20.1 24.5 19.5 24.0 19.8 23.75 19.4 24.3 19.1 23.75 18.8 24.0 18.45 24.5 18.8 24.5 18.2 25.0 18.2 M26.95 29.6 L26.75 30.0 26.75 31.8 26.95 32.2 27.35 32.35 29.15 32.35 29.55 32.2 29.7 31.8 29.7 30.0 29.55 29.6 29.15 29.4 27.35 29.4 26.95 29.6 M29.55 25.4 L29.15 25.25 27.35 25.25 26.95 25.4 26.75 25.8 26.75 27.6 26.95 28.0 Q27.15 28.2 27.35 28.2 L29.15 28.2 Q29.4 28.2 29.55 28.0 L29.7 27.6 29.7 25.8 29.55 25.4 M23.4 29.4 Q23.15 29.4 23.0 29.6 L22.8 30.0 22.8 31.8 23.0 32.2 Q23.15 32.35 23.4 32.35 L25.2 32.35 25.6 32.2 25.75 31.8 25.75 30.0 25.6 29.6 25.2 29.4 23.4 29.4 M21.65 29.6 L21.2 29.4 19.45 29.4 19.05 29.6 Q18.8 29.75 18.8 30.0 L18.8 31.8 19.05 32.2 19.45 32.35 21.2 32.35 21.65 32.2 21.8 31.8 21.8 30.0 21.65 29.6 M21.8 25.8 L21.65 25.4 21.2 25.25 19.45 25.25 Q19.25 25.25 19.05 25.4 L18.8 25.8 18.8 27.6 19.05 28.0 Q19.25 28.2 19.45 28.2 L21.2 28.2 21.65 28.0 21.8 27.6 21.8 25.8 M23.4 25.25 Q23.15 25.25 23.0 25.4 L22.8 25.8 22.8 27.6 23.0 28.0 Q23.15 28.2 23.4 28.2 L25.2 28.2 25.6 28.0 25.75 27.6 25.75 25.8 25.6 25.4 25.2 25.25 23.4 25.25 M39.95 21.2 L48.65 21.45 Q49.05 21.45 49.45 21.85 49.85 22.15 49.85 22.65 49.85 23.2 49.45 23.55 L48.65 23.8 39.95 24.0 39.95 21.2 M31.3 29.4 L30.9 29.6 30.7 30.0 30.7 31.8 30.9 32.2 31.3 32.35 33.05 32.35 33.5 32.2 33.65 31.8 33.65 30.0 33.5 29.6 33.05 29.4 31.3 29.4 M33.65 27.6 L33.65 25.8 33.5 25.4 Q33.35 25.25 33.05 25.25 L31.3 25.25 Q31.1 25.25 30.9 25.4 L30.7 25.8 30.7 27.6 30.9 28.0 31.3 28.2 33.05 28.2 Q33.35 28.2 33.5 28.0 L33.65 27.6 M15.8 3.1 Q16.25 2.75 16.7 2.85 L17.45 3.45 20.4 8.3 17.25 8.3 15.4 4.65 Q15.15 4.2 15.3 3.75 15.4 3.3 15.8 3.1 M12.9 24.45 L13.0 24.45 12.95 25.35 12.9 26.25 12.9 28.35 10.85 28.35 12.0 26.25 12.5 25.35 12.9 24.45 M8.75 28.55 L8.75 30.0 12.9 30.0 12.9 32.2 14.95 32.2 14.95 30.0 16.2 30.0 16.2 28.35 14.95 28.35 14.95 22.8 12.3 22.8 8.75 28.55 M3.4 26.1 Q2.4 27.1 2.4 28.7 2.4 30.4 3.35 31.4 4.35 32.35 6.1 32.35 L7.25 32.25 8.05 32.05 7.9 30.35 7.25 30.55 6.55 30.6 Q5.8 30.6 5.2 30.1 4.6 29.6 4.6 28.6 4.6 27.85 5.15 27.25 5.6 26.65 6.55 26.65 L7.25 26.7 7.75 26.85 8.15 25.25 7.35 25.05 6.5 25.0 Q4.45 25.0 3.4 26.1 M16.7 42.45 L15.8 42.25 Q15.4 42.1 15.3 41.6 15.15 41.1 15.4 40.65 L16.95 37.4 20.15 37.4 17.45 41.85 16.7 42.45 M45.15 34.45 L39.95 31.6 39.95 28.4 46.4 32.35 46.85 33.1 Q47.0 33.6 46.75 34.05 46.55 34.45 46.05 34.55 L45.15 34.45 M38.95 40.65 Q39.15 41.1 39.0 41.6 L38.45 42.25 37.6 42.45 36.85 41.85 34.1 37.4 35.8 37.4 36.5 37.35 37.2 37.25 38.95 40.65 M28.55 37.4 L28.35 44.15 Q28.35 44.65 27.95 45.0 27.6 45.35 27.15 45.35 26.65 45.35 26.3 45.0 25.95 44.65 25.95 44.15 L25.75 37.4 28.55 37.4" fill="#990000" fill-rule="evenodd" stroke="none"/>
    </g>
  </defs>
</svg>
