<?xml version="1.0" encoding="UTF-8" standalone="no"?>
<svg xmlns:xlink="http://www.w3.org/1999/xlink" height="34.9px" width="84.5px" xmlns="http://www.w3.org/2000/svg">
  <g transform="matrix(1.0, 0.0, 0.0, 1.0, 0.75, 0.75)">
    <path d="M28.65 9.95 L27.1 10.15 25.7 10.4 0.45 10.4 Q0.15 10.4 0.0 11.35 L0.1 13.95 0.2 19.7 0.2 28.05 0.45 29.25 Q0.8 29.9 1.25 29.9 L20.7 29.9 21.55 29.25 21.95 28.55 22.45 28.6 23.55 28.65 Q24.4 28.75 30.5 31.25 L30.55 32.9 33.2 33.15 39.3 33.35 Q42.25 33.35 46.5 30.7 L49.2 28.8 50.4 27.8 50.7 27.35 Q50.85 27.1 51.0 27.1 L52.45 27.15 54.1 27.2 54.65 27.45 54.85 27.95 53.75 32.5 53.75 32.95 54.95 33.3 59.2 33.05 Q62.6 32.4 64.2 30.75 65.75 29.2 66.3 26.5 L66.55 23.8 Q66.55 23.5 66.9 23.15 L67.4 22.65 68.95 22.55 70.45 22.85 70.7 23.9 70.75 25.55 70.95 26.6 71.3 26.95 74.2 26.95 74.7 26.85 74.9 26.45 75.15 23.45 75.55 20.25 75.0 19.0 74.35 18.25 74.6 18.05 74.85 17.9 75.1 18.2 82.0 18.2 Q82.5 18.2 82.7 17.8 83.0 17.35 83.0 16.1 83.0 15.15 82.65 14.7 L82.35 14.4 75.5 14.4 75.5 9.0 75.15 8.05 72.0 4.65 70.65 4.65 70.3 3.9 70.1 3.15 70.1 0.95 70.05 0.5 69.85 0.25 68.7 0.35 68.15 0.7 67.9 0.95 67.9 2.2 68.2 2.2 68.2 3.0 67.7 3.35 65.9 4.4 51.7 4.4 51.7 3.3 51.8 2.95 51.95 2.9 51.95 1.4 51.75 0.55 Q51.5 0.0 51.0 0.0 50.55 0.0 49.9 0.95 49.8 1.1 49.65 2.0 L49.55 2.9 48.95 3.15 Q48.35 3.5 48.3 3.8 L47.5 5.9 46.7 7.8 46.65 9.95 28.65 9.95 M43.7 22.4 Q43.7 23.3 42.9 24.05 L41.4 25.1 39.05 26.25 36.9 27.05 Q35.9 27.15 34.75 26.2 33.8 25.45 33.8 23.75 L33.7 22.7 Q33.65 22.15 34.0 21.85 L36.0 19.95 42.85 19.95 43.25 20.65 43.7 22.4 M59.35 20.55 L60.05 21.35 Q61.25 21.9 61.7 23.2 62.2 24.7 60.95 25.6 59.8 26.45 58.8 26.15 58.2 26.0 57.9 25.6 57.85 25.5 57.45 25.35 L57.1 25.25 57.1 24.25 55.1 24.25 55.05 22.15 Q55.05 21.3 55.35 20.85 55.7 20.45 56.5 20.15 L58.2 19.9 59.0 19.95 59.35 20.55" fill="none" stroke="#00ff00" stroke-linecap="round" stroke-linejoin="round" stroke-opacity="0.4" stroke-width="1.5"/>
    <path d="M83.0 16.1 Q83.0 15.15 82.65 14.7 L82.35 14.4 75.5 14.4 75.5 9.0 75.15 8.05 72.0 4.65 70.65 4.65 70.3 3.9 70.1 3.15 70.1 0.95 70.05 0.5 69.85 0.25 68.7 0.35 68.15 0.7 67.9 0.95 67.9 2.2 68.2 2.2 68.2 3.0 67.7 3.35 65.9 4.4 51.7 4.4 51.7 3.3 51.8 2.95 51.95 2.9 51.95 1.4 51.75 0.55 Q51.5 0.0 51.0 0.0 50.55 0.0 49.9 0.95 49.8 1.1 49.65 2.0 L49.55 2.9 48.95 3.15 Q48.35 3.5 48.3 3.8 L47.5 5.9 46.7 7.8 46.65 9.95 28.65 9.95 27.1 10.15 25.7 10.4 0.45 10.4 Q0.15 10.4 0.0 11.35 L0.1 13.95 0.2 19.7 0.2 28.05 0.45 29.25 Q0.8 29.9 1.25 29.9 L20.7 29.9 21.55 29.25 21.95 28.55 22.45 28.6 23.55 28.65 Q24.4 28.75 30.5 31.25 L30.55 32.9 33.2 33.15 39.3 33.35 Q42.25 33.35 46.5 30.7 L49.2 28.8 50.4 27.8 50.7 27.35 Q50.85 27.1 51.0 27.1 L52.45 27.15 54.1 27.2 54.65 27.45 54.85 27.95 53.75 32.5 53.75 32.95 54.95 33.3 59.2 33.05 Q62.6 32.4 64.2 30.75 65.75 29.2 66.3 26.5 L66.55 23.8 Q66.55 23.5 66.9 23.15 L67.4 22.65 68.95 22.55 70.45 22.85 70.7 23.9 70.75 25.55 70.95 26.6 71.3 26.95 74.2 26.95 74.7 26.85 74.9 26.45 75.15 23.45 75.55 20.25 75.0 19.0 74.35 18.25 74.6 18.05 74.85 17.9 75.1 18.2 82.0 18.2 Q82.5 18.2 82.7 17.8 83.0 17.35 83.0 16.1 M43.7 22.4 Q43.7 23.3 42.9 24.05 L41.4 25.1 39.05 26.25 36.9 27.05 Q35.9 27.15 34.75 26.2 33.8 25.45 33.8 23.75 L33.7 22.7 Q33.65 22.15 34.0 21.85 L36.0 19.95 42.85 19.95 43.25 20.65 43.7 22.4 M55.1 24.25 L55.05 22.15 Q55.05 21.3 55.35 20.85 55.7 20.45 56.5 20.15 L58.2 19.9 59.0 19.95 59.35 20.55 60.05 21.35 Q61.25 21.9 61.7 23.2 62.2 24.7 60.95 25.6 59.8 26.45 58.8 26.15 58.2 26.0 57.9 25.6 57.85 25.5 57.45 25.35 L57.1 25.25 57.1 24.25 55.1 24.25" fill="none" stroke="#00ff00" stroke-linecap="round" stroke-linejoin="round" stroke-width="0.5"/>
  </g>
</svg>
