<?xml version="1.0" encoding="UTF-8" standalone="no"?>
<svg xmlns:xlink="http://www.w3.org/1999/xlink" height="38.2px" width="26.4px" xmlns="http://www.w3.org/2000/svg">
  <g transform="matrix(1.0, 0.0, 0.0, 1.0, 0.75, 0.75)">
    <path d="M20.3 13.9 Q21.7 13.8 22.4 13.0 L24.0 11.1 Q24.55 10.25 24.2 9.75 23.8 9.25 23.95 8.9 L24.5 8.05 24.9 6.85 24.85 5.85 Q24.6 4.85 23.5 3.8 22.4 2.8 22.3 2.3 21.45 3.5 22.1 4.5 22.7 5.45 22.5 5.65 22.3 5.85 21.95 5.4 L21.4 4.65 21.0 3.6 Q20.85 2.95 20.15 2.75 18.4 2.25 18.0 1.85 17.2 1.05 17.1 0.0 16.65 0.45 16.6 2.15 16.55 3.8 16.85 4.25 L17.95 5.65 Q18.65 6.7 18.6 7.2 L17.85 8.85 17.8 8.3 17.65 6.95 Q17.35 6.2 16.7 5.85 L16.15 5.65 Q16.5 6.85 16.15 7.55 L15.55 8.65 Q15.3 9.5 15.7 10.85 L16.45 12.35 16.6 12.5" fill="none" stroke="#000000" stroke-linecap="round" stroke-linejoin="round" stroke-opacity="0.3019608" stroke-width="1.5"/>
    <path d="M16.6 12.5 L14.15 15.45 13.25 16.05 11.75 16.75 Q9.5 17.8 8.75 18.9 L0.05 31.15 Q-0.15 31.65 0.6 32.85 1.45 34.15 2.85 35.15 4.25 36.15 5.75 36.55 L7.55 36.5 16.25 24.3 Q17.0 23.2 17.3 20.75 17.55 18.25 17.75 18.0 L20.3 13.9 Z" fill="none" stroke="#000000" stroke-linecap="butt" stroke-linejoin="miter" stroke-miterlimit="1.0" stroke-opacity="0.3019608" stroke-width="1.5"/>
    <path d="M20.3 13.9 Q21.7 13.8 22.4 13.0 L24.0 11.1 Q24.55 10.25 24.2 9.75 23.8 9.25 23.95 8.9 L24.5 8.05 24.9 6.85 24.85 5.85 Q24.6 4.85 23.5 3.8 22.4 2.8 22.3 2.3 21.45 3.5 22.1 4.5 22.7 5.45 22.5 5.65 22.3 5.85 21.95 5.4 L21.4 4.65 21.0 3.6 Q20.85 2.95 20.15 2.75 18.4 2.25 18.0 1.85 17.2 1.05 17.1 0.0 16.65 0.45 16.6 2.15 16.55 3.8 16.85 4.25 L17.95 5.65 Q18.65 6.7 18.6 7.2 L17.85 8.85 17.8 8.3 17.65 6.95 Q17.35 6.2 16.7 5.85 L16.15 5.65 Q16.5 6.85 16.15 7.55 L15.55 8.65 Q15.3 9.5 15.7 10.85 L16.45 12.35 16.6 12.5" fill="none" stroke="#000000" stroke-linecap="round" stroke-linejoin="round" stroke-width="0.5"/>
    <path d="M16.6 12.5 L18.1 10.65 18.1 10.35 18.05 10.35 19.55 8.3 20.25 8.35 Q20.8 8.55 21.45 9.0 L22.5 9.95 22.75 10.6 21.25 12.65 21.0 12.7 20.3 13.9 17.75 18.0 Q17.55 18.25 17.3 20.75 17.0 23.2 16.25 24.3 L7.55 36.5 5.75 36.55 Q4.25 36.15 2.85 35.15 1.45 34.15 0.6 32.85 -0.15 31.65 0.05 31.15 L8.75 18.9 Q9.5 17.8 11.75 16.75 L13.25 16.05 14.15 15.45 16.6 12.5" fill="none" stroke="#000000" stroke-linecap="round" stroke-linejoin="miter" stroke-miterlimit="1.0" stroke-width="0.5"/>
  </g>
</svg>
