<?xml version="1.0" encoding="UTF-8" standalone="no"?>
<svg xmlns:xlink="http://www.w3.org/1999/xlink" height="34.3px" width="102.45px" xmlns="http://www.w3.org/2000/svg">
  <g transform="matrix(1.0, 0.0, 0.0, 1.0, 0.75, 0.75)">
    <path d="M93.8 10.15 L99.95 10.15 100.6 9.9 Q100.95 9.6 100.95 9.1 L100.95 8.6 Q100.95 7.95 100.55 7.6 100.3 7.3 99.9 7.3 L93.9 7.3 93.5 7.5 93.3 7.75 91.8 7.75 91.8 1.35 90.55 1.35 89.3 1.6 89.05 1.85 87.6 3.7 86.55 5.15 86.35 4.9 Q86.1 4.6 85.8 4.6 L63.5 4.6 Q63.2 4.6 63.1 4.85 L63.05 5.1 61.55 5.1 Q60.95 5.65 60.9 5.4 L60.6 4.95 Q60.35 4.65 60.05 4.65 L45.95 4.65 45.95 3.6 44.1 3.6 44.1 4.4 43.5 4.4 43.5 1.4 Q43.5 0.85 43.1 0.45 42.65 0.0 42.0 0.0 41.45 0.0 41.0 0.45 40.6 0.85 40.6 1.35 40.6 2.1 41.2 2.55 L41.8 2.85 41.9 3.35 40.85 4.85 37.85 4.85 36.5 5.1 36.25 5.35 36.25 6.45 35.0 6.45 34.35 6.7 34.35 7.0 27.15 7.0 27.05 6.6 26.75 6.2 1.85 6.2 Q0.95 6.2 0.45 6.7 0.0 7.15 0.0 7.75 L0.0 23.05 Q0.0 23.6 0.25 23.85 L0.75 24.3 1.6 24.65 2.5 24.7 3.05 24.05 3.2 23.45 11.2 18.3 11.25 18.8 Q11.35 19.15 11.6 19.1 L12.2 18.8 16.45 15.6 18.2 15.6 18.2 16.35 21.15 16.35 21.95 14.95 23.15 14.95 24.05 13.3 24.45 12.95 25.65 11.95 Q26.3 11.45 26.55 10.8 L26.65 10.25 34.35 10.25 34.35 10.5 35.0 10.75 35.25 10.75 Q35.15 11.2 35.2 12.15 L35.25 13.3 Q35.25 13.8 35.8 14.05 L36.35 14.1 37.2 14.05 Q37.85 14.1 38.15 15.15 38.45 16.15 38.15 16.7 L31.8 27.65 Q31.5 28.25 32.4 28.75 33.2 29.25 34.7 29.45 L39.15 29.3 Q39.4 28.95 39.1 28.55 L38.75 27.9 39.6 26.1 40.65 24.15 Q40.8 23.75 41.45 23.55 L42.15 23.2 41.9 22.6 Q41.65 22.2 41.75 21.95 L42.15 21.45 42.6 20.75 Q42.8 20.3 43.2 20.3 L43.6 20.4 43.75 20.65 44.15 20.95 44.7 20.4 50.4 20.4 51.05 19.75 51.05 20.3 51.7 20.5 51.65 21.85 Q51.7 23.65 52.1 25.9 52.45 27.95 53.15 30.25 L53.6 32.1 53.6 32.55 Q53.75 32.8 54.05 32.8 L61.95 30.3 62.1 29.95 61.85 29.8 60.5 25.2 60.05 23.5 59.95 21.7 59.8 19.7 Q59.7 18.75 59.95 18.65 L60.35 18.25 59.95 17.75 59.95 12.0 60.3 12.0 60.85 11.1 61.05 11.55 61.55 12.0 85.7 12.0 86.55 11.65 Q86.95 11.35 86.95 11.05 L86.95 10.25 90.05 10.25 90.2 10.45 90.5 10.7 91.25 10.7 91.9 9.85 93.45 9.85 93.55 10.0 93.8 10.15 M88.25 5.0 L88.55 4.35 89.1 3.3 91.0 3.3 90.85 6.25 88.6 6.25 88.3 5.6 88.25 5.0 M50.2 17.65 L49.95 18.9 Q49.6 19.55 48.7 19.55 L45.65 19.55 Q45.0 19.55 44.55 18.95 44.15 18.35 44.1 17.65 44.1 17.1 44.65 16.6 L45.25 16.2 45.3 16.8 Q45.4 17.45 45.65 17.75 46.5 18.9 46.8 18.7 L46.65 18.0 46.35 16.85 46.55 16.25 46.6 16.2 49.0 16.2 Q49.5 16.2 49.85 16.6 50.2 17.0 50.2 17.65" fill="none" stroke="#009900" stroke-linecap="round" stroke-linejoin="round" stroke-opacity="0.4" stroke-width="1.5"/>
    <path d="M93.8 10.15 L99.95 10.15 100.6 9.9 Q100.95 9.6 100.95 9.1 L100.95 8.6 Q100.95 7.95 100.55 7.6 100.3 7.3 99.9 7.3 L93.9 7.3 93.5 7.5 93.3 7.75 91.8 7.75 91.8 1.35 90.55 1.35 89.3 1.6 89.05 1.85 87.6 3.7 86.55 5.15 86.35 4.9 Q86.1 4.6 85.8 4.6 L63.5 4.6 Q63.2 4.6 63.1 4.85 L63.05 5.1 61.55 5.1 Q60.95 5.65 60.9 5.4 L60.6 4.95 Q60.35 4.65 60.05 4.65 L45.95 4.65 45.95 3.6 44.1 3.6 44.1 4.4 43.5 4.4 43.5 1.4 Q43.5 0.85 43.1 0.45 42.65 0.0 42.0 0.0 41.45 0.0 41.0 0.45 40.6 0.85 40.6 1.35 40.6 2.1 41.2 2.55 L41.8 2.85 41.9 3.35 40.85 4.85 37.85 4.85 36.5 5.1 36.25 5.35 36.25 6.45 35.0 6.45 34.35 6.7 34.35 7.0 27.15 7.0 27.05 6.6 26.75 6.2 1.85 6.2 Q0.95 6.2 0.45 6.7 0.0 7.15 0.0 7.75 L0.0 23.05 Q0.0 23.6 0.25 23.85 L0.75 24.3 1.6 24.65 2.5 24.7 3.05 24.05 3.2 23.45 11.2 18.3 11.25 18.8 Q11.35 19.15 11.6 19.1 L12.2 18.8 16.45 15.6 18.2 15.6 18.2 16.35 21.15 16.35 21.95 14.95 23.15 14.95 24.05 13.3 24.45 12.95 25.65 11.95 Q26.3 11.45 26.55 10.8 L26.65 10.25 34.35 10.25 34.35 10.5 35.0 10.75 35.25 10.75 Q35.15 11.2 35.2 12.15 L35.25 13.3 Q35.25 13.8 35.8 14.05 L36.35 14.1 37.2 14.05 Q37.85 14.1 38.15 15.15 38.45 16.15 38.15 16.7 L31.8 27.65 Q31.5 28.25 32.4 28.75 33.2 29.25 34.7 29.45 L39.15 29.3 Q39.4 28.95 39.1 28.55 L38.75 27.9 39.6 26.1 40.65 24.15 Q40.8 23.75 41.45 23.55 L42.15 23.2 41.9 22.6 Q41.65 22.2 41.75 21.95 L42.15 21.45 42.6 20.75 Q42.8 20.3 43.2 20.3 L43.6 20.4 43.75 20.65 44.15 20.95 44.7 20.4 50.4 20.4 51.05 19.75 51.05 20.3 51.7 20.5 51.65 21.85 Q51.7 23.65 52.1 25.9 52.45 27.95 53.15 30.25 L53.6 32.1 53.6 32.55 Q53.75 32.8 54.05 32.8 L61.95 30.3 62.1 29.95 61.85 29.8 60.5 25.2 60.05 23.5 59.95 21.7 59.8 19.7 Q59.7 18.75 59.95 18.65 L60.35 18.25 59.95 17.75 59.95 12.0 60.3 12.0 60.85 11.1 61.05 11.55 61.55 12.0 85.7 12.0 86.55 11.65 Q86.95 11.35 86.95 11.05 L86.95 10.25 90.05 10.25 90.2 10.45 90.5 10.7 91.25 10.7 91.9 9.85 93.45 9.85 93.55 10.0 93.8 10.15 M88.55 4.35 L89.1 3.3 91.0 3.3 90.85 6.25 88.6 6.25 88.3 5.6 88.25 5.0 88.55 4.35 M50.2 17.65 L49.95 18.9 Q49.6 19.55 48.7 19.55 L45.65 19.55 Q45.0 19.55 44.55 18.95 44.15 18.35 44.1 17.65 44.1 17.1 44.65 16.6 L45.25 16.2 45.3 16.8 Q45.4 17.45 45.65 17.75 46.5 18.9 46.8 18.7 L46.65 18.0 46.35 16.85 46.55 16.25 46.6 16.2 49.0 16.2 Q49.5 16.2 49.85 16.6 50.2 17.0 50.2 17.65" fill="none" stroke="#009900" stroke-linecap="round" stroke-linejoin="round" stroke-width="0.5"/>
  </g>
</svg>
