<?xml version="1.0" encoding="UTF-8" standalone="no"?>
<svg xmlns:xlink="http://www.w3.org/1999/xlink" height="36.25px" width="27.45px" xmlns="http://www.w3.org/2000/svg">
  <g transform="matrix(1.0, 0.0, 0.0, 1.0, 0.9, 0.0)">
    <path d="M23.7 18.35 L24.0 19.05 24.35 20.4 24.45 21.05 24.55 21.7 24.65 23.5 24.8 24.95 24.8 33.85 24.5 34.1 24.25 34.35 24.6 34.6 25.0 34.85 25.8 34.15 25.75 19.25 21.9 11.0 18.05 2.85 17.5 2.2 17.3 2.2 17.25 0.75 15.95 0.75 15.8 0.85 15.8 2.05 8.45 2.05 8.3 2.25 8.1 2.45 7.2 2.45 6.55 3.05 6.55 3.5 6.25 3.6 6.1 3.8 6.0 4.0 6.0 4.25 6.1 4.45 6.25 4.65 6.95 4.95 7.35 4.9 8.45 4.85 8.45 11.4 8.75 11.55 9.05 11.7 9.05 12.1 9.1 12.55 9.1 14.45 8.3 14.5 7.4 14.55 6.8 14.7 6.1 14.9 4.15 15.4 3.5 15.75 Q2.9 16.05 2.85 16.1 L1.95 17.2 1.0 18.3 0.65 19.2 0.25 20.15 -0.15 22.5 -0.15 25.65 0.0 26.25 0.05 26.85 0.5 28.1 0.9 29.4 1.45 30.25 2.0 31.1 2.45 31.6 2.85 32.1 4.75 33.65 5.5 33.95 6.2 34.25 8.1 34.9 9.9 35.5 12.15 35.5 15.95 34.7 17.1 34.3 18.3 33.9 19.25 33.35 20.2 32.75 21.2 31.65 22.15 30.55 22.85 29.1 23.5 27.7 23.65 27.3 23.85 26.85 24.05 25.9 24.25 25.0 24.25 22.6 24.15 22.15 24.05 21.75 23.85 21.1 23.6 20.45 23.45 20.0 23.3 19.55 23.0 18.6 22.6 17.7 22.2 17.25 21.8 16.8 21.2 16.35 20.55 15.95 19.45 15.55 18.3 15.2 15.5 14.75 15.5 11.85 15.55 11.75 19.45 11.65 19.55 11.85 21.95 15.45 22.75 16.45 23.05 17.05 23.35 17.65 23.7 18.35 Z" fill="none" stroke="#cccccc" stroke-linecap="round" stroke-linejoin="round" stroke-width="1.5"/>
  </g>
</svg>
