<?xml version="1.0" encoding="UTF-8" standalone="no"?>
<svg xmlns:xlink="http://www.w3.org/1999/xlink" height="39.45px" width="62.7px" xmlns="http://www.w3.org/2000/svg">
  <g transform="matrix(1.0, 0.0, 0.0, 1.0, 1.25, 0.85)">
    <path d="M9.85 -0.15 L10.3 -0.1 10.3 0.45 45.75 0.35 45.75 0.0 46.1 -0.15 47.1 -0.1 47.75 0.25 47.75 0.45 48.0 0.45 48.0 1.0 48.45 1.35 49.15 1.35 49.25 1.45 49.45 1.65 49.5 1.85 49.5 2.0 60.6 2.0 60.7 2.1 60.8 2.4 61.05 3.6 60.9 4.95 60.75 5.45 49.35 5.45 49.15 5.95 48.15 5.95 48.2 7.6 48.15 7.9 48.0 8.35 47.8 8.5 47.7 8.55 40.15 8.55 39.95 9.05 40.65 9.1 42.1 9.5 43.25 10.15 43.65 10.45 43.4 10.7 39.15 10.7 46.3 35.3 45.9 35.5 46.05 35.55 46.3 35.65 46.7 35.95 46.7 36.55 46.5 36.65 45.9 37.0 45.15 37.25 44.9 37.35 44.25 37.35 44.1 37.6 42.4 37.6 42.4 38.2 38.7 38.2 38.65 37.65 31.05 10.8 30.6 10.5 29.9 11.8 29.9 12.95 30.0 13.0 30.05 13.15 30.25 13.2 30.3 16.4 30.05 16.45 30.05 16.65 28.15 17.3 26.2 17.95 22.4 18.35 19.8 17.8 19.05 17.5 18.75 17.35 18.15 17.85 17.75 17.95 17.35 18.1 17.2 18.3 17.15 18.4 15.35 22.75 12.8 29.1 12.65 29.55 12.65 30.25 12.95 31.95 13.9 32.0 14.25 32.05 14.55 32.3 14.65 32.4 14.6 32.55 14.05 33.05 12.65 33.85 10.85 34.3 9.85 34.45 1.1 34.55 0.8 34.2 0.75 33.2 0.0 33.0 -0.4 32.95 -0.55 32.8 -0.55 32.75 -0.6 32.15 -0.75 31.7 -0.85 30.65 -0.65 29.3 3.75 17.3 4.45 16.3 5.35 14.95 5.55 14.1 5.5 13.25 5.0 12.05 4.2 11.05 3.1 10.05 2.4 9.5 2.4 8.7 3.0 8.45 4.35 7.4 5.15 5.8 5.3 5.3 5.3 5.15 5.15 4.95 4.8 4.6 4.35 4.4 4.1 4.3 3.65 4.35 2.9 4.15 2.45 3.55 Q2.3 3.1 2.45 2.5 2.7 1.95 3.2 1.85 L4.0 1.8 4.6 2.3 5.05 2.8 5.05 3.35 5.3 3.65 5.35 3.05 5.45 2.5 5.85 1.6 6.7 1.0 7.3 0.8 7.35 0.45 8.9 0.45 8.9 -0.45 9.85 -0.45 9.85 -0.15 M22.85 11.1 L23.25 11.4 23.45 11.95 23.55 12.5 23.6 12.95 23.65 13.65 Q23.75 14.65 24.15 15.2 24.8 16.15 26.0 16.45 L27.0 16.6 27.0 16.4 26.35 16.05 Q25.6 15.65 25.35 15.3 L25.0 14.4 24.8 13.2 Q24.8 12.55 25.15 11.8 L25.4 11.35 25.5 11.2 25.55 10.7 25.3 10.7 25.45 10.4 26.0 10.0 26.7 9.8 27.6 10.05 28.5 11.0 29.05 12.0 29.15 13.55 29.1 14.9 28.85 15.45 28.25 16.15 Q26.8 17.2 24.7 17.7 L22.5 17.8 20.7 17.3 Q19.65 16.8 19.15 15.95 L18.95 15.45 18.9 15.3 19.05 14.35 Q19.25 13.3 19.95 12.45 20.65 11.65 21.7 11.15 22.2 10.95 22.6 10.9 L22.85 11.1" fill="none" stroke="#373535" stroke-linecap="round" stroke-linejoin="round" stroke-width="0.8"/>
  </g>
</svg>
