<?xml version="1.0" encoding="UTF-8" standalone="no"?>
<svg xmlns:xlink="http://www.w3.org/1999/xlink" height="28.2px" width="143.45px" xmlns="http://www.w3.org/2000/svg">
  <g transform="matrix(1.0, 0.0, 0.0, 1.0, 0.75, 0.75)">
    <path d="M141.35 7.85 L141.6 8.4 141.8 8.9 141.95 9.55 Q141.95 10.05 141.35 10.95 L141.2 11.2 88.1 11.2 88.1 12.1 92.0 12.1 92.0 15.5 92.55 16.05 Q93.0 16.4 93.0 17.25 L92.9 17.65 92.8 17.8 92.8 17.95 92.55 18.55 92.1 18.55 89.75 18.55 83.75 18.55 72.05 18.55 71.8 19.05 72.05 19.2 72.4 19.55 72.15 20.3 70.15 20.3 69.9 20.05 69.25 18.55 Q68.75 17.4 69.15 16.65 69.15 16.05 69.75 16.05 L69.9 16.05 Q71.15 16.05 71.45 16.4 72.15 16.4 73.1 16.0 L63.4 15.9 62.15 16.25 59.85 16.9 57.45 17.55 Q56.4 17.8 56.3 17.95 L56.3 21.45 44.85 22.65 44.85 19.05 Q43.95 19.05 43.75 19.3 L42.95 19.95 41.45 20.75 39.15 20.95 Q37.85 20.85 36.2 19.85 L36.0 19.95 35.6 19.95 35.55 21.5 35.2 23.5 34.6 25.4 33.9 26.4 31.55 26.65 28.05 26.2 24.65 25.65 22.75 25.0 21.35 23.5 19.85 22.15 18.9 21.45 12.35 21.45 11.85 24.65 Q11.8 25.05 11.55 25.05 L10.95 25.4 9.25 25.05 7.25 25.05 5.95 25.05 4.95 25.2 3.4 25.45 1.8 25.8 0.6 26.05 0.25 26.05 0.1 25.9 0.0 25.05 0.0 23.15 0.0 19.3 0.25 14.85 0.25 11.55 Q0.25 11.15 1.25 10.7 L5.7 10.4 7.0 10.4 7.1 10.3 7.25 10.2 7.5 10.05 7.9 9.75 19.8 9.75 Q20.2 9.8 20.6 10.2 L21.95 11.55 35.45 11.55 35.85 10.3 36.1 9.05 36.1 8.75 36.2 8.75 38.15 8.4 39.75 8.1 40.25 8.0 Q40.3 7.85 40.55 7.75 L44.75 7.75 44.75 6.5 43.2 6.5 41.95 6.7 39.55 7.0 36.75 7.25 34.3 7.1 34.2 6.85 34.2 6.7 34.05 4.55 34.05 3.2 Q34.05 2.8 34.2 2.65 L34.3 2.55 34.55 2.55 35.6 2.45 38.0 2.3 40.8 2.15 42.8 2.3 44.75 2.3 47.15 2.3 49.3 2.25 50.7 2.15 50.7 1.3 50.6 1.05 50.6 0.25 54.75 0.0 54.8 0.0 55.3 1.4 55.15 1.55 Q55.05 1.75 54.8 1.75 L54.8 2.0 62.05 2.0 64.45 1.65 67.7 1.3 70.75 1.05 72.4 1.25 72.6 1.4 72.7 7.1 72.4 7.1 62.65 6.5 62.65 6.7 61.25 6.45 58.85 6.5 58.85 7.65 141.35 7.65 141.35 7.85 M42.45 17.7 Q42.45 16.65 41.3 16.65 L38.5 16.65 Q37.35 16.65 37.35 17.7 37.35 18.95 38.5 18.95 L41.3 18.95 Q42.45 18.95 42.45 17.7" fill="none" stroke="#000000" stroke-linecap="round" stroke-linejoin="round" stroke-opacity="0.4" stroke-width="1.5"/>
    <path d="M141.45 10.95 L141.3 11.2 88.2 11.2 88.2 12.1 92.1 12.1 92.1 15.5 92.65 16.05 Q93.1 16.4 93.1 17.25 L93.0 17.65 Q92.9 17.65 92.9 17.8 L92.9 17.95 Q92.9 18.55 92.65 18.55 L92.2 18.55 89.85 18.55 83.85 18.55 72.15 18.55 71.9 19.05 72.15 19.2 72.5 19.55 72.25 20.3 70.25 20.3 70.0 20.05 69.35 18.55 Q68.85 17.4 69.25 16.65 69.25 16.05 69.85 16.05 L70.0 16.05 Q71.25 16.05 71.55 16.4 L73.2 16.0 63.5 15.9 62.25 16.25 59.95 16.9 57.55 17.55 56.4 17.95 56.4 21.45 44.95 22.65 44.95 19.05 Q44.05 19.05 43.85 19.3 L43.05 19.95 Q42.45 20.55 41.55 20.75 L39.25 20.95 Q37.95 20.85 36.3 19.85 L36.1 19.95 35.7 19.95 35.65 21.5 35.3 23.5 34.7 25.4 Q34.4 26.2 34.0 26.4 L31.65 26.65 28.15 26.2 24.75 25.65 22.85 25.0 21.45 23.5 19.95 22.15 19.0 21.45 12.45 21.45 11.95 24.65 11.65 25.05 Q11.5 25.4 11.05 25.4 L9.35 25.05 7.35 25.05 6.05 25.05 5.05 25.2 3.5 25.45 1.9 25.8 0.7 26.05 0.35 26.05 0.2 25.9 0.1 25.05 0.1 23.15 0.1 19.3 0.35 14.85 0.35 11.55 Q0.35 11.15 1.35 10.7 L5.8 10.4 7.1 10.4 7.2 10.3 7.35 10.2 7.6 10.05 8.0 9.75 19.9 9.75 Q20.3 9.8 20.7 10.2 L22.05 11.55 35.55 11.55 35.95 10.3 36.2 9.05 36.2 8.75 36.3 8.75 38.25 8.4 39.85 8.1 40.35 8.0 40.65 7.75 44.85 7.75 44.85 6.5 43.3 6.5 42.05 6.7 39.65 7.0 36.85 7.25 34.4 7.1 34.3 6.85 34.3 6.7 34.15 4.55 34.15 3.2 Q34.15 2.8 34.3 2.65 L34.4 2.55 34.65 2.55 35.7 2.45 38.1 2.3 40.9 2.15 42.9 2.3 44.85 2.3 47.25 2.3 49.4 2.25 50.8 2.15 50.8 1.3 50.7 1.05 50.7 0.25 54.85 0.0 54.9 0.0 55.4 1.4 55.25 1.55 54.9 1.75 54.9 2.0 62.15 2.0 64.55 1.65 67.8 1.3 70.85 1.05 72.5 1.25 72.7 1.4 72.8 7.1 72.5 7.1 62.75 6.5 62.75 6.7 61.35 6.45 58.95 6.5 58.95 7.65 141.45 7.65 141.45 7.85 141.7 8.4 141.9 8.9 142.05 9.55 Q142.05 10.05 141.45 10.95 M41.4 16.65 L38.6 16.65 Q37.45 16.65 37.45 17.7 37.45 18.95 38.6 18.95 L41.4 18.95 Q42.55 18.95 42.55 17.7 42.55 16.65 41.4 16.65 M25.25 18.7 L26.0 17.7 27.2 16.95 30.5 16.8 Q32.1 17.1 32.35 18.05 32.7 18.6 32.55 19.6 L32.05 21.1 30.2 22.7 Q28.5 23.45 27.25 23.1 25.75 22.95 25.05 21.5 24.45 20.0 25.25 18.7" fill="none" stroke="#000000" stroke-linecap="round" stroke-linejoin="round" stroke-width="1.0"/>
  </g>
</svg>
