<?xml version="1.0" encoding="UTF-8" standalone="no"?>
<svg xmlns:xlink="http://www.w3.org/1999/xlink" height="42.95px" width="101.2px" xmlns="http://www.w3.org/2000/svg">
  <g transform="matrix(1.0, 0.0, 0.0, 1.0, 0.75, 0.75)">
    <path d="M91.5 10.35 L91.05 10.6 90.15 10.6 89.7 10.2 87.85 10.2 87.45 10.45 87.2 10.6 71.7 10.6 70.8 10.1 70.8 8.95 67.25 7.2 65.9 7.2 65.9 7.0 65.2 7.0 65.2 7.2 63.45 7.2 63.45 7.0 62.75 7.0 62.75 7.2 61.0 7.2 61.0 7.0 60.3 7.0 60.3 7.2 58.6 7.2 58.6 7.0 57.85 7.0 57.85 7.2 56.15 7.2 56.15 7.0 55.4 7.0 55.4 7.2 53.75 7.2 53.55 6.25 Q53.5 6.0 52.8 5.9 L52.15 5.9 51.75 5.3 54.25 5.3 54.25 5.6 54.75 5.6 54.75 5.4 55.75 5.35 55.75 0.45 54.75 0.45 54.75 0.25 54.2 0.25 54.2 0.55 53.5 0.55 52.8 0.0 51.25 0.0 46.5 0.55 42.55 1.1 42.55 0.5 41.5 0.4 40.55 0.55 40.55 1.4 40.05 1.45 Q40.05 0.85 39.4 0.85 38.85 0.85 38.7 1.15 L38.6 1.5 36.9 1.55 36.6 1.35 36.15 1.35 Q35.75 1.5 35.75 3.0 35.75 4.55 36.2 5.2 L36.8 5.2 37.05 4.95 38.8 4.95 38.9 5.25 39.5 5.5 Q40.3 5.5 40.25 4.95 L41.0 4.95 41.0 7.5 39.1 7.45 37.7 7.7 36.5 8.5 35.7 9.1 35.7 9.45 4.25 10.1 Q3.6 10.1 2.4 10.9 L0.8 12.2 0.15 13.15 Q-0.05 13.7 0.0 14.95 0.05 16.15 1.2 21.55 L2.75 28.0 Q3.1 29.0 3.75 29.6 4.3 30.05 4.85 30.05 L10.7 30.05 Q11.35 30.05 11.7 29.7 12.1 29.35 12.1 28.7 L11.55 27.85 11.0 27.25 11.35 26.05 Q11.65 25.0 14.4 23.05 16.8 21.45 18.0 21.0 18.1 20.95 18.45 21.35 18.8 21.8 18.95 21.65 L21.2 19.85 22.7 19.9 22.9 22.65 Q23.3 26.2 24.2 30.05 25.15 33.9 26.4 37.2 L27.55 39.65 Q27.45 41.6 28.05 41.45 L31.75 40.15 35.4 38.85 Q36.25 38.4 35.55 37.5 33.9 35.35 31.9 28.25 30.6 23.75 30.35 21.0 L30.45 19.2 Q31.45 18.85 31.85 18.25 32.05 17.85 33.55 17.75 L36.6 17.55 39.4 17.45 Q40.65 17.7 40.65 19.15 40.65 20.45 39.9 21.35 L38.9 22.25 Q38.6 22.5 37.85 23.85 L36.9 25.6 Q36.45 26.55 36.35 28.7 L36.45 29.75 Q36.6 30.05 37.1 30.05 L40.6 30.0 45.55 29.75 48.4 29.25 Q49.4 28.75 50.5 27.15 L53.7 22.35 Q56.05 19.05 57.5 18.1 L61.85 17.9 65.6 18.1 64.7 18.55 Q63.8 19.05 63.95 19.45 L64.35 20.35 64.7 21.6 Q64.85 22.15 64.45 23.35 L63.75 25.8 Q63.45 27.65 63.5 29.85 L64.75 30.2 66.95 30.6 68.85 30.25 Q69.75 29.9 69.55 29.55 68.5 27.8 68.4 26.25 L68.4 23.65 68.35 21.35 Q68.2 20.55 68.5 18.9 68.55 18.4 67.75 18.25 L66.95 18.15 66.6 17.8 Q67.2 17.6 67.25 17.1 L67.65 14.05 70.65 14.05 70.85 13.75 71.2 13.75 71.45 14.05 71.8 14.05 72.6 13.2 87.05 12.85 87.2 12.95 87.6 13.1 89.65 13.1 Q90.0 13.1 90.1 12.75 L91.15 12.75 91.35 12.95 93.55 12.95 93.75 13.1 95.15 13.1 95.45 13.0 96.05 12.9 96.5 12.95 96.95 13.1 99.15 13.1 99.5 12.65 99.7 11.5 99.5 10.35 99.25 9.9 96.8 9.9 96.1 10.2 95.5 10.15 95.15 10.05 93.9 10.05 Q93.65 10.05 93.5 10.25 L93.45 10.45 91.5 10.35 M48.55 18.15 L52.8 18.15 Q53.7 19.65 53.45 20.1 49.25 27.0 48.55 27.6 47.55 28.35 45.7 28.55 L42.3 28.55 Q41.8 28.4 41.5 27.85 41.1 27.15 41.6 26.2 L44.05 21.7 44.35 21.4 44.7 21.3 45.9 21.3 46.15 20.7 46.8 20.75 47.8 20.7 48.0 20.4 47.9 19.4 Q47.9 18.8 48.25 18.4 L48.55 18.15" fill="none" stroke="#ffffff" stroke-linecap="round" stroke-linejoin="round" stroke-width="1.5"/>
    <path d="M89.65 13.1 Q90.0 13.1 90.1 12.75 L91.15 12.75 91.35 12.95 93.55 12.95 93.75 13.1 95.15 13.1 95.45 13.0 96.05 12.9 96.5 12.95 96.95 13.1 99.15 13.1 99.5 12.65 99.7 11.5 99.5 10.35 99.25 9.9 96.8 9.9 96.1 10.2 95.5 10.15 95.15 10.05 93.9 10.05 Q93.65 10.05 93.5 10.25 L93.45 10.45 91.5 10.35 91.05 10.6 90.15 10.6 89.7 10.2 87.85 10.2 87.45 10.45 87.2 10.6 71.7 10.6 70.8 10.1 70.8 8.95 67.25 7.2 65.9 7.2 65.9 7.0 65.2 7.0 65.2 7.2 63.45 7.2 63.45 7.0 62.75 7.0 62.75 7.2 61.0 7.2 61.0 7.0 60.3 7.0 60.3 7.2 58.6 7.2 58.6 7.0 57.85 7.0 57.85 7.2 56.15 7.2 56.15 7.0 55.4 7.0 55.4 7.2 53.75 7.2 53.55 6.25 Q53.5 6.0 52.8 5.9 L52.15 5.9 51.75 5.3 54.25 5.3 54.25 5.6 54.75 5.6 54.75 5.4 55.75 5.35 55.75 0.45 54.75 0.45 54.75 0.25 54.2 0.25 54.2 0.55 53.5 0.55 52.8 0.0 51.25 0.0 46.5 0.55 42.55 1.1 42.55 0.5 41.5 0.4 40.55 0.55 40.55 1.4 40.05 1.45 Q40.05 0.85 39.4 0.85 38.85 0.85 38.7 1.15 L38.6 1.5 36.9 1.55 36.6 1.35 36.15 1.35 Q35.75 1.5 35.75 3.0 35.75 4.55 36.2 5.2 L36.8 5.2 37.05 4.95 38.8 4.95 38.9 5.25 39.5 5.5 Q40.3 5.5 40.25 4.95 L41.0 4.95 41.0 7.5 39.1 7.45 37.7 7.7 36.5 8.5 35.7 9.1 35.7 9.45 4.25 10.1 Q3.6 10.1 2.4 10.9 L0.8 12.2 0.15 13.15 Q-0.05 13.7 0.0 14.95 0.05 16.15 1.2 21.55 L2.75 28.0 Q3.1 29.0 3.75 29.6 4.3 30.05 4.85 30.05 L10.7 30.05 Q11.35 30.05 11.7 29.7 12.1 29.35 12.1 28.7 L11.55 27.85 11.0 27.25 11.35 26.05 Q11.65 25.0 14.4 23.05 16.8 21.45 18.0 21.0 18.1 20.95 18.45 21.35 18.8 21.8 18.95 21.65 L21.2 19.85 22.7 19.9 22.9 22.65 Q23.3 26.2 24.2 30.05 25.15 33.9 26.4 37.2 L27.55 39.65 Q27.45 41.6 28.05 41.45 L31.75 40.15 35.4 38.85 Q36.25 38.4 35.55 37.5 33.9 35.35 31.9 28.25 30.6 23.75 30.35 21.0 L30.45 19.2 Q31.45 18.85 31.85 18.25 32.05 17.85 33.55 17.75 L36.6 17.55 39.4 17.45 Q40.65 17.7 40.65 19.15 40.65 20.45 39.9 21.35 L38.9 22.25 Q38.6 22.5 37.85 23.85 L36.9 25.6 Q36.45 26.55 36.35 28.7 L36.45 29.75 Q36.6 30.05 37.1 30.05 L40.6 30.0 45.55 29.75 48.4 29.25 Q49.4 28.75 50.5 27.15 L53.7 22.35 Q56.05 19.05 57.5 18.1 L61.85 17.9 65.6 18.1 64.7 18.55 Q63.8 19.05 63.95 19.45 L64.35 20.35 64.7 21.6 Q64.85 22.15 64.45 23.35 L63.75 25.8 Q63.45 27.65 63.5 29.85 L64.75 30.2 66.95 30.6 68.85 30.25 Q69.75 29.9 69.55 29.55 68.5 27.8 68.4 26.25 L68.4 23.65 68.35 21.35 Q68.2 20.55 68.5 18.9 68.55 18.4 67.75 18.25 L66.95 18.15 66.6 17.8 Q67.2 17.6 67.25 17.1 L67.65 14.05 70.65 14.05 70.85 13.75 71.2 13.75 71.45 14.05 71.8 14.05 72.6 13.2 87.05 12.85 87.2 12.95 87.6 13.1 89.65 13.1 M48.55 18.15 L52.8 18.15 Q53.7 19.65 53.45 20.1 49.25 27.0 48.55 27.6 47.55 28.35 45.7 28.55 L42.3 28.55 Q41.8 28.4 41.5 27.85 41.1 27.15 41.6 26.2 L44.05 21.7 44.35 21.4 44.7 21.3 45.9 21.3 46.15 20.7 46.8 20.75 47.8 20.7 48.0 20.4 47.9 19.4 Q47.9 18.8 48.25 18.4 L48.55 18.15" fill="none" stroke="#ffffff" stroke-linecap="round" stroke-linejoin="round" stroke-width="0.5"/>
  </g>
</svg>
