<?xml version="1.0" encoding="UTF-8" standalone="no"?>
<svg xmlns:xlink="http://www.w3.org/1999/xlink" height="36.7px" width="24.3px" xmlns="http://www.w3.org/2000/svg">
  <g transform="matrix(1.0, 0.0, 0.0, 1.0, -1.25, 0.8)">
    <path d="M6.15 -0.65 L6.15 0.3 6.7 0.0 6.7 -0.05 14.95 -0.05 15.5 0.35 15.5 -0.65 15.55 -0.65 15.55 -0.75 15.65 -0.75 15.65 -0.8 20.0 -0.8 20.0 -0.75 20.25 -0.75 20.25 -0.7 20.3 -0.7 20.3 3.6 20.25 3.6 20.25 3.8 20.15 3.8 20.15 3.85 19.25 3.85 19.55 4.25 19.55 5.65 19.45 5.65 19.45 5.7 2.2 5.7 2.2 5.65 2.1 5.65 2.1 5.6 2.05 5.6 2.05 4.45 2.4 3.95 1.5 3.85 1.5 3.8 1.35 3.8 1.35 3.6 1.3 3.6 1.3 -0.8 5.95 -0.8 5.95 -0.75 6.1 -0.75 6.1 -0.65 6.15 -0.65 M20.45 21.1 L19.2 21.1 19.45 21.5 19.5 31.05 19.45 31.05 19.45 31.1 19.4 31.1 19.4 31.2 20.15 31.2 20.15 31.3 20.25 31.3 20.25 31.45 20.3 31.45 20.3 35.75 20.25 35.75 20.25 35.8 20.0 35.8 20.0 35.9 15.65 35.9 15.65 35.8 15.55 35.8 15.55 35.7 15.5 35.7 15.5 35.25 15.55 35.25 15.55 35.0 15.4 35.0 15.4 35.1 15.35 35.1 15.35 35.2 15.3 35.2 15.3 35.25 6.35 35.25 6.35 35.2 6.25 35.2 6.25 35.1 6.2 35.1 6.2 35.05 6.1 35.05 6.1 35.8 5.95 35.8 5.95 35.9 1.3 35.9 1.3 31.45 1.35 31.45 1.35 31.3 1.5 31.3 1.5 31.2 2.3 31.2 2.3 31.15 2.2 31.15 2.2 31.05 2.1 31.05 2.1 21.5 2.35 21.1 1.45 21.1 1.45 21.05 1.35 21.05 1.35 21.0 1.25 21.0 1.25 17.8 1.3 17.8 1.3 17.7 1.35 17.7 1.35 17.65 2.35 17.65 2.05 17.3 2.05 11.25 2.1 11.25 2.1 11.15 2.2 11.15 2.2 11.05 19.45 11.05 19.45 11.1 19.5 11.1 19.5 17.2 19.2 17.65 20.45 17.65 20.45 21.1 M2.1 7.1 L2.1 7.05 2.2 7.05 2.2 6.95 4.45 6.95 4.45 9.8 2.1 9.8 2.1 9.75 2.05 9.75 2.05 7.1 2.1 7.1 M17.25 19.4 L17.25 19.15 14.85 16.7 14.85 21.75 17.25 19.4 M4.2 19.15 L6.9 21.65 6.9 16.95 4.2 19.15" fill="#fefefe" fill-opacity="0.99607843" fill-rule="evenodd" stroke="none"/>
    <path d="M22.05 9.0 L22.0 9.55 22.85 12.5 23.15 19.05 23.5 21.5 24.05 23.15 24.45 23.25 24.8 24.4 25.55 26.7 24.0 27.2 23.1 24.45 22.85 23.65 23.05 23.35 22.4 21.55 22.05 19.1 21.7 12.55 20.95 10.55 20.65 9.8 17.1 9.8 17.1 6.95 19.55 6.95 19.55 7.95 20.95 8.0 22.05 9.0" fill="#fafafa" fill-opacity="0.98039216" fill-rule="evenodd" stroke="none"/>
    <path d="M16.25 9.8 L5.3 9.8 5.3 6.95 16.25 6.95 16.25 9.8" fill="#ffffff" fill-rule="evenodd" stroke="none"/>
  </g>
</svg>
