<?xml version="1.0" encoding="UTF-8" standalone="no"?>
<svg xmlns:xlink="http://www.w3.org/1999/xlink" height="47.55px" width="11.2px" xmlns="http://www.w3.org/2000/svg">
  <g transform="matrix(1.0, 0.0, 0.0, 1.0, 1.55, 10.55)">
    <path d="M7.65 16.85 L9.65 17.2 9.5 17.75 8.5 17.75 8.55 18.2 9.65 18.15 9.6 18.7 8.45 18.7 8.45 19.15 9.45 19.15 9.6 19.75 8.35 19.7 8.35 20.15 9.6 20.1 9.65 21.0 7.7 22.95 7.7 28.05 6.75 28.75 6.75 29.35 1.2 29.35 1.2 28.75 0.35 28.05 0.4 23.0 -1.55 21.05 -1.45 20.15 -0.45 20.15 -0.45 19.6 -1.55 19.6 -1.45 19.1 -0.45 19.1 -0.5 18.7 -1.4 18.7 -1.45 18.15 -0.4 18.2 -0.45 17.65 -1.5 17.7 -1.45 17.2 0.45 16.8 7.7 16.8 7.65 16.85" fill="#ffffff" fill-rule="evenodd" stroke="none"/>
    <path d="M1.3 36.4 L1.3 31.35 6.7 31.35 6.4 36.45 5.25 36.9 3.9 37.0 2.55 36.9 1.3 36.4" fill="#ffffff" fill-rule="evenodd" stroke="none"/>
    <path d="M6.55 -9.1 L6.55 -4.9 7.9 -4.95 7.95 -4.2 0.6 -4.25 0.55 -4.95 1.6 -4.9 1.65 -6.65 1.75 -8.95 1.35 -9.0 0.95 -9.05 0.95 -9.4 1.6 -9.8 2.85 -10.55 5.35 -10.45 7.3 -9.55 7.35 -9.1 6.55 -9.1" fill="#ffffff" fill-rule="evenodd" stroke="none"/>
    <path d="M0.45 -2.65 L7.75 -2.65 7.7 14.2 7.85 14.2 7.8 15.25 0.4 15.25 0.4 6.8 0.45 -2.65 M5.2 12.5 L4.4 12.45 4.4 14.25 5.25 14.25 5.2 12.5 M5.95 14.25 L6.95 14.25 6.9 12.45 6.0 12.5 5.95 14.25 M2.85 14.2 L3.7 14.25 3.5 12.5 2.85 12.4 2.85 14.2 M1.0 12.5 L1.15 14.3 2.05 14.2 2.1 12.55 1.0 12.5" fill="#ffffff" fill-rule="evenodd" stroke="none"/>
  </g>
</svg>
