<?xml version="1.0" encoding="UTF-8" standalone="no"?>
<svg xmlns:xlink="http://www.w3.org/1999/xlink" height="39.75px" width="51.25px" xmlns="http://www.w3.org/2000/svg">
  <g transform="matrix(1.0, 0.0, 0.0, 1.0, -3.3, -0.05)">
    <path d="M45.85 3.45 L45.9 3.5 45.9 3.6 45.95 3.7 46.0 3.75 46.0 3.8 46.05 3.9 46.05 4.0 46.0 4.05 46.0 4.15 45.95 4.25 45.9 4.35 45.9 4.45 45.9 4.55 46.1 4.55 46.2 4.65 46.3 4.7 46.35 4.8 46.45 4.85 46.5 4.95 46.55 5.0 46.6 5.1 46.65 5.2 46.65 5.25 46.7 5.35 46.7 5.4 46.7 5.5 46.65 5.6 46.65 5.65 46.7 5.65 46.75 5.75 46.75 5.85 46.8 5.95 46.85 6.0 46.85 6.1 46.85 6.2 46.9 6.3 46.95 6.3 47.0 6.4 47.1 6.45 47.15 6.55 47.2 6.6 47.25 6.7 47.3 6.75 47.3 6.85 47.35 6.9 47.35 7.0 47.4 7.1 47.4 7.2 47.45 7.25 47.45 7.35 47.5 7.4 47.5 7.5 47.55 7.55 47.6 7.65 47.6 7.75 47.7 7.85 47.75 7.9 47.8 8.0 47.8 8.05 47.8 8.15 47.85 8.2 47.95 8.3 48.0 8.4 48.05 8.5 48.05 8.55 48.1 8.65 48.1 8.7 48.15 8.8 48.25 8.85 48.25 8.95 48.3 9.05 48.3 9.15 48.35 9.2 48.4 9.3 48.4 9.35 48.45 9.45 48.5 9.5 48.55 9.6 48.6 9.7 48.6 9.75 48.65 9.85 48.7 9.95 48.75 10.0 48.8 10.05 48.8 10.15 48.85 10.25 48.9 10.35 48.9 10.4 48.95 10.5 49.05 10.6 49.05 10.65 49.1 10.7 49.1 10.8 49.15 10.9 49.2 11.0 49.25 11.05 49.25 11.15 49.3 11.25 49.35 11.3 49.35 11.35 49.35 11.45 49.45 11.55 49.5 11.65 49.55 11.7 49.55 11.8 49.6 11.9 49.6 11.95 49.65 12.0 49.65 12.1 49.7 12.2 49.75 12.3 49.8 12.35 49.85 12.45 49.9 12.55 50.0 12.55 50.1 12.6 50.2 12.7 50.25 12.8 50.3 12.9 50.3 13.0 50.35 13.1 50.4 13.2 50.4 13.25 50.45 13.35 50.45 13.45 50.5 13.55 50.55 13.6 50.55 13.65 50.6 13.75 50.6 13.85 50.65 13.9 50.7 14.0 50.75 14.1 50.75 14.2 50.8 14.25 50.85 14.3 50.9 14.4 50.95 14.5 50.95 14.55 51.0 14.65 51.05 14.75 51.1 14.8 51.15 14.9 51.2 14.95 51.2 15.05 51.25 15.15 51.3 15.2 51.35 15.3 51.4 15.4 51.4 15.45 51.45 15.55 51.5 15.6 51.55 15.7 51.6 15.75 51.6 15.85 51.65 15.95 51.7 16.05 51.75 16.1 51.8 16.2 51.85 16.25 51.85 16.35 51.9 16.4 51.9 16.5 51.95 16.6 51.95 16.7 52.0 16.75 52.05 16.85 52.05 16.9 52.15 17.0 52.2 17.05 52.2 17.15 52.25 17.25 52.25 17.35 52.3 17.4 52.3 17.5 52.35 17.55 52.35 17.65 52.4 17.7 52.45 17.8 52.5 17.9 52.5 17.95 52.5 18.05 52.55 18.15 52.6 18.2 52.7 18.3 52.7 18.35 52.75 18.45 52.75 18.55 52.8 18.6 52.85 18.7 52.85 18.8 52.9 18.85 52.9 18.9 53.0 19.0 53.05 19.1 53.1 19.2 53.15 19.25 53.15 19.35 53.15 19.45 53.25 19.55 53.35 19.65 53.35 19.75 53.45 19.85 53.45 19.9 53.5 20.0 53.55 20.1 53.55 20.15 53.65 20.2 53.7 20.3 53.75 20.4 53.8 20.5 53.8 20.55 53.8 20.65 53.85 20.75 53.9 20.8 54.0 20.85 54.0 20.95 54.05 21.05 54.1 21.1 54.1 21.15 54.1 21.25 54.1 21.3 54.2 21.35 54.25 21.45 54.3 21.5 54.35 21.6 54.35 21.65 54.35 21.75 54.35 21.8 54.35 21.9 54.35 22.0 54.35 22.1 54.3 22.15 54.3 22.25 54.25 22.3 54.25 22.9 54.25 23.6 54.25 24.3 54.25 25.05 54.25 25.8 54.25 26.5 54.25 26.95 54.25 27.05 54.25 27.25 54.25 27.35 54.25 27.5 54.25 27.6 54.25 27.7 54.25 27.75 54.25 27.85 54.25 27.9 54.25 28.0 54.25 28.1 54.3 28.15 54.3 28.25 54.35 28.35 54.35 28.4 54.35 28.5 54.35 28.55 54.35 28.65 54.35 28.7 54.35 28.8 54.35 28.9 54.35 29.0 54.35 29.05 54.35 29.15 54.35 29.2 54.35 29.3 54.35 29.35 54.35 29.45 54.35 29.55 54.35 29.65 54.35 29.7 54.35 29.8 54.4 29.85 54.4 29.95 54.45 30.0 54.45 30.1 54.45 30.2 54.45 30.3 54.45 30.35 54.45 30.45 54.45 30.5 54.45 30.6 54.45 30.65 54.45 30.75 54.45 30.85 54.45 30.9 54.45 31.0 54.45 31.1 54.45 31.15 54.45 31.25 54.45 31.3 54.45 31.4 54.45 31.5 54.45 31.55 54.45 31.65 54.45 31.75 54.45 31.85 54.45 31.95 54.45 32.05 54.45 32.15 54.5 32.2 54.55 32.3 54.55 32.4 54.55 32.5 54.55 32.6 54.55 32.7 54.55 32.8 54.55 32.85 54.55 32.95 54.55 33.05 54.55 33.15 54.55 33.25 54.55 33.35 54.55 33.45 54.55 33.5 54.55 33.6 54.55 33.7 54.55 33.8 54.55 33.9 54.55 34.0 54.55 34.1 54.5 34.15 54.5 34.25 54.45 34.35 54.45 34.45 54.45 34.55 54.45 34.65 54.45 34.7 54.45 34.8 54.45 34.9 54.45 35.0 54.45 35.1 54.45 35.2 54.45 35.3 54.45 35.35 54.45 35.45 54.45 35.55 54.45 35.65 54.45 35.75 54.45 35.85 54.45 35.95 54.45 36.0 54.45 36.1 54.45 36.2 54.45 36.3 54.4 36.4 54.4 36.5 54.35 36.6 54.3 36.65 54.25 36.75 54.2 36.85 54.15 36.95 54.1 36.95 54.05 37.05 54.0 37.05 53.8 37.15 53.6 37.2 53.25 37.2 53.05 37.15 52.9 37.05 52.85 36.95 52.85 36.9 52.85 36.8 52.85 36.7 52.85 36.6 52.85 36.55 52.9 36.5 53.0 36.4 53.1 36.3 53.3 36.3 53.4 36.2 53.4 35.95 53.4 35.2 53.4 34.45 53.4 33.75 53.4 33.05 53.4 32.3 53.4 31.55 53.4 30.85 53.4 30.1 53.4 29.35 53.4 28.65 53.4 28.4 53.4 28.2 53.4 28.1 53.4 28.05 53.4 27.95 53.4 27.85 53.4 27.75 53.4 27.55 53.4 27.45 53.4 27.3 53.35 27.2 53.25 27.15 53.25 27.05 53.25 27.0 53.25 26.9 53.25 26.8 53.25 26.75 53.25 26.65 53.25 26.55 53.25 26.5 53.25 26.4 53.25 26.35 53.25 26.25 53.25 26.2 53.25 26.1 53.25 26.0 53.25 25.9 53.25 25.85 53.2 25.75 53.2 25.7 53.15 25.6 53.15 25.55 53.15 25.45 53.15 25.35 53.15 25.25 53.15 25.2 53.15 25.1 53.15 25.05 53.15 24.95 53.15 24.9 53.15 24.8 53.15 24.7 53.15 24.6 53.15 24.55 53.15 24.45 53.15 24.4 53.15 24.3 53.15 24.25 53.15 24.15 53.15 24.05 53.05 23.95 53.05 23.9 53.05 23.8 53.05 23.75 53.05 23.65 53.05 23.6 53.05 23.5 53.05 23.4 53.05 23.35 53.0 23.25 52.95 23.15 52.95 23.05 52.95 22.95 52.95 22.85 52.95 22.75 52.9 22.7 52.85 22.6 52.85 22.5 52.85 22.4 52.85 22.3 52.8 22.2 52.8 22.1 52.75 22.05 52.7 21.95 52.7 21.85 52.6 21.8 52.6 21.75 52.6 21.65 52.6 21.55 52.6 21.45 52.6 21.4 52.6 21.3 52.6 21.2 52.55 21.15 52.5 21.1 52.45 21.0 52.4 20.9 52.4 20.8 52.35 20.75 52.3 20.65 52.25 20.55 52.2 20.5 52.2 20.45 52.15 20.35 52.05 20.25 52.0 20.2 51.95 20.1 51.95 20.0 51.9 19.9 51.9 19.85 51.85 19.8 51.8 19.7 51.75 19.6 51.7 19.55 51.7 19.45 51.65 19.35 51.6 19.25 51.55 19.25 51.55 19.15 51.5 19.05 51.5 18.95 51.4 18.9 51.35 18.8 51.25 18.8 51.1 18.7 51.05 18.6 50.95 18.55 50.95 18.45 50.9 18.35 50.85 18.3 50.85 18.2 50.75 18.15 50.65 18.05 50.6 17.95 50.6 17.9 50.55 17.8 50.5 17.7 50.45 17.65 50.45 17.55 50.4 17.5 50.3 17.4 50.3 17.35 50.25 17.25 50.25 17.15 50.15 17.05 50.1 17.0 50.0 16.9 50.0 16.85 50.0 16.75 50.0 16.7 49.9 16.6 49.8 16.5 49.75 16.4 49.7 16.35 49.65 16.25 49.6 16.2 49.6 16.1 49.55 16.05 49.45 15.95 49.4 15.85 49.35 15.75 49.3 15.7 49.25 15.6 49.15 15.55 49.15 15.45 49.1 15.4 49.05 15.3 48.95 15.2 48.9 15.15 48.85 15.05 48.75 14.95 48.7 14.9 48.6 14.8 48.55 14.75 48.5 14.65 48.5 14.55 48.4 14.5 48.35 14.4 48.3 14.3 48.25 14.25 48.15 14.2 48.1 14.1 48.05 14.0 44.2 14.05 44.15 14.1 44.1 14.2 44.1 14.25 44.1 14.35 44.1 14.45 44.1 14.5 44.1 14.6 44.1 14.7 44.1 14.8 44.1 14.9 44.1 15.0 44.1 15.1 44.1 15.15 44.1 15.25 44.1 15.35 44.1 15.45 44.1 15.55 44.1 15.65 44.1 15.75 44.1 15.8 44.1 15.9 44.1 16.0 44.1 16.1 44.1 16.2 44.1 16.3 44.1 16.4 44.1 16.45 44.1 16.55 44.1 16.65 44.1 16.75 44.1 16.85 44.1 16.95 44.1 17.0 44.1 17.1 44.2 17.1 44.3 17.1 44.6 17.15 44.65 17.2 44.95 17.25 45.15 17.3 45.25 17.3 45.9 17.35 46.15 17.35 46.25 17.4 46.35 17.45 46.5 17.5 46.55 17.5 46.9 17.55 47.15 17.6 47.25 17.65 47.35 17.65 47.5 17.7 47.6 17.7 47.8 17.75 48.05 17.8 48.15 17.9 48.3 17.95 48.4 17.95 48.7 18.0 48.8 18.1 48.95 18.2 49.15 18.3 49.3 18.35 49.45 18.4 49.65 18.5 49.75 18.6 49.8 18.65 49.9 18.75 50.0 18.85 50.0 18.9 50.15 19.0 50.3 19.05 50.4 19.15 50.45 19.25 50.55 19.3 50.6 19.4 50.7 19.5 50.8 19.55 50.9 19.65 50.95 19.7 51.05 19.8 51.1 19.85 51.15 19.95 51.2 20.05 51.25 20.15 51.3 20.2 51.35 20.3 51.4 20.35 51.4 20.45 51.45 20.5 51.45 20.6 51.5 20.7 51.55 20.8 51.55 20.85 51.6 20.95 51.6 21.0 51.7 21.1 51.7 21.15 51.75 21.25 51.75 21.35 51.75 21.45 51.8 21.5 51.85 21.6 51.85 21.65 51.9 21.75 51.9 21.8 51.9 21.9 51.95 22.0 51.95 22.1 51.95 22.15 52.0 22.25 52.05 22.3 52.05 22.4 52.1 22.45 52.1 22.55 52.15 22.65 52.15 22.7 52.2 22.8 52.2 22.9 52.2 22.95 52.25 23.05 52.25 23.1 52.3 23.2 52.35 23.3 52.4 23.35 52.45 23.45 52.5 23.55 52.5 23.65 52.55 23.75 52.55 23.85 52.6 23.95 52.6 24.0 52.65 24.1 52.7 24.2 52.7 24.25 52.75 24.3 52.75 24.4 52.75 24.5 52.75 24.6 52.75 24.65 52.75 24.75 52.8 24.85 52.8 24.9 52.85 24.95 52.85 25.05 52.85 25.15 52.85 25.25 52.85 25.3 52.85 25.4 52.85 25.5 52.85 25.6 52.85 25.7 52.85 25.8 52.85 25.85 52.85 25.95 52.85 26.05 52.85 26.15 52.85 26.25 52.85 26.35 52.85 26.45 52.85 26.5 52.85 26.6 52.85 26.7 52.85 26.8 52.85 26.9 52.85 27.0 52.85 27.1 52.85 27.15 52.85 27.25 52.85 27.35 52.8 27.45 52.75 27.55 52.75 27.65 52.75 27.75 52.75 27.8 52.75 27.9 52.75 28.0 52.75 28.1 52.7 28.2 52.7 28.3 52.65 28.4 52.6 28.45 52.6 28.55 52.6 28.65 52.55 28.7 52.55 28.75 52.5 28.85 52.5 28.95 52.5 29.05 52.5 29.1 52.45 29.2 52.4 29.3 52.35 29.35 52.35 29.4 52.3 29.5 52.3 29.6 52.25 29.65 52.25 29.75 52.2 29.85 52.2 29.95 52.1 30.05 52.05 30.15 52.05 30.25 52.0 30.3 51.95 30.4 51.9 30.5 51.9 30.6 51.85 30.65 51.85 30.7 51.75 30.8 51.75 30.9 51.7 30.95 51.7 31.05 51.65 31.15 51.6 31.25 51.6 31.3 51.55 31.35 51.5 31.45 51.5 31.55 51.45 31.6 51.4 31.7 51.4 31.8 51.35 31.85 51.3 31.95 51.25 32.0 51.2 32.1 51.2 32.2 51.15 32.25 51.1 32.35 51.05 32.45 51.0 32.5 50.95 32.6 50.9 32.65 50.85 32.75 50.8 32.8 50.75 32.9 50.7 33.0 50.6 33.1 50.6 33.15 50.55 33.25 50.45 33.3 50.4 33.4 50.35 33.45 50.3 33.55 50.3 33.65 50.2 33.75 50.1 33.8 50.0 33.9 50.0 33.95 49.9 34.05 49.85 34.1 49.8 34.2 49.75 34.3 49.65 34.4 49.6 34.45 49.55 34.55 49.4 34.6 49.35 34.7 49.3 34.75 49.15 34.85 49.0 34.95 48.9 35.05 48.8 35.1 48.75 35.2 48.65 35.25 48.45 35.35 48.3 35.4 48.15 35.5 48.05 35.6 47.95 35.65 47.8 35.75 47.6 35.85 47.45 35.9 47.4 36.0 47.35 36.05 47.2 36.15 47.1 36.2 46.9 36.25 46.8 36.3 46.65 36.35 46.45 36.45 46.3 36.5 46.15 36.55 45.9 36.6 45.8 36.6 45.6 36.65 45.4 36.7 45.25 36.8 45.05 36.9 44.95 36.95 44.65 36.95 44.6 37.05 44.5 37.05 44.3 37.1 44.15 37.15 44.05 37.15 43.9 37.2 43.55 37.25 43.4 37.25 43.25 37.3 43.05 37.35 43.0 37.35 42.8 37.4 42.55 37.45 42.4 37.5 42.25 37.55 41.8 37.55 41.6 37.65 41.45 37.7 41.3 37.75 40.95 37.8 40.9 37.8 40.75 37.85 38.5 37.85 38.3 37.8 38.25 37.8 38.15 37.75 37.9 37.7 37.7 37.6 37.65 37.55 37.6 37.55 37.35 37.5 37.2 37.4 37.15 37.35 37.0 37.3 36.7 37.25 36.6 37.2 36.55 37.2 36.3 37.15 36.1 37.05 35.9 36.95 35.75 36.95 35.45 36.85 35.35 36.75 35.3 36.75 35.1 36.7 34.8 36.6 34.7 36.55 34.65 36.55 34.45 36.5 34.2 36.4 34.05 36.3 33.85 36.25 33.6 36.15 33.55 36.05 33.35 36.0 33.25 35.9 33.15 35.85 33.05 35.75 32.95 35.65 32.85 35.6 32.75 35.5 32.65 35.4 32.5 35.35 32.35 35.25 32.3 35.2 32.2 35.1 32.1 35.05 32.05 34.95 32.0 34.85 31.9 34.75 31.8 34.7 31.7 34.6 31.65 34.55 31.45 34.45 31.4 34.4 31.35 34.3 31.25 34.2 31.15 34.1 31.05 34.05 31.0 33.95 30.9 33.9 30.85 33.8 30.8 33.75 30.75 33.65 30.7 33.55 30.6 33.45 30.5 33.4 30.45 33.3 30.4 33.25 30.4 33.15 30.35 33.1 30.35 33.0 30.25 32.9 30.2 32.8 30.15 32.75 30.1 32.65 30.05 32.6 30.0 32.5 29.9 32.4 29.8 32.3 29.75 32.2 29.75 32.15 29.75 32.05 29.7 31.95 29.65 31.85 29.6 31.8 29.5 31.75 29.5 31.65 29.45 31.55 29.45 31.5 29.4 31.4 29.35 31.3 29.3 31.25 29.3 31.15 29.3 31.1 29.25 31.0 29.25 30.9 29.2 30.85 29.15 30.75 29.15 30.65 29.1 30.6 29.1 30.5 29.05 30.45 29.05 30.35 29.0 30.3 29.0 30.2 28.95 30.1 28.9 30.0 28.85 29.95 28.85 29.85 28.85 29.8 28.8 29.7 28.8 29.65 28.8 29.55 28.8 29.45 28.8 29.35 28.75 29.3 28.65 29.2 28.65 29.15 28.65 29.05 28.65 29.0 28.65 28.9 28.65 28.8 28.65 28.7 28.65 28.65 28.6 28.55 28.6 28.5 28.55 28.4 28.55 28.35 28.55 28.25 28.5 28.15 28.5 28.1 28.45 28.0 28.45 27.9 28.45 27.85 28.45 27.75 28.45 27.7 28.45 27.6 28.45 27.5 28.45 27.45 28.45 27.35 28.45 27.25 28.45 27.15 28.45 27.05 28.45 26.95 28.45 26.85 28.45 26.8 28.45 26.7 28.45 26.6 28.45 26.5 28.45 26.4 28.45 26.3 28.45 26.2 28.45 26.15 28.45 26.05 28.45 25.95 28.45 25.85 28.45 25.75 28.45 25.65 28.45 25.55 28.45 25.5 28.45 25.4 28.45 25.3 28.45 25.2 28.45 25.1 28.45 25.0 28.45 24.9 28.45 24.85 28.5 24.75 28.55 24.65 28.55 24.55 28.55 24.45 28.55 24.35 28.55 24.3 28.55 24.2 28.55 24.1 28.6 24.0 28.6 23.95 28.65 23.9 28.65 23.8 28.65 23.7 28.65 23.65 28.65 23.55 28.65 23.45 28.75 23.35 28.8 23.35 28.8 23.25 28.8 23.15 28.8 23.05 28.8 23.0 28.8 22.9 28.85 22.8 28.85 22.7 28.85 22.6 28.85 22.5 28.9 22.4 28.95 22.35 29.05 22.25 29.05 22.15 29.1 22.1 29.1 22.05 29.1 21.95 29.1 21.85 29.15 21.75 29.15 21.7 29.25 21.6 29.3 21.5 29.3 21.45 29.35 21.4 29.4 21.3 29.45 21.2 29.45 21.15 29.45 21.05 29.5 20.95 29.5 20.85 29.5 20.8 29.55 20.75 29.6 20.65 29.7 20.55 29.75 20.5 29.75 20.4 29.8 20.3 29.9 20.2 30.0 20.1 30.05 20.0 30.1 19.9 30.15 19.85 30.2 19.75 30.25 19.65 30.35 19.55 30.4 19.5 30.5 19.45 30.6 19.35 30.7 19.25 30.75 19.2 30.8 19.1 30.9 19.0 31.0 18.9 31.05 18.85 31.15 18.8 31.25 18.7 31.35 18.6 31.4 18.55 31.45 18.45 31.55 18.35 31.65 18.3 31.7 18.2 31.9 18.15 32.0 18.05 32.15 17.95 32.3 17.95 32.45 17.95 32.55 17.85 32.75 17.75 32.95 17.65 33.15 17.6 33.4 17.55 33.5 17.5 33.55 17.5 33.75 17.45 33.9 17.4 34.1 17.35 34.25 17.35 34.45 17.3 34.5 17.3 34.7 17.25 35.15 17.2 35.3 17.1 35.5 17.05 35.6 17.0 35.75 16.95 35.8 16.9 36.0 16.9 36.95 16.85 37.05 16.85 37.2 16.85 37.2 16.8 37.7 16.8 37.7 16.65 37.7 16.55 37.7 16.45 37.7 16.4 37.7 16.3 37.7 16.2 37.7 16.1 37.7 16.0 37.7 15.9 37.7 15.8 37.7 15.75 37.7 15.65 37.7 15.55 37.7 15.45 37.7 15.35 37.7 15.25 37.7 15.15 37.7 15.1 37.7 15.0 37.7 14.9 37.65 14.8 37.65 14.7 37.65 14.6 37.65 14.5 37.65 14.45 37.65 14.35 37.65 14.25 37.65 14.2 37.65 14.1 37.65 14.05 37.25 14.05 37.2 13.95 37.2 13.85 37.2 13.75 37.05 13.75 37.05 13.65 37.05 13.55 37.05 13.45 37.05 13.35 37.05 13.2 37.05 13.1 37.05 13.0 37.05 12.55 37.05 12.45 37.05 12.35 37.05 12.3 37.05 12.2 37.05 12.1 37.05 12.0 37.05 11.9 37.05 11.8 37.05 11.7 37.05 11.65 37.05 11.55 37.05 11.45 37.05 11.35 37.05 11.25 37.05 11.15 37.05 11.05 37.05 11.0 37.05 10.9 37.05 10.8 37.05 10.7 37.05 10.6 37.05 10.5 37.05 10.4 37.05 10.35 37.05 10.25 37.05 10.15 37.05 10.05 37.05 9.95 37.05 9.85 37.05 9.75 37.05 9.7 37.05 9.6 37.05 9.5 37.05 9.45 37.05 9.35 37.05 9.3 37.05 9.2 37.05 9.15 37.05 9.05 37.05 8.95 37.05 8.85 37.05 8.8 37.05 8.7 37.05 8.65 37.05 8.55 37.05 8.5 37.05 8.4 37.05 8.3 37.05 8.2 37.05 8.15 37.05 8.05 37.05 8.0 37.05 7.9 37.05 7.85 37.05 7.75 37.05 7.65 37.05 7.55 37.05 7.5 37.05 7.4 37.05 7.35 37.05 7.25 37.05 7.2 36.1 7.25 35.95 7.25 35.75 7.3 35.7 7.3 35.55 7.3 35.3 7.25 35.15 7.2 34.9 7.1 34.85 7.0 34.75 6.9 34.7 6.85 34.65 6.75 34.65 6.7 34.6 6.6 34.6 6.55 34.6 6.45 34.6 6.35 34.65 6.3 34.65 6.2 34.7 6.1 34.75 6.05 34.85 5.95 34.9 5.9 35.1 5.85 35.15 5.85 35.15 5.8 35.15 5.7 35.15 5.65 35.15 5.55 35.15 5.45 35.15 5.4 35.2 5.35 35.3 5.25 35.35 5.15 35.45 5.05 35.5 5.0 35.6 4.9 35.75 4.85 35.8 4.8 36.0 4.8 36.7 4.8 36.7 4.75 36.8 4.7 36.9 4.6 37.05 4.55 37.05 4.5 37.05 4.4 44.4 4.4 44.4 4.35 44.4 4.25 44.4 4.15 44.4 4.05 44.4 4.0 44.4 3.9 44.4 3.8 44.4 3.7 44.4 3.6 44.4 3.5 44.4 3.45 44.4 3.35 44.4 3.25 44.4 3.2 44.55 3.15 44.55 3.1 45.85 3.1 45.85 3.15 45.85 3.25 45.85 3.35 45.85 3.45 M29.9 24.35 L29.9 24.45 29.85 24.55 29.85 24.65 29.85 24.75 29.85 24.85 29.9 24.75 29.9 24.65 29.95 24.6 29.95 24.55 29.95 24.45 29.95 24.35 29.95 24.3 29.9 24.35" fill="#ffffff" fill-rule="evenodd" stroke="none"/>
    <path d="M20.5 10.75 L20.5 10.85 20.55 10.9 20.55 10.95 20.6 10.95 20.6 11.05 20.65 11.1 20.75 11.2 20.75 11.25 20.8 11.25 20.8 11.3 20.9 11.4 20.95 11.45 20.95 11.55 21.0 11.55 21.0 11.6 21.2 11.8 21.2 12.25 21.3 12.3 21.3 13.05 21.3 13.4 21.3 13.75 21.3 14.05 21.3 14.4 21.3 14.7 21.3 15.05 21.3 15.4 21.3 15.75 21.3 16.05 21.3 16.1 21.3 16.4 21.3 16.75 21.3 17.1 21.3 17.4 21.3 17.75 21.3 18.1 21.3 18.45 21.3 18.75 21.3 19.1 21.3 19.45 21.3 19.8 21.3 20.1 21.3 20.45 21.3 20.8 21.3 21.15 21.3 21.45 21.3 21.8 21.3 22.15 21.3 22.5 21.3 22.8 21.3 23.15 21.3 23.5 21.3 23.85 21.3 24.15 21.3 24.5 21.3 24.85 21.3 25.2 21.3 25.5 21.3 25.85 21.3 26.2 21.3 26.55 21.3 26.85 21.3 27.2 21.3 27.55 21.3 27.9 21.3 28.2 21.3 28.55 21.3 28.9 21.3 29.25 21.3 29.55 21.3 29.9 21.3 30.25 21.3 30.6 21.3 30.9 21.3 31.25 21.3 31.6 21.3 31.95 21.3 32.25 21.3 32.6 21.3 32.95 21.3 33.3 21.3 33.6 21.3 33.95 21.3 34.3 21.3 34.65 21.3 34.8 21.15 34.8 21.15 34.85 21.1 34.9 21.0 35.0 20.95 35.05 20.9 35.05 20.9 35.1 20.85 35.15 20.85 35.2 20.8 35.2 20.8 35.3 20.0 35.3 20.0 34.4 20.1 34.3 20.1 34.25 20.15 34.2 20.2 34.2 20.2 34.15 20.25 34.15 20.25 34.1 20.3 34.1 20.3 33.8 20.3 33.55 20.3 33.2 20.3 32.9 20.3 32.55 20.3 32.2 20.3 31.85 20.3 31.55 20.3 31.2 20.3 30.85 20.3 30.5 20.3 30.2 20.3 29.85 20.3 29.5 20.3 29.15 20.3 28.85 20.3 28.5 20.3 28.15 20.3 27.8 20.3 27.5 20.3 27.15 20.3 26.8 20.3 26.45 20.3 26.15 20.3 25.8 20.3 25.45 20.3 25.1 20.3 24.8 20.3 24.45 20.3 24.1 20.3 23.75 20.3 23.45 20.3 23.1 20.3 22.75 20.3 22.4 20.3 22.1 20.3 21.75 20.3 21.4 20.3 21.05 20.3 20.75 20.3 20.4 20.3 20.05 20.3 19.7 20.3 19.4 20.3 19.05 20.3 18.7 20.3 18.35 20.3 18.05 20.3 17.7 20.3 17.35 20.3 17.0 20.3 16.7 20.3 16.35 20.3 16.0 20.3 15.65 20.3 15.35 20.3 15.0 20.3 14.65 20.3 14.3 20.3 14.0 20.3 13.65 20.3 13.3 20.3 12.95 20.3 12.65 20.3 12.6 20.2 12.6 20.2 12.55 20.15 12.5 20.15 12.45 20.1 12.4 20.1 12.35 20.05 12.35 20.05 12.3 20.0 12.25 20.0 12.2 19.95 12.2 19.95 12.15 19.9 12.1 19.9 12.0 19.85 11.95 19.85 11.9 19.8 11.9 19.8 11.75 19.75 11.75 19.75 11.7 19.7 11.65 19.65 11.65 19.6 11.6 19.6 11.5 19.55 11.5 19.55 11.45 19.5 11.4 19.5 11.35 19.45 11.35 19.45 11.25 19.4 11.2 19.35 11.15 19.35 11.05 19.3 11.05 19.3 11.0 19.2 10.9 19.15 10.85 19.15 10.8 19.0 10.65 19.0 10.6 18.95 10.6 18.95 10.5 18.9 10.45 18.8 10.35 18.8 10.3 18.75 10.3 18.75 10.25 18.65 10.2 18.65 10.15 18.6 10.15 18.6 10.05 18.55 10.0 18.5 9.95 18.5 9.9 18.45 9.85 18.4 9.8 18.4 9.75 18.35 9.7 18.15 9.5 18.15 9.45 18.1 9.4 18.05 9.35 18.05 37.75 17.85 37.8 17.6 38.0 17.55 38.0 14.9 39.05 12.1 39.65 9.75 39.75 7.75 39.45 Q5.85 39.05 4.8 38.45 L4.0 38.05 3.55 37.8 3.4 37.75 3.4 9.3 Q3.15 8.85 3.55 8.35 L3.65 8.2 4.0 8.15 4.0 8.1 4.75 7.95 6.05 7.8 7.05 7.65 7.65 7.6 7.65 6.75 7.85 6.45 8.0 6.25 8.0 3.7 7.95 3.7 7.3 3.65 6.5 3.65 6.5 2.8 6.55 2.8 6.55 2.75 6.65 2.75 6.65 2.25 6.65 2.2 6.9 1.65 Q7.05 1.25 7.45 1.2 L14.35 1.2 14.6 1.3 14.6 1.55 Q14.95 0.85 15.5 0.3 L15.5 0.25 15.5 0.15 15.65 0.15 15.75 0.05 15.75 0.15 16.3 0.15 16.3 0.8 16.35 0.85 16.35 0.9 16.65 0.9 16.65 0.95 16.7 1.0 16.7 1.1 16.75 1.15 16.75 1.2 16.8 1.25 16.8 1.35 16.85 1.4 16.85 1.5 16.9 1.55 16.9 1.6 16.95 1.65 16.95 1.8 17.0 1.8 17.0 1.95 17.05 1.95 17.05 2.05 17.1 2.1 17.1 2.2 17.15 2.25 17.15 2.3 17.2 2.35 17.2 2.45 17.25 2.5 17.25 2.55 17.3 2.55 17.3 2.7 17.35 2.75 17.35 2.8 17.4 2.85 17.4 2.95 17.45 3.0 17.5 3.05 17.5 3.15 17.55 3.2 17.55 3.3 17.6 3.3 17.6 3.45 17.65 3.45 17.65 3.5 17.7 3.55 17.7 3.65 17.75 3.7 17.75 3.8 17.8 3.85 17.8 3.9 17.85 3.95 17.85 4.05 17.9 4.1 17.9 4.15 17.95 4.2 17.95 4.25 18.05 4.35 18.05 4.45 18.1 4.5 18.15 4.55 18.15 4.65 18.2 4.65 18.2 4.85 18.25 4.9 18.25 5.0 18.3 5.05 18.3 5.15 18.35 5.2 18.35 5.25 18.4 5.3 18.4 5.4 18.45 5.45 18.45 5.55 18.5 5.6 18.5 5.65 18.55 5.7 18.55 5.8 18.6 5.85 18.6 5.95 18.65 6.0 18.65 6.1 18.7 6.15 18.7 6.2 18.75 6.25 18.75 6.3 18.8 6.35 18.8 6.4 18.85 6.45 18.85 6.6 18.9 6.65 18.9 6.7 18.95 6.75 18.95 6.85 19.0 6.9 19.0 7.05 19.05 7.05 19.05 7.15 19.1 7.2 19.1 7.3 19.15 7.35 19.15 7.45 19.2 7.5 19.2 7.55 19.25 7.6 19.25 7.65 19.3 7.7 19.3 7.8 19.35 7.85 19.35 7.9 19.4 7.95 19.4 8.0 19.45 8.05 19.45 8.1 19.5 8.15 19.5 8.25 19.55 8.3 19.55 8.4 19.6 8.4 19.6 8.45 19.65 8.5 19.65 8.55 19.7 8.6 19.7 8.7 19.75 8.75 19.75 8.9 19.8 8.95 19.8 9.0 19.85 9.05 19.85 9.15 19.9 9.2 19.9 9.25 19.95 9.25 20.0 9.3 20.0 9.35 20.05 9.4 20.1 9.45 20.1 9.5 20.3 9.7 20.3 10.4 20.35 10.45 20.35 10.5 20.4 10.55 20.4 10.65 20.45 10.7 20.5 10.75 M17.45 30.15 L17.45 30.05 17.45 29.85 17.45 29.65 10.9 30.35 4.05 29.65 4.05 29.7 4.05 29.8 4.05 29.9 4.05 30.6 4.05 30.75 4.05 30.85 4.05 30.95 4.05 31.1 4.05 31.2 4.05 31.3 4.05 31.4 4.05 31.55 4.05 31.65 4.05 31.75 4.05 31.85 11.05 32.7 17.45 31.9 17.45 31.25 17.45 31.15 17.45 31.05 17.45 30.9 17.45 30.8 17.45 30.7 17.45 30.6 17.45 30.45 17.45 30.35 17.45 30.25 17.45 30.15" fill="#ffffff" fill-rule="evenodd" stroke="none"/>
  </g>
</svg>
