<?xml version="1.0" encoding="UTF-8" standalone="no"?>
<svg xmlns:xlink="http://www.w3.org/1999/xlink" height="32.1px" width="107.85px" xmlns="http://www.w3.org/2000/svg">
  <g transform="matrix(1.0, 0.0, 0.0, 1.0, 0.25, 0.25)">
    <path d="M50.5 16.0 L45.9 18.35 Q40.4 20.9 35.3 21.75 L26.15 22.9 21.8 23.3 20.75 23.45 20.35 23.5 Q19.45 23.7 19.3 23.9 L19.0 24.8 18.5 25.65 18.1 25.9 17.8 25.55 17.5 24.1 17.3 22.3 Q17.05 21.45 15.8 20.15 14.4 18.6 13.05 18.4 11.5 18.2 10.2 18.9 8.9 19.55 8.7 20.7 8.4 22.1 8.5 23.1 8.7 24.7 9.85 26.8 10.1 27.4 9.4 28.7 L7.9 30.5 Q6.4 31.9 5.55 31.5 4.7 31.05 2.95 27.65 L1.0 23.8 Q0.45 22.7 0.15 19.35 L0.0 16.2 0.0 13.9 Q0.1 11.25 0.5 9.6 0.9 7.7 2.8 4.1 4.55 0.7 5.2 0.15 5.7 -0.3 7.15 0.8 8.6 1.85 9.5 3.35 L9.9 4.1 Q10.0 4.4 9.7 5.15 L8.8 7.1 Q8.2 8.45 8.2 9.35 L8.3 11.25 Q8.5 12.1 8.9 12.6 9.8 13.5 10.95 13.9 L12.5 14.1 Q13.4 14.0 14.55 13.3 16.2 12.3 16.95 10.7 L17.5 8.5 17.9 6.5 18.1 6.05 18.35 6.0 18.95 6.9 19.6 8.05 20.25 8.3 20.7 8.3 Q21.1 8.3 21.1 8.5 L26.75 8.85 34.65 9.65 37.3 10.2 40.5 10.9 Q43.5 11.7 45.9 13.05 L47.7 14.1 49.45 15.15 50.5 16.0 M7.1 23.85 Q7.0 23.7 6.7 23.7 6.3 23.6 5.1 24.35 L3.7 25.3 Q3.5 25.45 3.55 25.8 L3.65 26.1 4.5 27.6 Q5.5 29.1 5.8 29.2 6.15 29.3 7.05 28.55 L7.95 27.7 7.7 26.05 7.25 24.2 7.1 23.85 M2.9 10.1 Q2.5 10.15 2.1 10.5 1.5 11.05 1.35 13.65 L1.3 16.1 1.45 18.2 Q1.65 20.35 2.1 21.1 2.45 21.65 3.0 21.8 L4.0 21.75 7.15 19.0 Q9.8 16.4 9.75 16.05 9.75 15.7 6.9 13.1 L3.65 10.3 2.9 10.1 M6.5 2.8 Q5.85 2.45 5.4 2.45 5.05 2.45 4.05 4.35 3.05 6.25 3.1 6.5 L3.3 6.85 Q3.5 7.1 3.7 7.15 L6.05 8.35 6.4 8.5 Q6.9 8.65 7.0 8.1 L7.5 5.75 Q7.75 4.05 7.5 3.65 L6.5 2.8" fill="#ffffff" fill-rule="evenodd" stroke="none"/>
    <path d="M50.5 16.0 L45.9 18.35 Q40.4 20.9 35.3 21.75 L26.15 22.9 21.8 23.3 20.75 23.45 20.35 23.5 Q19.45 23.7 19.3 23.9 L19.0 24.8 18.5 25.65 18.1 25.9 17.8 25.55 17.5 24.1 17.3 22.3 Q17.05 21.45 15.8 20.15 14.4 18.6 13.05 18.4 11.5 18.2 10.2 18.9 8.9 19.55 8.7 20.7 8.4 22.1 8.5 23.1 8.7 24.7 9.85 26.8 10.1 27.4 9.4 28.7 L7.9 30.5 Q6.4 31.9 5.55 31.5 4.7 31.05 2.95 27.65 L1.0 23.8 Q0.45 22.7 0.15 19.35 L0.0 16.2 0.0 13.9 Q0.1 11.25 0.5 9.6 0.9 7.7 2.8 4.1 4.55 0.7 5.2 0.15 5.7 -0.3 7.15 0.8 8.6 1.85 9.5 3.35 L9.9 4.1 Q10.0 4.4 9.7 5.15 L8.8 7.1 Q8.2 8.45 8.2 9.35 L8.3 11.25 Q8.5 12.1 8.9 12.6 9.8 13.5 10.95 13.9 L12.5 14.1 Q13.4 14.0 14.55 13.3 16.2 12.3 16.95 10.7 L17.5 8.5 17.9 6.5 18.1 6.05 18.35 6.0 18.95 6.9 19.6 8.05 20.25 8.3 20.7 8.3 Q21.1 8.3 21.1 8.5 L26.75 8.85 34.65 9.65 37.3 10.2 40.5 10.9 Q43.5 11.7 45.9 13.05 L47.7 14.1 49.45 15.15 50.5 16.0 M6.5 2.8 L7.5 3.65 Q7.75 4.05 7.5 5.75 L7.0 8.1 Q6.9 8.65 6.4 8.5 L6.05 8.35 3.7 7.15 Q3.5 7.1 3.3 6.85 L3.1 6.5 Q3.05 6.25 4.05 4.35 5.05 2.45 5.4 2.45 5.85 2.45 6.5 2.8 M2.9 10.1 L3.65 10.3 6.9 13.1 Q9.75 15.7 9.75 16.05 9.8 16.4 7.15 19.0 L4.0 21.75 3.0 21.8 Q2.45 21.65 2.1 21.1 1.65 20.35 1.45 18.2 L1.3 16.1 1.35 13.65 Q1.5 11.05 2.1 10.5 2.5 10.15 2.9 10.1 M7.1 23.85 L7.25 24.2 7.7 26.05 7.95 27.7 7.05 28.55 Q6.15 29.3 5.8 29.2 5.5 29.1 4.5 27.6 L3.65 26.1 3.55 25.8 Q3.5 25.45 3.7 25.3 L5.1 24.35 Q6.3 23.6 6.7 23.7 7.0 23.7 7.1 23.85" fill="none" stroke="#ffffff" stroke-linecap="round" stroke-linejoin="round" stroke-width="0.5"/>
    <path d="M92.1 21.75 L83.0 22.9 78.65 23.3 77.6 23.45 77.2 23.5 Q76.25 23.7 76.15 23.9 L75.85 24.8 75.3 25.65 74.95 25.9 74.65 25.55 74.35 24.1 74.1 22.3 Q73.85 21.45 72.65 20.15 71.25 18.6 69.85 18.4 68.35 18.2 67.05 18.9 65.7 19.55 65.5 20.7 65.25 22.1 65.35 23.1 65.55 24.7 66.65 26.8 66.95 27.4 66.25 28.7 L64.7 30.5 Q63.25 31.9 62.4 31.5 61.55 31.05 59.8 27.65 L57.85 23.8 Q57.25 22.7 57.0 19.35 L56.85 16.2 56.85 13.9 Q56.95 11.25 57.3 9.6 57.75 7.7 59.65 4.1 61.4 0.7 62.05 0.15 62.55 -0.3 64.0 0.8 65.45 1.85 66.35 3.35 L66.75 4.1 66.55 5.15 65.65 7.1 Q65.05 8.45 65.05 9.35 L65.15 11.25 Q65.3 12.1 65.75 12.6 66.65 13.5 67.8 13.9 L69.3 14.1 Q70.25 14.0 71.4 13.3 73.05 12.3 73.8 10.7 L74.35 8.5 74.75 6.5 74.95 6.05 75.2 6.0 75.8 6.9 76.45 8.05 77.05 8.3 77.55 8.3 77.95 8.5 83.6 8.85 91.45 9.65 94.1 10.2 97.3 10.9 Q101.45 12.05 104.55 14.1 L106.25 15.15 Q107.35 15.9 107.35 16.0 99.3 20.55 92.1 21.75 M60.85 21.75 L64.0 19.0 Q66.65 16.4 66.6 16.05 66.6 15.7 63.75 13.1 L60.45 10.3 59.75 10.1 Q59.35 10.15 58.9 10.5 58.3 11.05 58.2 13.65 L58.15 16.1 58.25 18.2 Q58.45 20.35 58.9 21.1 59.25 21.65 59.85 21.8 L60.85 21.75 M63.9 23.85 Q63.85 23.7 63.5 23.7 63.15 23.6 61.9 24.35 L60.5 25.3 Q60.3 25.45 60.4 25.8 L60.45 26.1 61.35 27.6 Q62.3 29.1 62.65 29.2 63.0 29.3 63.85 28.55 L64.8 27.7 64.55 26.05 64.05 24.2 63.9 23.85 M64.3 3.65 Q64.0 3.2 63.3 2.8 62.65 2.45 62.25 2.45 61.85 2.45 60.85 4.35 59.85 6.25 59.9 6.5 L60.1 6.85 60.5 7.15 62.85 8.35 63.25 8.5 Q63.75 8.65 63.85 8.1 L64.3 5.75 Q64.6 4.05 64.3 3.65" fill="#ffffff" fill-rule="evenodd" stroke="none"/>
    <path d="M92.1 21.75 L83.0 22.9 78.65 23.3 77.6 23.45 77.2 23.5 Q76.25 23.7 76.15 23.9 L75.85 24.8 75.3 25.65 74.95 25.9 74.65 25.55 74.35 24.1 74.1 22.3 Q73.85 21.45 72.65 20.15 71.25 18.6 69.85 18.4 68.35 18.2 67.05 18.9 65.7 19.55 65.5 20.7 65.25 22.1 65.35 23.1 65.55 24.7 66.65 26.8 66.95 27.4 66.25 28.7 L64.7 30.5 Q63.25 31.9 62.4 31.5 61.55 31.05 59.8 27.65 L57.85 23.8 Q57.25 22.7 57.0 19.35 L56.85 16.2 56.85 13.9 Q56.95 11.25 57.3 9.6 57.75 7.7 59.65 4.1 61.4 0.7 62.05 0.15 62.55 -0.3 64.0 0.8 65.45 1.85 66.35 3.35 L66.75 4.1 66.55 5.15 65.65 7.1 Q65.05 8.45 65.05 9.35 L65.15 11.25 Q65.3 12.1 65.75 12.6 66.65 13.5 67.8 13.9 L69.3 14.1 Q70.25 14.0 71.4 13.3 73.05 12.3 73.8 10.7 L74.35 8.5 74.75 6.5 74.95 6.05 75.2 6.0 75.8 6.9 76.45 8.05 77.05 8.3 77.55 8.3 77.95 8.5 83.6 8.85 91.45 9.65 94.1 10.2 97.3 10.9 Q101.45 12.05 104.55 14.1 L106.25 15.15 Q107.35 15.9 107.35 16.0 99.3 20.55 92.1 21.75 M64.3 3.65 Q64.6 4.05 64.3 5.75 L63.85 8.1 Q63.75 8.65 63.25 8.5 L62.85 8.35 60.5 7.15 60.1 6.85 59.9 6.5 Q59.85 6.25 60.85 4.35 61.85 2.45 62.25 2.45 62.65 2.45 63.3 2.8 64.0 3.2 64.3 3.65 M63.9 23.85 L64.05 24.2 64.55 26.05 64.8 27.7 63.85 28.55 Q63.0 29.3 62.65 29.2 62.3 29.1 61.35 27.6 L60.45 26.1 60.4 25.8 Q60.3 25.45 60.5 25.3 L61.9 24.35 Q63.15 23.6 63.5 23.7 63.85 23.7 63.9 23.85 M60.85 21.75 L59.85 21.8 Q59.25 21.65 58.9 21.1 58.45 20.35 58.25 18.2 L58.15 16.1 58.2 13.65 Q58.3 11.05 58.9 10.5 59.35 10.15 59.75 10.1 L60.45 10.3 63.75 13.1 Q66.6 15.7 66.6 16.05 66.65 16.4 64.0 19.0 L60.85 21.75" fill="none" stroke="#ffffff" stroke-linecap="round" stroke-linejoin="round" stroke-width="0.5"/>
  </g>
</svg>
