<?xml version="1.0" encoding="UTF-8" standalone="no"?>
<svg xmlns:xlink="http://www.w3.org/1999/xlink" height="31.0px" width="37.0px" xmlns="http://www.w3.org/2000/svg">
  <g transform="matrix(1.0, 0.0, 0.0, 1.0, 0.0, 0.0)">
    <path d="M36.0 4.35 L35.8 4.25 35.75 4.25 35.65 4.2 35.35 3.9 34.6 3.4 34.35 3.3 34.2 3.45 34.1 3.85 34.0 4.05 33.85 4.2 17.9 4.2 17.8 4.1 17.8 3.85 17.8 3.75 17.15 3.75 17.15 3.55 16.9 3.55 16.9 3.75 12.55 3.75 12.55 4.15 12.5 4.1 12.4 4.1 12.4 3.95 12.35 3.75 12.25 3.65 11.5 3.65 11.4 3.55 11.15 3.45 Q11.05 3.25 10.8 3.25 L10.7 3.35 10.25 3.95 10.2 3.95 10.2 4.15 10.15 4.2 10.0 4.2 9.9 4.15 9.85 3.95 9.85 3.9 3.6 4.45 3.4 4.65 3.25 4.7 1.35 4.95 1.45 9.55 1.7 9.6 1.75 9.6 2.6 9.3 3.05 9.05 3.25 8.95 3.55 8.2 3.7 7.95 4.05 7.55 6.55 7.0 6.55 7.15 6.5 7.25 6.55 7.25 6.8 7.3 7.15 7.3 7.5 7.35 7.6 7.6 7.65 7.85 6.4 10.05 6.4 10.15 6.5 10.3 6.55 10.3 6.55 10.4 8.35 10.9 8.9 10.9 9.1 10.85 9.15 10.75 9.05 10.6 8.95 10.5 8.85 10.45 8.85 10.3 8.8 9.95 9.7 8.1 9.85 7.85 10.1 7.75 10.6 7.75 11.1 7.7 11.55 7.65 11.7 7.6 11.9 7.6 12.3 7.35 12.6 7.05 12.8 6.85 13.2 6.75 13.65 6.7 14.85 7.0 15.3 6.8 15.5 6.7 15.75 6.65 17.65 6.75 17.9 6.8 18.4 6.85 25.3 6.8 26.35 6.7 26.8 6.55 35.5 6.55 35.9 6.15 35.85 5.75 35.7 5.5 35.35 5.4 35.0 5.4 34.95 5.35 34.9 5.35 34.9 5.2 35.55 5.2 35.95 5.1 36.0 4.8 36.0 4.5 36.0 4.35 M37.0 2.25 L37.0 28.7 Q37.0 29.65 36.3 30.3 35.65 31.0 34.7 31.0 L2.25 31.0 Q1.35 31.0 0.65 30.3 0.0 29.65 0.0 28.7 L0.0 2.25 Q0.0 1.35 0.65 0.65 1.35 0.0 2.25 0.0 L34.7 0.0 Q35.65 0.0 36.3 0.65 37.0 1.35 37.0 2.25 M26.8 5.15 L33.6 5.15 33.7 5.2 34.05 5.2 34.15 5.35 26.65 5.4 26.65 5.35 26.8 5.15 M33.55 10.2 L33.3 10.05 33.1 10.1 33.0 10.1 32.8 10.2 32.7 10.45 32.65 10.75 32.4 11.05 32.05 11.35 27.0 11.35 27.0 11.05 26.65 11.05 26.65 10.85 26.25 10.85 26.25 11.05 26.05 11.05 26.05 10.85 25.65 10.85 25.65 11.05 25.4 11.05 25.4 10.85 25.0 10.85 25.0 11.05 24.75 11.05 24.75 10.85 24.35 10.85 24.35 11.05 24.05 11.05 24.05 10.85 23.7 10.85 23.7 11.05 23.4 11.05 23.4 10.85 23.05 10.85 23.05 11.05 22.8 11.05 22.8 10.85 22.45 10.85 22.45 11.05 22.15 11.05 22.15 10.85 21.75 10.85 21.75 11.05 21.1 11.05 21.1 11.35 21.0 11.35 21.0 10.8 20.95 10.65 20.6 10.65 20.5 10.55 20.35 10.55 20.25 10.6 19.9 10.5 19.5 10.6 18.65 11.4 18.55 11.4 18.4 11.45 17.85 11.6 17.55 11.7 17.3 11.95 17.1 12.0 16.05 12.3 11.05 12.3 10.5 12.3 9.2 12.35 8.95 12.4 Q8.8 12.45 8.8 12.6 L8.8 12.95 8.9 16.35 9.0 16.5 9.25 16.6 9.6 16.6 10.15 16.6 17.2 14.05 17.5 14.05 17.9 14.05 19.2 14.2 19.75 14.4 Q20.15 14.55 20.25 14.85 L20.35 15.3 19.0 17.7 18.95 17.8 19.2 18.05 20.55 18.8 20.85 18.75 20.9 18.6 20.9 18.3 20.95 18.1 21.5 17.1 21.6 17.05 21.65 17.1 21.75 16.95 21.65 16.65 21.9 16.15 22.2 16.35 22.6 16.45 23.0 16.5 23.65 16.5 24.25 16.5 24.6 16.45 24.7 16.35 24.9 16.05 25.05 15.9 25.75 15.8 26.1 15.8 27.7 22.75 29.4 22.45 29.5 22.2 29.4 22.2 29.35 22.0 29.25 21.8 27.9 15.55 28.0 15.45 28.1 15.45 27.9 14.5 27.9 14.2 28.45 14.2 28.75 14.05 29.15 13.8 29.15 13.95 29.1 14.05 29.1 14.2 30.1 14.2 30.15 14.15 30.3 14.15 30.35 14.2 30.45 14.2 30.6 14.15 30.65 14.15 30.7 14.2 30.75 14.2 30.9 14.25 31.0 14.35 31.05 14.4 31.15 14.4 31.2 14.5 31.25 14.55 31.35 14.65 31.1 17.55 31.15 17.65 31.15 17.7 31.2 17.9 31.25 18.1 31.35 18.25 31.35 18.3 31.75 18.4 32.1 18.3 32.15 18.3 32.2 18.3 32.3 17.85 32.35 17.4 32.4 15.1 32.35 14.75 32.35 14.55 32.55 14.4 32.75 14.25 32.8 14.25 32.85 14.25 32.95 14.2 33.3 14.25 33.8 14.25 33.85 14.05 33.85 13.8 33.9 13.8 34.0 13.8 34.15 13.6 34.2 13.4 34.35 13.45 34.45 13.45 34.6 13.4 34.75 13.35 34.95 13.35 35.25 13.25 35.4 13.1 35.4 12.9 35.35 12.7 35.25 12.5 34.7 12.5 34.5 12.45 34.45 12.45 34.3 12.5 34.2 12.5 34.15 12.3 34.05 12.2 34.05 11.8 34.0 11.25 33.85 10.9 33.8 10.75 33.75 10.6 33.55 10.2 M26.85 11.35 L21.3 11.35 21.3 11.2 26.85 11.2 26.85 11.35 M24.3 15.5 L24.2 15.7 23.95 15.8 22.65 15.8 22.4 15.7 22.25 15.5 22.4 15.2 22.65 15.1 23.95 15.1 24.2 15.2 24.3 15.5 M15.45 3.45 L15.45 3.7 15.7 3.7 15.7 3.45 15.45 3.45 M14.95 3.45 L14.95 3.7 15.2 3.7 15.2 3.45 14.95 3.45 M15.95 3.7 L16.2 3.7 16.2 3.45 15.95 3.45 15.95 3.7 M14.65 3.45 L14.4 3.45 14.4 3.7 14.65 3.7 14.65 3.45 M16.4 3.45 L16.4 3.7 16.65 3.7 16.65 3.45 16.4 3.45 M17.4 3.7 L17.65 3.7 17.65 3.55 17.4 3.55 17.4 3.7 M13.95 3.45 L13.95 3.7 14.2 3.7 14.2 3.45 13.95 3.45 M13.45 3.45 L13.45 3.7 13.65 3.7 13.65 3.45 13.45 3.45 M13.0 3.45 L13.0 3.7 13.25 3.7 13.25 3.45 13.0 3.45 M11.75 6.6 L11.85 6.9 11.75 7.2 11.5 7.3 10.6 7.3 10.3 7.2 10.2 6.9 10.3 6.6 Q10.5 6.45 10.6 6.45 L11.5 6.45 11.75 6.6 M5.95 12.5 L5.1 12.45 4.5 12.45 3.95 12.4 3.65 12.4 3.6 12.45 3.55 12.45 3.45 12.45 3.45 12.5 3.35 12.75 Q2.95 12.85 2.75 13.15 2.5 13.45 2.5 13.8 L2.5 14.05 2.6 14.25 1.65 16.45 1.55 19.1 1.7 19.05 1.7 18.8 1.75 18.75 1.75 18.7 1.8 18.75 1.95 18.75 1.95 18.35 2.05 18.3 2.1 18.3 2.15 17.7 2.1 17.65 2.15 16.05 2.25 15.85 2.35 15.7 2.45 15.45 2.8 14.95 2.85 14.75 2.95 14.7 3.3 14.9 3.05 15.25 2.9 15.5 2.8 15.8 2.75 15.9 2.7 16.95 2.6 17.2 2.6 17.3 2.7 17.55 2.75 17.55 2.85 18.1 3.25 18.9 3.7 19.45 4.15 19.8 4.15 19.9 4.2 20.05 4.45 20.2 4.95 20.3 5.25 20.25 5.9 20.05 6.1 19.95 6.15 19.75 6.25 19.6 6.75 19.0 6.9 18.7 7.2 17.7 7.2 17.4 7.2 17.35 7.3 17.3 7.35 17.25 7.35 17.15 7.3 16.95 7.3 16.9 7.15 16.45 7.1 16.2 6.9 15.45 6.1 14.35 5.85 14.15 5.8 14.1 5.7 14.1 5.7 14.05 5.65 14.05 5.7 12.9 5.8 12.95 5.95 13.0 6.15 12.85 6.15 12.6 6.05 12.55 5.95 12.5 M5.4 13.95 L5.3 13.95 5.15 13.95 5.1 13.95 4.9 14.2 4.8 14.2 4.9 14.05 4.9 13.9 4.55 13.05 4.4 12.95 4.25 12.85 4.5 12.7 4.65 12.65 4.8 12.65 5.0 12.7 5.2 12.7 5.3 12.7 5.35 12.75 5.4 12.8 5.4 13.95 M10.0 15.2 L9.85 13.05 11.15 13.2 12.15 13.5 12.55 13.6 12.7 14.0 12.75 14.45 12.7 14.65 12.3 14.9 11.2 15.3 10.75 15.45 10.3 15.35 10.0 15.2 M4.3 13.05 L4.45 13.2 4.65 13.5 4.7 13.9 4.65 14.15 3.95 14.2 3.95 13.2 4.05 13.05 4.1 13.0 4.3 13.05 M3.75 13.35 L3.75 14.2 3.85 14.2 3.75 14.25 3.7 14.25 3.55 14.45 3.45 14.55 3.4 14.75 3.0 14.55 3.1 14.35 3.6 13.6 3.75 13.35 M3.25 13.0 L2.7 14.05 2.65 13.8 2.85 13.3 3.25 13.0 M3.45 22.7 L3.2 23.85 3.25 24.1 3.5 24.35 3.9 24.55 4.05 24.6 4.15 24.7 4.15 24.75 4.2 24.75 4.2 24.8 4.2 24.85 4.2 25.0 3.45 27.5 3.4 28.3 3.4 28.45 3.75 28.9 4.85 28.8 5.45 28.8 5.75 28.75 5.8 28.75 5.95 28.7 6.0 28.55 6.05 28.5 6.0 28.45 5.95 28.35 5.95 28.3 6.25 27.0 6.25 26.95 6.35 26.7 6.4 26.5 6.4 26.4 6.5 26.0 6.55 25.95 6.65 25.9 7.05 25.9 7.1 25.9 7.35 25.85 8.1 25.9 8.55 25.9 8.95 25.75 9.15 25.4 9.15 25.05 9.15 24.55 9.75 24.25 12.0 24.25 12.0 24.2 12.1 24.1 12.15 23.85 12.65 23.85 12.6 23.85 12.7 23.9 12.75 23.8 12.75 23.65 12.85 23.6 12.85 22.5 12.85 22.35 12.6 22.0 12.4 22.0 12.25 22.25 9.7 22.25 9.7 22.2 4.8 22.2 4.5 22.05 3.9 22.0 3.85 22.0 3.85 22.15 3.65 22.3 3.45 22.7 M14.3 13.4 L14.9 13.4 Q15.25 13.4 15.25 13.75 L15.15 13.95 14.9 14.0 14.3 14.0 14.1 13.95 14.0 13.75 14.1 13.5 14.3 13.4 M21.75 24.9 L21.7 25.05 21.6 25.15 21.6 25.3 21.45 25.45 21.3 25.5 21.15 25.6 20.95 25.6 20.75 25.65 20.7 25.7 20.65 25.65 15.55 25.75 15.4 25.9 15.35 25.95 15.25 25.95 15.15 26.1 15.1 26.15 15.05 26.2 14.95 26.3 14.95 26.35 14.85 26.4 14.7 26.5 14.7 26.55 14.65 26.55 14.6 26.65 14.55 26.65 14.55 26.75 14.5 26.8 14.45 26.8 14.4 26.75 14.35 26.8 14.3 27.0 14.55 27.6 20.25 27.0 20.3 26.95 20.35 27.0 20.8 27.3 20.8 27.45 20.75 28.05 20.8 28.05 20.95 28.15 21.1 28.15 21.15 28.15 21.2 28.1 21.2 28.05 21.25 27.9 21.4 27.7 21.65 27.45 22.1 27.35 Q22.55 27.3 22.7 27.6 L22.9 28.15 22.95 28.3 23.05 28.3 25.45 27.7 25.9 27.7 26.45 27.7 28.9 27.95 30.8 28.0 32.45 27.7 33.7 27.25 34.5 26.8 34.4 26.7 32.7 26.15 30.75 25.8 25.65 25.55 25.0 25.6 24.9 25.5 24.85 25.5 24.75 25.6 24.7 25.65 24.65 25.6 24.6 25.6 24.4 25.55 24.3 25.65 24.3 25.6 24.1 25.6 24.05 25.65 23.95 25.6 23.95 25.55 23.75 25.6 23.7 25.65 23.65 25.65 23.65 25.6 23.6 25.6 23.45 25.6 23.4 25.6 23.4 25.65 23.35 25.6 23.3 25.6 23.1 25.6 23.05 25.65 23.0 25.6 22.15 25.6 22.05 25.55 22.2 25.15 22.1 24.95 21.95 24.9 21.85 24.85 21.75 24.9 M8.8 24.6 L8.8 25.25 8.65 25.4 6.9 25.4 6.75 25.25 6.75 24.6 Q6.75 24.5 6.9 24.5 L8.65 24.5 Q8.8 24.5 8.8 24.6" fill="#9d511b" fill-rule="evenodd" stroke="none"/>
  </g>
</svg>
