<?xml version="1.0" encoding="UTF-8" standalone="no"?>
<svg xmlns:xlink="http://www.w3.org/1999/xlink" height="69.0px" width="69.0px" xmlns="http://www.w3.org/2000/svg">
  <g transform="matrix(1.0, 0.0, 0.0, 1.0, 0.0, 0.0)">
    <path d="M69.0 34.5 Q69.0 48.8 58.85 58.9 48.8 69.0 34.5 69.0 20.2 69.0 10.1 58.9 0.0 48.8 0.0 34.5 0.0 20.25 10.1 10.1 20.2 0.0 34.5 0.0 48.8 0.0 58.85 10.1 69.0 20.25 69.0 34.5" fill="#666666" fill-opacity="0.0" fill-rule="evenodd" stroke="none"/>
    <path d="M67.85 34.5 Q67.85 48.3 58.05 58.0 48.4 67.75 34.6 67.75 20.8 67.75 11.1 58.0 1.35 48.3 1.35 34.5 1.35 20.75 11.1 11.0 20.8 1.25 34.6 1.25 48.4 1.25 58.05 11.0 67.85 20.75 67.85 34.5" fill="#ffffff" fill-opacity="0.0" fill-rule="evenodd" stroke="none"/>
  </g>
</svg>
