<?xml version="1.0" encoding="UTF-8" standalone="no"?>
<svg xmlns:xlink="http://www.w3.org/1999/xlink" height="18.6px" width="143.85px" xmlns="http://www.w3.org/2000/svg">
  <g transform="matrix(1.0, 0.0, 0.0, 1.0, 0.75, 0.75)">
    <path d="M101.6 6.4 L65.95 6.4 Q65.6 6.35 65.35 6.1 65.05 5.8 65.05 5.4 65.05 5.0 65.35 4.7 65.6 4.45 65.95 4.45 L101.6 4.45 101.7 4.45 Q102.1 4.45 102.35 4.7 L102.65 5.4 102.35 6.1 101.7 6.4 101.6 6.4 M142.35 5.25 L119.7 16.15 56.35 16.15 55.45 13.6 52.1 13.6 52.1 16.85 51.9 17.1 50.55 17.1 50.05 16.3 50.05 14.95 49.75 14.45 49.5 15.1 48.8 15.4 Q48.4 15.4 48.1 15.1 L47.85 14.45 47.55 15.1 46.85 15.4 Q46.45 15.4 46.15 15.1 L45.9 14.45 45.6 15.1 44.9 15.4 Q44.5 15.4 44.2 15.1 L43.95 14.45 43.65 15.1 42.95 15.4 Q42.55 15.4 42.25 15.1 L42.0 14.45 41.7 15.1 41.0 15.4 40.35 15.1 Q40.05 14.8 40.05 14.45 L39.75 15.1 39.1 15.4 38.4 15.1 38.1 14.45 37.8 15.1 37.15 15.4 36.45 15.1 Q36.15 14.8 36.15 14.45 L35.85 15.1 35.2 15.4 Q34.8 15.4 34.5 15.1 L34.2 14.45 33.95 15.1 33.25 15.4 Q32.85 15.4 32.55 15.1 L32.25 14.45 32.0 15.1 31.3 15.4 30.6 15.1 30.35 14.45 30.05 15.1 29.35 15.4 Q28.95 15.4 28.65 15.1 L28.4 14.45 28.1 15.1 27.4 15.4 Q27.0 15.4 26.7 15.1 L26.45 14.45 26.15 15.1 25.45 15.4 24.75 15.1 24.5 14.45 24.2 15.1 Q23.9 15.4 23.5 15.4 23.1 15.4 22.85 15.1 22.55 14.8 22.55 14.45 L22.25 15.1 Q22.0 15.4 21.6 15.4 L20.9 15.1 Q20.6 14.8 20.6 14.45 L20.3 15.1 19.65 15.4 18.95 15.1 Q18.65 14.8 18.65 14.45 L18.35 15.1 Q18.1 15.4 17.7 15.4 17.3 15.4 17.0 15.1 L16.7 14.45 16.45 15.1 15.75 15.4 15.05 15.1 14.75 14.45 14.5 15.1 Q14.2 15.4 13.8 15.4 L13.1 15.1 12.85 14.45 12.55 15.1 11.85 15.4 Q11.45 15.4 11.15 15.1 L10.9 14.45 10.6 15.1 9.9 15.4 9.2 15.1 8.95 14.45 8.65 15.1 Q8.35 15.4 7.95 15.4 L7.25 15.1 7.0 14.45 6.7 15.1 Q6.4 15.4 6.0 15.4 5.6 15.4 5.35 15.1 L5.05 14.45 4.5 13.05 0.0 9.7 0.0 5.85 5.2 2.6 5.6 1.9 Q5.6 1.5 5.85 1.25 6.15 0.95 6.55 0.95 6.95 0.95 7.25 1.25 L7.55 1.9 Q7.55 1.5 7.8 1.25 8.1 0.95 8.5 0.95 8.9 0.95 9.2 1.25 L9.45 1.9 Q9.5 1.5 9.75 1.25 10.05 0.95 10.45 0.95 10.85 0.95 11.15 1.25 L11.4 1.9 11.7 1.25 Q12.0 0.95 12.4 0.95 12.8 0.95 13.05 1.25 L13.35 1.9 Q13.35 1.5 13.65 1.25 13.95 0.95 14.35 0.95 14.75 0.95 15.0 1.25 15.3 1.5 15.3 1.9 15.3 1.5 15.6 1.25 15.85 0.95 16.3 0.95 16.7 0.95 16.95 1.25 L17.25 1.9 Q17.25 1.5 17.55 1.25 17.8 0.95 18.2 0.95 18.6 0.95 18.9 1.25 19.2 1.5 19.2 1.9 19.2 1.5 19.45 1.25 19.75 0.95 20.15 0.95 L20.85 1.25 21.15 1.9 Q21.15 1.5 21.4 1.25 21.7 0.95 22.1 0.95 22.5 0.95 22.8 1.25 23.05 1.5 23.1 1.9 23.1 1.5 23.35 1.25 23.65 0.95 24.05 0.95 24.45 0.95 24.75 1.25 L25.05 1.9 Q25.05 1.5 25.3 1.25 25.6 0.95 26.0 0.95 26.4 0.95 26.7 1.25 L26.95 1.9 Q27.0 1.5 27.25 1.25 27.55 0.95 27.95 0.95 L28.65 1.25 28.9 1.9 29.2 1.25 Q29.5 0.95 29.9 0.95 30.3 0.95 30.55 1.25 L30.85 1.9 Q30.85 1.5 31.15 1.25 31.45 0.95 31.85 0.95 32.25 0.95 32.5 1.25 L32.8 1.9 Q32.8 1.5 33.1 1.25 33.35 0.95 33.8 0.95 34.2 0.95 34.45 1.25 L34.75 1.9 Q34.75 1.5 35.05 1.25 35.3 0.95 35.7 0.95 36.15 0.95 36.4 1.25 L36.7 1.9 Q36.7 1.5 36.95 1.25 37.25 0.95 37.65 0.95 38.05 0.95 38.35 1.25 L38.65 1.9 Q38.65 1.5 38.9 1.25 39.2 0.95 39.6 0.95 40.0 0.95 40.3 1.25 L40.6 1.9 Q40.6 1.5 40.85 1.25 41.15 0.95 41.55 0.95 41.95 0.95 42.25 1.25 L42.55 1.9 Q42.55 1.5 42.8 1.25 43.1 0.95 43.5 0.95 43.9 0.95 44.2 1.25 L44.45 1.9 44.75 1.25 Q45.05 0.95 45.45 0.95 45.85 0.95 46.15 1.25 L46.4 1.9 46.7 1.25 Q47.0 0.95 47.4 0.95 47.8 0.95 48.05 1.25 48.35 1.5 48.35 1.9 48.35 1.5 48.65 1.25 48.95 0.95 49.35 0.95 49.75 0.95 50.0 1.25 L50.3 1.9 50.7 2.3 55.3 0.0 75.5 0.0 80.05 2.15 107.9 2.15 142.35 5.25 M74.55 1.25 L74.85 1.95 74.55 2.6 73.9 2.9 73.2 2.6 Q72.9 2.35 72.9 1.95 72.9 1.55 73.2 1.25 73.5 0.95 73.9 0.95 74.3 0.95 74.55 1.25 M71.65 1.25 L71.95 1.95 71.65 2.6 Q71.4 2.9 71.0 2.9 L60.75 2.9 Q60.4 2.9 60.15 2.6 59.85 2.35 59.85 1.95 59.85 1.55 60.15 1.25 L60.75 0.95 71.0 0.95 Q71.4 0.95 71.65 1.25 M56.7 0.95 Q57.05 0.95 57.35 1.25 L57.65 1.95 57.35 2.6 56.7 2.9 56.65 2.9 Q56.25 2.9 55.95 2.6 L55.7 1.95 Q55.7 1.55 55.95 1.25 56.25 0.95 56.65 0.95 L56.7 0.95" fill="none" stroke="#000000" stroke-linecap="round" stroke-linejoin="round" stroke-width="0.5"/>
    <path d="M101.6 6.4 L65.95 6.4 Q65.6 6.35 65.35 6.1 65.05 5.8 65.05 5.4 65.05 5.0 65.35 4.7 65.6 4.45 65.95 4.45 L101.6 4.45 101.7 4.45 Q102.1 4.45 102.35 4.7 L102.65 5.4 102.35 6.1 101.7 6.4 101.6 6.4 M142.35 5.25 L119.7 16.15 56.35 16.15 55.45 13.6 52.1 13.6 52.1 16.85 51.9 17.1 50.55 17.1 50.05 16.3 50.05 14.95 49.75 14.45 49.5 15.1 48.8 15.4 Q48.4 15.4 48.1 15.1 L47.85 14.45 47.55 15.1 46.85 15.4 Q46.45 15.4 46.15 15.1 L45.9 14.45 45.6 15.1 44.9 15.4 Q44.5 15.4 44.2 15.1 L43.95 14.45 43.65 15.1 42.95 15.4 Q42.55 15.4 42.25 15.1 L42.0 14.45 41.7 15.1 41.0 15.4 40.35 15.1 Q40.05 14.8 40.05 14.45 L39.75 15.1 39.1 15.4 38.4 15.1 38.1 14.45 37.8 15.1 37.15 15.4 36.45 15.1 Q36.15 14.8 36.15 14.45 L35.85 15.1 35.2 15.4 Q34.8 15.4 34.5 15.1 L34.2 14.45 33.95 15.1 33.25 15.4 Q32.85 15.4 32.55 15.1 L32.25 14.45 32.0 15.1 31.3 15.4 30.6 15.1 30.35 14.45 30.05 15.1 29.35 15.4 Q28.95 15.4 28.65 15.1 L28.4 14.45 28.1 15.1 27.4 15.4 Q27.0 15.4 26.7 15.1 L26.45 14.45 26.15 15.1 25.45 15.4 24.75 15.1 24.5 14.45 24.2 15.1 Q23.9 15.4 23.5 15.4 23.1 15.4 22.85 15.1 22.55 14.8 22.55 14.45 L22.25 15.1 Q22.0 15.4 21.6 15.4 L20.9 15.1 Q20.6 14.8 20.6 14.45 L20.3 15.1 19.65 15.4 18.95 15.1 Q18.65 14.8 18.65 14.45 L18.35 15.1 Q18.1 15.4 17.7 15.4 17.3 15.4 17.0 15.1 L16.7 14.45 16.45 15.1 15.75 15.4 15.05 15.1 14.75 14.45 14.5 15.1 Q14.2 15.4 13.8 15.4 L13.1 15.1 12.85 14.45 12.55 15.1 11.85 15.4 Q11.45 15.4 11.15 15.1 L10.9 14.45 10.6 15.1 9.9 15.4 9.2 15.1 8.95 14.45 8.65 15.1 Q8.35 15.4 7.95 15.4 L7.25 15.1 7.0 14.45 6.7 15.1 Q6.4 15.4 6.0 15.4 5.6 15.4 5.35 15.1 L5.05 14.45 4.5 13.05 0.0 9.7 0.0 5.85 5.2 2.6 5.6 1.9 Q5.6 1.5 5.85 1.25 6.15 0.95 6.55 0.95 6.95 0.95 7.25 1.25 L7.55 1.9 Q7.55 1.5 7.8 1.25 8.1 0.95 8.5 0.95 8.9 0.95 9.2 1.25 L9.45 1.9 Q9.5 1.5 9.75 1.25 10.05 0.95 10.45 0.95 10.85 0.95 11.15 1.25 L11.4 1.9 11.7 1.25 Q12.0 0.95 12.4 0.95 12.8 0.95 13.05 1.25 L13.35 1.9 Q13.35 1.5 13.65 1.25 13.95 0.95 14.35 0.95 14.75 0.95 15.0 1.25 15.3 1.5 15.3 1.9 15.3 1.5 15.6 1.25 15.85 0.95 16.3 0.95 16.7 0.95 16.95 1.25 L17.25 1.9 Q17.25 1.5 17.55 1.25 17.8 0.95 18.2 0.95 18.6 0.95 18.9 1.25 19.2 1.5 19.2 1.9 19.2 1.5 19.45 1.25 19.75 0.95 20.15 0.95 L20.85 1.25 21.15 1.9 Q21.15 1.5 21.4 1.25 21.7 0.95 22.1 0.95 22.5 0.95 22.8 1.25 23.05 1.5 23.1 1.9 23.1 1.5 23.35 1.25 23.65 0.95 24.05 0.95 24.45 0.95 24.75 1.25 L25.05 1.9 Q25.05 1.5 25.3 1.25 25.6 0.95 26.0 0.95 26.4 0.95 26.7 1.25 L26.95 1.9 Q27.0 1.5 27.25 1.25 27.55 0.95 27.95 0.95 L28.65 1.25 28.9 1.9 29.2 1.25 Q29.5 0.95 29.9 0.95 30.3 0.95 30.55 1.25 L30.85 1.9 Q30.85 1.5 31.15 1.25 31.45 0.95 31.85 0.95 32.25 0.95 32.5 1.25 L32.8 1.9 Q32.8 1.5 33.1 1.25 33.35 0.95 33.8 0.95 34.2 0.95 34.45 1.25 L34.75 1.9 Q34.75 1.5 35.05 1.25 35.3 0.95 35.7 0.95 36.15 0.95 36.4 1.25 L36.7 1.9 Q36.7 1.5 36.95 1.25 37.25 0.95 37.65 0.95 38.05 0.95 38.35 1.25 L38.65 1.9 Q38.65 1.5 38.9 1.25 39.2 0.95 39.6 0.95 40.0 0.95 40.3 1.25 L40.6 1.9 Q40.6 1.5 40.85 1.25 41.15 0.95 41.55 0.95 41.95 0.95 42.25 1.25 L42.55 1.9 Q42.55 1.5 42.8 1.25 43.1 0.95 43.5 0.95 43.9 0.95 44.2 1.25 L44.45 1.9 44.75 1.25 Q45.05 0.95 45.45 0.95 45.85 0.95 46.15 1.25 L46.4 1.9 46.7 1.25 Q47.0 0.95 47.4 0.95 47.8 0.95 48.05 1.25 48.35 1.5 48.35 1.9 48.35 1.5 48.65 1.25 48.95 0.95 49.35 0.95 49.75 0.95 50.0 1.25 L50.3 1.9 50.7 2.3 55.3 0.0 75.5 0.0 80.05 2.15 107.9 2.15 142.35 5.25 M74.55 1.25 L74.85 1.95 74.55 2.6 73.9 2.9 73.2 2.6 Q72.9 2.35 72.9 1.95 72.9 1.55 73.2 1.25 73.5 0.95 73.9 0.95 74.3 0.95 74.55 1.25 M71.65 1.25 L71.95 1.95 71.65 2.6 Q71.4 2.9 71.0 2.9 L60.75 2.9 Q60.4 2.9 60.15 2.6 59.85 2.35 59.85 1.95 59.85 1.55 60.15 1.25 L60.75 0.95 71.0 0.95 Q71.4 0.95 71.65 1.25 M56.7 0.95 Q57.05 0.95 57.35 1.25 L57.65 1.95 57.35 2.6 56.7 2.9 56.65 2.9 Q56.25 2.9 55.95 2.6 L55.7 1.95 Q55.7 1.55 55.95 1.25 56.25 0.95 56.65 0.95 L56.7 0.95" fill="none" stroke="#000000" stroke-linecap="round" stroke-linejoin="round" stroke-opacity="0.49803922" stroke-width="1.5"/>
  </g>
</svg>
