<?xml version="1.0" encoding="UTF-8" standalone="no"?>
<svg xmlns:xlink="http://www.w3.org/1999/xlink" height="44.55px" width="125.3px" xmlns="http://www.w3.org/2000/svg">
  <g transform="matrix(1.0, 0.0, 0.0, 1.0, 0.75, 0.75)">
    <path d="M122.75 35.35 L120.9 29.35 Q120.35 27.85 117.8 24.1 114.85 19.7 112.45 17.3 108.5 13.4 105.2 10.95 99.15 6.55 90.75 4.1 L90.75 5.9 87.6 2.85 87.6 4.85 84.6 1.9 84.35 3.9 81.25 1.0 80.9 3.1 80.1 2.75 78.65 0.65 74.15 0.05 75.65 2.0 75.25 3.15 71.0 0.0 Q62.8 4.85 58.7 5.8 L47.4 7.3 38.5 8.15 Q22.45 11.9 16.8 15.4 10.15 19.5 8.55 20.75 4.15 24.0 1.65 27.85 -0.95 32.45 0.6 36.25 2.6 41.1 6.6 42.35 9.25 43.2 11.05 43.05 L12.95 42.5 17.35 39.45 19.1 36.7 Q19.2 35.15 19.65 33.4 20.6 29.85 22.45 28.85 26.1 26.9 27.0 26.65 30.3 25.6 36.95 25.75 44.0 20.95 47.15 19.85 48.95 19.2 53.8 19.0 57.25 18.85 59.55 21.5 60.7 22.85 61.15 24.2 L64.05 23.65 Q67.7 22.4 71.15 18.85 L74.25 18.5 74.75 17.95 78.65 18.0 Q83.6 18.35 89.2 19.9 106.95 24.8 123.7 39.7 124.1 40.1 122.75 35.35 M85.5 7.25 Q86.2 7.55 86.35 8.0 L86.45 9.2 86.0 10.1 85.15 10.6 84.15 10.45 83.35 9.8 Q83.05 9.45 83.1 8.95 83.25 7.9 83.6 7.6 L84.85 7.1 85.5 7.25 M81.7 7.95 L81.65 6.95 81.15 6.15 Q80.65 5.55 80.15 5.5 L79.4 5.4 78.55 5.7 Q77.65 6.1 77.55 6.75 77.25 8.75 78.45 9.4 79.95 10.2 81.1 9.2 81.6 8.75 81.7 7.95 M89.9 8.95 L90.75 9.45 90.95 9.95 90.8 10.85 90.35 11.5 89.5 11.8 88.65 11.6 Q87.85 10.65 88.0 10.2 L88.2 9.6 89.05 8.95 89.5 8.75 89.9 8.95 M15.55 36.95 Q14.4 38.75 13.0 39.5 11.6 40.25 9.1 39.95 7.05 39.7 5.8 39.0 4.7 38.4 3.85 37.0 2.9 35.4 2.85 33.45 2.8 31.6 3.45 30.25 3.8 29.5 4.65 28.55 5.4 27.7 7.05 26.85 L8.95 26.35 Q11.25 26.1 13.3 27.3 15.5 28.6 16.35 31.05 17.0 32.95 16.7 34.3 L15.55 36.95" fill="none" stroke="#000000" stroke-linecap="round" stroke-linejoin="round" stroke-opacity="0.49803922" stroke-width="1.5"/>
    <path d="M122.8 35.35 L120.95 29.35 119.8 27.15 117.85 24.1 Q114.9 19.7 112.5 17.3 108.55 13.4 105.25 10.95 99.2 6.55 90.8 4.1 L90.8 5.9 87.65 2.85 87.65 4.85 84.65 1.9 84.4 3.9 81.3 1.0 80.95 3.1 80.15 2.75 78.7 0.65 74.2 0.05 75.7 2.0 75.3 3.15 71.05 0.0 Q62.85 4.85 58.75 5.8 L47.45 7.3 38.55 8.15 Q22.5 11.9 16.85 15.4 10.2 19.5 8.6 20.75 4.2 24.0 1.7 27.85 -0.9 32.45 0.65 36.25 2.65 41.1 6.65 42.35 9.3 43.2 11.1 43.05 L13.0 42.5 Q13.7 42.2 17.4 39.45 L19.15 36.7 Q19.25 35.15 19.7 33.4 20.65 29.85 22.5 28.85 26.15 26.9 27.05 26.65 30.35 25.6 37.0 25.75 44.05 20.95 47.2 19.85 49.0 19.2 53.85 19.0 57.3 18.85 59.6 21.5 60.75 22.85 61.2 24.2 L64.1 23.65 Q67.75 22.4 71.2 18.85 L74.3 18.5 74.8 17.95 78.7 18.0 Q83.65 18.35 89.25 19.9 104.9 24.2 119.8 36.35 L123.75 39.7 Q124.15 40.1 122.8 35.35 M85.55 7.25 Q86.25 7.55 86.4 8.0 L86.5 9.2 86.05 10.1 85.2 10.6 84.2 10.45 83.4 9.8 Q83.1 9.45 83.15 8.95 83.3 7.9 83.65 7.6 L84.9 7.1 85.55 7.25 M79.45 5.4 Q79.05 5.5 78.6 5.7 77.7 6.1 77.6 6.75 77.3 8.75 78.5 9.4 80.0 10.2 81.15 9.2 81.65 8.75 81.75 7.95 L81.7 6.95 81.2 6.15 80.2 5.5 M89.95 8.95 Q90.65 9.25 90.8 9.45 L91.0 9.95 90.85 10.85 90.4 11.5 89.55 11.8 88.7 11.6 Q87.9 10.65 88.05 10.2 L88.25 9.6 89.1 8.95 89.55 8.75 89.95 8.95 M15.6 36.95 Q14.45 38.75 13.05 39.5 11.65 40.25 9.15 39.95 7.1 39.7 5.85 39.0 4.75 38.4 3.9 37.0 2.95 35.4 2.9 33.45 2.85 31.6 3.5 30.25 3.85 29.5 4.7 28.55 5.45 27.7 7.1 26.85 L9.0 26.35 Q11.3 26.1 13.35 27.3 15.55 28.6 16.4 31.05 17.05 32.95 16.75 34.3 16.45 35.55 15.6 36.95" fill="none" stroke="#000000" stroke-linecap="round" stroke-linejoin="round" stroke-opacity="0.49803922" stroke-width="0.5"/>
  </g>
</svg>
