<?xml version="1.0" encoding="UTF-8" standalone="no"?>
<svg xmlns:xlink="http://www.w3.org/1999/xlink" height="15.5px" width="126.6px" xmlns="http://www.w3.org/2000/svg">
  <g transform="matrix(1.0, 0.0, 0.0, 1.0, 0.0, 0.0)">
    <path d="M71.9 8.85 Q71.55 9.2 71.55 9.7 71.55 10.1 71.9 10.45 72.25 10.8 72.75 10.8 L73.5 10.45 73.85 9.7 Q73.85 9.2 73.5 8.85 73.2 8.55 72.75 8.55 72.15 8.55 71.9 8.85 M74.4 11.55 L67.4 11.55 66.8 11.9 63.3 11.9 Q62.1 12.9 63.95 14.95 60.7 16.8 59.1 12.15 36.45 12.95 12.2 12.15 6.9 11.9 1.9 13.75 -1.9 7.85 1.95 2.4 7.05 3.9 12.45 3.6 36.35 2.7 59.25 3.4 60.5 2.0 59.15 0.2 62.45 -0.8 63.5 3.55 L66.8 3.55 67.4 4.3 Q106.4 4.25 126.6 8.55 115.15 11.2 74.75 11.2 L74.4 11.55" fill="#ffffff" fill-rule="evenodd" stroke="none"/>
  </g>
</svg>
