<?xml version="1.0" encoding="UTF-8" standalone="no"?>
<svg xmlns:xlink="http://www.w3.org/1999/xlink" height="23.9px" width="134.75px" xmlns="http://www.w3.org/2000/svg">
  <g transform="matrix(1.0, 0.0, 0.0, 1.0, 0.0, 0.0)">
    <path d="M3.1 11.75 Q3.45 12.1 4.0 12.1 4.55 12.1 4.9 11.75 5.3 11.35 5.3 10.85 5.3 10.3 4.9 9.9 4.55 9.55 4.0 9.55 3.45 9.55 3.1 9.9 2.7 10.3 2.7 10.85 2.7 11.35 3.1 11.75 M127.35 7.2 L134.75 8.6 120.05 19.85 96.25 19.65 Q95.8 18.55 94.7 19.05 L94.3 18.75 93.85 18.6 Q93.6 18.6 93.4 18.75 L93.25 18.95 92.85 18.75 91.75 18.6 90.7 18.75 90.3 18.95 90.15 18.75 89.7 18.6 Q89.45 18.6 89.25 18.75 L89.1 18.95 88.95 18.75 88.5 18.6 Q88.25 18.6 88.05 18.75 L87.9 18.95 87.5 18.75 86.4 18.6 85.3 18.75 Q85.05 18.85 84.95 18.95 L84.75 18.75 84.35 18.6 Q84.05 18.6 83.9 18.75 L83.7 18.95 83.55 18.75 83.1 18.6 Q82.85 18.6 82.65 18.75 L82.5 18.95 82.1 18.75 81.05 18.6 79.95 18.75 79.55 18.95 79.4 18.75 78.95 18.6 78.5 18.75 78.35 18.95 78.2 18.75 77.75 18.6 77.3 18.75 77.15 18.95 76.75 18.75 75.65 18.6 74.55 18.75 74.2 18.95 74.0 18.75 73.6 18.6 Q73.3 18.6 73.15 18.75 L73.0 18.95 Q72.0 18.35 71.35 19.85 L65.6 19.85 65.5 20.45 65.15 21.85 Q64.45 23.8 63.2 23.9 62.5 23.95 62.05 23.65 L61.3 22.85 60.5 21.7 59.25 20.4 Q57.5 19.05 54.85 18.8 52.65 18.55 46.65 19.0 L34.95 19.3 24.05 19.15 23.9 18.8 Q23.75 18.65 23.5 18.65 L23.15 18.8 23.0 19.15 22.4 19.15 21.8 19.2 21.65 18.85 21.3 18.7 Q21.1 18.7 20.95 18.85 L20.75 19.2 20.75 19.25 19.75 19.3 19.6 19.0 Q19.45 18.85 19.25 18.85 L18.85 19.0 18.7 19.35 18.75 19.45 17.8 19.55 17.65 19.3 Q17.5 19.15 17.3 19.15 17.1 19.15 16.9 19.3 16.75 19.45 16.75 19.7 L16.8 19.8 15.95 20.05 15.85 19.9 15.45 19.75 Q15.25 19.75 15.1 19.9 14.95 20.05 14.95 20.25 L15.0 20.45 14.55 20.7 14.2 20.95 13.9 20.85 Q13.65 20.85 13.5 21.0 13.35 21.15 13.35 21.4 L13.5 21.75 13.65 21.85 13.6 21.9 Q13.1 22.8 12.3 23.0 L10.35 22.9 8.7 21.65 6.05 18.5 3.65 15.35 Q3.35 14.9 3.4 14.45 L3.55 14.15 2.6 14.2 0.0 11.2 2.6 7.8 3.2 7.75 3.3 7.2 Q3.55 6.6 4.05 6.3 L6.65 5.8 6.85 6.2 7.4 6.45 7.9 6.2 8.1 5.7 8.1 5.6 9.05 5.5 9.25 5.95 Q9.45 6.2 9.75 6.2 L10.3 5.95 10.5 5.45 10.5 5.4 11.4 5.3 11.6 5.75 Q11.8 5.95 12.1 5.95 L12.65 5.75 12.85 5.25 12.85 5.15 13.95 5.05 14.15 5.5 Q14.35 5.75 14.65 5.75 L15.15 5.5 15.4 5.0 15.4 4.95 16.3 4.9 16.5 5.35 17.05 5.55 17.55 5.35 17.75 4.85 17.75 4.8 18.7 4.75 18.9 5.2 Q19.1 5.4 19.45 5.4 L19.95 5.2 20.15 4.7 20.15 4.65 29.4 4.3 45.35 4.75 50.15 5.05 50.15 5.1 50.35 5.65 Q50.55 5.85 50.85 5.85 L51.4 5.65 51.6 5.15 52.75 5.2 52.95 5.7 53.5 5.9 Q53.8 5.9 54.0 5.7 L54.2 5.15 54.2 5.1 55.45 4.95 55.65 5.4 Q55.85 5.6 56.15 5.6 L56.65 5.4 56.9 4.85 56.9 4.75 57.95 4.5 58.15 4.7 Q58.35 4.95 58.65 4.95 L59.15 4.7 59.4 4.2 59.3 3.85 60.35 2.95 60.75 3.05 61.25 2.85 61.45 2.35 61.25 1.8 61.1 1.7 Q61.8 0.55 62.55 0.2 L63.6 0.05 Q64.65 0.25 65.25 2.35 L65.65 4.35 82.9 4.5 Q101.75 4.75 110.0 5.2 L127.35 7.2" fill="#ffffff" fill-rule="evenodd" stroke="none"/>
  </g>
</svg>
