<?xml version="1.0" encoding="UTF-8" standalone="no"?>
<svg xmlns:xlink="http://www.w3.org/1999/xlink" height="32.95px" width="57.85px" xmlns="http://www.w3.org/2000/svg">
  <g transform="matrix(1.0, 0.0, 0.0, 1.0, -0.7, 4.2)">
    <path d="M50.0 -1.25 Q52.6 0.15 54.05 3.2 55.5 6.15 55.55 8.05 L55.1 9.4 Q54.75 10.85 55.15 12.0 55.95 13.8 57.55 15.1 L58.55 17.45 53.0 19.5 52.05 16.95 Q52.4 15.15 51.75 13.4 51.35 12.3 49.7 11.4 L48.15 10.65 46.15 11.45 44.1 6.05 Q48.0 4.15 48.15 2.85 48.15 1.95 43.5 -1.2 L38.85 -4.2 42.85 -3.6 Q47.25 -2.65 50.0 -1.25 M44.9 11.85 L41.85 12.9 Q38.0 14.2 35.45 15.4 L26.45 19.3 24.5 13.3 42.85 6.55 44.9 11.85 M23.3 13.75 L25.3 19.8 20.2 21.95 Q14.2 24.65 2.6 28.75 0.5 26.2 0.7 22.1 L23.3 13.75" fill="#ffffff" fill-rule="evenodd" stroke="none"/>
  </g>
</svg>
