<?xml version="1.0" encoding="UTF-8" standalone="no"?>
<svg xmlns:xlink="http://www.w3.org/1999/xlink" height="29.75px" width="74.9px" xmlns="http://www.w3.org/2000/svg">
  <g transform="matrix(1.0, 0.0, 0.0, 1.0, 0.0, 0.0)">
    <path d="M73.9 5.0 L73.85 7.65 73.4 7.65 73.2 7.75 73.1 7.9 72.25 12.35 72.2 12.4 72.2 14.15 71.4 14.75 69.9 12.9 71.05 12.5 71.2 12.4 71.25 12.2 71.1 12.05 Q61.05 5.3 43.2 5.25 L43.05 5.3 42.95 5.4 42.6 6.4 37.45 6.1 32.2 6.45 32.05 5.3 31.95 5.15 31.8 5.1 Q11.95 6.1 4.3 11.9 L4.0 11.1 3.85 11.0 3.65 10.95 1.65 11.45 1.55 11.5 1.5 11.6 0.75 13.15 0.25 12.7 0.0 6.7 0.9 6.7 1.5 7.65 1.65 7.75 1.8 7.8 1.9 7.75 2.0 7.6 2.8 3.8 4.1 3.8 5.55 6.95 5.65 7.05 5.85 7.05 7.8 6.25 7.9 6.2 7.95 6.0 7.95 4.9 9.3 1.65 10.4 1.65 12.0 4.05 12.0 4.9 12.1 5.05 12.2 5.15 12.35 5.15 16.1 4.15 16.25 4.05 16.3 3.9 16.3 3.05 18.4 1.0 20.4 2.5 20.4 3.35 20.45 3.5 20.55 3.6 20.7 3.6 24.9 3.0 25.05 2.9 25.1 2.75 25.1 1.95 27.3 0.0 29.1 1.55 29.7 2.45 29.8 2.55 29.95 2.55 35.4 2.55 34.1 4.2 34.05 4.4 34.05 5.35 34.15 5.55 34.3 5.65 40.65 5.65 40.85 5.55 40.9 5.4 41.05 4.3 41.0 4.05 39.8 2.55 40.85 2.55 41.0 2.5 43.05 0.85 45.1 1.95 45.45 2.9 45.55 3.0 45.7 3.05 49.8 3.1 49.95 3.05 50.05 2.95 50.05 2.8 50.0 1.95 52.35 0.2 54.3 2.25 54.3 3.15 54.4 3.3 54.55 3.4 58.6 4.15 58.75 4.15 58.85 4.05 58.9 3.9 58.9 3.35 60.7 1.6 61.65 1.65 62.95 3.8 62.95 4.7 63.0 4.9 63.15 5.0 65.9 5.75 66.1 5.75 66.2 5.65 67.95 2.6 68.85 2.7 69.9 5.75 69.9 6.8 69.95 6.95 70.0 7.05 71.1 7.95 71.25 8.0 71.4 7.95 71.5 7.85 72.35 4.85 73.9 5.0 M74.9 8.2 L74.9 14.4 Q73.1 24.3 48.05 25.95 L44.0 25.95 44.0 23.9 43.9 23.7 41.75 21.55 41.55 21.45 39.4 21.45 39.85 20.85 43.1 20.75 43.15 20.8 43.35 20.8 43.5 20.7 51.8 20.4 52.0 20.3 52.05 20.1 52.05 18.8 55.8 15.2 57.45 16.1 58.5 17.0 58.5 17.05 58.55 17.05 60.25 18.55 60.25 19.35 60.3 19.55 60.45 19.6 60.6 19.6 65.3 18.25 65.45 18.15 65.5 18.0 65.5 16.35 67.9 12.65 69.3 13.0 71.15 15.3 71.3 15.4 71.5 15.35 72.65 14.5 72.75 14.4 72.75 14.25 72.75 12.45 73.6 8.2 74.0 8.2 74.15 8.25 74.3 8.2 74.9 8.2 M62.5 11.5 L59.5 12.95 59.35 13.1 59.35 13.25 59.4 13.4 59.6 13.45 66.7 13.5 65.0 16.1 64.95 16.25 64.95 16.85 58.8 16.6 57.75 15.65 57.7 15.65 55.9 14.65 55.75 14.65 55.6 14.7 51.7 18.45 46.85 18.9 46.7 18.95 45.55 20.1 43.4 20.2 42.2 16.8 42.1 16.65 41.95 16.6 39.5 16.6 Q43.75 16.45 46.9 15.45 50.85 14.2 51.0 12.45 L54.35 12.45 54.55 12.35 54.65 12.2 54.65 11.2 57.15 11.2 57.6 12.1 57.75 12.25 57.95 12.25 62.15 10.3 62.5 11.5 M50.45 12.3 Q50.4 13.8 46.75 14.9 42.95 16.15 37.5 16.15 32.05 16.15 28.2 14.9 24.6 13.8 24.5 12.25 L24.55 12.2 24.6 11.9 Q25.5 12.9 28.0 13.65 31.9 14.9 37.45 14.9 43.0 14.9 46.9 13.65 49.45 12.85 50.4 11.85 L50.45 12.2 50.45 12.3 M50.25 10.6 Q50.05 12.15 46.45 13.3 43.8 14.15 40.4 14.4 L38.0 14.5 37.7 14.5 37.35 14.5 35.1 14.4 Q31.2 14.25 28.25 13.3 24.5 12.1 24.5 10.45 24.5 8.75 28.25 7.55 32.05 6.35 37.35 6.35 42.7 6.35 46.45 7.55 50.25 8.75 50.25 10.45 L50.25 10.6 M50.4 15.85 L47.65 16.25 47.5 16.35 47.45 16.55 47.5 16.7 48.3 17.55 48.4 17.6 48.5 17.65 51.5 17.65 51.7 17.55 51.8 17.4 51.75 17.2 50.65 15.9 50.55 15.85 50.4 15.85 M41.3 23.65 L41.15 23.6 41.0 23.65 39.7 24.6 39.6 24.75 39.6 24.9 40.1 26.45 40.2 26.55 40.35 26.65 41.95 26.65 42.1 26.6 42.2 26.45 42.7 24.95 42.7 24.75 42.6 24.65 41.3 23.65 M43.45 24.0 L43.45 27.3 32.1 27.35 32.1 24.3 33.9 22.0 41.45 22.0 43.45 24.0 M47.0 19.4 L51.5 19.0 51.5 19.85 46.3 20.05 47.0 19.4 M42.85 20.2 L39.7 20.35 39.6 20.4 39.5 20.45 38.75 21.45 36.35 21.45 35.75 20.45 35.65 20.35 35.5 20.3 32.55 20.3 33.65 17.15 41.75 17.15 42.85 20.2 M47.8 28.3 L27.65 28.3 27.65 26.65 31.55 26.65 31.55 27.6 31.65 27.8 31.85 27.9 43.7 27.85 43.9 27.75 44.0 27.55 44.0 26.45 47.8 26.45 47.8 28.3 M40.5 26.1 L40.15 24.95 41.15 24.2 42.15 24.95 41.75 26.1 40.5 26.1 M44.05 29.75 L31.4 29.75 Q30.55 29.55 30.15 28.95 L30.0 28.65 45.6 28.65 45.5 28.95 Q45.05 29.7 44.05 29.75 M39.1 2.55 L39.1 2.6 40.5 4.3 40.4 5.1 34.6 5.1 34.6 4.45 36.1 2.55 39.1 2.55 M28.0 17.8 L31.4 20.75 31.55 20.85 35.35 20.85 35.7 21.45 33.75 21.45 33.65 21.5 33.55 21.55 31.6 24.05 31.55 24.2 31.55 26.1 27.45 26.1 Q2.4 24.1 0.25 16.5 L0.25 13.4 0.7 13.75 0.85 13.85 1.0 13.8 1.1 13.65 1.9 11.95 3.55 11.5 3.95 12.4 3.95 12.45 5.05 15.2 5.05 16.6 5.1 16.75 5.25 16.85 8.2 17.95 8.35 18.0 8.5 17.9 10.9 15.0 12.55 14.55 15.75 18.05 15.75 19.6 15.8 19.75 16.0 19.85 22.6 20.55 22.75 20.5 24.25 19.55 24.3 19.55 24.3 19.5 26.95 17.8 28.0 17.8 M27.05 16.1 L26.85 16.0 24.45 16.0 24.25 16.05 23.3 16.85 23.2 17.05 23.25 17.25 23.4 17.35 26.15 17.7 24.1 19.05 21.85 18.7 21.4 16.45 23.55 15.35 23.65 15.25 23.7 15.1 23.6 14.95 22.8 14.0 24.05 12.75 Q24.5 14.35 28.05 15.45 31.2 16.45 35.45 16.6 L33.45 16.6 33.3 16.65 33.2 16.8 32.0 20.3 31.65 20.3 28.3 17.35 28.1 17.3 27.15 17.3 27.15 16.25 27.05 16.1 M34.3 23.7 L34.15 23.75 33.05 24.95 33.0 25.1 33.0 25.3 33.8 26.7 33.95 26.8 34.1 26.8 35.7 26.5 35.85 26.4 35.9 26.25 36.1 24.65 36.05 24.5 35.95 24.4 34.45 23.7 34.3 23.7 M34.2 26.25 L33.6 25.2 34.4 24.3 35.55 24.8 35.4 26.0 34.2 26.25" fill="#ffffff" fill-rule="evenodd" stroke="none"/>
  </g>
</svg>
