<?xml version="1.0" encoding="UTF-8" standalone="no"?>
<svg xmlns:xlink="http://www.w3.org/1999/xlink" height="29.4px" width="139.2px" xmlns="http://www.w3.org/2000/svg">
  <g transform="matrix(1.0, 0.0, 0.0, 1.0, 0.75, 0.75)">
    <path d="M113.05 4.3 L104.65 5.4 Q94.85 6.25 87.9 5.3 L87.9 6.4 87.45 5.45 82.35 4.8 82.35 5.8 81.95 4.45 Q81.0 4.25 80.5 3.7 79.5 2.65 81.6 1.0 L82.0 0.25 Q81.85 -0.1 81.0 0.05 80.2 0.2 78.55 1.05 L77.05 1.85 76.45 1.5 74.65 2.55 74.05 2.2 72.2 3.3 71.7 2.85 70.0 3.85 53.3 4.35 52.9 4.7 52.3 4.4 Q31.7 5.3 24.3 7.25 16.5 9.3 13.05 10.9 6.7 13.85 1.95 19.35 0.0 22.4 0.0 25.05 0.05 26.35 0.45 27.05 L1.05 27.65 2.4 27.7 Q4.95 26.0 8.8 23.8 15.0 20.2 18.05 19.3 22.7 17.9 26.75 17.3 L41.7 16.3 53.15 16.2 63.15 16.95 Q74.0 17.9 78.15 18.95 79.35 19.25 79.85 14.2 L80.4 14.05 Q81.15 14.15 81.95 15.7 87.3 16.0 94.8 17.5 101.65 18.9 106.85 20.6 112.95 22.6 120.75 21.55 130.6 20.3 137.7 14.25 L119.15 6.85 113.05 4.3 Z" fill="none" stroke="#000000" stroke-linecap="round" stroke-linejoin="round" stroke-opacity="0.49803922" stroke-width="1.5"/>
    <path d="M113.0 4.3 L104.6 5.4 Q94.8 6.25 87.85 5.3 L87.85 6.4 87.4 5.45 82.3 4.8 82.3 5.8 81.9 4.45 Q80.95 4.25 80.45 3.7 79.45 2.65 81.55 1.0 L81.95 0.25 Q81.8 -0.1 80.95 0.05 80.15 0.2 78.5 1.05 L77.0 1.85 76.4 1.5 74.6 2.55 74.0 2.2 72.15 3.3 71.65 2.85 69.95 3.85 53.25 4.35 52.85 4.7 52.25 4.4 Q31.65 5.3 24.25 7.25 16.45 9.3 13.0 10.9 6.65 13.85 1.9 19.35 -0.05 22.4 -0.05 25.05 0.0 26.35 0.4 27.05 L1.0 27.65 2.35 27.7 8.75 23.8 Q14.95 20.2 18.0 19.3 22.65 17.9 26.7 17.3 L41.65 16.3 53.1 16.2 63.1 16.95 Q73.95 17.9 78.1 18.95 79.3 19.25 79.8 14.2 L80.35 14.05 Q81.1 14.15 81.9 15.7 87.25 16.0 94.75 17.5 101.6 18.9 106.8 20.6 112.9 22.6 120.7 21.55 130.55 20.3 137.65 14.25 L119.1 6.85 113.0 4.3 Z" fill="none" stroke="#000000" stroke-linecap="round" stroke-linejoin="round" stroke-opacity="0.49803922" stroke-width="0.5"/>
  </g>
</svg>
