<?xml version="1.0" encoding="UTF-8" standalone="no"?>
<svg xmlns:xlink="http://www.w3.org/1999/xlink" height="27.65px" width="137.7px" xmlns="http://www.w3.org/2000/svg">
  <g transform="matrix(1.0, 0.0, 0.0, 1.0, 0.0, 0.0)">
    <path d="M130.1 18.65 Q124.9 21.35 118.5 21.75 112.05 22.05 107.85 20.85 L95.6 17.65 Q87.8 15.65 81.95 15.65 L81.75 15.15 81.1 14.4 80.1 14.15 79.85 14.15 Q79.5 17.25 78.15 18.9 66.5 16.4 53.65 16.15 L53.65 15.8 53.15 15.8 53.15 16.15 Q28.15 15.9 20.25 18.5 11.45 21.25 2.4 27.65 -1.9 28.0 1.45 20.0 5.65 14.2 15.05 9.95 24.7 5.65 52.9 4.3 L52.9 4.65 53.3 4.65 53.3 4.3 70.0 3.8 71.7 2.8 72.2 3.25 74.05 2.15 74.65 2.5 76.45 1.45 77.05 1.8 Q79.65 -0.2 81.15 0.05 81.75 0.2 81.75 0.45 81.75 0.95 81.35 1.15 80.6 1.45 80.25 2.25 79.9 2.75 80.15 3.3 L80.85 4.15 81.95 4.4 81.95 5.75 82.35 5.75 82.35 4.75 87.45 5.4 87.45 6.35 87.9 6.35 87.9 5.25 Q101.65 6.5 113.05 4.25 L137.7 14.2 130.1 18.65" fill="#ffffff" fill-rule="evenodd" stroke="none"/>
  </g>
</svg>
