<?xml version="1.0" encoding="UTF-8" standalone="no"?>
<svg xmlns:xlink="http://www.w3.org/1999/xlink" height="23.15px" width="133.3px" xmlns="http://www.w3.org/2000/svg">
  <g transform="matrix(1.0, 0.0, 0.0, 1.0, 0.55, 2.05)">
    <path d="M20.55 0.3 L26.55 -0.8 32.75 -1.65 39.05 -2.0 45.9 -2.0 50.05 -1.55 51.9 -1.2 Q54.55 0.25 57.6 0.4 L59.4 0.4 60.25 0.45 62.0 0.25 64.65 -0.65 66.3 -1.15 67.7 -0.95 69.05 -0.1 69.5 0.5 69.9 1.1 Q70.25 1.6 71.7 1.35 L73.1 1.05 Q73.85 1.05 74.75 0.2 L75.45 -0.6 76.75 -0.3 79.95 0.3 81.1 0.5 90.5 1.5 102.0 0.75 107.2 -0.3 107.6 -0.05 109.65 1.2 Q112.8 3.05 116.0 3.85 L120.0 4.45 122.05 4.55 128.95 3.95 132.75 3.3 131.45 5.0 128.6 8.3 Q127.25 9.8 124.25 11.2 L120.0 12.8 119.5 12.9 114.0 13.15 108.2 12.6 94.4 10.9 82.75 9.5 82.55 10.15 79.4 10.4 78.9 9.85 78.15 9.5 77.3 9.5 76.7 9.8 76.45 10.0 76.5 9.7 Q76.6 9.3 75.75 9.1 75.5 9.05 74.9 9.35 L74.25 9.85 74.2 10.4 73.7 11.35 72.35 12.35 70.8 12.8 69.85 12.6 69.65 12.5 69.6 12.45 69.8 12.9 70.0 13.8 69.95 15.15 69.35 16.8 68.5 17.95 67.75 18.5 67.1 18.6 67.0 18.3 67.45 17.7 68.05 16.05 68.25 14.05 Q68.2 13.35 67.6 12.25 L67.15 11.45 66.85 11.15 65.8 11.15 64.05 11.05 58.7 10.45 52.9 9.7 43.0 10.15 32.55 11.05 Q30.95 11.35 26.65 12.6 L21.0 14.35 15.7 16.45 Q12.05 18.05 11.15 18.6 L9.85 19.45 9.25 20.1 9.05 20.6 8.85 20.95 8.15 21.05 7.1 20.7 Q6.6 20.5 4.95 18.55 L3.85 17.1 3.4 16.35 4.0 15.65 6.6 13.95 Q8.15 12.9 11.25 11.5 L13.4 10.6 14.75 9.95 Q15.9 9.4 17.4 8.8 L23.1 6.95 Q26.4 6.05 32.2 5.2 L36.05 4.75 38.0 4.55 41.85 4.45 46.2 4.45 51.3 4.85 55.65 5.3 56.9 5.9 58.75 6.65 60.1 7.0 60.55 7.05 60.15 6.5 59.75 5.45 59.65 4.65 59.6 4.4 59.5 4.4 56.9 4.2 52.15 3.9 46.8 3.65 43.6 3.75 38.35 4.1 30.45 5.2 22.65 6.85 Q19.95 7.55 15.2 9.5 L9.6 11.95 6.4 13.8 4.3 15.25 3.65 15.2 3.4 15.05 3.3 15.0 1.85 13.65 0.3 11.95 -0.45 11.05 Q-0.65 10.7 -0.45 10.5 L0.2 9.75 1.1 8.65 4.05 6.7 Q5.3 5.95 6.5 5.3 8.1 4.35 13.65 2.5 L20.55 0.3 M12.15 14.1 Q12.15 14.6 12.5 14.95 12.85 15.3 13.35 15.3 13.85 15.3 14.2 14.95 L14.55 14.1 Q14.55 13.65 14.2 13.3 13.85 12.95 13.35 12.95 12.85 12.95 12.5 13.3 12.15 13.65 12.15 14.1 M18.35 12.5 Q18.35 12.05 17.95 11.7 17.6 11.35 17.1 11.35 16.6 11.35 16.25 11.7 15.85 12.05 15.85 12.5 15.85 13.0 16.25 13.35 16.6 13.7 17.1 13.7 17.6 13.7 17.95 13.35 18.35 13.0 18.35 12.5 M8.35 7.7 Q8.0 8.05 8.0 8.5 8.0 9.0 8.35 9.35 8.7 9.7 9.15 9.7 9.65 9.7 10.0 9.35 10.35 9.0 10.35 8.5 10.35 8.05 10.0 7.7 9.65 7.35 9.15 7.35 8.7 7.35 8.35 7.7 M4.55 11.35 Q5.0 11.35 5.35 11.0 L5.7 10.2 5.35 9.4 Q5.0 9.05 4.55 9.05 4.05 9.05 3.7 9.4 3.4 9.7 3.4 10.2 3.4 10.65 3.7 11.0 4.05 11.35 4.55 11.35 M43.5 -0.4 Q43.15 -0.75 42.65 -0.75 42.15 -0.75 41.8 -0.4 41.45 -0.05 41.45 0.45 41.45 0.95 41.8 1.3 42.15 1.65 42.65 1.65 43.15 1.65 43.5 1.3 43.85 0.95 43.85 0.45 43.85 -0.05 43.5 -0.4 M46.45 -0.05 Q46.1 0.25 46.1 0.75 46.1 1.25 46.45 1.6 46.8 1.95 47.3 1.95 47.8 1.95 48.15 1.6 L48.5 0.75 48.15 -0.05 Q47.8 -0.4 47.3 -0.4 46.8 -0.4 46.45 -0.05 M56.45 6.8 Q56.1 6.45 55.65 6.45 55.15 6.45 54.8 6.8 54.45 7.1 54.45 7.6 54.45 8.1 54.8 8.4 55.15 8.75 55.65 8.75 56.1 8.75 56.45 8.4 56.8 8.1 56.8 7.6 56.8 7.1 56.45 6.8 M52.65 7.15 Q52.65 6.7 52.3 6.35 51.95 6.05 51.5 6.05 51.0 6.05 50.65 6.35 50.3 6.7 50.3 7.15 50.3 7.6 50.65 7.95 51.0 8.3 51.5 8.3 L52.3 7.95 52.65 7.15 M86.8 4.3 L111.15 4.95 110.45 4.4 85.85 3.8 86.8 4.3" fill="#ffffff" fill-rule="evenodd" stroke="none"/>
  </g>
</svg>
