<?xml version="1.0" encoding="UTF-8" standalone="no"?>
<svg xmlns:xlink="http://www.w3.org/1999/xlink" height="27.6px" width="141.35px" xmlns="http://www.w3.org/2000/svg">
  <g transform="matrix(1.0, 0.0, 0.0, 1.0, 6.25, 1.95)">
    <path d="M127.65 6.55 L120.75 7.15 118.7 7.05 114.7 6.45 Q111.5 5.65 108.35 3.8 L106.3 2.55 105.9 2.3 100.7 3.35 89.2 4.1 79.8 3.1 78.65 2.9 75.45 2.3 74.15 2.0 73.45 2.8 Q72.55 3.65 71.8 3.65 L70.4 3.95 Q68.95 4.2 68.6 3.7 L68.2 3.1 67.75 2.5 Q67.2 1.9 66.4 1.65 L65.0 1.45 63.35 1.95 60.7 2.85 58.95 3.05 58.1 3.0 56.3 3.0 Q53.25 2.85 50.6 1.4 L48.75 1.05 44.6 0.6 37.75 0.6 31.45 0.95 25.25 1.8 19.25 2.9 12.35 5.1 Q6.8 6.95 5.2 7.9 L2.75 9.3 Q0.2 10.85 -0.2 11.25 L-1.1 12.35 -1.75 13.1 Q-1.95 13.3 -1.75 13.65 L-1.0 14.55 0.55 16.25 2.0 17.6 2.1 17.65 2.35 17.8 3.0 17.85 5.1 16.4 8.3 14.55 13.9 12.1 Q18.65 10.15 21.35 9.45 L29.15 7.8 37.05 6.7 42.3 6.35 45.5 6.25 50.85 6.5 55.6 6.8 58.2 7.0 58.3 7.0 58.35 7.25 58.45 8.05 58.85 9.1 59.25 9.65 58.8 9.6 57.45 9.25 55.6 8.5 54.35 7.9 50.0 7.45 44.9 7.05 40.55 7.05 36.7 7.15 34.75 7.35 30.9 7.8 Q25.1 8.65 21.8 9.55 L16.1 11.4 Q14.6 12.0 13.45 12.55 13.15 12.7 12.1 13.2 L9.95 14.1 Q6.85 15.5 5.3 16.55 L2.7 18.25 2.1 18.95 2.55 19.7 3.65 21.15 Q5.3 23.1 5.8 23.3 L6.85 23.65 7.55 23.55 7.75 23.2 7.95 22.7 8.55 22.05 9.85 21.2 Q10.75 20.65 14.4 19.05 L19.7 16.95 25.35 15.2 31.25 13.65 41.7 12.75 51.6 12.3 57.4 13.05 62.75 13.65 64.5 13.75 65.55 13.75 65.85 14.05 66.3 14.85 Q66.9 15.95 66.95 16.65 L66.75 18.65 66.15 20.3 65.7 20.9 65.8 21.2 66.45 21.1 67.2 20.55 68.05 19.4 68.65 17.75 68.7 16.4 68.5 15.5 68.3 15.05 68.35 15.1 68.55 15.2 69.5 15.4 71.05 14.95 72.4 13.95 72.9 13.0 72.95 12.45 73.6 11.95 Q74.2 11.65 74.45 11.7 75.3 11.9 75.2 12.3 L75.15 12.6 75.4 12.4 76.0 12.1 76.85 12.1 Q77.4 12.25 77.6 12.45 L78.1 13.0 81.25 12.75 81.45 12.1 93.1 13.5 106.9 15.2 112.7 15.75 118.2 15.5 118.7 15.4 122.95 13.8 Q125.95 12.4 127.3 10.9 L130.15 7.6 131.45 5.9 127.65 6.55 M109.15 7.0 L84.55 6.4 85.5 6.9 109.85 7.55 109.15 7.0 M51.35 9.75 Q51.35 9.3 51.0 8.95 L50.2 8.65 Q49.7 8.65 49.35 8.95 49.0 9.3 49.0 9.75 49.0 10.2 49.35 10.55 49.7 10.9 50.2 10.9 50.65 10.9 51.0 10.55 51.35 10.2 51.35 9.75 M54.35 11.35 L55.15 11.0 Q55.5 10.7 55.5 10.2 55.5 9.7 55.15 9.4 54.8 9.05 54.35 9.05 53.85 9.05 53.5 9.4 53.15 9.7 53.15 10.2 53.15 10.7 53.5 11.0 53.85 11.35 54.35 11.35 M46.85 4.2 L47.2 3.35 Q47.2 2.85 46.85 2.55 46.5 2.2 46.0 2.2 45.5 2.2 45.15 2.55 44.8 2.85 44.8 3.35 44.8 3.85 45.15 4.2 45.5 4.55 46.0 4.55 46.5 4.55 46.85 4.2 M42.55 3.05 Q42.55 2.55 42.2 2.2 41.85 1.85 41.35 1.85 40.85 1.85 40.5 2.2 40.15 2.55 40.15 3.05 40.15 3.55 40.5 3.9 40.85 4.25 41.35 4.25 41.85 4.25 42.2 3.9 L42.55 3.05 M2.4 12.0 Q2.1 12.3 2.1 12.8 2.1 13.25 2.4 13.6 2.75 13.95 3.25 13.95 3.7 13.95 4.05 13.6 L4.4 12.8 Q4.4 12.3 4.05 12.0 3.7 11.65 3.25 11.65 2.75 11.65 2.4 12.0 M8.7 10.3 Q8.35 9.95 7.85 9.95 7.4 9.95 7.05 10.3 6.7 10.65 6.7 11.1 6.7 11.6 7.05 11.95 7.4 12.3 7.85 12.3 8.35 12.3 8.7 11.95 L9.05 11.1 Q9.05 10.65 8.7 10.3 M15.8 13.95 Q15.3 13.95 14.95 14.3 14.55 14.65 14.55 15.1 14.55 15.6 14.95 15.95 15.3 16.3 15.8 16.3 16.3 16.3 16.65 15.95 17.05 15.6 17.05 15.1 17.05 14.65 16.65 14.3 16.3 13.95 15.8 13.95 M12.05 17.9 Q12.55 17.9 12.9 17.55 L13.25 16.7 Q13.25 16.25 12.9 15.9 12.55 15.55 12.05 15.55 11.55 15.55 11.2 15.9 10.85 16.25 10.85 16.7 10.85 17.2 11.2 17.55 11.55 17.9 12.05 17.9" fill="none" stroke="#000000" stroke-linecap="butt" stroke-linejoin="miter" stroke-miterlimit="10.0" stroke-opacity="0.49803922" stroke-width="1.5"/>
    <path d="M127.65 6.55 L120.75 7.15 118.7 7.05 114.7 6.45 Q111.5 5.65 108.35 3.8 L106.3 2.55 105.9 2.3 100.7 3.35 89.2 4.1 79.8 3.1 78.65 2.9 75.45 2.3 74.15 2.0 73.45 2.8 Q72.55 3.65 71.8 3.65 L70.4 3.95 Q68.95 4.2 68.6 3.7 L68.2 3.1 67.75 2.5 Q67.2 1.9 66.4 1.65 L65.0 1.45 63.35 1.95 60.7 2.85 58.95 3.05 58.1 3.0 56.3 3.0 Q53.25 2.85 50.6 1.4 L48.75 1.05 44.6 0.6 37.75 0.6 31.45 0.95 25.25 1.8 19.25 2.9 12.35 5.1 Q6.8 6.95 5.2 7.9 L2.75 9.3 Q0.2 10.85 -0.2 11.25 L-1.1 12.35 -1.75 13.1 Q-1.95 13.3 -1.75 13.65 L-1.0 14.55 0.55 16.25 2.0 17.6 2.1 17.65 2.35 17.8 3.0 17.85 5.1 16.4 8.3 14.55 13.9 12.1 Q18.65 10.15 21.35 9.45 L29.15 7.8 37.05 6.7 42.3 6.35 45.5 6.25 50.85 6.5 55.6 6.8 58.2 7.0 58.3 7.0 58.35 7.25 58.45 8.05 58.85 9.1 59.25 9.65 58.8 9.6 57.45 9.25 55.6 8.5 54.35 7.9 50.0 7.45 44.9 7.05 40.55 7.05 36.7 7.15 34.75 7.35 30.9 7.8 Q25.1 8.65 21.8 9.55 L16.1 11.4 Q14.6 12.0 13.45 12.55 13.15 12.7 12.1 13.2 L9.95 14.1 Q6.85 15.5 5.3 16.55 L2.7 18.25 2.1 18.95 2.55 19.7 3.65 21.15 Q5.3 23.1 5.8 23.3 L6.85 23.65 7.55 23.55 7.75 23.2 7.95 22.7 8.55 22.05 9.85 21.2 Q10.75 20.65 14.4 19.05 L19.7 16.95 25.35 15.2 31.25 13.65 41.7 12.75 51.6 12.3 57.4 13.05 62.75 13.65 64.5 13.75 65.55 13.75 65.85 14.05 66.3 14.85 Q66.9 15.95 66.95 16.65 L66.75 18.65 66.15 20.3 65.7 20.9 65.8 21.2 66.45 21.1 67.2 20.55 68.05 19.4 68.65 17.75 68.7 16.4 68.5 15.5 68.3 15.05 68.35 15.1 68.55 15.2 69.5 15.4 71.05 14.95 72.4 13.95 72.9 13.0 72.95 12.45 73.6 11.95 Q74.2 11.65 74.45 11.7 75.3 11.9 75.2 12.3 L75.15 12.6 75.4 12.4 76.0 12.1 76.85 12.1 Q77.4 12.25 77.6 12.45 L78.1 13.0 81.25 12.75 81.45 12.1 93.1 13.5 106.9 15.2 112.7 15.75 118.2 15.5 118.7 15.4 122.95 13.8 Q125.95 12.4 127.3 10.9 L130.15 7.6 131.45 5.9 127.65 6.55 M109.15 7.0 L84.55 6.4 85.5 6.9 109.85 7.55 109.15 7.0 M51.35 9.75 Q51.35 9.3 51.0 8.95 L50.2 8.65 Q49.7 8.65 49.35 8.95 49.0 9.3 49.0 9.75 49.0 10.2 49.35 10.55 49.7 10.9 50.2 10.9 50.65 10.9 51.0 10.55 51.35 10.2 51.35 9.75 M54.35 11.35 L55.15 11.0 Q55.5 10.7 55.5 10.2 55.5 9.7 55.15 9.4 54.8 9.05 54.35 9.05 53.85 9.05 53.5 9.4 53.15 9.7 53.15 10.2 53.15 10.7 53.5 11.0 53.85 11.35 54.35 11.35 M46.85 4.2 L47.2 3.35 Q47.2 2.85 46.85 2.55 46.5 2.2 46.0 2.2 45.5 2.2 45.15 2.55 44.8 2.85 44.8 3.35 44.8 3.85 45.15 4.2 45.5 4.55 46.0 4.55 46.5 4.55 46.85 4.2 M42.55 3.05 Q42.55 2.55 42.2 2.2 41.85 1.85 41.35 1.85 40.85 1.85 40.5 2.2 40.15 2.55 40.15 3.05 40.15 3.55 40.5 3.9 40.85 4.25 41.35 4.25 41.85 4.25 42.2 3.9 L42.55 3.05 M3.25 11.65 Q2.75 11.65 2.4 12.0 2.1 12.3 2.1 12.8 2.1 13.25 2.4 13.6 2.75 13.95 3.25 13.95 3.7 13.95 4.05 13.6 L4.4 12.8 Q4.4 12.3 4.05 12.0 3.7 11.65 3.25 11.65 M8.7 10.3 Q8.35 9.95 7.85 9.95 7.4 9.95 7.05 10.3 6.7 10.65 6.7 11.1 6.7 11.6 7.05 11.95 7.4 12.3 7.85 12.3 8.35 12.3 8.7 11.95 L9.05 11.1 Q9.05 10.65 8.7 10.3 M15.8 13.95 Q15.3 13.95 14.95 14.3 14.55 14.65 14.55 15.1 14.55 15.6 14.95 15.95 15.3 16.3 15.8 16.3 16.3 16.3 16.65 15.95 17.05 15.6 17.05 15.1 17.05 14.65 16.65 14.3 16.3 13.95 15.8 13.95 M12.05 17.9 Q12.55 17.9 12.9 17.55 L13.25 16.7 Q13.25 16.25 12.9 15.9 12.55 15.55 12.05 15.55 11.55 15.55 11.2 15.9 10.85 16.25 10.85 16.7 10.85 17.2 11.2 17.55 11.55 17.9 12.05 17.9" fill="none" stroke="#000000" stroke-linecap="butt" stroke-linejoin="miter" stroke-miterlimit="10.0" stroke-width="0.5"/>
  </g>
</svg>
