<?xml version="1.0" encoding="UTF-8" standalone="no"?>
<svg xmlns:xlink="http://www.w3.org/1999/xlink" height="25.3px" width="127.8px" xmlns="http://www.w3.org/2000/svg">
  <g transform="matrix(1.0, 0.0, 0.0, 1.0, 0.75, 0.75)">
    <path d="M123.0 7.85 Q119.25 6.25 116.9 5.55 L110.2 3.45 105.75 2.25 105.0 2.15 104.45 2.3 103.95 2.75 103.95 3.2 Q104.05 3.4 104.45 3.45 L106.05 4.0 108.65 5.2 110.1 6.4 110.3 7.5 Q110.3 8.2 109.55 8.75 L107.5 9.05 106.7 8.8 106.35 8.7 100.25 6.65 Q93.7 4.5 90.95 3.9 L84.9 2.7 82.05 2.2 80.95 2.7 80.1 1.9 78.8 2.4 77.8 1.65 76.5 2.15 75.6 1.3 74.55 1.8 73.75 1.05 72.7 1.55 71.55 0.85 70.6 1.35 69.5 0.7 68.45 1.3 67.45 0.45 66.25 1.05 65.3 0.25 64.45 0.95 63.3 0.25 62.15 0.85 61.3 0.05 51.05 0.05 31.65 1.15 Q24.05 2.05 17.2 3.45 L13.3 4.35 10.65 4.8 9.8 5.4 8.85 5.1 8.85 5.45 8.45 5.95 7.6 6.0 6.8 5.9 6.3 6.05 5.7 6.6 Q5.3 7.0 3.0 11.3 0.75 15.55 0.4 16.5 L0.05 17.65 0.0 18.8 Q-0.05 19.6 0.25 20.35 L0.8 21.35 Q0.95 21.7 1.55 22.05 L3.0 22.7 Q3.75 22.95 4.7 22.7 L6.35 22.15 10.3 20.4 13.85 18.8 17.4 18.15 22.65 17.4 33.5 16.45 38.7 16.15 Q42.5 16.0 42.85 16.15 L43.35 16.5 44.0 17.05 Q44.85 17.75 45.45 17.7 L46.05 17.65 46.45 17.55 48.1 16.45 Q49.55 15.25 50.85 14.75 52.3 14.15 54.25 14.0 L57.95 14.45 Q59.5 14.95 61.4 16.15 62.85 17.1 63.7 19.8 L64.2 22.3 65.1 22.55 65.6 21.9 66.45 21.95 67.15 22.85 67.15 23.8 77.5 23.8 93.15 23.35 Q98.7 22.9 103.1 21.85 108.05 20.7 113.25 18.5 117.75 16.65 122.5 12.75 L126.3 9.25 123.0 7.85 M4.4 17.6 L5.0 18.45 5.15 19.4 4.75 20.35 3.95 20.95 2.9 21.25 1.95 20.9 1.3 20.15 1.1 19.3 Q1.05 18.75 1.3 18.3 L1.9 17.5 Q2.35 17.2 3.05 17.15 3.8 17.15 4.4 17.6" fill="none" stroke="#000000" stroke-linecap="round" stroke-linejoin="round" stroke-opacity="0.4" stroke-width="1.5"/>
    <path d="M123.0 7.85 Q119.25 6.25 116.9 5.55 L110.2 3.45 105.75 2.25 105.0 2.15 104.45 2.3 103.95 2.75 103.95 3.2 Q104.05 3.4 104.45 3.45 L106.05 4.0 108.65 5.2 110.1 6.4 110.3 7.5 Q110.3 8.2 109.55 8.75 L107.5 9.05 106.7 8.8 106.35 8.7 100.25 6.65 Q93.7 4.5 90.95 3.9 L84.9 2.7 82.05 2.2 80.95 2.7 80.1 1.9 78.8 2.4 77.8 1.65 76.5 2.15 75.6 1.3 74.55 1.8 73.75 1.05 72.7 1.55 71.55 0.85 70.6 1.35 69.5 0.7 68.45 1.3 67.45 0.45 66.25 1.05 65.3 0.25 64.45 0.95 63.3 0.25 62.15 0.85 61.3 0.05 51.05 0.05 31.65 1.15 Q24.05 2.05 17.2 3.45 L13.3 4.35 10.65 4.8 9.8 5.4 8.85 5.1 8.85 5.45 8.45 5.95 7.6 6.0 6.8 5.9 6.3 6.05 5.7 6.6 Q5.3 7.0 3.0 11.3 0.75 15.55 0.4 16.5 L0.05 17.65 0.0 18.8 Q-0.05 19.6 0.25 20.35 L0.8 21.35 Q0.95 21.7 1.55 22.05 L3.0 22.7 Q3.75 22.95 4.7 22.7 L6.35 22.15 10.3 20.4 13.85 18.8 17.4 18.15 22.65 17.4 33.5 16.45 38.7 16.15 Q42.5 16.0 42.85 16.15 L43.35 16.5 44.0 17.05 Q44.85 17.75 45.45 17.7 L46.05 17.65 46.45 17.55 48.1 16.45 Q49.55 15.25 50.85 14.75 52.3 14.15 54.25 14.0 L57.95 14.45 Q59.5 14.95 61.4 16.15 62.85 17.1 63.7 19.8 L64.2 22.3 65.1 22.55 65.6 21.9 66.45 21.95 67.15 22.85 67.15 23.8 77.5 23.8 93.15 23.35 Q98.7 22.9 103.1 21.85 108.05 20.7 113.25 18.5 117.75 16.65 122.5 12.75 L126.3 9.25 123.0 7.85 M4.4 17.6 L5.0 18.45 5.15 19.4 4.75 20.35 3.95 20.95 2.9 21.25 1.95 20.9 1.3 20.15 1.1 19.3 Q1.05 18.75 1.3 18.3 L1.9 17.5 Q2.35 17.2 3.05 17.15 3.8 17.15 4.4 17.6" fill="none" stroke="#000000" stroke-linecap="round" stroke-linejoin="round" stroke-width="0.5"/>
  </g>
</svg>
