<?xml version="1.0" encoding="UTF-8" standalone="no"?>
<svg xmlns:xlink="http://www.w3.org/1999/xlink" height="23.8px" width="126.3px" xmlns="http://www.w3.org/2000/svg">
  <g transform="matrix(1.0, 0.0, 0.0, 1.0, 0.0, -2.25)">
    <path d="M5.0 20.7 L4.4 19.85 Q3.8 19.4 3.05 19.4 2.35 19.45 1.9 19.75 L1.3 20.55 Q1.05 21.0 1.1 21.55 L1.3 22.4 1.95 23.15 2.9 23.5 3.95 23.2 4.75 22.6 5.15 21.65 5.0 20.7 M123.0 10.1 L126.3 11.5 122.5 15.0 Q117.75 18.9 113.25 20.75 108.05 22.95 103.1 24.1 98.7 25.15 93.15 25.6 L77.5 26.05 67.15 26.05 67.15 25.1 66.45 24.2 65.6 24.15 65.1 24.8 64.2 24.55 63.7 22.05 Q62.85 19.35 61.4 18.4 59.5 17.2 57.95 16.7 L54.25 16.25 Q52.3 16.4 50.85 17.0 49.55 17.5 48.1 18.7 L46.45 19.8 46.05 19.9 45.45 19.95 Q44.85 20.0 44.0 19.3 L43.35 18.75 42.85 18.4 Q42.5 18.25 38.7 18.4 L33.5 18.7 22.65 19.65 17.4 20.4 13.85 21.05 10.3 22.65 6.35 24.4 4.7 24.95 Q3.75 25.2 3.0 24.95 L1.55 24.3 Q0.95 23.95 0.8 23.6 L0.25 22.6 Q-0.05 21.85 0.0 21.05 L0.05 19.9 0.4 18.75 Q0.75 17.8 3.0 13.55 5.3 9.25 5.7 8.85 L6.3 8.3 6.8 8.15 7.6 8.25 8.45 8.2 8.85 7.7 8.85 7.35 9.8 7.65 10.65 7.05 13.3 6.6 17.2 5.7 Q24.05 4.3 31.65 3.4 L51.05 2.3 61.3 2.3 62.15 3.1 63.3 2.5 64.45 3.2 65.3 2.5 66.25 3.3 67.45 2.7 68.45 3.55 69.5 2.95 70.6 3.6 71.55 3.1 72.7 3.8 73.75 3.3 74.55 4.05 75.6 3.55 76.5 4.4 77.8 3.9 78.8 4.65 80.1 4.15 80.95 4.95 82.05 4.45 84.9 4.95 90.95 6.15 Q93.7 6.75 100.25 8.9 L106.35 10.95 106.7 11.05 107.5 11.3 109.55 11.0 Q110.3 10.45 110.3 9.75 L110.1 8.65 108.65 7.45 106.05 6.25 104.45 5.7 Q104.05 5.65 103.95 5.45 L103.95 5.0 104.45 4.55 105.0 4.4 105.75 4.5 110.2 5.7 116.9 7.8 Q119.25 8.5 123.0 10.1" fill="#ffffff" fill-rule="evenodd" stroke="none"/>
  </g>
</svg>
