<?xml version="1.0" encoding="UTF-8" standalone="no"?>
<svg xmlns:xlink="http://www.w3.org/1999/xlink" height="35.5px" width="94.75px" xmlns="http://www.w3.org/2000/svg">
  <g transform="matrix(1.0, 0.0, 0.0, 1.0, 0.0, 0.0)">
    <path d="M7.8 22.05 Q7.0 22.55 6.2 23.35 5.5 24.05 5.2 24.8 5.0 25.35 4.75 26.75 4.55 27.9 4.75 28.75 L5.35 30.45 Q5.75 31.5 7.0 32.4 8.3 33.35 9.7 33.65 L12.45 33.4 Q13.75 32.9 14.65 32.0 15.65 31.0 16.05 30.0 16.4 28.95 16.4 27.4 16.4 25.85 15.55 24.5 14.8 23.2 13.4 22.2 12.4 21.5 11.1 21.4 L9.3 21.45 Q8.65 21.5 7.8 22.05 M94.75 29.95 Q93.45 27.9 91.0 25.4 86.0 20.45 80.1 18.15 74.7 16.1 71.3 15.55 L68.5 15.3 65.95 15.3 Q61.4 15.4 56.75 16.65 L53.95 17.5 52.95 17.9 53.05 18.25 52.9 18.8 51.45 19.5 50.0 19.95 Q49.7 19.9 49.5 19.45 L49.15 18.6 Q48.75 17.4 47.65 16.1 45.9 14.0 43.75 13.75 40.75 13.35 38.5 15.7 37.8 16.4 37.25 17.3 L36.85 18.1 35.1 17.55 Q32.9 17.2 30.8 18.15 29.05 18.95 27.75 20.7 L27.0 21.8 26.75 22.25 24.95 22.1 Q22.95 22.05 21.95 22.65 20.95 23.25 20.1 24.6 L19.55 25.55 19.3 26.15 18.95 26.4 18.8 26.3 18.8 27.1 18.65 28.8 Q18.45 29.7 17.5 31.25 L16.05 33.25 Q15.25 34.05 13.9 34.65 12.05 35.55 10.25 35.5 8.6 35.45 5.75 33.95 L4.0 32.9 3.3 32.4 0.2 31.7 0.0 31.2 1.0 29.6 Q2.1 27.7 2.4 26.4 L3.35 23.1 3.85 21.35 4.9 20.8 4.35 20.2 4.7 19.0 Q5.2 17.85 5.5 17.75 L6.15 17.75 6.7 17.6 7.2 17.05 7.15 16.65 Q7.3 16.3 7.7 16.3 L8.25 16.45 8.75 16.4 9.0 15.65 Q9.15 15.1 9.4 14.95 9.8 14.65 10.35 14.95 10.6 15.15 10.75 15.15 L11.15 15.05 11.45 14.3 Q11.4 13.9 11.85 13.6 L12.7 13.5 13.0 13.6 13.15 13.65 13.35 13.2 13.45 12.6 Q13.95 12.1 14.4 12.15 L14.75 12.15 15.15 12.0 15.5 11.55 15.7 11.25 16.4 10.85 17.0 10.55 17.1 10.2 19.45 8.9 Q22.25 7.35 24.8 6.3 27.3 5.25 31.7 4.1 L35.65 3.15 37.15 3.85 37.85 3.65 38.55 3.7 40.25 3.85 44.9 3.55 Q47.85 2.9 49.75 1.6 L51.1 0.4 54.2 0.0 54.75 0.7 54.8 1.25 61.9 1.8 68.25 3.05 Q71.1 3.9 74.35 5.35 L79.1 7.95 Q81.0 9.25 83.0 10.9 85.3 12.9 86.85 14.7 91.25 19.9 93.45 25.45 94.55 28.2 94.75 29.95" fill="#ffffff" fill-rule="evenodd" stroke="none"/>
  </g>
</svg>
