<?xml version="1.0" encoding="UTF-8" standalone="no"?>
<svg xmlns:xlink="http://www.w3.org/1999/xlink" height="40.6px" width="143.15px" xmlns="http://www.w3.org/2000/svg">
  <g transform="matrix(1.0, 0.0, 0.0, 1.0, 0.75, 0.75)">
    <path d="M137.9 23.6 L141.65 21.3 132.15 19.1 104.25 14.1 100.95 14.15 101.05 14.25 101.3 14.6 Q101.55 15.1 101.3 15.55 101.1 15.95 100.6 15.95 L100.3 15.85 100.15 15.8 99.4 14.35 96.35 14.3 96.5 14.4 96.85 14.75 Q97.25 15.35 96.9 15.85 96.55 16.35 96.0 16.2 L95.65 16.05 95.55 15.9 94.6 14.2 91.85 14.1 92.0 14.3 92.3 14.8 Q92.7 15.55 92.4 15.9 92.05 16.35 91.3 16.15 L90.85 15.95 90.7 15.85 90.0 14.15 87.35 14.25 87.5 14.4 87.75 14.75 Q88.05 15.4 87.85 15.75 87.45 16.45 86.85 16.2 L86.45 16.0 86.3 15.85 85.5 14.2 82.4 14.2 82.55 14.4 82.8 14.8 Q83.2 15.5 82.9 15.85 82.4 16.4 81.9 16.25 L81.55 16.1 81.45 16.0 80.6 14.25 77.6 14.25 77.7 14.4 77.95 14.8 Q78.3 15.45 78.0 15.9 77.7 16.4 77.15 16.3 L76.8 16.2 76.7 16.1 75.75 14.3 72.65 14.0 72.8 14.2 73.1 14.75 Q73.5 15.55 73.15 15.95 72.75 16.4 72.2 16.15 L71.85 15.95 71.7 15.85 70.75 14.0 65.9 13.8 66.1 14.05 66.5 14.65 Q67.0 15.6 66.45 16.05 L65.75 16.25 65.4 16.2 64.45 14.15 63.5 13.25 55.4 13.25 55.25 0.4 54.8 0.2 53.85 0.0 53.15 0.2 52.9 0.4 52.9 13.85 52.45 13.9 52.35 15.3 52.1 14.65 45.4 14.85 45.1 15.55 44.4 15.5 44.15 14.85 38.9 14.65 38.5 15.35 37.75 15.4 37.4 14.7 31.8 14.75 31.4 15.5 30.9 15.45 30.45 14.75 25.4 14.75 24.85 15.4 24.4 15.4 23.95 14.75 18.5 14.95 18.0 15.65 17.15 15.7 16.95 15.5 15.4 14.85 10.65 14.75 5.25 14.65 4.0 14.8 3.45 14.9 1.0 14.9 0.9 14.9 Q0.75 14.9 0.6 15.05 L0.45 15.5 0.45 15.7 0.45 18.35 0.25 19.05 0.05 20.75 0.05 22.9 0.15 24.05 0.45 25.0 0.5 27.45 0.6 27.65 0.85 28.0 3.1 27.8 3.2 27.95 3.5 28.2 4.4 28.35 7.0 28.45 12.3 28.3 15.7 28.1 16.9 27.5 17.25 27.2 18.0 27.2 18.5 27.95 24.05 28.15 24.4 27.45 24.9 27.45 25.35 28.1 30.6 28.0 31.0 27.35 31.45 27.35 31.85 28.1 37.45 28.1 37.8 27.4 38.55 27.45 38.9 28.1 44.3 27.9 44.55 27.15 45.2 27.2 45.45 27.85 52.15 28.0 52.45 27.4 52.55 28.75 53.0 28.85 53.1 38.75 53.5 38.9 54.25 39.1 55.05 38.9 55.4 38.7 55.45 29.05 65.0 29.0 65.6 29.1 66.65 29.4 67.35 29.85 67.55 30.1 117.8 29.85 120.6 29.65 Q125.5 29.0 130.7 27.15 133.6 26.15 137.9 23.6 M110.95 19.0 L114.6 19.0 114.75 19.05 115.05 19.25 Q115.5 19.7 115.55 20.55 115.55 21.4 115.0 21.95 L114.6 22.25 114.45 22.35 111.1 22.35 110.45 22.0 Q109.8 21.55 109.8 20.8 109.8 20.05 110.35 19.45 L110.95 19.0" fill="none" stroke="#000000" stroke-linecap="round" stroke-linejoin="round" stroke-width="0.5"/>
    <path d="M137.9 23.6 L141.65 21.3 132.15 19.1 104.25 14.1 100.95 14.15 101.05 14.25 101.3 14.6 Q101.55 15.1 101.3 15.55 101.1 15.95 100.6 15.95 L100.3 15.85 100.15 15.8 99.4 14.35 96.35 14.3 96.5 14.4 96.85 14.75 Q97.25 15.35 96.9 15.85 96.55 16.35 96.0 16.2 L95.65 16.05 95.55 15.9 94.6 14.2 91.85 14.1 92.0 14.3 92.3 14.8 Q92.7 15.55 92.4 15.9 92.05 16.35 91.3 16.15 L90.85 15.95 90.7 15.85 90.0 14.15 87.35 14.25 87.5 14.4 87.75 14.75 Q88.05 15.4 87.85 15.75 87.45 16.45 86.85 16.2 L86.45 16.0 86.3 15.85 85.5 14.2 82.4 14.2 82.55 14.4 82.8 14.8 Q83.2 15.5 82.9 15.85 82.4 16.4 81.9 16.25 L81.55 16.1 81.45 16.0 80.6 14.25 77.6 14.25 77.7 14.4 77.95 14.8 Q78.3 15.45 78.0 15.9 77.7 16.4 77.15 16.3 L76.8 16.2 76.7 16.1 75.75 14.3 72.65 14.0 72.8 14.2 73.1 14.75 Q73.5 15.55 73.15 15.95 72.75 16.4 72.2 16.15 L71.85 15.95 71.7 15.85 70.75 14.0 65.9 13.8 66.1 14.05 66.5 14.65 Q67.0 15.6 66.45 16.05 L65.75 16.25 65.4 16.2 64.45 14.15 63.5 13.25 55.4 13.25 55.25 0.4 54.8 0.2 53.85 0.0 53.15 0.2 52.9 0.4 52.9 13.85 52.45 13.9 52.35 15.3 52.1 14.65 45.4 14.85 45.1 15.55 44.4 15.5 44.15 14.85 38.9 14.65 38.5 15.35 37.75 15.4 37.4 14.7 31.8 14.75 31.4 15.5 30.9 15.45 30.45 14.75 25.4 14.75 24.85 15.4 24.4 15.4 23.95 14.75 18.5 14.95 18.0 15.65 17.15 15.7 16.95 15.5 15.4 14.85 10.65 14.75 5.25 14.65 4.0 14.8 3.45 14.9 1.0 14.9 0.9 14.9 Q0.75 14.9 0.6 15.05 L0.45 15.5 0.45 15.7 0.45 18.35 0.25 19.05 0.05 20.75 0.05 22.9 0.15 24.05 0.45 25.0 0.5 27.45 0.6 27.65 0.85 28.0 3.1 27.8 3.2 27.95 3.5 28.2 4.4 28.35 7.0 28.45 12.3 28.3 15.7 28.1 16.9 27.5 17.25 27.2 18.0 27.2 18.5 27.95 24.05 28.15 24.4 27.45 24.9 27.45 25.35 28.1 30.6 28.0 31.0 27.35 31.45 27.35 31.85 28.1 37.45 28.1 37.8 27.4 38.55 27.45 38.9 28.1 44.3 27.9 44.55 27.15 45.2 27.2 45.45 27.85 52.15 28.0 52.45 27.4 52.55 28.75 53.0 28.85 53.1 38.75 53.5 38.9 54.25 39.1 55.05 38.9 55.4 38.7 55.45 29.05 65.0 29.0 65.6 29.1 66.65 29.4 67.35 29.85 67.55 30.1 117.8 29.85 120.6 29.65 Q125.5 29.0 130.7 27.15 133.6 26.15 137.9 23.6 M110.95 19.0 L114.6 19.0 114.75 19.05 115.05 19.25 Q115.5 19.7 115.55 20.55 115.55 21.4 115.0 21.95 L114.6 22.25 114.45 22.35 111.1 22.35 110.45 22.0 Q109.8 21.55 109.8 20.8 109.8 20.05 110.35 19.45 L110.95 19.0" fill="none" stroke="#000000" stroke-linecap="round" stroke-linejoin="round" stroke-opacity="0.4" stroke-width="1.5"/>
  </g>
</svg>
