<?xml version="1.0" encoding="UTF-8" standalone="no"?>
<svg xmlns:xlink="http://www.w3.org/1999/xlink" height="37.1px" width="141.65px" xmlns="http://www.w3.org/2000/svg">
  <g transform="matrix(1.0, 0.0, 0.0, 1.0, 0.0, 0.0)">
    <path d="M110.95 19.0 L110.35 19.45 Q109.8 20.05 109.8 20.8 109.8 21.55 110.45 22.0 L111.1 22.35 114.45 22.35 114.6 22.25 115.0 21.95 Q115.55 21.4 115.55 20.55 115.5 19.7 115.05 19.25 L114.75 19.05 114.6 19.0 110.95 19.0 M137.9 23.6 Q133.6 26.15 130.7 27.15 125.5 29.0 120.6 29.65 L117.8 29.85 67.55 30.1 67.35 29.85 66.65 29.4 65.6 29.1 65.0 29.0 55.45 29.05 55.4 36.7 55.05 36.9 54.25 37.1 53.5 36.9 53.1 36.75 53.0 28.85 52.55 28.75 52.45 27.4 52.15 28.0 45.45 27.85 45.2 27.2 44.55 27.15 44.3 27.9 38.9 28.1 38.55 27.45 37.8 27.4 37.45 28.1 31.85 28.1 31.45 27.35 31.0 27.35 30.6 28.0 25.35 28.1 24.9 27.45 24.4 27.45 24.05 28.15 18.5 27.95 18.0 27.2 17.25 27.2 16.9 27.5 15.7 28.1 12.3 28.3 7.0 28.45 4.4 28.35 3.5 28.2 3.2 27.95 3.1 27.8 0.85 28.0 0.6 27.65 0.5 27.45 0.45 25.0 0.15 24.05 0.05 22.9 0.05 20.75 0.25 19.05 0.45 18.35 0.45 15.7 0.45 15.5 0.6 15.05 Q0.75 14.9 0.9 14.9 L1.0 14.9 3.45 14.9 4.0 14.8 5.25 14.65 10.65 14.75 15.4 14.85 16.95 15.5 17.15 15.7 18.0 15.65 18.5 14.95 23.95 14.75 24.4 15.4 24.85 15.4 25.4 14.75 30.45 14.75 30.9 15.45 31.4 15.5 31.8 14.75 37.4 14.7 37.75 15.4 38.5 15.35 38.9 14.65 44.15 14.85 44.4 15.5 45.1 15.55 45.4 14.85 52.1 14.65 52.35 15.3 52.45 13.9 52.9 13.85 52.9 0.4 53.15 0.2 53.85 0.0 54.8 0.2 55.25 0.4 55.4 13.25 63.5 13.25 64.45 14.15 65.4 16.2 65.75 16.25 66.45 16.05 Q67.0 15.6 66.5 14.65 L66.1 14.05 65.9 13.8 70.75 14.0 71.7 15.85 71.85 15.95 72.2 16.15 Q72.75 16.4 73.15 15.95 73.5 15.55 73.1 14.75 L72.8 14.2 72.65 14.0 75.75 14.3 76.7 16.1 76.8 16.2 77.15 16.3 Q77.7 16.4 78.0 15.9 78.3 15.45 77.95 14.8 L77.7 14.4 77.6 14.25 80.6 14.25 81.45 16.0 81.55 16.1 81.9 16.25 Q82.4 16.4 82.9 15.85 83.2 15.5 82.8 14.8 L82.55 14.4 82.4 14.2 85.5 14.2 86.3 15.85 86.45 16.0 86.85 16.2 Q87.45 16.45 87.85 15.75 88.05 15.4 87.75 14.75 L87.5 14.4 87.35 14.25 90.0 14.15 90.7 15.85 90.85 15.95 91.3 16.15 Q92.05 16.35 92.4 15.9 92.7 15.55 92.3 14.8 L92.0 14.3 91.85 14.1 94.6 14.2 95.55 15.9 95.65 16.05 96.0 16.2 Q96.55 16.35 96.9 15.85 97.25 15.35 96.85 14.75 L96.5 14.4 96.35 14.3 99.4 14.35 100.15 15.8 100.3 15.85 100.6 15.95 Q101.1 15.95 101.3 15.55 101.55 15.1 101.3 14.6 L101.05 14.25 100.95 14.15 104.25 14.1 132.15 19.1 141.65 21.3 137.9 23.6" fill="#ffffff" fill-rule="evenodd" stroke="none"/>
  </g>
</svg>
