<?xml version="1.0" encoding="UTF-8" standalone="no"?>
<svg xmlns:xlink="http://www.w3.org/1999/xlink" height="30.95px" width="139.15px" xmlns="http://www.w3.org/2000/svg">
  <g transform="matrix(1.0, 0.0, 0.0, 1.0, 0.75, 0.75)">
    <path d="M137.65 14.45 L109.8 10.15 60.45 9.95 59.65 10.45 59.05 10.6 53.7 10.6 53.7 0.0 51.6 0.0 51.6 11.25 45.15 11.25 45.1 11.35 44.95 11.6 Q44.65 11.95 44.1 11.95 43.75 11.95 43.35 11.6 L43.1 11.25 38.5 11.25 38.2 11.55 Q37.8 11.9 37.4 11.85 L36.75 11.55 36.5 11.25 31.9 11.25 31.65 11.55 Q31.25 11.85 30.9 11.85 30.45 11.9 30.1 11.55 L29.85 11.25 25.55 11.2 25.45 11.3 25.3 11.55 24.55 11.8 23.7 11.5 23.4 11.2 18.9 11.2 18.5 11.5 17.75 11.85 17.15 11.6 16.85 11.3 14.4 11.35 12.2 10.55 1.75 10.5 1.3 10.7 0.5 11.25 0.2 12.05 0.15 12.45 0.05 16.05 0.05 20.2 0.75 21.7 1.3 22.65 12.6 22.65 14.55 21.85 17.1 21.85 17.25 21.7 17.9 21.5 Q18.3 21.5 18.55 21.8 L18.75 22.05 23.6 22.05 23.85 21.75 Q24.1 21.45 24.5 21.45 24.9 21.45 25.15 21.75 L25.4 22.05 30.0 22.05 30.2 21.8 Q30.5 21.5 30.95 21.5 31.35 21.5 31.6 21.8 L31.8 22.05 36.4 22.05 36.6 21.8 Q36.9 21.5 37.35 21.5 37.85 21.5 38.2 21.8 L38.45 22.05 43.1 22.05 43.3 21.8 Q43.65 21.55 44.1 21.5 L44.9 21.75 45.2 22.0 51.65 22.0 51.65 29.45 53.65 29.45 53.7 23.3 111.55 23.2 116.05 22.9 Q123.3 22.3 127.55 20.75 131.9 19.2 135.25 16.65 L137.65 14.45 M117.4 13.95 L117.7 14.15 Q118.2 14.55 118.2 15.15 L117.95 16.3 117.65 16.65 114.5 16.65 114.1 16.3 Q113.65 15.8 113.65 15.3 113.6 14.8 114.0 14.35 L114.4 13.9 117.25 13.85 117.4 13.95" fill="none" stroke="#000000" stroke-linecap="round" stroke-linejoin="round" stroke-opacity="0.4" stroke-width="1.5"/>
    <path d="M137.65 14.45 L109.8 10.15 60.45 9.95 59.65 10.45 59.05 10.6 53.7 10.6 53.7 0.0 51.6 0.0 51.6 11.25 45.15 11.25 45.1 11.35 44.95 11.6 Q44.65 11.95 44.1 11.95 43.75 11.95 43.35 11.6 L43.1 11.25 38.5 11.25 38.2 11.55 Q37.8 11.9 37.4 11.85 L36.75 11.55 36.5 11.25 31.9 11.25 31.65 11.55 Q31.25 11.85 30.9 11.85 30.45 11.9 30.1 11.55 L29.85 11.25 25.55 11.2 25.45 11.3 25.3 11.55 24.55 11.8 23.7 11.5 23.4 11.2 18.9 11.2 18.5 11.5 17.75 11.85 17.15 11.6 16.85 11.3 14.4 11.35 12.2 10.55 1.75 10.5 1.3 10.7 0.5 11.25 0.2 12.05 0.15 12.45 0.05 16.05 0.05 20.2 0.75 21.7 1.3 22.65 12.6 22.65 14.55 21.85 17.1 21.85 17.25 21.7 17.9 21.5 Q18.3 21.5 18.55 21.8 L18.75 22.05 23.6 22.05 23.85 21.75 Q24.1 21.45 24.5 21.45 24.9 21.45 25.15 21.75 L25.4 22.05 30.0 22.05 30.2 21.8 Q30.5 21.5 30.95 21.5 31.35 21.5 31.6 21.8 L31.8 22.05 36.4 22.05 36.6 21.8 Q36.9 21.5 37.35 21.5 37.85 21.5 38.2 21.8 L38.45 22.05 43.1 22.05 43.3 21.8 Q43.65 21.55 44.1 21.5 L44.9 21.75 45.2 22.0 51.65 22.0 51.65 29.45 53.65 29.45 53.7 23.3 111.55 23.2 116.05 22.9 Q123.3 22.3 127.55 20.75 131.9 19.2 135.25 16.65 L137.65 14.45 M117.4 13.95 L117.7 14.15 Q118.2 14.55 118.2 15.15 L117.95 16.3 117.65 16.65 114.5 16.65 114.1 16.3 Q113.65 15.8 113.65 15.3 113.6 14.8 114.0 14.35 L114.4 13.9 117.25 13.85 117.4 13.95" fill="none" stroke="#000000" stroke-linecap="round" stroke-linejoin="round" stroke-width="0.5"/>
  </g>
</svg>
