<?xml version="1.0" encoding="UTF-8" standalone="no"?>
<svg xmlns:xlink="http://www.w3.org/1999/xlink" height="29.45px" width="137.65px" xmlns="http://www.w3.org/2000/svg">
  <g transform="matrix(1.0, 0.0, 0.0, 1.0, 0.0, 0.0)">
    <path d="M117.4 13.95 L117.25 13.85 114.4 13.9 114.0 14.35 Q113.6 14.8 113.65 15.3 113.65 15.8 114.1 16.3 L114.5 16.65 117.65 16.65 117.95 16.3 118.2 15.15 Q118.2 14.55 117.7 14.15 L117.4 13.95 M137.65 14.45 L135.25 16.65 Q131.9 19.2 127.55 20.75 123.3 22.3 116.05 22.9 L111.55 23.2 53.7 23.3 53.65 29.45 51.65 29.45 51.65 22.0 45.2 22.0 44.9 21.75 44.1 21.5 Q43.65 21.55 43.3 21.8 L43.1 22.05 38.45 22.05 38.2 21.8 Q37.85 21.5 37.35 21.5 36.9 21.5 36.6 21.8 L36.4 22.05 31.8 22.05 31.6 21.8 Q31.35 21.5 30.95 21.5 30.5 21.5 30.2 21.8 L30.0 22.05 25.4 22.05 25.15 21.75 Q24.9 21.45 24.5 21.45 24.1 21.45 23.85 21.75 L23.6 22.05 18.75 22.05 18.55 21.8 Q18.3 21.5 17.9 21.5 L17.25 21.7 17.1 21.85 14.55 21.85 12.6 22.65 1.3 22.65 0.75 21.7 0.05 20.2 0.05 16.05 0.15 12.45 0.2 12.05 0.5 11.25 1.3 10.7 1.75 10.5 12.2 10.55 14.4 11.35 16.85 11.3 17.15 11.6 17.75 11.85 18.5 11.5 18.9 11.2 23.4 11.2 23.7 11.5 24.55 11.8 25.3 11.55 25.45 11.3 25.55 11.2 29.85 11.25 30.1 11.55 Q30.45 11.9 30.9 11.85 31.25 11.85 31.65 11.55 L31.9 11.25 36.5 11.25 36.75 11.55 37.4 11.85 Q37.8 11.9 38.2 11.55 L38.5 11.25 43.1 11.25 43.35 11.6 Q43.75 11.95 44.1 11.95 44.65 11.95 44.95 11.6 L45.1 11.35 45.15 11.25 51.6 11.25 51.6 0.0 53.7 0.0 53.7 10.6 59.05 10.6 59.65 10.45 60.45 9.95 109.8 10.15 137.65 14.45" fill="#ffffff" fill-rule="evenodd" stroke="none"/>
  </g>
</svg>
