<?xml version="1.0" encoding="UTF-8" standalone="no"?>
<svg xmlns:xlink="http://www.w3.org/1999/xlink" height="25.4px" width="136.15px" xmlns="http://www.w3.org/2000/svg">
  <g transform="matrix(1.0, 0.0, 0.0, 1.0, 0.0, 0.0)">
    <path d="M55.15 10.5 L55.0 10.0 55.05 9.5 50.85 9.5 50.85 10.55 55.15 10.5 M129.15 1.95 L136.15 0.0 130.75 4.25 Q124.9 8.8 122.75 10.1 119.55 12.05 115.9 13.85 111.1 16.15 106.9 17.4 102.75 18.6 96.5 19.7 L92.6 20.3 91.05 20.55 90.5 20.1 Q89.85 19.65 89.25 19.7 88.65 19.8 87.9 20.35 L87.2 20.9 86.6 20.55 85.3 20.3 Q84.7 20.4 83.95 20.85 L83.3 21.3 82.75 20.95 81.55 20.7 Q81.05 20.7 80.35 21.15 L79.75 21.6 79.1 21.2 77.75 20.9 76.7 21.35 76.2 21.75 75.6 21.4 74.35 21.0 Q73.75 21.0 73.05 21.45 L72.65 21.7 72.5 21.8 71.7 21.4 70.25 20.95 Q69.8 20.95 69.1 21.45 L68.5 21.95 63.5 21.95 63.0 19.95 60.25 22.7 59.95 22.75 59.0 22.75 58.1 22.55 57.9 22.45 56.5 20.25 Q54.75 18.05 52.85 17.7 50.55 17.4 48.25 18.45 47.55 18.8 47.0 19.2 L46.5 19.6 45.8 19.65 Q45.05 19.15 43.9 18.75 41.5 17.9 39.35 18.2 37.2 18.5 35.1 19.7 L33.45 20.85 32.75 20.95 Q31.3 20.35 29.15 19.8 24.75 18.7 20.9 18.95 L18.3 19.25 Q16.85 19.5 15.3 20.2 13.7 20.9 11.3 22.75 10.1 23.65 9.2 24.4 L6.3 25.4 5.7 25.35 4.45 25.2 3.3 24.75 2.8 24.5 2.45 22.95 0.75 22.1 0.4 21.8 0.0 20.95 0.05 20.25 0.1 20.0 1.55 17.85 Q3.3 15.35 5.1 13.7 7.1 11.9 8.55 11.05 9.65 10.3 11.2 9.8 16.1 7.95 19.85 7.05 L26.15 6.05 35.0 5.5 35.15 5.5 42.5 5.3 43.8 5.3 50.75 5.25 56.4 5.25 56.65 5.25 Q58.65 5.3 60.15 5.95 L61.35 6.6 61.75 6.1 62.15 6.5 62.5 6.1 63.0 6.45 63.25 6.2 63.65 6.35 63.8 5.95 64.25 6.2 64.5 5.85 64.95 6.15 65.15 5.7 65.75 5.9 65.85 5.45 66.4 5.7 66.4 5.1 67.0 5.3 67.0 4.85 67.65 4.9 68.6 4.2 69.5 4.45 72.15 5.05 82.0 6.45 91.45 6.85 94.95 6.75 98.45 6.6 107.5 5.95 116.9 4.75 Q121.25 4.1 129.15 1.95" fill="#ffffff" fill-rule="evenodd" stroke="none"/>
  </g>
</svg>
