<?xml version="1.0" encoding="UTF-8" standalone="no"?>
<svg xmlns:xlink="http://www.w3.org/1999/xlink" height="26.9px" width="137.65px" xmlns="http://www.w3.org/2000/svg">
  <g transform="matrix(1.0, 0.0, 0.0, 1.0, 0.75, 0.75)">
    <path d="M129.15 1.95 Q121.25 4.1 116.9 4.75 L107.5 5.95 98.45 6.6 94.95 6.75 91.45 6.85 82.0 6.45 72.15 5.05 69.5 4.45 68.6 4.2 67.65 4.9 67.0 4.85 67.0 5.3 66.4 5.1 66.4 5.7 65.85 5.45 65.75 5.9 65.15 5.7 64.95 6.15 64.5 5.85 64.25 6.2 63.8 5.95 63.65 6.35 63.25 6.2 63.0 6.45 62.5 6.1 62.15 6.5 61.75 6.1 61.35 6.6 60.15 5.95 Q58.65 5.3 56.65 5.25 L56.4 5.25 43.8 5.3 42.5 5.3 35.15 5.5 26.15 6.05 19.85 7.05 Q16.1 7.95 11.2 9.8 9.65 10.3 8.55 11.05 7.1 11.9 5.1 13.7 3.3 15.35 1.55 17.85 L0.1 20.0 0.05 20.25 0.0 20.95 0.4 21.8 0.75 22.1 2.45 22.95 2.8 24.5 3.3 24.75 4.45 25.2 5.7 25.35 6.3 25.4 9.2 24.4 Q10.1 23.65 11.3 22.75 13.7 20.9 15.3 20.2 16.85 19.5 18.3 19.25 L20.9 18.95 Q24.75 18.7 29.15 19.8 31.3 20.35 32.75 20.95 L33.45 20.85 35.1 19.7 Q37.2 18.5 39.35 18.2 41.5 17.9 43.9 18.75 45.05 19.15 45.8 19.65 L46.5 19.6 47.0 19.2 Q47.55 18.8 48.25 18.45 50.55 17.4 52.85 17.7 54.75 18.05 56.5 20.25 L57.9 22.45 58.1 22.55 59.0 22.75 59.95 22.75 60.25 22.7 63.0 19.95 63.5 21.95 68.5 21.95 69.1 21.45 Q69.8 20.95 70.25 20.95 L71.7 21.4 72.5 21.8 72.65 21.7 73.05 21.45 Q73.75 21.0 74.35 21.0 L75.6 21.4 76.2 21.75 76.7 21.35 77.75 20.9 79.1 21.2 79.75 21.6 80.35 21.15 Q81.05 20.7 81.55 20.7 L82.75 20.95 83.3 21.3 83.95 20.85 Q84.7 20.4 85.3 20.3 L86.6 20.55 87.2 20.9 87.9 20.35 Q88.65 19.8 89.25 19.7 89.85 19.65 90.5 20.1 L91.05 20.55 92.6 20.3 96.5 19.7 Q102.75 18.6 106.9 17.4 111.1 16.15 115.9 13.85 119.55 12.05 122.75 10.1 124.9 8.8 130.75 4.25 L136.15 0.0 129.15 1.95 M55.15 10.5 L50.85 10.55 50.85 9.5 55.05 9.5 55.0 10.0 55.15 10.5" fill="none" stroke="#000000" stroke-linecap="round" stroke-linejoin="round" stroke-opacity="0.4" stroke-width="1.5"/>
    <path d="M129.15 1.95 Q121.25 4.1 116.9 4.75 L107.5 5.95 98.45 6.6 94.95 6.75 91.45 6.85 91.35 6.85 87.6 6.8 82.0 6.45 76.85 5.85 72.15 5.05 69.5 4.45 68.6 4.2 67.65 4.9 67.0 4.85 67.0 5.3 66.4 5.1 66.4 5.7 65.85 5.45 65.75 5.9 65.15 5.7 64.95 6.15 64.5 5.85 64.25 6.2 63.8 5.95 63.65 6.35 63.25 6.2 63.0 6.45 62.5 6.1 62.15 6.5 61.75 6.1 61.35 6.6 60.15 5.95 Q58.65 5.3 56.65 5.25 L56.4 5.25 54.6 5.25 43.8 5.3 42.5 5.3 35.15 5.5 26.15 6.05 19.85 7.05 Q16.1 7.95 11.2 9.8 9.65 10.3 8.55 11.05 7.1 11.9 5.1 13.7 3.3 15.35 1.55 17.85 L0.1 20.0 0.05 20.25 0.0 20.95 0.4 21.8 0.75 22.1 2.45 22.95 2.8 24.5 3.3 24.75 4.45 25.2 5.7 25.35 6.3 25.4 9.2 24.4 Q10.1 23.65 11.3 22.75 13.7 20.9 15.3 20.2 16.85 19.5 18.3 19.25 L20.9 18.95 Q24.75 18.7 29.15 19.8 31.3 20.35 32.75 20.95 L33.45 20.85 35.1 19.7 Q37.2 18.5 39.35 18.2 41.5 17.9 43.9 18.75 45.05 19.15 45.8 19.65 L46.5 19.6 47.0 19.2 Q47.55 18.8 48.25 18.45 50.55 17.4 52.85 17.7 53.75 17.85 54.6 18.45 L56.5 20.25 57.9 22.45 58.1 22.55 59.0 22.75 59.95 22.75 60.25 22.7 63.0 19.95 63.5 21.95 68.5 21.95 69.1 21.45 Q69.8 20.95 70.25 20.95 L71.7 21.4 72.5 21.8 72.65 21.7 73.05 21.45 Q73.75 21.0 74.35 21.0 L75.6 21.4 76.2 21.75 76.7 21.35 77.75 20.9 79.1 21.2 79.75 21.6 80.35 21.15 Q81.05 20.7 81.55 20.7 L82.75 20.95 83.3 21.3 83.95 20.85 Q84.7 20.4 85.3 20.3 L86.6 20.55 87.2 20.9 87.9 20.35 Q88.65 19.8 89.25 19.7 89.85 19.65 90.5 20.1 L91.05 20.55 92.6 20.3 96.5 19.7 Q102.75 18.6 106.9 17.4 111.1 16.15 115.9 13.85 119.55 12.05 122.75 10.1 124.9 8.8 130.75 4.25 L136.15 0.0 129.15 1.95 M50.85 10.55 L50.85 9.5 55.05 9.5 55.0 10.0 55.15 10.5 50.85 10.55" fill="none" stroke="#000000" stroke-linecap="round" stroke-linejoin="round" stroke-width="0.5"/>
  </g>
</svg>
