<?xml version="1.0" encoding="UTF-8" standalone="no"?>
<svg xmlns:xlink="http://www.w3.org/1999/xlink" height="32.7px" width="126.5px" xmlns="http://www.w3.org/2000/svg">
  <g transform="matrix(1.0, 0.0, 0.0, 1.0, 0.75, 0.75)">
    <path d="M125.0 6.45 L125.0 11.2 124.85 11.45 101.95 11.4 101.9 10.5 102.35 10.45 102.4 10.1 95.05 10.0 95.05 9.8 92.0 9.85 91.4 10.05 86.1 10.0 87.15 10.2 87.15 11.1 86.9 11.4 85.75 11.35 85.75 11.75 84.9 11.75 84.9 10.25 85.1 10.25 85.1 10.05 81.85 9.95 81.75 10.25 81.65 11.0 81.55 11.15 81.3 11.25 81.05 11.1 80.85 11.0 80.9 10.3 80.8 10.0 80.15 10.0 80.1 11.1 79.9 11.3 79.7 11.45 79.35 11.45 79.05 12.1 60.6 12.25 60.25 12.05 59.8 11.95 58.85 12.3 58.75 11.05 57.85 11.1 57.9 11.9 57.85 12.0 57.7 12.25 57.4 12.35 57.25 12.4 57.1 12.35 Q56.9 12.35 56.8 12.55 L56.6 12.85 56.5 13.05 56.5 17.3 56.8 17.4 56.85 17.75 56.2 18.0 56.2 19.55 Q56.3 21.35 56.65 22.9 L57.75 26.8 58.4 28.85 58.6 29.1 51.05 31.2 50.85 31.2 50.85 31.0 50.05 28.35 48.9 23.9 48.5 20.9 48.4 19.6 47.85 19.7 47.15 19.6 42.45 19.6 40.9 19.75 40.65 19.75 40.1 19.9 39.8 20.2 38.7 22.3 39.25 22.95 39.1 23.05 38.4 23.35 38.05 23.65 37.95 23.8 35.8 28.0 35.75 28.4 36.0 28.8 36.2 28.95 36.0 29.4 28.95 27.75 35.3 16.75 35.45 16.3 35.55 15.4 35.2 14.5 34.65 13.9 34.05 13.6 32.45 13.55 32.45 13.75 32.0 13.8 31.95 11.05 30.7 11.0 30.65 10.55 25.6 10.55 24.4 11.45 19.65 11.55 19.65 12.0 15.5 12.05 15.55 14.65 12.65 14.65 12.65 15.7 11.25 15.7 11.25 14.7 6.55 17.65 6.55 15.25 0.6 17.95 0.55 18.95 0.5 19.1 0.25 19.3 0.05 19.1 0.0 18.95 0.1 5.65 5.4 5.65 5.6 5.85 5.75 6.55 19.4 6.7 19.55 6.8 19.65 7.05 30.7 7.1 30.65 6.65 31.95 6.65 31.95 6.3 32.4 6.25 32.45 6.6 33.75 6.55 33.75 5.95 35.05 5.95 35.15 6.05 38.5 0.7 38.65 0.5 39.05 0.2 39.55 0.0 39.85 0.0 56.5 1.8 57.0 1.9 Q57.6 2.1 57.85 2.4 L58.35 3.25 58.55 3.7 58.45 6.95 58.8 6.9 58.85 5.45 59.9 5.65 59.9 5.3 60.25 5.25 60.25 5.15 60.35 5.0 60.6 4.9 79.1 5.2 79.3 5.6 79.3 6.1 79.8 6.15 79.9 6.2 80.05 6.4 80.15 7.6 80.8 7.6 80.85 5.65 83.9 1.35 84.2 1.1 Q84.5 0.85 84.8 0.9 85.55 1.0 85.9 1.45 L86.05 1.8 86.0 1.95 86.05 7.6 91.35 7.6 92.05 7.85 95.05 7.8 95.05 7.6 102.4 7.6 102.4 6.25 124.8 6.25 125.0 6.45 M81.75 6.15 L85.15 6.15 85.4 5.85 85.4 4.65 84.95 4.65 84.7 4.4 84.5 3.75 84.45 3.25 83.3 3.15 81.5 5.95 81.75 6.15 M85.15 7.1 L81.8 7.1 81.8 7.6 85.0 7.6 85.15 7.1 M56.75 2.7 L56.6 2.6 42.6 2.6 42.25 2.6 Q41.9 2.7 41.7 2.85 L41.25 3.3 41.05 3.55 40.25 5.5 40.55 5.8 56.5 5.7 56.7 5.65 57.1 5.45 Q57.7 5.05 57.7 4.15 57.7 3.4 57.15 2.95 L56.75 2.7 M46.5 15.65 L47.35 16.45 Q47.7 17.3 47.45 18.0 L47.05 18.6 47.05 19.2 42.55 19.2 41.95 18.75 Q41.35 18.2 41.3 17.55 41.2 16.4 42.1 15.8 L42.95 15.5 42.75 15.95 Q42.5 16.55 42.55 17.0 42.6 17.7 43.25 18.3 L43.9 18.8 44.1 18.65 43.65 18.25 Q43.25 17.7 43.3 17.15 43.35 16.6 43.75 15.95 L44.2 15.5 46.1 15.5 46.5 15.65 M4.9 6.05 L5.1 6.1 5.25 6.3 5.3 6.65 0.55 6.65 0.55 6.1 4.9 6.05 M0.9 11.95 L4.6 11.95 4.8 12.0 4.95 12.25 4.8 12.5 4.65 12.65 0.9 12.65 0.75 12.55 0.55 12.3 0.7 12.0 0.9 11.95" fill="none" stroke="#000000" stroke-linecap="round" stroke-linejoin="round" stroke-width="0.5"/>
    <path d="M125.0 11.2 L124.85 11.45 101.95 11.4 101.9 10.5 102.35 10.45 102.4 10.1 95.05 10.0 95.05 9.8 92.0 9.85 91.4 10.05 86.1 10.0 87.15 10.2 87.15 11.1 86.9 11.4 85.75 11.35 85.75 11.75 84.9 11.75 84.9 10.25 85.1 10.25 85.1 10.05 81.85 9.95 81.75 10.25 81.65 11.0 81.55 11.15 81.3 11.25 81.05 11.1 80.85 11.0 80.9 10.3 80.8 10.0 80.15 10.0 80.1 11.1 79.9 11.3 79.7 11.45 79.35 11.45 79.05 12.1 60.6 12.25 60.25 12.05 59.8 11.95 58.85 12.3 58.75 11.05 57.85 11.1 57.9 11.9 57.85 12.0 57.7 12.25 57.4 12.35 57.25 12.4 57.1 12.35 Q56.9 12.35 56.8 12.55 L56.6 12.85 56.5 13.05 56.5 17.3 56.8 17.4 56.85 17.75 56.2 18.0 56.2 19.55 Q56.3 21.35 56.65 22.9 L57.75 26.8 58.4 28.85 58.6 29.1 51.05 31.2 50.85 31.2 50.85 31.0 50.05 28.35 48.9 23.9 48.5 20.9 48.4 19.6 47.85 19.7 47.15 19.6 42.45 19.6 40.9 19.75 40.65 19.75 40.1 19.9 39.8 20.2 38.7 22.3 39.25 22.95 39.1 23.05 38.4 23.35 38.05 23.65 37.95 23.8 35.8 28.0 35.75 28.4 36.0 28.8 36.2 28.95 36.0 29.4 28.95 27.75 35.3 16.75 35.45 16.3 35.55 15.4 35.2 14.5 34.65 13.9 34.05 13.6 32.45 13.55 32.45 13.75 32.0 13.8 31.95 11.05 30.7 11.0 30.65 10.55 25.6 10.55 24.4 11.45 19.65 11.55 19.65 12.0 15.5 12.05 15.55 14.65 12.65 14.65 12.65 15.7 11.25 15.7 11.25 14.7 6.55 17.65 6.55 15.25 0.6 17.95 0.55 18.95 0.5 19.1 0.25 19.3 0.05 19.1 0.0 18.95 0.1 5.65 5.4 5.65 5.6 5.85 5.75 6.55 19.4 6.7 19.55 6.8 19.65 7.05 30.7 7.1 30.65 6.65 31.95 6.65 31.95 6.3 32.4 6.25 32.45 6.6 33.75 6.55 33.75 5.95 35.05 5.95 35.15 6.05 38.5 0.7 38.65 0.5 39.05 0.2 39.55 0.0 39.85 0.0 56.5 1.8 57.0 1.9 Q57.6 2.1 57.85 2.4 L58.35 3.25 58.55 3.7 58.45 6.95 58.8 6.9 58.85 5.45 59.9 5.65 59.9 5.3 60.25 5.25 60.25 5.15 60.35 5.0 60.6 4.9 79.1 5.2 79.3 5.6 79.3 6.1 79.8 6.15 79.9 6.2 80.05 6.4 80.15 7.6 80.8 7.6 80.85 5.65 83.9 1.35 84.2 1.1 Q84.5 0.85 84.8 0.9 85.55 1.0 85.9 1.45 L86.05 1.8 86.0 1.95 86.05 7.6 91.35 7.6 92.05 7.85 95.05 7.8 95.05 7.6 102.4 7.6 102.4 6.25 124.8 6.25 125.0 6.45 125.0 11.2 M81.5 5.95 L81.75 6.15 85.15 6.15 85.4 5.85 85.4 4.65 84.95 4.65 84.7 4.4 84.5 3.75 84.45 3.25 83.3 3.15 81.5 5.95 M85.15 7.1 L81.8 7.1 81.8 7.6 85.0 7.6 85.15 7.1 M56.6 2.6 L42.6 2.6 42.25 2.6 Q41.9 2.7 41.7 2.85 L41.25 3.3 41.05 3.55 40.25 5.5 40.55 5.8 56.5 5.7 56.7 5.65 57.1 5.45 Q57.7 5.05 57.7 4.15 57.7 3.4 57.15 2.95 L56.75 2.7 56.6 2.6 M47.45 18.0 L47.05 18.6 47.05 19.2 42.55 19.2 41.95 18.75 Q41.35 18.2 41.3 17.55 41.2 16.4 42.1 15.8 L42.95 15.5 42.75 15.95 Q42.5 16.55 42.55 17.0 42.6 17.7 43.25 18.3 L43.9 18.8 44.1 18.65 43.65 18.25 Q43.25 17.7 43.3 17.15 43.35 16.6 43.75 15.95 L44.2 15.5 46.1 15.5 46.5 15.65 47.35 16.45 Q47.7 17.3 47.45 18.0 M4.9 6.05 L5.1 6.1 5.25 6.3 5.3 6.65 0.55 6.65 0.55 6.1 4.9 6.05 M0.7 12.0 L0.9 11.95 4.6 11.95 4.8 12.0 4.95 12.25 4.8 12.5 4.65 12.65 0.9 12.65 0.75 12.55 0.55 12.3 0.7 12.0" fill="none" stroke="#000000" stroke-linecap="round" stroke-linejoin="round" stroke-opacity="0.4" stroke-width="1.5"/>
  </g>
</svg>
