<?xml version="1.0" encoding="UTF-8" standalone="no"?>
<svg xmlns:xlink="http://www.w3.org/1999/xlink" height="32.6px" width="58.75px" xmlns="http://www.w3.org/2000/svg">
  <g transform="matrix(1.0, 0.0, 0.0, 1.0, 0.65, 0.7)">
    <path d="M57.35 2.75 L57.35 5.45 56.75 6.9 56.75 9.6 53.95 9.6 53.95 9.25 53.3 9.25 53.3 9.65 49.05 9.65 49.05 9.2 47.8 9.2 44.65 8.8 44.0 9.45 37.55 9.45 36.85 9.55 Q36.1 9.7 35.7 10.0 L35.65 10.05 34.95 10.65 Q34.6 11.1 34.55 11.65 L34.5 13.35 34.5 14.4 33.05 14.35 33.0 14.35 31.75 14.35 30.9 14.45 Q30.25 14.6 29.95 14.85 L29.55 15.4 29.4 15.6 29.1 16.7 28.85 17.7 28.15 18.8 Q27.35 19.6 26.15 20.05 L25.95 20.15 23.55 20.7 21.55 20.75 21.1 20.65 20.15 20.1 19.75 19.7 19.55 19.5 19.25 19.8 18.75 19.7 18.1 19.6 17.55 19.55 16.5 19.4 15.15 19.45 Q14.5 19.75 14.1 20.15 13.65 20.6 13.6 21.15 13.55 21.9 14.0 22.5 L14.3 22.95 14.35 23.3 14.15 23.6 13.75 23.9 Q13.2 24.4 13.15 25.0 13.0 25.8 13.45 26.45 L13.7 26.9 13.75 27.3 13.55 27.6 13.05 27.85 12.1 28.55 11.7 29.45 11.3 30.2 Q10.85 30.55 8.95 30.9 L5.6 31.15 2.3 30.75 Q0.35 30.25 0.15 29.35 0.05 29.0 0.35 28.4 L0.5 28.15 0.9 27.35 1.35 26.4 1.85 25.0 2.55 23.1 Q3.45 20.6 4.1 19.35 L6.4 15.65 8.55 12.35 9.05 11.25 9.05 10.25 9.05 9.4 9.25 8.55 Q9.55 8.05 10.85 7.8 L11.8 7.65 12.15 7.65 12.6 7.25 Q13.15 6.85 13.6 6.7 L14.55 6.35 15.05 6.25 14.75 5.5 13.9 4.5 12.65 4.15 12.4 4.1 11.5 4.05 11.45 3.8 12.4 3.75 13.95 3.75 Q14.35 3.85 14.95 4.3 L15.05 4.35 15.7 4.7 16.5 3.95 17.0 3.3 18.15 3.35 18.6 2.3 18.5 2.25 18.35 2.1 Q18.1 1.8 18.25 1.4 18.35 1.15 18.55 1.05 L18.65 1.0 18.85 1.0 18.95 0.5 19.55 0.6 19.5 1.05 21.25 1.05 21.8 1.4 24.5 1.4 24.5 0.7 25.2 0.05 26.2 0.1 26.2 0.6 27.1 0.6 27.1 0.1 28.15 0.1 28.15 0.6 29.05 0.6 29.05 0.05 30.1 0.05 30.1 0.6 31.05 0.6 31.05 0.05 31.95 0.05 31.95 0.6 33.0 0.6 33.0 0.1 33.9 0.1 33.9 0.6 34.9 0.6 34.9 0.05 35.85 0.05 35.85 0.6 36.85 0.6 36.85 0.05 37.85 0.05 37.85 0.6 38.8 0.6 38.8 0.05 39.7 0.05 39.7 0.6 40.7 0.6 40.7 0.1 41.6 0.1 41.6 0.55 42.6 0.55 42.6 0.1 43.3 0.1 43.8 0.25 44.75 0.6 46.55 1.5 52.4 1.5 52.4 0.6 55.25 0.6 55.45 0.65 Q55.7 0.7 55.85 0.9 L56.0 1.35 55.95 1.6 57.35 2.75 M28.25 17.9 L27.25 18.9 26.55 19.35 26.05 19.6 25.65 19.75 24.55 20.0 22.5 20.15 20.95 19.85 20.1 19.25 19.6 18.15 19.35 16.85 19.35 16.65 Q19.35 15.95 19.9 15.2 L20.25 14.7 20.45 14.55 20.65 14.8 21.2 15.2 22.1 15.35 22.55 15.4 22.5 16.0 22.25 16.2 22.45 17.0 Q22.7 17.8 23.1 18.25 L24.65 19.25 25.5 19.55 25.65 19.25 25.1 18.95 24.05 18.15 23.45 17.25 23.45 16.25 23.95 15.55 24.05 15.5 24.4 14.95 24.8 14.15 24.5 13.9 24.45 13.6 25.3 13.6 26.8 13.85 Q27.5 14.25 27.9 14.6 28.5 15.05 28.55 15.65 L28.55 15.7 28.55 16.95 28.25 17.9" fill="none" stroke="#000000" stroke-linecap="round" stroke-linejoin="round" stroke-opacity="0.49803922" stroke-width="1.5"/>
    <path d="M57.35 2.75 L57.35 5.45 56.75 6.9 56.75 9.6 53.95 9.6 53.95 9.25 53.3 9.25 53.3 9.65 49.05 9.65 49.05 9.2 47.8 9.2 44.65 8.8 44.0 9.45 37.55 9.45 36.85 9.55 Q36.1 9.7 35.7 10.0 L35.65 10.05 34.95 10.65 Q34.6 11.1 34.55 11.65 L34.5 13.35 34.5 14.4 33.05 14.35 33.0 14.35 31.75 14.35 30.9 14.45 Q30.25 14.6 29.95 14.85 L29.55 15.4 29.4 15.6 29.1 16.7 28.85 17.7 28.15 18.8 Q27.35 19.6 26.15 20.05 L25.95 20.15 23.55 20.7 21.55 20.75 21.1 20.65 20.15 20.1 19.75 19.7 19.55 19.5 19.25 19.8 18.75 19.7 18.1 19.6 17.55 19.55 16.5 19.4 15.15 19.45 Q14.5 19.75 14.1 20.15 13.65 20.6 13.6 21.15 13.55 21.9 14.0 22.5 L14.3 22.95 14.35 23.3 14.15 23.6 13.75 23.9 Q13.2 24.4 13.15 25.0 13.0 25.8 13.45 26.45 L13.7 26.9 13.75 27.3 13.55 27.6 13.05 27.85 12.1 28.55 11.7 29.45 11.3 30.2 Q10.85 30.55 8.95 30.9 L5.6 31.15 2.3 30.75 Q0.35 30.25 0.15 29.35 0.05 29.0 0.35 28.4 L0.5 28.15 0.9 27.35 1.35 26.4 1.85 25.0 2.55 23.1 Q3.45 20.6 4.1 19.35 L6.4 15.65 8.55 12.35 9.05 11.25 9.05 10.25 9.05 9.4 9.25 8.55 Q9.55 8.05 10.85 7.8 L11.8 7.65 12.15 7.65 12.6 7.25 Q13.15 6.85 13.6 6.7 L14.55 6.35 15.05 6.25 14.75 5.5 13.9 4.5 12.65 4.15 12.4 4.1 11.5 4.05 11.45 3.8 12.4 3.75 13.95 3.75 Q14.35 3.85 14.95 4.3 L15.05 4.35 15.7 4.7 16.5 3.95 17.0 3.3 18.15 3.35 18.6 2.3 18.5 2.25 18.35 2.1 Q18.1 1.8 18.25 1.4 18.35 1.15 18.55 1.05 L18.65 1.0 18.85 1.0 18.95 0.5 19.55 0.6 19.5 1.05 21.25 1.05 21.8 1.4 24.5 1.4 24.5 0.7 25.2 0.05 26.2 0.1 26.2 0.6 27.1 0.6 27.1 0.1 28.15 0.1 28.15 0.6 29.05 0.6 29.05 0.05 30.1 0.05 30.1 0.6 31.05 0.6 31.05 0.05 31.95 0.05 31.95 0.6 33.0 0.6 33.0 0.1 33.9 0.1 33.9 0.6 34.9 0.6 34.9 0.05 35.85 0.05 35.85 0.6 36.85 0.6 36.85 0.05 37.85 0.05 37.85 0.6 38.8 0.6 38.8 0.05 39.7 0.05 39.7 0.6 40.7 0.6 40.7 0.1 41.6 0.1 41.6 0.55 42.6 0.55 42.6 0.1 43.3 0.1 43.8 0.25 44.75 0.6 46.55 1.5 52.4 1.5 52.4 0.6 55.25 0.6 55.45 0.65 Q55.7 0.7 55.85 0.9 L56.0 1.35 55.95 1.6 57.35 2.75 M28.55 15.7 L28.55 16.95 28.25 17.9 27.25 18.9 26.55 19.35 26.05 19.6 25.65 19.75 24.55 20.0 22.5 20.15 20.95 19.85 20.1 19.25 19.6 18.15 19.35 16.85 19.35 16.65 Q19.35 15.95 19.9 15.2 L20.25 14.7 20.45 14.55 20.65 14.8 21.2 15.2 22.1 15.35 22.55 15.4 22.5 16.0 22.25 16.2 22.45 17.0 Q22.7 17.8 23.1 18.25 L24.65 19.25 25.5 19.55 25.65 19.25 25.1 18.95 24.05 18.15 23.45 17.25 23.45 16.25 23.95 15.55 24.05 15.5 24.4 14.95 24.8 14.15 24.5 13.9 24.45 13.6 25.3 13.6 26.8 13.85 Q27.5 14.25 27.9 14.6 28.5 15.05 28.55 15.65 L28.55 15.7" fill="none" stroke="#000000" stroke-linecap="round" stroke-linejoin="round" stroke-width="0.5"/>
  </g>
</svg>
