<?xml version="1.0" encoding="UTF-8" standalone="no"?>
<svg xmlns:xlink="http://www.w3.org/1999/xlink" height="24.75px" width="137.95px" xmlns="http://www.w3.org/2000/svg">
  <g transform="matrix(1.0, 0.0, 0.0, 1.0, 0.75, 0.75)">
    <path d="M136.45 10.85 Q134.7 12.7 130.9 14.7 123.3 18.75 113.05 19.4 105.65 19.9 95.15 19.3 L86.95 18.95 78.6 18.9 Q73.5 19.05 67.05 21.0 L63.15 22.35 61.65 23.0 Q61.65 21.7 61.1 20.25 60.0 17.4 57.0 16.85 54.25 16.3 52.15 17.3 51.55 17.65 51.0 18.1 L50.65 18.45 49.8 20.85 48.6 23.25 46.95 22.25 47.5 20.4 Q47.9 18.35 47.1 17.15 46.15 15.8 45.0 15.25 L44.3 15.05 44.05 15.05 44.0 14.75 43.6 14.45 43.2 14.75 42.85 15.15 41.3 15.25 39.5 15.35 10.2 19.1 2.75 20.35 1.75 20.25 0.05 16.2 0.05 15.6 0.25 15.1 0.5 14.95 0.8 15.0 1.3 14.95 1.35 14.4 1.3 14.0 1.8 13.5 2.1 13.6 2.6 13.5 2.7 12.95 2.6 12.6 3.25 12.0 3.55 12.1 4.0 12.0 4.1 11.5 4.0 11.15 4.6 10.5 4.95 10.6 5.4 10.5 5.5 9.95 5.4 9.6 5.85 9.05 6.8 9.0 Q7.05 8.8 6.95 8.3 L6.8 7.85 6.95 7.65 7.3 7.35 8.2 7.15 44.1 5.75 44.75 5.95 44.85 6.3 45.05 6.5 45.65 6.05 46.0 5.5 48.85 5.4 49.6 5.15 51.15 4.15 Q51.9 3.5 52.5 1.7 L52.95 0.0 53.35 0.05 54.05 0.15 54.9 0.7 53.75 5.4 61.8 5.1 61.95 5.45 Q62.2 5.75 62.5 5.7 L63.0 5.35 63.1 5.05 63.95 5.0 64.1 5.35 64.55 5.65 64.95 5.3 65.05 5.0 65.95 4.95 66.0 5.25 66.5 5.55 66.95 5.2 67.05 4.9 68.0 4.85 68.1 5.15 68.5 5.5 69.0 5.15 69.1 4.85 70.05 4.85 70.15 5.1 70.5 5.4 70.95 5.05 71.1 4.75 71.95 4.7 72.05 5.0 72.45 5.35 72.9 5.0 73.1 4.65 85.25 4.4 87.65 4.4 Q96.75 4.3 101.4 4.5 L103.3 4.6 Q119.3 5.8 129.5 8.45 134.55 9.75 136.45 10.85 Z" fill="none" stroke="#000000" stroke-linecap="round" stroke-linejoin="round" stroke-opacity="0.4" stroke-width="1.5"/>
    <path d="M85.25 4.4 L87.65 4.4 Q96.75 4.3 101.4 4.5 L103.3 4.6 Q119.3 5.8 129.5 8.45 134.55 9.75 136.45 10.85 134.7 12.7 130.9 14.7 123.3 18.75 113.05 19.4 105.65 19.9 95.15 19.3 L86.95 18.95 78.6 18.9 Q73.5 19.05 67.05 21.0 L63.15 22.35 61.65 23.0 Q61.65 21.7 61.1 20.25 60.0 17.4 57.0 16.85 54.25 16.3 52.15 17.3 51.55 17.65 51.0 18.1 L50.65 18.45 49.8 20.85 48.6 23.25 46.95 22.25 47.5 20.4 Q47.9 18.35 47.1 17.15 46.15 15.8 45.0 15.25 L44.3 15.05 44.05 15.05 44.0 14.75 43.6 14.45 43.2 14.75 42.85 15.15 41.3 15.25 39.5 15.35 10.2 19.1 2.75 20.35 1.75 20.25 0.05 16.2 0.05 15.6 0.25 15.1 0.5 14.95 0.8 15.0 1.3 14.95 1.35 14.4 1.3 14.0 1.8 13.5 2.1 13.6 2.6 13.5 2.7 12.95 2.6 12.6 3.25 12.0 3.55 12.1 4.0 12.0 4.1 11.5 4.0 11.15 4.6 10.5 4.95 10.6 5.4 10.5 5.5 9.95 5.4 9.6 5.85 9.05 6.8 9.0 Q7.05 8.8 6.95 8.3 L6.8 7.85 6.95 7.65 7.3 7.35 8.2 7.15 44.1 5.75 44.75 5.95 44.85 6.3 45.05 6.5 45.65 6.05 46.0 5.5 48.85 5.4 49.6 5.15 51.15 4.15 Q51.9 3.5 52.5 1.7 L52.95 0.0 53.35 0.05 54.05 0.15 54.9 0.7 53.75 5.4 61.8 5.1 61.95 5.45 Q62.2 5.75 62.5 5.7 L63.0 5.35 63.1 5.05 63.95 5.0 64.1 5.35 64.55 5.65 64.95 5.3 65.05 5.0 65.95 4.95 66.0 5.25 66.5 5.55 66.95 5.2 67.05 4.9 68.0 4.85 68.1 5.15 68.5 5.5 69.0 5.15 69.1 4.85 70.05 4.85 70.15 5.1 70.5 5.4 70.95 5.05 71.1 4.75 71.95 4.7 72.05 5.0 72.45 5.35 72.9 5.0 73.1 4.65 85.25 4.4 Z" fill="none" stroke="#000000" stroke-linecap="round" stroke-linejoin="round" stroke-width="0.5"/>
  </g>
</svg>
