<?xml version="1.0" encoding="UTF-8" standalone="no"?>
<svg xmlns:xlink="http://www.w3.org/1999/xlink" height="29.9px" width="125.15px" xmlns="http://www.w3.org/2000/svg">
  <g transform="matrix(1.0, 0.0, 0.0, 1.0, 0.05, 0.25)">
    <path d="M82.4 9.0 L100.15 9.0 110.1 9.95 Q120.75 11.55 124.35 14.65 120.3 18.2 110.8 19.55 L100.55 20.25 82.4 20.25 Q82.25 19.2 81.85 19.2 81.45 19.2 81.3 20.25 L81.2 20.25 Q81.05 19.2 80.65 19.2 80.25 19.2 80.1 20.25 L79.6 20.25 Q79.2 19.2 78.45 19.2 77.7 19.2 77.3 20.25 L76.8 20.25 Q76.65 19.2 76.25 19.2 75.85 19.2 75.7 20.25 L75.6 20.25 Q75.45 19.2 75.05 19.2 74.65 19.2 74.5 20.25 L74.0 20.25 Q73.7 19.2 72.85 19.2 72.1 19.2 71.7 20.25 L71.25 20.25 Q71.0 19.2 70.65 19.2 70.25 19.2 70.1 20.25 L70.05 20.25 Q69.9 19.2 69.5 19.2 69.15 19.2 68.9 20.25 L68.4 20.25 Q68.1 19.2 67.3 19.2 66.45 19.2 66.15 20.25 L65.65 20.25 Q65.5 19.2 65.1 19.2 64.7 19.2 64.55 20.25 L64.45 20.25 Q64.3 19.2 63.9 19.2 63.5 19.2 63.35 20.25 L59.1 20.25 Q58.35 19.8 57.9 19.9 56.95 20.3 56.55 20.45 L55.65 20.55 55.65 21.25 53.0 28.9 50.0 28.05 Q50.75 27.0 50.9 25.55 51.2 22.75 48.25 21.1 42.7 20.4 39.65 21.25 38.4 21.65 26.1 21.5 13.25 21.35 12.15 20.45 L10.85 20.5 10.45 20.8 Q7.3 23.6 6.6 23.6 3.4 23.6 2.35 20.8 1.6 18.9 1.45 16.1 L1.35 16.1 Q0.7 16.1 0.7 14.95 0.7 13.8 1.35 13.8 L1.45 13.8 Q1.6 10.7 2.65 9.6 3.9 8.25 4.7 7.9 L6.7 7.65 Q7.75 7.7 8.65 8.1 L10.3 9.1 17.7 8.4 29.4 7.9 46.8 8.5 Q50.45 7.75 51.95 6.1 53.4 4.5 54.2 0.5 L56.95 1.1 57.1 2.75 55.85 6.4 55.7 8.9 56.6 9.3 57.85 9.65 59.35 9.0 63.35 9.0 Q63.55 10.05 63.9 10.05 64.3 10.05 64.45 9.0 L64.55 9.0 Q64.75 10.05 65.1 10.05 L65.65 9.0 66.15 9.0 Q66.6 10.05 67.3 10.05 67.95 10.05 68.4 9.0 L68.95 9.0 Q69.15 10.05 69.5 10.05 L70.05 9.0 70.1 9.0 Q70.35 10.05 70.65 10.05 71.05 10.05 71.2 9.0 L71.75 9.0 Q72.2 10.05 72.85 10.05 73.55 10.05 74.0 9.0 L74.5 9.0 Q74.75 10.05 75.05 10.05 75.45 10.05 75.6 9.0 L75.7 9.0 Q75.9 10.05 76.25 10.05 76.65 10.05 76.8 9.0 L77.35 9.0 Q77.7 10.05 78.45 10.05 79.2 10.05 79.55 9.0 L80.1 9.0 Q80.3 10.05 80.65 10.05 81.05 10.05 81.2 9.0 L81.3 9.0 Q81.5 10.05 81.85 10.05 82.15 10.05 82.4 9.0 Z" fill="none" stroke="#000000" stroke-linecap="round" stroke-linejoin="round" stroke-opacity="0.4" stroke-width="1.5"/>
    <path d="M82.4 9.0 L100.15 9.0 110.1 9.95 Q120.75 11.55 124.35 14.65 120.3 18.2 110.8 19.55 L100.55 20.25 82.4 20.25 Q82.25 19.2 81.85 19.2 81.45 19.2 81.3 20.25 L81.2 20.25 Q81.05 19.2 80.65 19.2 80.25 19.2 80.1 20.25 L79.6 20.25 Q79.2 19.2 78.45 19.2 77.7 19.2 77.3 20.25 L76.8 20.25 Q76.65 19.2 76.25 19.2 75.85 19.2 75.7 20.25 L75.6 20.25 Q75.45 19.2 75.05 19.2 74.65 19.2 74.5 20.25 L74.0 20.25 Q73.7 19.2 72.85 19.2 72.1 19.2 71.7 20.25 L71.25 20.25 Q71.0 19.2 70.65 19.2 70.25 19.2 70.1 20.25 L70.05 20.25 Q69.9 19.2 69.5 19.2 69.15 19.2 68.9 20.25 L68.4 20.25 Q68.1 19.2 67.3 19.2 66.45 19.2 66.15 20.25 L65.65 20.25 Q65.5 19.2 65.1 19.2 64.7 19.2 64.55 20.25 L64.45 20.25 Q64.3 19.2 63.9 19.2 63.5 19.2 63.35 20.25 L59.1 20.25 Q58.35 19.8 57.9 19.9 56.95 20.3 56.55 20.45 L55.65 20.55 55.65 21.25 53.0 28.9 50.0 28.05 Q50.75 27.0 50.9 25.55 51.2 22.75 48.25 21.1 42.7 20.4 39.65 21.25 38.4 21.65 26.1 21.5 13.25 21.35 12.15 20.45 L10.85 20.5 10.45 20.8 Q7.3 23.6 6.6 23.6 3.4 23.6 2.35 20.8 1.6 18.9 1.45 16.1 L1.35 16.1 Q0.7 16.1 0.7 14.95 0.7 13.8 1.35 13.8 L1.45 13.8 Q1.6 10.7 2.65 9.6 3.9 8.25 4.7 7.9 L6.7 7.65 Q7.75 7.7 8.65 8.1 L10.3 9.1 17.7 8.4 29.4 7.9 46.8 8.5 Q50.45 7.75 51.95 6.1 53.4 4.5 54.2 0.5 L56.95 1.1 57.1 2.75 55.85 6.4 55.7 8.9 56.6 9.3 57.85 9.65 59.35 9.0 63.35 9.0 Q63.55 10.05 63.9 10.05 64.3 10.05 64.45 9.0 L64.55 9.0 Q64.75 10.05 65.1 10.05 L65.65 9.0 66.15 9.0 Q66.6 10.05 67.3 10.05 67.95 10.05 68.4 9.0 L68.95 9.0 Q69.15 10.05 69.5 10.05 L70.05 9.0 70.1 9.0 Q70.35 10.05 70.65 10.05 71.05 10.05 71.2 9.0 L71.75 9.0 Q72.2 10.05 72.85 10.05 73.55 10.05 74.0 9.0 L74.5 9.0 Q74.75 10.05 75.05 10.05 75.45 10.05 75.6 9.0 L75.7 9.0 Q75.9 10.05 76.25 10.05 76.65 10.05 76.8 9.0 L77.35 9.0 Q77.7 10.05 78.45 10.05 79.2 10.05 79.55 9.0 L80.1 9.0 Q80.3 10.05 80.65 10.05 81.05 10.05 81.2 9.0 L81.3 9.0 Q81.5 10.05 81.85 10.05 82.15 10.05 82.4 9.0 Z" fill="none" stroke="#000000" stroke-linecap="round" stroke-linejoin="round" stroke-width="0.5"/>
  </g>
</svg>
