<?xml version="1.0" encoding="UTF-8" standalone="no"?>
<svg xmlns:xlink="http://www.w3.org/1999/xlink" height="37.55px" width="37.5px" xmlns="http://www.w3.org/2000/svg">
  <g transform="matrix(1.0, 0.0, 0.0, 1.0, 1.5, 7.4)">
    <path d="M28.65 14.2 L28.65 14.25 Q28.65 20.2 24.45 24.45 20.3 28.65 14.4 28.65 8.45 28.65 4.2 24.45 0.0 20.2 0.0 14.25 L0.0 14.2 Q0.0 8.35 4.2 4.2 8.45 0.0 14.4 0.0 20.3 0.0 24.45 4.2 28.65 8.35 28.65 14.2" fill="none" stroke="#000000" stroke-linecap="round" stroke-linejoin="miter" stroke-miterlimit="10.0" stroke-opacity="0.4" stroke-width="3.0"/>
    <path d="M28.4 14.2 L24.05 14.2 M14.4 0.0 L14.4 4.3 M4.4 14.2 L0.0 14.2 M14.4 24.25 L14.4 28.65" fill="none" stroke="#000000" stroke-linecap="round" stroke-linejoin="miter" stroke-miterlimit="10.0" stroke-opacity="0.4" stroke-width="2.0"/>
    <path d="M28.4 14.2 L24.05 14.2 M4.4 14.2 L0.0 14.2 M14.4 0.0 L14.4 4.3 M14.4 24.25 L14.4 28.65" fill="none" stroke="#cc0000" stroke-linecap="round" stroke-linejoin="miter" stroke-miterlimit="10.0" stroke-width="0.5"/>
    <path d="M28.65 14.25 Q28.65 20.2 24.45 24.45 20.3 28.65 14.4 28.65 8.45 28.65 4.2 24.45 0.0 20.2 0.0 14.25 L0.0 14.2 Q0.0 8.35 4.2 4.2 8.45 0.0 14.4 0.0 20.3 0.0 24.45 4.2 28.65 8.35 28.65 14.2 L28.65 14.25" fill="none" stroke="#cc0000" stroke-linecap="round" stroke-linejoin="miter" stroke-miterlimit="10.0" stroke-width="1.0"/>
  </g>
</svg>
