<?xml version="1.0" encoding="UTF-8" standalone="no"?>
<svg xmlns:xlink="http://www.w3.org/1999/xlink" height="97.4px" width="96.1px" xmlns="http://www.w3.org/2000/svg">
  <g transform="matrix(1.0, 0.0, 0.0, 1.0, -16.0, -16.05)">
    <path d="M16.0 112.1 L16.0 16.05 112.1 16.05 112.1 112.1 16.0 112.1" fill="#cc0000" fill-rule="evenodd" stroke="none"/>
    <path d="M55.7 111.95 Q55.85 106.0 56.2 104.15 L56.55 102.8 55.7 98.6 54.35 94.9 49.1 89.5 43.35 83.9 35.75 76.8 Q35.4 76.3 36.1 73.1 L36.75 69.4 36.75 57.75 Q36.6 57.55 36.95 57.25 37.3 53.15 38.3 52.15 38.65 51.65 41.5 50.45 L39.8 43.55 Q39.65 42.55 41.0 40.0 42.5 37.8 43.2 37.45 48.4 36.1 48.95 36.45 51.45 38.5 51.8 40.0 L52.65 44.9 53.8 45.05 53.0 39.5 55.35 36.3 57.9 35.8 60.9 35.6 Q61.6 35.8 63.1 37.8 64.65 39.85 64.65 40.35 L64.45 46.25 66.15 46.4 66.3 41.85 71.55 40.85 Q72.25 41.2 74.1 42.85 76.1 44.75 76.1 45.4 L75.95 47.45 77.95 47.75 78.3 46.25 Q78.5 45.9 80.65 45.55 L83.2 45.4 Q85.75 47.1 86.9 48.95 L89.8 49.8 Q90.8 50.45 95.7 56.9 97.05 58.4 95.7 72.6 94.0 93.35 93.15 94.2 90.95 96.9 90.95 98.1 L90.95 111.95 55.7 111.95" fill="#d3ba9f" fill-rule="evenodd" stroke="none"/>
    <path d="M90.95 111.95 L90.95 98.1 Q90.95 96.9 93.15 94.2 94.0 93.35 95.7 72.6 97.05 58.4 95.7 56.9 90.8 50.45 89.8 49.8 L86.9 48.95 Q85.75 47.1 83.2 45.4 L80.65 45.55 Q78.5 45.9 78.3 46.25 L77.95 47.75 75.95 47.45 76.1 45.4 Q76.1 44.75 74.1 42.85 72.25 41.2 71.55 40.85 L66.3 41.85 66.15 46.4 64.45 46.25 64.65 40.35 Q64.65 39.85 63.1 37.8 61.6 35.8 60.9 35.6 L57.9 35.8 55.35 36.3 53.0 39.5 53.8 45.05 52.65 44.9 51.8 40.0 Q51.45 38.5 48.95 36.45 48.4 36.1 43.2 37.45 42.5 37.8 41.0 40.0 39.65 42.55 39.8 43.55 L41.5 50.45 Q38.65 51.65 38.3 52.15 37.3 53.15 36.95 57.25 36.6 57.55 36.75 57.75 L36.75 69.4 36.1 73.1 Q35.4 76.3 35.75 76.8 L43.35 83.9 49.1 89.5 54.35 94.9 55.7 98.6 56.55 102.8 56.2 104.15 Q55.85 106.0 55.7 111.95" fill="none" stroke="#666666" stroke-linecap="butt" stroke-linejoin="miter" stroke-miterlimit="10.0" stroke-width="3.0"/>
    <path d="M89.8 49.8 Q90.8 50.45 95.75 56.9 97.1 58.4 95.75 72.6 94.0 93.35 93.2 94.2 91.0 96.9 91.0 98.1 L91.0 111.95 55.7 111.95 Q55.85 106.05 56.2 104.15 L56.5 102.8 55.7 98.6 54.35 94.85 49.1 89.45 43.4 83.9 35.75 76.8 Q35.45 76.35 36.1 73.1 L36.8 69.35 36.8 57.75 Q36.65 57.05 39.1 53.85 L41.65 51.0 43.55 43.85 80.5 48.0 85.25 48.65 Q89.0 49.35 89.8 49.8" fill="#ffffff" fill-rule="evenodd" stroke="none"/>
    <path d="M84.2 58.05 L94.0 57.4 84.2 61.1 89.95 66.0 86.05 65.0 Q83.05 69.4 81.7 69.55 77.65 69.2 77.65 69.9 L77.3 78.0 Q77.3 78.65 74.1 87.1 L75.1 79.0 Q75.1 78.35 73.75 76.3 L72.05 73.45 67.65 73.1 Q63.6 73.1 63.3 72.6 L60.9 70.4 Q58.9 68.9 57.35 68.2 L54.5 66.85 47.4 72.6 50.45 67.7 50.3 65.0 48.4 62.1 49.25 55.2 84.2 58.05" fill="#333333" fill-rule="evenodd" stroke="none"/>
    <path d="M82.35 61.1 L73.05 69.05 53.0 64.0 47.4 39.65 55.85 39.65 63.3 40.85 68.35 42.35 74.1 45.25 81.7 47.1 82.35 61.1" fill="#333333" fill-rule="evenodd" stroke="none"/>
    <path d="M51.8 40.05 L52.7 45.05 Q53.15 49.35 53.0 50.3 52.7 51.8 42.5 54.35 L39.8 43.55 Q39.65 42.5 41.0 40.05 42.5 37.8 43.15 37.5 48.4 36.15 48.95 36.45 51.5 38.45 51.8 40.05" fill="#ffffff" fill-rule="evenodd" stroke="none"/>
    <path d="M51.8 40.05 L52.7 45.05 Q53.15 49.35 53.0 50.3 52.7 51.8 42.5 54.35 L39.8 43.55 Q39.65 42.5 41.0 40.05 42.5 37.8 43.15 37.5 48.4 36.15 48.95 36.45 51.5 38.45 51.8 40.05 Z" fill="none" stroke="#666666" stroke-linecap="butt" stroke-linejoin="miter" stroke-miterlimit="10.0" stroke-width="0.5"/>
    <path d="M55.35 36.3 L57.9 35.8 60.9 35.6 Q61.6 35.8 63.1 37.8 64.65 39.85 64.65 40.35 L64.65 47.45 64.65 56.2 64.65 62.65 Q64.8 63.15 55.85 61.1 L53.0 39.5 55.35 36.3" fill="#ffffff" fill-rule="evenodd" stroke="none"/>
    <path d="M55.35 36.3 L57.9 35.8 60.9 35.6 Q61.6 35.8 63.1 37.8 64.65 39.85 64.65 40.35 L64.65 47.45 64.65 56.2 64.65 62.65 Q64.8 63.15 55.85 61.1 L53.0 39.5 55.35 36.3 Z" fill="none" stroke="#666666" stroke-linecap="butt" stroke-linejoin="miter" stroke-miterlimit="10.0" stroke-width="0.5"/>
    <path d="M71.55 40.85 Q72.25 41.2 74.1 42.85 76.1 44.75 76.1 45.4 L74.95 64.0 Q74.95 64.3 73.4 65.15 71.9 66.0 71.2 66.0 L68.5 65.35 Q66.5 64.5 66.3 64.0 66.0 44.4 66.3 41.85 L71.55 40.85" fill="#ffffff" fill-rule="evenodd" stroke="none"/>
    <path d="M71.55 40.85 Q72.25 41.2 74.1 42.85 76.1 44.75 76.1 45.4 L74.95 64.0 Q74.95 64.3 73.4 65.15 71.9 66.0 71.2 66.0 L68.5 65.35 Q66.5 64.5 66.3 64.0 66.0 44.4 66.3 41.85 L71.55 40.85 Z" fill="none" stroke="#666666" stroke-linecap="butt" stroke-linejoin="miter" stroke-miterlimit="10.0" stroke-width="0.5"/>
    <path d="M85.4 47.1 Q87.25 48.8 87.45 49.8 87.6 50.8 86.75 56.9 85.9 62.8 85.55 63.3 85.4 63.65 83.2 64.5 L80.65 65.0 Q75.95 63.8 76.1 61.8 77.3 48.1 78.3 46.25 78.5 45.9 80.65 45.55 L83.2 45.4 85.4 47.1" fill="#ffffff" fill-rule="evenodd" stroke="none"/>
    <path d="M85.4 47.1 Q87.25 48.8 87.45 49.8 87.6 50.8 86.75 56.9 85.9 62.8 85.55 63.3 85.4 63.65 83.2 64.5 L80.65 65.0 Q75.95 63.8 76.1 61.8 77.3 48.1 78.3 46.25 78.5 45.9 80.65 45.55 L83.2 45.4 85.4 47.1 Z" fill="none" stroke="#666666" stroke-linecap="butt" stroke-linejoin="miter" stroke-miterlimit="10.0" stroke-width="1.0"/>
    <path d="M61.75 48.8 Q61.4 52.5 60.25 53.5 L50.1 61.8 51.65 66.85 36.75 60.45 Q36.75 53.85 38.3 52.15 38.95 51.3 48.95 47.25 L58.9 43.05 Q59.25 42.85 60.4 43.4 61.75 44.05 61.95 44.55 62.1 45.75 61.75 48.8" fill="#ffffff" fill-rule="evenodd" stroke="none"/>
    <path d="M36.75 60.45 Q36.75 53.85 38.3 52.15 38.95 51.3 48.95 47.25 L58.9 43.05 Q59.25 42.85 60.4 43.4 61.75 44.05 61.95 44.55 62.1 45.75 61.75 48.8 61.4 52.5 60.25 53.5 L50.1 61.8 51.65 66.85" fill="none" stroke="#666666" stroke-linecap="butt" stroke-linejoin="miter" stroke-miterlimit="10.0" stroke-width="1.0"/>
    <path d="M49.1 47.25 L52.15 46.4 55.85 47.25 49.1 47.25" fill="#666666" fill-rule="evenodd" stroke="none"/>
  </g>
</svg>
