<?xml version="1.0" encoding="UTF-8" standalone="no"?>
<svg xmlns:xlink="http://www.w3.org/1999/xlink" height="40.5px" width="34.6px" xmlns="http://www.w3.org/2000/svg">
  <g transform="matrix(1.0, 0.0, 0.0, 1.0, 0.0, 0.0)">
    <path d="M27.7 1.65 Q28.55 2.45 28.7 3.7 28.85 4.95 28.3 5.9 L27.7 6.75 Q26.9 7.5 25.95 7.7 L24.05 7.55 23.9 7.55 23.25 7.2 22.65 6.75 Q21.6 5.65 21.6 4.15 21.6 2.7 22.65 1.65 23.7 0.6 25.15 0.6 26.6 0.6 27.7 1.65 M27.85 6.3 L28.05 6.0 26.1 6.75 Q24.8 7.2 24.25 7.5 25.0 7.7 25.95 7.5 L27.6 6.65 27.85 6.3 M27.3 5.9 L28.2 5.65 28.3 5.65 Q29.2 3.65 27.6 1.75 26.6 0.75 25.2 0.75 23.75 0.75 22.75 1.75 21.7 2.75 21.7 4.2 21.7 5.65 22.75 6.65 L23.25 7.0 23.85 7.3 24.45 7.05 25.85 6.5 27.3 5.9 M22.25 1.25 Q23.45 0.0 25.2 0.0 26.9 0.0 28.1 1.25 29.0 2.25 29.25 3.4 29.5 4.6 29.05 5.8 L29.2 5.55 29.5 5.7 30.55 6.85 32.1 8.4 33.65 9.95 34.4 10.65 Q34.7 11.0 34.55 11.4 L34.25 12.05 34.2 12.05 33.75 12.45 33.55 12.6 Q33.2 12.8 32.85 12.6 L32.15 12.2 32.15 12.1 30.3 13.95 30.2 14.3 30.15 14.6 29.55 15.15 30.0 15.8 30.65 16.5 31.85 18.2 32.0 18.75 Q31.8 19.55 31.4 19.55 L30.45 20.45 28.05 22.85 24.75 26.25 20.95 30.05 10.55 40.5 10.35 40.35 9.05 40.0 Q7.75 39.65 6.1 38.55 4.6 37.55 2.8 35.5 0.95 33.5 0.05 30.05 L0.0 29.85 21.8 8.05 21.8 8.0 22.25 7.9 22.4 7.75 22.75 7.55 22.5 7.4 22.25 7.15 Q21.0 5.9 21.0 4.2 21.0 2.45 22.25 1.25 M21.15 4.25 Q21.15 5.85 22.4 7.1 L22.65 7.35 23.0 7.5 23.1 7.55 Q24.25 8.4 25.65 8.2 27.05 8.05 28.05 7.1 29.2 5.85 29.2 4.25 29.2 2.6 28.05 1.45 26.85 0.2 25.2 0.2 23.5 0.2 22.4 1.45 21.15 2.6 21.15 4.25 M22.0 8.8 L26.05 12.8 29.0 16.1 Q30.65 17.85 31.15 18.95 L31.25 18.95 31.25 18.9 31.3 18.8 31.3 18.75 30.45 17.35 28.8 15.25 28.55 15.05 28.7 15.0 26.95 13.15 25.0 11.2 23.35 9.6 22.25 8.6 Q22.05 8.6 22.0 8.8 M23.05 8.8 L23.7 9.3 25.1 8.65 25.2 8.65 25.7 9.25 26.1 9.55 26.25 9.45 26.7 9.15 28.55 7.3 Q28.8 7.1 29.0 7.1 L29.05 7.1 29.15 7.2 29.8 8.35 30.35 9.45 30.5 9.7 30.85 10.3 31.25 10.55 31.65 10.65 31.9 10.75 32.1 10.8 Q32.35 10.8 32.7 11.1 L32.85 11.25 32.8 11.35 32.75 11.4 32.75 11.45 32.6 11.6 32.7 11.7 32.95 11.95 33.2 12.05 33.55 11.85 33.6 11.7 33.65 11.65 33.4 11.7 33.1 11.55 Q32.75 11.2 33.1 11.0 33.25 10.75 33.6 10.75 L33.2 10.35 32.6 9.75 30.8 8.0 29.05 6.2 28.85 6.15 28.55 6.65 28.1 7.15 Q27.15 8.15 25.75 8.35 24.4 8.5 23.15 7.8 L23.3 8.1 22.65 8.45 23.05 8.8 M18.55 12.2 L17.8 13.05 18.75 14.55 20.8 17.05 23.85 19.9 Q25.55 21.3 27.7 22.25 L28.45 21.5 29.2 20.75 Q27.15 19.8 25.4 18.35 L22.4 15.5 20.3 12.95 19.35 11.45 18.55 12.2 M26.5 9.6 L26.25 9.6 26.1 9.7 25.4 9.2 25.1 8.8 24.55 9.15 23.85 9.55 24.7 10.4 25.85 11.55 27.75 13.45 29.0 14.8 29.55 14.2 29.55 13.85 29.65 13.7 29.75 13.6 29.15 13.15 28.55 12.55 28.5 12.7 27.6 11.75 28.85 10.6 28.85 10.55 29.8 11.35 28.7 12.5 29.25 12.9 29.8 13.55 32.15 11.1 32.35 11.45 32.6 11.25 32.7 11.25 32.6 11.2 32.0 11.05 31.9 11.0 31.55 10.85 31.15 10.65 30.8 10.55 30.7 10.45 30.65 10.3 30.15 10.15 30.15 9.8 30.2 9.6 30.3 9.6 30.2 9.55 29.7 8.4 29.05 7.3 29.0 7.2 28.7 7.45 26.85 9.2 26.5 9.6 M28.2 12.05 L28.5 12.5 28.5 12.3 28.55 12.3 29.1 11.85 29.55 11.35 29.25 11.05 28.85 10.75 28.4 11.25 27.85 11.75 28.2 12.05 M30.6 10.15 L30.3 9.75 30.3 10.1 30.6 10.15 M33.25 11.45 Q33.4 11.7 33.6 11.45 33.8 11.2 33.6 11.05 33.4 10.9 33.25 11.05 33.05 11.2 33.25 11.45 M33.75 11.55 L33.65 11.6 33.65 11.65 33.75 11.55 M5.7 32.45 L8.7 35.25 Q10.45 36.6 12.5 37.55 L13.25 36.8 14.0 35.95 Q11.95 35.05 10.25 33.65 L7.3 30.9 5.2 28.35 4.05 26.65 2.5 28.25 3.6 29.9 5.7 32.45" fill="#6e7d5c" fill-rule="evenodd" stroke="none"/>
  </g>
</svg>
