<?xml version="1.0" encoding="UTF-8" standalone="no"?>
<svg xmlns:xlink="http://www.w3.org/1999/xlink" height="16.6px" width="128.15px" xmlns="http://www.w3.org/2000/svg">
  <g transform="matrix(1.0, 0.0, 0.0, 1.0, -308.1, -561.95)">
    <path d="M316.65 566.05 L312.35 565.35 310.85 565.0 309.75 566.65 Q308.7 568.7 308.9 570.4 L309.45 573.25 310.8 576.3 313.2 575.65 317.4 574.85 343.6 574.7 368.0 574.7 368.6 576.0 Q369.3 577.3 369.9 577.6 L372.85 577.5 Q371.3 576.5 371.75 575.5 372.05 574.9 373.9 574.65 L375.7 574.5 376.35 574.15 383.3 574.15 383.65 573.8 405.85 573.55 Q429.3 572.95 435.5 571.15 433.4 569.7 404.65 568.1 L376.35 566.85 375.7 566.1 372.4 566.1 Q371.4 563.0 370.35 562.8 L368.85 562.7 368.1 562.75 368.75 564.35 Q369.2 565.95 368.15 565.95 331.65 565.7 326.45 565.95 L321.05 566.3 316.65 566.05 Z" fill="none" stroke="#000000" stroke-linecap="round" stroke-linejoin="round" stroke-opacity="0.49803922" stroke-width="1.5"/>
  </g>
</svg>
