<?xml version="1.0" encoding="UTF-8" standalone="no"?>
<svg xmlns:xlink="http://www.w3.org/1999/xlink" height="35.75px" width="39.3px" xmlns="http://www.w3.org/2000/svg">
  <g transform="matrix(1.0, 0.0, 0.0, 1.0, -20.4, -18.55)">
    <path d="M51.1 22.2 L49.45 25.3 48.65 25.1 47.05 25.1 49.45 21.25 Q49.65 20.95 50.05 20.8 L50.7 21.0 51.15 21.5 51.1 22.2 M42.45 18.8 L42.75 19.5 42.9 25.1 40.7 25.1 40.85 19.5 Q40.85 19.05 41.15 18.8 41.4 18.55 41.8 18.55 L42.45 18.8 M57.25 27.45 L57.35 28.2 57.0 28.8 51.9 31.8 51.9 29.2 56.0 27.15 56.7 27.05 57.25 27.45 M59.4 37.1 L58.75 37.3 51.9 37.45 51.9 35.25 58.75 35.45 Q59.1 35.45 59.4 35.75 L59.7 36.4 59.4 37.1 M47.15 30.0 Q47.15 29.45 46.6 29.45 L35.65 29.45 Q35.45 29.45 35.3 29.6 L35.1 30.0 35.1 37.0 35.3 37.4 35.65 37.5 46.6 37.5 Q47.15 37.5 47.15 37.0 L47.15 30.0 M48.0 27.5 Q48.75 27.5 49.2 28.0 49.6 28.5 49.6 29.2 L49.6 44.15 Q49.6 44.8 49.2 45.25 48.75 45.8 48.0 45.8 L22.05 45.8 Q21.4 45.8 20.9 45.25 20.4 44.8 20.4 44.15 L20.4 29.2 Q20.4 28.5 20.9 28.0 21.4 27.5 22.05 27.5 L48.0 27.5 M40.65 33.35 L40.2 33.6 40.65 33.85 40.5 34.15 40.0 33.9 40.1 34.4 39.7 34.4 39.7 33.9 39.3 34.15 39.1 33.85 39.55 33.6 39.1 33.35 39.3 33.1 39.7 33.35 39.7 32.9 40.1 32.9 40.0 33.35 40.5 33.1 40.65 33.35 M41.75 33.6 L41.35 33.35 41.5 33.1 41.95 33.35 41.95 32.9 42.3 32.9 42.25 33.35 42.7 33.1 42.85 33.35 42.35 33.6 42.85 33.85 42.7 34.15 42.25 33.9 42.3 34.4 41.95 34.4 41.95 33.9 41.5 34.15 41.35 33.85 41.75 33.6 M41.95 41.7 L41.65 41.9 Q41.5 42.0 41.5 42.2 L41.5 43.6 41.65 43.95 41.95 44.05 43.4 44.05 43.7 43.95 43.8 43.6 43.8 42.2 43.7 41.9 43.4 41.7 41.95 41.7 M40.7 42.2 L40.6 41.9 40.25 41.7 38.85 41.7 Q38.65 41.7 38.55 41.9 38.4 42.0 38.4 42.2 L38.4 43.6 38.55 43.95 38.85 44.05 40.25 44.05 40.6 43.95 40.7 43.6 40.7 42.2 M40.7 38.9 L40.6 38.55 40.25 38.45 38.85 38.45 38.55 38.55 38.4 38.9 38.4 40.3 38.55 40.6 38.85 40.8 40.25 40.8 40.6 40.6 40.7 40.3 40.7 38.9 M43.7 38.55 L43.4 38.45 41.95 38.45 41.65 38.55 Q41.5 38.75 41.5 38.9 L41.5 40.3 41.65 40.6 41.95 40.8 43.4 40.8 43.7 40.6 43.8 40.3 43.8 38.9 43.7 38.55 M46.8 38.55 L46.45 38.45 45.1 38.45 44.75 38.55 44.6 38.9 44.6 40.3 44.75 40.6 45.1 40.8 46.45 40.8 46.8 40.6 46.95 40.3 46.95 38.9 46.8 38.55 M46.8 41.9 L46.45 41.7 45.1 41.7 44.75 41.9 Q44.6 42.0 44.6 42.2 L44.6 43.6 44.75 43.95 45.1 44.05 46.45 44.05 46.8 43.95 46.95 43.6 46.95 42.2 46.8 41.9 M42.9 48.05 L42.75 53.35 42.45 54.05 41.8 54.3 Q41.4 54.3 41.15 54.05 40.85 53.75 40.85 53.35 L40.7 48.05 42.9 48.05 M49.75 47.9 L51.1 50.6 51.15 51.35 50.7 51.85 50.05 52.0 Q49.65 51.9 49.45 51.55 L47.3 48.05 48.65 48.05 49.2 48.0 49.75 47.9 M57.25 45.4 L56.7 45.8 56.0 45.7 51.9 43.45 51.9 40.95 57.0 44.05 57.35 44.65 57.25 45.4 M32.45 21.5 L32.85 21.0 Q33.2 20.7 33.55 20.8 33.9 20.95 34.15 21.25 L36.5 25.1 34.0 25.1 32.55 22.2 Q32.35 21.85 32.45 21.5 M38.45 33.35 L38.0 33.6 38.45 33.85 38.35 34.15 37.8 33.9 37.9 34.4 37.55 34.4 37.55 33.9 37.1 34.15 36.95 33.85 37.35 33.6 36.95 33.35 37.1 33.1 37.55 33.35 37.55 32.9 37.9 32.9 37.8 33.35 38.35 33.1 38.45 33.35 M37.1 41.7 L35.75 41.7 Q35.6 41.7 35.4 41.9 L35.2 42.2 35.2 43.6 35.4 43.95 35.75 44.05 37.1 44.05 37.45 43.95 37.6 43.6 37.6 42.2 37.45 41.9 37.1 41.7 M37.1 38.45 L35.75 38.45 35.4 38.55 35.2 38.9 35.2 40.3 35.4 40.6 Q35.6 40.8 35.75 40.8 L37.1 40.8 37.45 40.6 37.6 40.3 37.6 38.9 37.45 38.55 37.1 38.45 M27.3 41.05 L27.3 42.2 30.55 42.2 30.55 43.95 32.2 43.95 32.2 42.2 33.15 42.2 33.15 40.9 32.2 40.9 32.2 36.5 30.1 36.5 27.3 41.05 M26.2 38.3 L25.5 38.25 Q23.9 38.25 23.05 39.1 22.3 39.9 22.3 41.15 22.3 42.5 23.05 43.3 23.8 44.05 25.2 44.05 L26.1 43.95 26.75 43.8 26.6 42.45 26.1 42.65 25.55 42.65 Q24.95 42.65 24.5 42.25 24.0 41.9 24.0 41.1 24.0 40.5 24.45 40.05 24.8 39.55 25.55 39.55 L26.1 39.6 26.5 39.7 26.8 38.45 26.2 38.3 M29.85 39.25 L30.25 38.55 30.55 37.8 30.65 37.8 30.6 38.55 30.55 39.25 30.55 40.9 28.95 40.9 29.85 39.25 M36.3 48.05 L34.15 51.55 33.55 52.0 32.85 51.85 32.45 51.35 Q32.35 50.95 32.55 50.6 L33.75 48.05 36.3 48.05" fill="#990000" fill-rule="evenodd" stroke="none"/>
  </g>
</svg>
