<?xml version="1.0" encoding="UTF-8" standalone="no"?>
<svg xmlns:xlink="http://www.w3.org/1999/xlink" height="36.1px" width="17.45px" xmlns="http://www.w3.org/2000/svg">
  <g transform="matrix(1.0, 0.0, 0.0, 1.0, -0.75, 0.45)">
    <use height="36.1" transform="matrix(1.0, 0.0, 0.0, 1.0, 0.75, -0.45)" width="17.45" xlink:href="#shape0"/>
  </g>
  <defs>
    <g id="shape0" transform="matrix(1.0, 0.0, 0.0, 1.0, -0.75, 0.45)">
      <path d="M14.2 32.95 L14.0 33.1 13.95 33.1 Q12.75 33.75 11.7 34.0 L9.3 34.5 7.25 34.6 5.55 34.35 Q3.9 34.0 3.0 33.5 L2.3 33.15 1.95 32.95 1.8 32.9 1.8 8.45 Q1.6 8.05 1.95 7.6 L2.0 7.5 2.3 7.45 2.3 7.4 2.95 7.25 4.1 7.15 4.95 7.0 5.45 6.95 5.45 6.25 5.6 6.0 5.75 5.8 5.75 3.6 5.7 3.6 5.15 3.55 4.45 3.55 4.45 2.85 4.5 2.85 4.5 2.8 4.6 2.8 4.6 2.35 4.8 1.85 5.3 1.45 11.2 1.45 11.45 1.55 11.45 1.75 Q11.75 1.15 12.2 0.7 L12.2 0.65 12.2 0.55 12.35 0.55 12.9 0.55 M12.9 1.0 L16.5 10.05 17.2 13.4 17.2 13.7 17.2 13.85 17.2 14.0 17.2 14.25 17.2 14.3 17.2 14.55 17.2 14.85 17.2 15.15 17.2 15.4 17.2 15.7 17.2 16.0 17.2 16.3 17.2 16.55 17.2 16.85 17.2 17.15 17.2 17.45 17.2 17.7 17.2 18.0 17.2 18.3 17.2 18.6 17.2 18.9 17.2 19.2 17.2 19.5 17.2 19.8 17.2 20.05 17.2 20.35 17.2 20.65 17.2 20.95 17.2 21.2 17.2 21.5 17.2 21.8 17.2 22.1 17.2 22.35 17.2 22.65 17.2 22.95 17.2 23.25 17.2 23.5 17.2 23.8 17.2 24.1 17.2 24.4 17.2 24.7 17.2 25.0 17.2 25.3 17.2 25.6 17.2 25.85 17.2 26.15 17.2 26.45 17.2 26.75 17.2 27.0 17.2 27.3 17.2 27.6 17.2 27.9 17.2 28.15 17.2 28.45 17.2 28.75 17.2 29.05 17.2 29.3 17.2 29.6 17.2 29.9 17.2 30.25 17.2 30.35 17.05 30.35 17.05 30.4 17.0 30.45 16.95 30.55 16.85 30.55 16.85 30.6 M6.7 11.55 Q5.5 12.6 4.8 14.15 3.8 16.3 3.8 18.5 3.8 20.15 4.2 21.55 4.7 23.3 6.15 24.05 6.85 24.45 7.7 24.5 6.25 23.6 6.15 21.55 6.05 20.0 7.25 18.7 L7.65 18.4 Q7.1 19.95 8.85 21.6 9.7 22.45 10.1 23.55 10.3 24.1 10.0 24.3 10.65 24.55 11.35 23.75 L11.4 23.7 Q12.4 23.05 12.7 21.4 13.0 19.45 12.05 17.6 L10.5 15.35 Q9.4 14.1 9.0 12.4 8.5 10.55 9.55 9.25 L6.7 11.55 M14.7 13.6 L14.65 32.8" fill="none" stroke="#000000" stroke-linecap="round" stroke-linejoin="round" stroke-opacity="0.3019608" stroke-width="2.0"/>
      <path d="M14.7 13.55 L14.7 32.35 14.2 32.95 14.0 33.1 13.95 33.1 Q12.75 33.75 11.7 34.0 L9.3 34.5 7.25 34.6 5.55 34.35 Q3.9 34.0 3.0 33.5 L2.3 33.15 1.95 32.95 1.8 32.9 1.8 8.45 Q1.6 8.05 1.95 7.6 L2.0 7.5 2.3 7.45 2.3 7.4 2.95 7.25 4.1 7.15 4.95 7.0 5.45 6.95 5.45 6.25 5.6 6.0 5.75 5.8 5.75 3.6 5.7 3.6 5.15 3.55 4.45 3.55 4.45 2.85 4.5 2.85 4.5 2.8 4.6 2.8 4.6 2.35 4.8 1.85 5.3 1.45 11.2 1.45 11.45 1.55 11.45 1.75 Q11.75 1.15 12.2 0.7 L12.2 0.65 12.2 0.55 12.35 0.55 12.9 0.55 M12.9 1.0 L16.5 10.05 17.2 13.4 17.2 13.7 17.2 13.85 17.2 14.0 17.2 14.25 17.2 14.3 17.2 14.55 17.2 14.85 17.2 15.15 17.2 15.4 17.2 15.7 17.2 16.0 17.2 16.3 17.2 16.55 17.2 16.85 17.2 17.15 17.2 17.45 17.2 17.7 17.2 18.0 17.2 18.3 17.2 18.6 17.2 18.9 17.2 19.2 17.2 19.5 17.2 19.8 17.2 20.05 17.2 20.35 17.2 20.65 17.2 20.95 17.2 21.2 17.2 21.5 17.2 21.8 17.2 22.1 17.2 22.35 17.2 22.65 17.2 22.95 17.2 23.25 17.2 23.5 17.2 23.8 17.2 24.1 17.2 24.4 17.2 24.7 17.2 25.0 17.2 25.3 17.2 25.6 17.2 25.85 17.2 26.15 17.2 26.45 17.2 26.75 17.2 27.0 17.2 27.3 17.2 27.6 17.2 27.9 17.2 28.15 17.2 28.45 17.2 28.75 17.2 29.05 17.2 29.3 17.2 29.6 17.2 29.9 17.2 30.25 17.2 30.35 17.05 30.35 17.05 30.4 17.0 30.45 16.95 30.55 16.85 30.55 16.85 30.6 16.8 30.65 M6.7 11.55 Q5.5 12.6 4.8 14.15 3.8 16.3 3.8 18.5 3.8 20.15 4.2 21.55 4.7 23.3 6.15 24.05 6.85 24.45 7.7 24.5 6.25 23.6 6.15 21.55 6.05 20.0 7.25 18.7 L7.65 18.4 Q7.1 19.95 8.85 21.6 9.7 22.45 10.1 23.55 10.3 24.1 10.0 24.3 10.65 24.55 11.35 23.75 L11.4 23.7 Q12.4 23.05 12.7 21.4 13.0 19.45 12.05 17.6 L10.5 15.35 Q9.4 14.1 9.0 12.4 8.5 10.55 9.55 9.25 L6.7 11.55" fill="none" stroke="#000000" stroke-linecap="round" stroke-linejoin="round" stroke-width="0.5"/>
    </g>
  </defs>
</svg>
