<?xml version="1.0" encoding="UTF-8" standalone="no"?>
<svg xmlns:xlink="http://www.w3.org/1999/xlink" height="27.0px" width="20.35px" xmlns="http://www.w3.org/2000/svg">
  <g transform="matrix(1.0, 0.0, 0.0, 1.0, 0.0, 0.0)">
    <use height="27.0" transform="matrix(1.0, 0.0, 0.0, 1.0, 0.0, 0.0)" width="20.35" xlink:href="#shape0"/>
  </g>
  <defs>
    <g id="shape0" transform="matrix(1.0, 0.0, 0.0, 1.0, 0.0, 0.0)">
      <path d="M20.35 26.8 L20.35 27.0 19.9 27.0 20.35 26.8 M5.25 11.15 Q4.3 10.1 4.3 8.7 4.3 7.35 5.25 6.35 6.25 5.35 7.65 5.35 9.05 5.35 10.05 6.35 11.0 7.35 11.0 8.7 11.0 10.1 10.05 11.15 9.05 12.15 7.65 12.15 6.25 12.15 5.25 11.15 M13.0 7.8 L12.45 0.3 14.9 0.0 16.65 8.95 15.05 13.3 14.15 15.35 13.45 17.25 13.0 19.25 12.75 21.1 12.55 23.4 12.3 25.65 12.2 27.0 4.05 27.0 3.45 20.2 2.95 27.0 0.15 27.0 0.0 20.65 0.75 17.6 1.1 16.35 1.5 15.2 2.0 14.25 2.45 13.55 3.45 13.25 4.5 13.0 5.8 12.9 9.4 12.9 10.15 12.55 10.8 12.05 11.4 11.15 11.95 9.95 12.5 8.9 13.0 7.8" fill="#9d511b" fill-rule="evenodd" stroke="none"/>
    </g>
  </defs>
</svg>
