<?xml version="1.0" encoding="UTF-8" standalone="no"?>
<svg xmlns:xlink="http://www.w3.org/1999/xlink" height="96.1px" width="96.1px" xmlns="http://www.w3.org/2000/svg">
  <g transform="matrix(1.0, 0.0, 0.0, 1.0, -16.0, -15.0)">
    <use height="96.1" transform="matrix(1.0, 0.0, 0.0, 1.0, 16.0, 15.0)" width="96.1" xlink:href="#shape0"/>
  </g>
  <defs>
    <g id="shape0" transform="matrix(1.0, 0.0, 0.0, 1.0, -16.0, -15.0)">
      <path d="M112.1 15.0 L112.1 111.1 16.0 111.1 16.0 15.0 112.1 15.0" fill="#cc0000" fill-rule="evenodd" stroke="none"/>
      <path d="M91.15 82.7 Q91.65 83.2 91.5 84.05 91.15 85.4 90.95 89.45 L98.25 92.65 Q99.25 93.2 105.85 95.35 111.05 97.25 112.1 98.6 L112.1 111.1 16.0 111.1 16.0 89.45 Q18.7 87.45 19.55 87.25 22.9 86.4 36.1 84.25 L39.45 83.9 42.15 80.35 Q44.85 76.8 45.4 76.8 45.9 76.8 44.7 74.45 43.2 71.75 43.0 71.05 L41.35 69.05 Q39.8 67.35 39.45 64.3 39.3 62.6 39.8 61.25 L40.15 60.25 Q38.95 55.85 38.3 50.65 36.75 40.35 39.15 35.95 42.15 30.05 45.7 27.15 49.95 23.6 56.2 22.75 63.45 21.75 69.85 24.95 77.1 28.5 79.0 35.45 81.7 45.2 83.2 52.15 L84.2 52.65 Q85.25 53.65 85.25 56.2 85.25 62.45 83.2 65.8 83.05 76.3 83.2 76.65 L86.25 78.65 89.8 81.35 91.15 82.7" fill="#990000" fill-rule="evenodd" stroke="none"/>
      <path d="M55.5 45.05 L55.5 63.65 51.65 63.65 51.65 45.05 55.5 45.05" fill="#ffffff" fill-rule="evenodd" stroke="none"/>
      <path d="M53.65 65.8 Q48.6 65.8 45.05 69.35 41.5 72.9 41.5 77.8 41.5 82.9 45.05 86.4 48.6 89.95 53.65 89.95 58.55 89.95 62.1 86.4 65.65 82.9 65.65 77.8 65.65 72.9 62.1 69.35 58.55 65.8 53.65 65.8 M55.5 58.35 Q64.85 58.65 73.55 61.95 L73.55 101.25 Q73.55 106.8 70.25 111.0 L37.0 111.0 Q33.55 106.8 33.55 101.25 L33.55 61.95 Q42.3 58.65 51.65 58.35 L55.5 58.35" fill="#cccccc" fill-rule="evenodd" stroke="none"/>
      <path d="M53.65 68.2 Q57.55 68.2 60.4 71.05 62.95 73.65 63.2 77.1 L63.2 77.8 Q63.2 81.4 60.85 84.1 L60.4 84.6 Q57.55 87.4 53.65 87.4 49.5 87.4 46.7 84.6 L46.25 84.1 Q43.85 81.4 43.85 77.8 L43.9 77.1 Q44.1 73.65 46.7 71.05 49.5 68.2 53.65 68.2" fill="#000000" fill-rule="evenodd" stroke="none"/>
      <path d="M53.65 65.15 Q58.8 65.15 62.55 68.9 66.05 72.35 66.3 77.1 L66.3 77.8 Q66.3 81.3 64.7 84.1 L62.55 86.85 Q58.8 90.6 53.65 90.6 48.3 90.6 44.55 86.85 43.25 85.55 42.45 84.1 40.85 81.3 40.85 77.8 L40.9 77.1 Q41.1 72.35 44.55 68.9 48.3 65.15 53.65 65.15 M53.65 68.2 Q49.5 68.2 46.7 71.05 44.1 73.65 43.9 77.1 L43.85 77.8 Q43.85 81.4 46.25 84.1 L46.7 84.6 Q49.5 87.4 53.65 87.4 57.55 87.4 60.4 84.6 L60.85 84.1 Q63.2 81.4 63.2 77.8 L63.2 77.1 Q62.95 73.65 60.4 71.05 57.55 68.2 53.65 68.2" fill="#999999" fill-rule="evenodd" stroke="none"/>
      <path d="M33.55 61.95 Q42.3 58.65 51.65 58.35 L55.5 58.35 Q64.85 58.65 73.55 61.95" fill="none" stroke="#ffffff" stroke-linecap="butt" stroke-linejoin="miter" stroke-miterlimit="10.0" stroke-width="1.0"/>
      <path d="M53.65 68.2 Q57.55 68.2 60.4 71.05 62.95 73.65 63.2 77.1 L63.2 77.8 Q63.2 81.4 60.85 84.1 L60.4 84.6 Q57.55 87.4 53.65 87.4 49.5 87.4 46.7 84.6 L46.25 84.1 Q43.85 81.4 43.85 77.8 L43.9 77.1 Q44.1 73.65 46.7 71.05 49.5 68.2 53.65 68.2" fill="none" stroke="#666666" stroke-linecap="round" stroke-linejoin="round" stroke-width="1.0"/>
      <path d="M53.65 65.15 Q58.8 65.15 62.55 68.9 66.05 72.35 66.3 77.1 L66.3 77.8 Q66.3 81.3 64.7 84.1 L62.55 86.85 Q58.8 90.6 53.65 90.6 48.3 90.6 44.55 86.85 43.25 85.55 42.45 84.1 40.85 81.3 40.85 77.8 L40.9 77.1 Q41.1 72.35 44.55 68.9 48.3 65.15 53.65 65.15" fill="none" stroke="#333333" stroke-linecap="butt" stroke-linejoin="miter" stroke-miterlimit="10.0" stroke-width="1.0"/>
    </g>
  </defs>
</svg>
