<?xml version="1.0" encoding="UTF-8" standalone="no"?>
<svg xmlns:xlink="http://www.w3.org/1999/xlink" height="37.0px" width="96.25px" xmlns="http://www.w3.org/2000/svg">
  <g transform="matrix(1.0, 0.0, 0.0, 1.0, 0.75, 0.75)">
    <use height="37.0" transform="matrix(1.0, 0.0, 0.0, 1.0, -0.75, -0.75)" width="96.25" xlink:href="#shape0"/>
  </g>
  <defs>
    <g id="shape0" transform="matrix(1.0, 0.0, 0.0, 1.0, 0.75, 0.75)">
      <path d="M86.85 14.7 Q85.3 12.9 83.0 10.9 81.0 9.25 79.1 7.95 L74.35 5.35 Q71.1 3.9 68.25 3.05 L61.9 1.8 54.8 1.25 54.75 0.7 54.2 0.0 51.1 0.4 49.75 1.6 Q47.85 2.9 44.9 3.55 L40.25 3.85 38.55 3.7 37.85 3.65 37.15 3.85 35.65 3.15 31.7 4.1 Q27.3 5.25 24.8 6.3 22.25 7.35 19.45 8.9 L17.1 10.2 17.0 10.55 16.4 10.85 15.7 11.25 15.5 11.55 15.15 12.0 14.75 12.15 14.4 12.15 Q13.95 12.1 13.45 12.6 L13.35 13.2 13.15 13.65 13.0 13.6 12.7 13.5 11.85 13.6 Q11.4 13.9 11.45 14.3 L11.15 15.05 10.75 15.15 Q10.6 15.15 10.35 14.95 9.8 14.65 9.4 14.95 9.15 15.1 9.0 15.65 L8.75 16.4 8.25 16.45 7.7 16.3 Q7.3 16.3 7.15 16.65 L7.2 17.05 6.7 17.6 6.15 17.75 5.5 17.75 Q5.2 17.85 4.7 19.0 L4.35 20.2 4.9 20.8 3.85 21.35 3.35 23.1 2.4 26.4 Q2.1 27.7 1.0 29.6 L0.0 31.2 0.2 31.7 3.3 32.4 4.0 32.9 5.75 33.95 Q8.6 35.45 10.25 35.5 12.05 35.55 13.9 34.65 15.25 34.05 16.05 33.25 L17.5 31.25 Q18.45 29.7 18.65 28.8 L18.8 27.1 18.8 26.3 18.95 26.4 19.3 26.15 19.55 25.55 20.1 24.6 Q20.95 23.25 21.95 22.65 22.95 22.05 24.95 22.1 L26.75 22.25 27.0 21.8 27.75 20.7 Q29.05 18.95 30.8 18.15 32.9 17.2 35.1 17.55 L36.85 18.1 37.25 17.3 Q37.8 16.4 38.5 15.7 40.75 13.35 43.75 13.75 45.9 14.0 47.65 16.1 48.75 17.4 49.15 18.6 L49.5 19.45 Q49.7 19.9 50.0 19.95 L51.45 19.5 52.9 18.8 53.05 18.25 52.95 17.9 53.95 17.5 56.75 16.65 Q61.4 15.4 65.95 15.3 L68.5 15.3 71.3 15.55 Q74.7 16.1 80.1 18.15 86.0 20.45 91.0 25.4 93.45 27.9 94.75 29.95 94.55 28.2 93.45 25.45 91.25 19.9 86.85 14.7 M9.3 21.45 L11.1 21.4 Q12.4 21.5 13.4 22.2 14.8 23.2 15.55 24.5 16.4 25.85 16.4 27.4 16.4 28.95 16.05 30.0 15.65 31.0 14.65 32.0 13.75 32.9 12.45 33.4 L9.7 33.65 Q8.3 33.35 7.0 32.4 5.75 31.5 5.35 30.45 L4.75 28.75 Q4.55 27.9 4.75 26.75 5.0 25.35 5.2 24.8 5.5 24.05 6.2 23.35 7.0 22.55 7.8 22.05 8.65 21.5 9.3 21.45" fill="none" stroke="#000000" stroke-linecap="round" stroke-linejoin="round" stroke-opacity="0.4" stroke-width="1.5"/>
      <path d="M18.8 27.1 L18.8 26.3 18.95 26.4 19.3 26.15 19.55 25.55 20.1 24.6 Q20.95 23.25 21.95 22.65 22.95 22.05 24.95 22.1 L26.75 22.25 27.0 21.8 27.75 20.7 Q29.05 18.95 30.8 18.15 32.9 17.2 35.1 17.55 L36.85 18.1 37.25 17.3 Q37.8 16.4 38.5 15.7 40.75 13.35 43.75 13.75 45.9 14.0 47.65 16.1 48.75 17.4 49.15 18.6 L49.5 19.45 Q49.7 19.9 50.0 19.95 L51.45 19.5 52.9 18.8 53.05 18.25 52.95 17.9 53.95 17.5 56.75 16.65 Q61.4 15.4 65.95 15.3 L68.5 15.3 71.3 15.55 Q74.7 16.1 80.1 18.15 86.0 20.45 91.0 25.4 93.45 27.9 94.75 29.95 94.55 28.2 93.45 25.45 91.25 19.9 86.85 14.7 85.3 12.9 83.0 10.9 81.0 9.25 79.1 7.95 L74.35 5.35 Q71.1 3.9 68.25 3.05 L61.9 1.8 54.8 1.25 54.75 0.7 54.2 0.0 51.1 0.4 49.75 1.6 Q47.85 2.9 44.9 3.55 L40.25 3.85 38.55 3.7 37.85 3.65 37.15 3.85 35.65 3.15 31.7 4.1 Q27.3 5.25 24.8 6.3 22.25 7.35 19.45 8.9 L17.1 10.2 17.0 10.55 16.4 10.85 15.7 11.25 15.5 11.55 15.15 12.0 14.75 12.15 14.4 12.15 Q13.95 12.1 13.45 12.6 L13.35 13.2 13.15 13.65 13.0 13.6 12.7 13.5 11.85 13.6 Q11.4 13.9 11.45 14.3 L11.15 15.05 10.75 15.15 Q10.6 15.15 10.35 14.95 9.8 14.65 9.4 14.95 9.15 15.1 9.0 15.65 L8.75 16.4 8.25 16.45 7.7 16.3 Q7.3 16.3 7.15 16.65 L7.2 17.05 6.7 17.6 6.15 17.75 5.5 17.75 Q5.2 17.85 4.7 19.0 L4.35 20.2 4.9 20.8 3.85 21.35 3.35 23.1 2.4 26.4 Q2.1 27.7 1.0 29.6 L0.0 31.2 0.2 31.7 3.3 32.4 4.0 32.9 5.75 33.95 Q8.6 35.45 10.25 35.5 12.05 35.55 13.9 34.65 15.25 34.05 16.05 33.25 L17.5 31.25 Q18.45 29.7 18.65 28.8 L18.8 27.1 M9.3 21.45 L11.1 21.4 Q12.4 21.5 13.4 22.2 14.8 23.2 15.55 24.5 16.4 25.85 16.4 27.4 16.4 28.95 16.05 30.0 15.65 31.0 14.65 32.0 13.75 32.9 12.45 33.4 L9.7 33.65 Q8.3 33.35 7.0 32.4 5.75 31.5 5.35 30.45 L4.75 28.75 Q4.55 27.9 4.75 26.75 5.0 25.35 5.2 24.8 5.5 24.05 6.2 23.35 7.0 22.55 7.8 22.05 8.65 21.5 9.3 21.45" fill="none" stroke="#000000" stroke-linecap="round" stroke-linejoin="round" stroke-width="0.5"/>
    </g>
  </defs>
</svg>
