<?xml version="1.0" encoding="UTF-8" standalone="no"?>
<svg xmlns:xlink="http://www.w3.org/1999/xlink" height="137.8px" width="1465.5px" xmlns="http://www.w3.org/2000/svg">
  <g transform="matrix(1.0, 0.0, 0.0, 1.0, -3.1, -11.75)">
    <g transform="matrix(1.0, 0.0, 0.0, 1.0, 0.0, 0.0)">
      <use fill="#ffffff" height="137.8" transform="matrix(0.0703, 0.0, 0.0, 0.0703, 0.0, 65.0)" width="1465.5" xlink:href="#font_Arial_Q0"/>
      <use fill="#ffffff" height="137.8" transform="matrix(0.0703, 0.0, 0.0, 0.0703, 70.0, 65.0)" width="1465.5" xlink:href="#font_Arial_W0"/>
      <use fill="#ffffff" height="137.8" transform="matrix(0.0703, 0.0, 0.0, 0.0703, 151.95, 65.0)" width="1465.5" xlink:href="#font_Arial_E0"/>
      <use fill="#ffffff" height="137.8" transform="matrix(0.0703, 0.0, 0.0, 0.0703, 213.95, 65.0)" width="1465.5" xlink:href="#font_Arial_R0"/>
      <use fill="#ffffff" height="137.8" transform="matrix(0.0703, 0.0, 0.0, 0.0703, 278.65, 65.0)" width="1465.5" xlink:href="#font_Arial_T0"/>
      <use fill="#ffffff" height="137.8" transform="matrix(0.0703, 0.0, 0.0, 0.0703, 336.65, 65.0)" width="1465.5" xlink:href="#font_Arial_Y0"/>
      <use fill="#ffffff" height="137.8" transform="matrix(0.0703, 0.0, 0.0, 0.0703, 398.65, 65.0)" width="1465.5" xlink:href="#font_Arial_U0"/>
      <use fill="#ffffff" height="137.8" transform="matrix(0.0703, 0.0, 0.0, 0.0703, 464.65, 65.0)" width="1465.5" xlink:href="#font_Arial_I0"/>
      <use fill="#ffffff" height="137.8" transform="matrix(0.0703, 0.0, 0.0, 0.0703, 498.65, 65.0)" width="1465.5" xlink:href="#font_Arial_O0"/>
      <use fill="#ffffff" height="137.8" transform="matrix(0.0703, 0.0, 0.0, 0.0703, 568.65, 65.0)" width="1465.5" xlink:href="#font_Arial_P0"/>
      <use fill="#ffffff" height="137.8" transform="matrix(0.0703, 0.0, 0.0, 0.0703, 630.65, 65.0)" width="1465.5" xlink:href="#font_Arial__0"/>
      <use fill="#ffffff" height="137.8" transform="matrix(0.0703, 0.0, 0.0, 0.0703, 668.7, 65.0)" width="1465.5" xlink:href="#font_Arial__1"/>
      <use fill="#ffffff" height="137.8" transform="matrix(0.0703, 0.0, 0.0, 0.0703, 706.75, 65.0)" width="1465.5" xlink:href="#font_Arial__2"/>
      <use fill="#ffffff" height="137.8" transform="matrix(0.0703, 0.0, 0.0, 0.0703, 739.45, 65.0)" width="1465.5" xlink:href="#font_Arial_A0"/>
      <use fill="#ffffff" height="137.8" transform="matrix(0.0703, 0.0, 0.0, 0.0703, 801.45, 65.0)" width="1465.5" xlink:href="#font_Arial_S0"/>
      <use fill="#ffffff" height="137.8" transform="matrix(0.0703, 0.0, 0.0, 0.0703, 863.45, 65.0)" width="1465.5" xlink:href="#font_Arial_D0"/>
      <use fill="#ffffff" height="137.8" transform="matrix(0.0703, 0.0, 0.0, 0.0703, 929.45, 65.0)" width="1465.5" xlink:href="#font_Arial_F0"/>
      <use fill="#ffffff" height="137.8" transform="matrix(0.0703, 0.0, 0.0, 0.0703, 987.45, 65.0)" width="1465.5" xlink:href="#font_Arial_G0"/>
      <use fill="#ffffff" height="137.8" transform="matrix(0.0703, 0.0, 0.0, 0.0703, 1057.45, 65.0)" width="1465.5" xlink:href="#font_Arial_H0"/>
      <use fill="#ffffff" height="137.8" transform="matrix(0.0703, 0.0, 0.0, 0.0703, 1123.45, 65.0)" width="1465.5" xlink:href="#font_Arial_J0"/>
      <use fill="#ffffff" height="137.8" transform="matrix(0.0703, 0.0, 0.0, 0.0703, 1173.45, 65.0)" width="1465.5" xlink:href="#font_Arial_K0"/>
      <use fill="#ffffff" height="137.8" transform="matrix(0.0703, 0.0, 0.0, 0.0703, 1235.45, 65.0)" width="1465.5" xlink:href="#font_Arial_L0"/>
      <use fill="#ffffff" height="137.8" transform="matrix(0.0703, 0.0, 0.0, 0.0703, 1289.5, 65.0)" width="1465.5" xlink:href="#font_Arial_:0"/>
      <use fill="#ffffff" height="137.8" transform="matrix(0.0703, 0.0, 0.0, 0.0703, 1323.5, 65.0)" width="1465.5" xlink:href="#font_Arial__3"/>
      <use fill="#ffffff" height="137.8" transform="matrix(0.0703, 0.0, 0.0, 0.0703, 1363.05, 65.0)" width="1465.5" xlink:href="#font_Arial_Z0"/>
      <use fill="#ffffff" height="137.8" transform="matrix(0.0703, 0.0, 0.0, 0.0703, 1421.05, 65.0)" width="1465.5" xlink:href="#font_Arial_X0"/>
    </g>
    <g transform="matrix(1.0, 0.0, 0.0, 1.0, 0.0, 0.0)">
      <use fill="#ffffff" height="137.8" transform="matrix(0.0703, 0.0, 0.0, 0.0703, 0.0, 148.0)" width="1465.5" xlink:href="#font_Arial_C0"/>
      <use fill="#ffffff" height="137.8" transform="matrix(0.0703, 0.0, 0.0, 0.0703, 66.0, 148.0)" width="1465.5" xlink:href="#font_Arial_V0"/>
      <use fill="#ffffff" height="137.8" transform="matrix(0.0703, 0.0, 0.0, 0.0703, 128.0, 148.0)" width="1465.5" xlink:href="#font_Arial_B0"/>
      <use fill="#ffffff" height="137.8" transform="matrix(0.0703, 0.0, 0.0, 0.0703, 190.0, 148.0)" width="1465.5" xlink:href="#font_Arial_N0"/>
      <use fill="#ffffff" height="137.8" transform="matrix(0.0703, 0.0, 0.0, 0.0703, 256.0, 148.0)" width="1465.5" xlink:href="#font_Arial_M0"/>
      <use fill="#ffffff" height="137.8" transform="matrix(0.0703, 0.0, 0.0, 0.0703, 330.0, 148.0)" width="1465.5" xlink:href="#font_Arial__4"/>
      <use fill="#ffffff" height="137.8" transform="matrix(0.0703, 0.0, 0.0, 0.0703, 386.05, 148.0)" width="1465.5" xlink:href="#font_Arial__5"/>
      <use fill="#ffffff" height="137.8" transform="matrix(0.0703, 0.0, 0.0, 0.0703, 442.1, 148.0)" width="1465.5" xlink:href="#font_Arial__6"/>
    </g>
  </g>
  <defs>
    <g id="font_Arial_Q0">
      <path d="M421.0 -202.5 L397.5 -132.0 Q448.0 -119.5 493.5 -90.0 447.5 -70.5 395.5 -70.5 285.5 -70.5 215.0 -147.0 144.0 -223.5 144.0 -366.5 144.0 -514.0 215.5 -588.0 287.0 -662.5 395.5 -662.5 468.0 -662.5 526.5 -625.5 584.5 -589.0 615.0 -522.5 645.0 -456.0 645.0 -367.0 645.0 -210.5 559.5 -132.5 505.0 -179.0 421.0 -202.5 M634.5 -78.5 Q690.0 -132.0 717.5 -204.0 745.0 -276.5 745.0 -367.0 745.0 -476.0 702.5 -562.5 659.5 -649.5 578.0 -697.5 496.5 -746.0 395.0 -746.0 294.5 -746.0 213.5 -699.5 132.0 -653.0 88.0 -564.0 44.0 -475.0 44.0 -366.5 44.0 -257.5 88.0 -170.5 131.5 -83.5 212.5 -35.5 293.5 12.5 393.0 12.5 491.5 12.5 573.0 -33.0 651.5 28.5 730.5 57.0 L759.0 -10.5 Q702.0 -32.0 634.5 -78.5" fill-rule="evenodd" stroke="none"/>
    </g>
    <g id="font_Arial_W0">
      <path d="M207.0 0.0 L306.0 0.0 461.5 -558.5 Q471.5 -594.0 483.0 -644.5 486.5 -628.5 506.0 -558.5 L660.5 0.0 754.0 0.0 955.0 -733.0 857.5 -733.0 742.5 -262.0 Q720.0 -172.0 706.0 -102.5 688.5 -224.0 649.0 -362.0 L544.0 -733.0 427.0 -733.0 287.5 -238.0 Q282.5 -220.0 254.5 -102.5 241.5 -177.0 223.5 -252.5 L112.0 -733.0 12.5 -733.0 207.0 0.0" fill-rule="evenodd" stroke="none"/>
    </g>
    <g id="font_Arial_E0">
      <path d="M81.0 0.0 L628.0 0.0 628.0 -86.5 178.0 -86.5 178.0 -336.0 583.5 -336.0 583.5 -422.0 178.0 -422.0 178.0 -646.5 611.0 -646.5 611.0 -733.0 81.0 -733.0 81.0 0.0" fill-rule="evenodd" stroke="none"/>
    </g>
    <g id="font_Arial_R0">
      <path d="M177.5 -409.5 L177.5 -652.0 409.5 -652.0 Q491.0 -652.0 529.0 -618.5 566.5 -585.0 566.5 -533.0 566.5 -497.5 547.0 -467.0 527.5 -437.0 490.0 -423.0 452.5 -409.5 386.0 -409.5 L177.5 -409.5 M80.5 0.0 L177.5 0.0 177.5 -325.5 290.0 -325.5 Q327.5 -325.5 344.0 -322.0 366.5 -316.5 388.5 -302.5 410.0 -288.5 437.5 -253.5 465.0 -218.5 507.5 -152.5 L604.5 0.0 726.5 0.0 599.0 -199.5 Q561.0 -258.0 518.5 -297.0 498.5 -315.0 460.0 -333.5 565.5 -348.0 616.0 -401.5 666.5 -455.0 666.5 -533.0 666.5 -593.5 636.0 -643.5 605.5 -693.5 554.5 -713.0 503.5 -733.0 405.5 -733.0 L80.5 -733.0 80.5 0.0" fill-rule="evenodd" stroke="none"/>
    </g>
    <g id="font_Arial_T0">
      <path d="M265.5 0.0 L362.5 0.0 362.5 -646.5 605.0 -646.5 605.0 -733.0 24.0 -733.0 24.0 -646.5 265.5 -646.5 265.5 0.0" fill-rule="evenodd" stroke="none"/>
    </g>
    <g id="font_Arial_Y0">
      <path d="M285.5 0.0 L382.5 0.0 382.5 -310.5 675.0 -733.0 562.0 -733.0 420.0 -517.5 Q373.0 -445.5 340.0 -388.0 305.5 -450.0 265.5 -512.0 L121.0 -733.0 3.0 -733.0 285.5 -310.5 285.5 0.0" fill-rule="evenodd" stroke="none"/>
    </g>
    <g id="font_Arial_U0">
      <path d="M560.0 -733.0 L560.0 -310.0 Q560.0 -172.0 514.5 -123.5 469.0 -75.0 362.0 -75.0 299.5 -75.0 256.5 -99.5 213.0 -124.0 195.5 -169.0 177.5 -214.5 177.5 -310.0 L177.5 -733.0 80.5 -733.0 80.5 -309.5 Q80.5 -193.0 108.5 -125.5 136.5 -58.5 202.0 -23.0 267.5 12.5 370.5 12.5 476.5 12.5 542.0 -28.0 607.0 -69.0 632.0 -134.0 657.0 -199.0 657.0 -309.5 L657.0 -733.0 560.0 -733.0" fill-rule="evenodd" stroke="none"/>
    </g>
    <g id="font_Arial_I0">
      <path d="M95.5 0.0 L192.5 0.0 192.5 -733.0 95.5 -733.0 95.5 0.0" fill-rule="evenodd" stroke="none"/>
    </g>
    <g id="font_Arial_O0">
      <path d="M149.5 -355.5 Q149.5 -521.0 224.0 -591.5 298.0 -662.5 401.0 -662.5 473.5 -662.5 532.0 -625.5 590.0 -589.0 620.5 -522.0 650.5 -455.5 650.5 -366.0 650.5 -224.5 580.0 -147.5 509.0 -70.5 399.5 -70.5 292.0 -70.5 221.0 -146.5 149.5 -223.0 149.5 -355.5 M49.5 -357.0 Q49.5 -260.5 91.5 -174.0 133.5 -87.5 215.0 -37.5 296.5 12.5 400.0 12.5 495.5 12.5 578.0 -32.5 660.5 -78.0 705.5 -166.0 750.5 -254.0 750.5 -365.5 750.5 -475.5 708.0 -562.0 665.0 -649.0 583.5 -697.5 502.0 -746.0 400.5 -746.0 245.5 -746.0 147.5 -642.5 49.5 -539.5 49.5 -357.0" fill-rule="evenodd" stroke="none"/>
    </g>
    <g id="font_Arial_P0">
      <path d="M176.0 -384.5 L176.0 -646.5 363.5 -646.5 Q429.5 -646.5 454.0 -640.0 492.0 -629.5 515.5 -596.5 538.5 -564.0 538.5 -518.0 538.5 -454.5 499.0 -419.5 459.5 -384.5 365.5 -384.5 L176.0 -384.5 M79.0 0.0 L176.0 0.0 176.0 -298.0 364.0 -298.0 Q519.5 -298.0 579.0 -362.5 638.5 -427.5 638.5 -521.0 638.5 -575.5 616.5 -621.0 594.0 -666.5 557.5 -691.5 521.0 -717.0 467.0 -726.0 428.5 -733.0 355.5 -733.0 L79.0 -733.0 79.0 0.0" fill-rule="evenodd" stroke="none"/>
    </g>
    <g id="font_Arial__0">
      <path d="M28.5 -306.0 L28.5 -224.5 Q67.0 -223.5 91.5 -203.5 115.5 -183.5 123.5 -149.0 131.5 -114.5 132.0 -24.5 132.5 65.5 139.0 105.0 145.0 144.5 166.0 170.5 187.0 196.0 219.0 207.5 241.0 215.5 290.0 215.5 L318.0 215.5 318.0 137.0 302.5 137.0 Q255.0 137.0 239.0 123.5 222.5 110.0 218.5 76.0 216.5 57.5 216.5 -40.0 216.5 -147.5 192.0 -194.5 167.0 -242.0 112.0 -265.0 158.5 -287.5 180.5 -316.5 202.0 -345.5 211.0 -399.0 216.5 -433.5 216.5 -564.5 216.5 -629.5 233.5 -648.0 250.5 -667.0 302.5 -667.0 L318.0 -667.0 318.0 -745.5 290.0 -745.5 Q247.0 -745.5 228.0 -740.5 200.0 -732.5 182.0 -717.0 164.0 -702.0 152.0 -676.5 139.5 -651.0 135.0 -609.0 132.5 -582.5 132.0 -499.0 131.5 -415.5 123.5 -381.0 115.5 -346.5 91.5 -326.5 67.0 -307.0 28.5 -306.0" fill-rule="evenodd" stroke="none"/>
    </g>
    <g id="font_Arial__1">
      <path d="M313.0 -306.0 Q274.5 -307.0 250.5 -327.0 226.0 -347.0 218.0 -381.0 210.0 -415.5 209.5 -505.5 209.0 -595.5 203.0 -635.0 196.5 -674.5 175.5 -700.5 154.5 -726.5 122.5 -737.5 100.5 -745.5 51.5 -745.5 L23.5 -745.5 23.5 -667.0 39.0 -667.0 Q86.5 -667.0 103.0 -653.5 119.0 -640.5 122.5 -607.0 125.0 -588.0 125.0 -490.5 125.0 -383.0 148.5 -337.5 172.0 -292.5 229.5 -265.0 185.5 -246.5 161.5 -213.0 137.5 -180.0 129.5 -124.5 125.0 -91.0 125.0 34.0 125.0 99.5 108.0 118.5 91.0 137.0 39.0 137.0 L23.5 137.0 23.5 215.5 51.5 215.5 Q94.5 215.5 113.5 210.0 141.5 202.0 159.5 187.0 177.5 171.5 190.0 146.5 202.0 121.0 206.5 78.5 209.0 52.0 209.5 -31.5 210.0 -115.0 218.0 -149.0 226.0 -183.5 250.5 -203.5 274.5 -223.5 313.0 -224.5 L313.0 -306.0" fill-rule="evenodd" stroke="none"/>
    </g>
    <g id="font_Arial__2">
      <path d="M94.0 215.5 L172.5 215.5 172.5 -745.5 94.0 -745.5 94.0 215.5" fill-rule="evenodd" stroke="none"/>
    </g>
    <g id="font_Arial_A0">
      <path d="M210.0 -301.0 L290.5 -516.0 Q316.0 -585.5 330.0 -656.0 347.0 -596.5 382.0 -504.0 L458.5 -301.0 210.0 -301.0 M-1.5 0.0 L101.5 0.0 182.0 -222.0 488.5 -222.0 574.0 0.0 684.5 0.0 384.5 -733.0 280.0 -733.0 -1.5 0.0" fill-rule="evenodd" stroke="none"/>
    </g>
    <g id="font_Arial_S0">
      <path d="M46.0 -235.5 Q48.0 -162.0 86.5 -103.5 124.5 -45.5 192.0 -16.5 259.0 12.5 358.5 12.5 437.0 12.5 500.0 -16.0 562.5 -45.0 596.0 -96.5 629.5 -148.5 629.5 -207.0 629.5 -266.0 599.0 -311.0 568.5 -356.5 504.5 -386.0 460.5 -406.0 342.5 -432.5 224.0 -459.5 196.0 -485.0 167.5 -510.5 167.5 -550.0 167.5 -595.5 208.0 -627.5 248.0 -660.0 336.0 -660.0 420.5 -660.0 464.0 -624.5 507.0 -589.0 514.5 -519.5 L607.5 -526.5 Q605.0 -591.0 571.5 -642.0 538.0 -693.0 476.0 -719.0 413.5 -745.5 332.0 -745.5 258.0 -745.5 197.5 -720.5 137.0 -695.5 105.5 -647.0 74.0 -599.0 74.0 -543.5 74.0 -493.0 100.0 -452.0 125.5 -411.5 178.0 -384.0 218.5 -362.5 319.5 -338.0 420.5 -314.0 450.0 -302.5 496.0 -285.0 516.0 -259.0 536.0 -233.5 536.0 -199.0 536.0 -165.0 515.5 -136.0 494.5 -107.5 452.0 -91.0 409.5 -74.5 354.0 -74.5 291.5 -74.5 241.5 -96.0 191.5 -118.0 168.0 -153.0 144.0 -188.5 137.5 -243.5 L46.0 -235.5" fill-rule="evenodd" stroke="none"/>
    </g>
    <g id="font_Arial_D0">
      <path d="M176.0 -86.5 L176.0 -646.5 330.0 -646.5 Q416.5 -646.5 455.5 -631.5 509.5 -610.5 547.5 -548.5 585.0 -487.0 585.0 -372.0 585.0 -289.0 566.0 -230.5 546.5 -172.5 512.0 -138.0 487.5 -113.5 446.5 -100.0 405.0 -86.5 332.5 -86.5 L176.0 -86.5 M79.0 0.0 L343.5 0.0 Q410.0 0.0 461.5 -12.5 512.5 -25.0 549.0 -49.0 585.0 -73.5 615.5 -115.5 646.0 -158.0 665.5 -222.5 685.0 -287.0 685.0 -370.5 685.0 -468.5 656.5 -544.5 627.5 -621.0 569.5 -670.0 525.0 -708.0 462.0 -722.5 417.0 -733.0 331.5 -733.0 L79.0 -733.0 79.0 0.0" fill-rule="evenodd" stroke="none"/>
    </g>
    <g id="font_Arial_F0">
      <path d="M84.0 0.0 L181.0 0.0 181.0 -333.0 525.0 -333.0 525.0 -419.5 181.0 -419.5 181.0 -646.5 578.5 -646.5 578.5 -733.0 84.0 -733.0 84.0 0.0" fill-rule="evenodd" stroke="none"/>
    </g>
    <g id="font_Arial_G0">
      <path d="M422.0 -287.5 L637.5 -287.5 637.5 -151.0 Q606.5 -123.5 546.5 -99.0 486.5 -75.0 423.5 -75.0 351.0 -75.0 286.5 -107.0 222.0 -139.0 188.5 -205.0 154.5 -271.0 154.5 -369.0 154.5 -448.5 182.5 -516.5 199.0 -556.0 229.0 -589.0 258.5 -622.0 307.0 -642.0 355.5 -662.5 422.0 -662.5 477.5 -662.5 523.0 -643.0 568.5 -624.0 593.0 -592.0 617.5 -560.0 634.0 -504.0 L721.5 -528.0 Q702.5 -602.0 666.0 -648.0 629.5 -694.0 565.5 -719.5 501.0 -745.5 421.5 -745.5 312.0 -745.5 228.0 -700.5 144.0 -655.5 99.5 -562.5 54.5 -470.0 54.5 -363.0 54.5 -255.0 99.5 -167.5 144.5 -80.0 233.0 -33.5 321.0 12.5 429.0 12.5 509.0 12.5 585.0 -16.0 661.0 -45.0 732.5 -102.0 L732.5 -374.0 422.0 -373.5 422.0 -287.5" fill-rule="evenodd" stroke="none"/>
    </g>
    <g id="font_Arial_H0">
      <path d="M82.0 0.0 L179.0 0.0 179.0 -345.5 560.0 -345.5 560.0 0.0 657.0 0.0 657.0 -733.0 560.0 -733.0 560.0 -432.0 179.0 -432.0 179.0 -733.0 82.0 -733.0 82.0 0.0" fill-rule="evenodd" stroke="none"/>
    </g>
    <g id="font_Arial_J0">
      <path d="M29.5 -208.0 Q27.5 -98.5 79.0 -43.0 130.0 12.5 226.5 12.5 291.5 12.5 340.0 -14.0 388.0 -40.5 410.5 -91.0 432.5 -141.5 432.5 -233.5 L432.5 -733.0 335.5 -733.0 335.5 -228.0 Q335.5 -165.0 325.5 -136.0 315.5 -107.5 289.0 -90.5 262.5 -74.0 226.0 -74.0 176.5 -74.0 148.5 -105.0 120.5 -136.0 117.0 -220.0 L29.5 -208.0" fill-rule="evenodd" stroke="none"/>
    </g>
    <g id="font_Arial_K0">
      <path d="M75.0 0.0 L172.0 0.0 172.0 -254.0 292.0 -371.0 553.0 0.0 681.0 0.0 360.0 -436.0 667.5 -733.0 536.0 -733.0 172.0 -369.5 172.0 -733.0 75.0 -733.0 75.0 0.0" fill-rule="evenodd" stroke="none"/>
    </g>
    <g id="font_Arial_L0">
      <path d="M75.0 0.0 L533.0 0.0 533.0 -86.5 172.0 -86.5 172.0 -733.0 75.0 -733.0 75.0 0.0" fill-rule="evenodd" stroke="none"/>
    </g>
    <g id="font_Arial_:0">
      <path d="M92.5 0.0 L195.0 0.0 195.0 -102.5 92.5 -102.5 92.5 0.0 M92.5 -428.5 L195.0 -428.5 195.0 -531.0 92.5 -531.0 92.5 -428.5" fill-rule="evenodd" stroke="none"/>
    </g>
    <g id="font_Arial__3">
      <path d="M237.5 -473.5 L291.5 -473.5 315.5 -613.0 315.5 -733.0 213.0 -733.0 213.0 -613.0 237.5 -473.5 M72.0 -473.5 L127.0 -473.5 149.5 -613.0 149.5 -733.0 47.0 -733.0 47.0 -613.0 72.0 -473.5" fill-rule="evenodd" stroke="none"/>
    </g>
    <g id="font_Arial_Z0">
      <path d="M20.5 0.0 L600.0 0.0 600.0 -86.5 132.0 -86.5 176.5 -138.0 588.0 -646.5 588.0 -733.0 63.0 -733.0 63.0 -646.5 472.0 -646.5 Q436.0 -609.5 396.0 -559.5 L20.5 -90.0 20.5 0.0" fill-rule="evenodd" stroke="none"/>
    </g>
    <g id="font_Arial_X0">
      <path d="M4.5 0.0 L121.0 0.0 305.0 -255.5 Q315.5 -270.5 340.0 -310.5 356.5 -284.0 372.0 -261.5 L556.5 0.0 676.5 0.0 399.0 -387.5 656.5 -733.0 551.0 -733.0 403.5 -538.5 Q370.0 -495.0 345.5 -455.0 328.0 -486.5 286.5 -545.0 L153.5 -733.0 38.0 -733.0 288.0 -382.0 4.5 0.0" fill-rule="evenodd" stroke="none"/>
    </g>
    <g id="font_Arial_C0">
      <path d="M602.0 -257.0 Q582.0 -164.5 525.5 -117.5 469.0 -70.5 387.5 -70.5 320.5 -70.5 263.0 -105.0 205.5 -139.5 178.5 -209.0 151.0 -279.0 151.0 -372.5 151.0 -445.0 174.0 -513.0 197.0 -581.5 254.0 -622.0 310.5 -662.5 395.0 -662.5 468.5 -662.5 517.0 -626.0 565.5 -589.5 591.0 -509.5 L686.5 -532.0 Q657.0 -633.5 582.0 -689.5 507.0 -745.5 397.0 -745.5 300.0 -745.5 219.5 -701.0 138.5 -657.0 95.0 -571.5 51.0 -486.5 51.0 -372.0 51.0 -267.0 90.0 -175.5 128.5 -84.0 203.0 -35.5 277.0 12.5 395.5 12.5 510.0 12.5 589.5 -50.0 668.5 -113.0 699.0 -232.5 L602.0 -257.0" fill-rule="evenodd" stroke="none"/>
    </g>
    <g id="font_Arial_V0">
      <path d="M288.5 0.0 L388.0 0.0 675.0 -733.0 576.0 -733.0 378.0 -200.5 Q355.5 -140.5 338.5 -80.5 323.0 -136.5 300.0 -200.5 L109.5 -733.0 4.5 -733.0 288.5 0.0" fill-rule="evenodd" stroke="none"/>
    </g>
    <g id="font_Arial_B0">
      <path d="M172.0 -86.5 L172.0 -338.5 341.5 -338.5 Q411.5 -338.5 449.0 -326.0 486.0 -314.0 507.0 -283.5 528.0 -253.5 528.0 -212.5 528.0 -177.5 513.5 -150.5 499.0 -124.0 476.5 -110.0 454.0 -96.0 420.5 -90.0 401.5 -86.5 354.5 -86.5 L172.0 -86.5 M172.0 -425.0 L172.0 -646.5 318.5 -646.5 Q397.5 -646.5 430.0 -636.0 462.5 -626.0 480.0 -598.0 497.5 -570.5 497.5 -534.0 497.5 -495.5 479.0 -470.0 460.0 -444.5 423.0 -433.5 395.0 -425.0 330.5 -425.0 L172.0 -425.0 M75.0 0.0 L354.5 0.0 Q424.5 0.0 473.0 -12.0 521.0 -24.5 553.0 -48.5 585.0 -72.5 607.0 -116.5 628.5 -161.0 628.5 -212.5 628.5 -276.5 593.0 -323.5 557.0 -370.5 490.5 -390.0 542.0 -415.5 567.5 -457.0 593.0 -498.5 593.0 -545.5 593.0 -596.0 564.5 -642.0 535.5 -688.5 485.0 -710.5 434.0 -733.0 350.0 -733.0 L75.0 -733.0 75.0 0.0" fill-rule="evenodd" stroke="none"/>
    </g>
    <g id="font_Arial_N0">
      <path d="M78.0 0.0 L171.0 0.0 171.0 -576.0 556.0 0.0 655.5 0.0 655.5 -733.0 562.5 -733.0 562.5 -157.5 177.5 -733.0 78.0 -733.0 78.0 0.0" fill-rule="evenodd" stroke="none"/>
    </g>
    <g id="font_Arial_M0">
      <path d="M76.0 0.0 L169.5 0.0 169.5 -624.0 381.5 0.0 469.0 0.0 682.0 -613.5 682.0 0.0 775.5 0.0 775.5 -733.0 645.0 -733.0 469.5 -223.0 Q443.0 -145.5 430.5 -105.5 419.5 -141.5 395.5 -214.0 L222.0 -733.0 76.0 -733.0 76.0 0.0" fill-rule="evenodd" stroke="none"/>
    </g>
    <g id="font_Arial__4">
      <path d="M56.0 -320.5 L541.5 -113.0 541.5 -202.5 156.5 -362.0 541.5 -520.0 541.5 -609.5 56.0 -404.5 56.0 -320.5" fill-rule="evenodd" stroke="none"/>
    </g>
    <g id="font_Arial__5">
      <path d="M541.5 -320.5 L541.5 -404.5 56.0 -609.5 56.0 -520.0 440.5 -362.0 56.0 -202.5 56.0 -113.0 541.5 -320.5" fill-rule="evenodd" stroke="none"/>
    </g>
    <g id="font_Arial__6">
      <path d="M230.5 0.0 L333.0 0.0 333.0 -102.5 230.5 -102.5 230.5 0.0 M236.0 -180.5 L322.5 -180.5 Q323.5 -234.5 330.0 -258.5 336.5 -282.5 350.0 -301.0 363.5 -319.5 407.5 -358.5 473.0 -416.5 495.5 -457.0 518.0 -497.5 518.0 -545.5 518.0 -628.5 454.0 -687.0 390.0 -745.5 282.5 -745.5 181.0 -745.5 119.5 -691.0 57.5 -636.5 45.0 -534.0 L137.5 -523.0 Q149.5 -599.5 188.0 -635.5 226.5 -671.5 284.0 -671.5 343.5 -671.5 384.5 -631.5 425.5 -592.0 425.5 -539.5 425.5 -510.5 411.5 -486.0 397.5 -461.5 351.0 -420.0 304.0 -379.0 286.0 -357.5 261.5 -328.0 250.5 -299.0 235.5 -260.5 235.5 -207.5 235.5 -198.5 236.0 -180.5" fill-rule="evenodd" stroke="none"/>
    </g>
  </defs>
</svg>
