<?xml version="1.0" encoding="UTF-8" standalone="no"?>
<svg xmlns:xlink="http://www.w3.org/1999/xlink" height="40.3px" width="34.55px" xmlns="http://www.w3.org/2000/svg">
  <g transform="matrix(1.0, 0.0, 0.0, 1.0, 0.0, 0.0)">
    <use height="40.3" transform="matrix(1.0, 0.0, 0.0, 1.0, 0.0, 0.0)" width="34.55" xlink:href="#shape0"/>
  </g>
  <defs>
    <g id="shape0" transform="matrix(1.0, 0.0, 0.0, 1.0, 0.0, 0.0)">
      <path d="M30.15 9.5 L30.25 9.5 30.15 9.45 29.65 8.3 29.0 7.25 28.85 7.15 28.65 7.35 26.8 9.15 26.45 9.5 26.2 9.5 26.05 9.6 Q25.7 9.6 25.4 9.15 L25.05 8.75 24.5 9.1 Q24.05 9.3 23.75 9.45 L24.65 10.3 25.75 11.5 27.6 13.4 28.85 14.7 29.2 14.35 29.5 14.1 29.5 13.75 29.6 13.65 29.65 13.55 29.05 13.05 28.5 12.45 28.35 12.6 27.55 11.7 28.8 10.55 28.8 10.45 29.65 11.25 28.65 12.35 29.1 12.8 29.75 13.5 31.8 11.25 32.1 11.05 32.35 11.4 32.5 11.15 32.6 11.15 32.5 11.1 31.9 10.95 31.8 10.9 31.45 10.8 31.1 10.6 30.7 10.45 30.65 10.4 30.6 10.25 Q30.15 10.25 30.1 10.1 L30.1 9.7 30.15 9.5 M30.35 9.6 L30.8 10.25 31.2 10.45 31.55 10.6 31.8 10.65 31.95 10.75 Q32.15 10.75 32.6 11.05 L32.75 11.15 32.7 11.25 32.7 11.4 32.5 11.55 32.6 11.6 32.85 11.85 33.1 11.95 33.4 11.75 33.45 11.6 33.6 11.55 33.65 11.5 Q33.3 11.7 32.95 11.5 32.75 11.1 32.95 10.9 L33.45 10.65 33.05 10.3 32.4 9.65 30.7 7.9 29.0 6.15 28.8 6.05 28.1 7.1 Q27.05 8.05 25.7 8.25 24.3 8.45 23.1 7.7 L23.25 8.0 22.6 8.35 23.0 8.75 23.6 9.25 25.05 8.6 25.15 8.6 25.65 9.2 26.05 9.45 26.2 9.35 26.65 9.1 28.5 7.25 Q28.7 7.0 28.85 7.0 L28.95 7.0 29.05 7.15 29.75 8.25 30.3 9.35 30.35 9.6 M30.5 10.1 L30.25 9.65 30.25 10.05 30.5 10.1 M34.35 10.6 Q34.6 10.95 34.5 11.35 L34.2 11.95 34.15 11.95 33.9 12.15 33.65 12.35 33.4 12.55 32.7 12.55 32.1 12.1 32.1 12.05 31.05 13.1 30.25 13.85 30.15 14.2 30.1 14.5 29.5 15.05 29.95 15.65 30.6 16.35 31.7 18.15 31.9 18.7 Q31.8 19.4 31.3 19.4 L30.35 20.4 28.0 22.75 24.65 26.1 20.85 29.9 10.55 40.3 10.35 40.2 9.05 39.85 Q7.75 39.45 6.1 38.35 4.6 37.4 2.8 35.4 1.0 33.35 0.05 29.9 L0.0 29.7 21.7 8.0 21.7 7.95 22.2 7.85 Q22.2 7.7 22.35 7.7 L22.65 7.5 22.4 7.35 22.2 7.1 Q20.95 5.85 20.95 4.15 20.95 2.5 22.2 1.25 23.4 0.0 25.15 0.0 26.85 0.0 28.1 1.25 28.95 2.2 29.15 3.4 29.45 4.65 29.0 5.8 L29.15 5.5 29.4 5.65 30.45 6.75 32.05 8.35 33.55 9.85 34.35 10.6 M33.45 10.95 Q33.3 10.8 33.2 10.95 32.85 11.1 33.2 11.4 L33.45 11.4 Q33.75 11.1 33.45 10.95 M21.15 4.15 Q21.15 5.8 22.4 7.0 L22.65 7.25 22.95 7.45 23.0 7.5 Q24.2 8.3 25.6 8.1 27.0 7.95 28.0 7.0 29.15 5.8 29.15 4.15 29.15 2.55 28.0 1.4 26.8 0.15 25.15 0.15 23.55 0.15 22.4 1.4 21.15 2.55 21.15 4.15 M21.65 4.15 Q21.65 5.6 22.65 6.55 L23.75 7.25 24.45 7.0 25.8 6.4 Q26.55 6.05 27.25 5.8 L28.15 5.6 28.2 5.6 Q28.65 4.65 28.5 3.55 28.35 2.55 27.55 1.75 26.55 0.7 25.15 0.7 23.7 0.7 22.65 1.75 21.65 2.75 21.65 4.15 M22.6 1.6 Q23.6 0.6 25.1 0.6 26.55 0.6 27.6 1.6 28.5 2.5 28.65 3.65 28.8 4.85 28.2 5.85 L27.6 6.65 Q26.85 7.45 25.85 7.65 L23.95 7.5 23.9 7.5 23.2 7.15 22.6 6.65 Q21.5 5.65 21.5 4.15 21.5 2.6 22.6 1.6 M28.0 5.95 L26.05 6.65 24.2 7.45 Q25.0 7.65 25.9 7.45 26.85 7.25 27.55 6.55 L28.0 5.95 M21.95 8.75 L22.1 9.0 25.85 12.5 28.5 15.5 30.1 17.35 30.9 18.65 31.05 18.8 31.2 18.8 31.25 18.65 30.35 17.25 28.7 15.2 28.5 15.0 28.65 14.85 26.9 13.0 25.0 11.05 23.25 9.5 22.2 8.55 21.95 8.75 M29.1 10.95 L28.8 10.65 27.75 11.7 28.1 12.0 28.35 12.35 28.35 12.25 28.5 12.25 29.5 11.25 29.1 10.95" fill="#6e7d5c" fill-rule="evenodd" stroke="none"/>
    </g>
  </defs>
</svg>
