<?xml version="1.0" encoding="UTF-8" standalone="no"?>
<svg xmlns:xlink="http://www.w3.org/1999/xlink" height="30.5px" width="30.6px" xmlns="http://www.w3.org/2000/svg">
  <g transform="matrix(1.0, 0.0, 0.0, 1.0, 0.0, 0.0)">
    <use height="30.5" transform="matrix(1.0, 0.0, 0.0, 1.0, 0.0, 0.0)" width="30.6" xlink:href="#shape0"/>
  </g>
  <defs>
    <g id="shape0" transform="matrix(1.0, 0.0, 0.0, 1.0, 0.0, 0.0)">
      <path d="M25.4 1.8 L25.7 1.35 26.1 0.9 26.45 1.25 26.7 2.0 26.55 1.85 27.0 3.3 27.85 4.15 28.35 5.3 28.35 5.95 28.8 6.45 Q30.95 8.55 30.5 8.7 L29.4 8.55 28.5 8.4 Q27.7 8.25 27.75 9.05 27.85 10.1 27.4 10.2 L26.3 10.35 25.85 10.45 25.65 11.2 25.7 11.95 25.55 14.6 25.05 16.9 24.55 18.4 Q24.05 19.85 22.65 20.9 L21.05 21.8 Q19.8 22.2 18.7 23.2 L17.5 24.3 Q16.35 25.1 16.35 26.95 L16.3 28.2 16.5 28.65 16.75 28.7 16.75 28.75 18.25 29.0 19.45 29.4 19.45 29.45 20.65 29.7 21.1 30.2 20.75 30.5 20.4 30.4 20.1 30.2 12.85 30.1 11.55 30.2 Q11.25 30.2 11.15 30.05 L11.1 29.9 11.35 29.6 12.55 29.4 13.05 29.1 13.4 28.95 13.6 27.95 Q13.9 26.25 13.2 24.8 L13.15 24.75 12.5 24.15 11.95 23.6 10.2 22.8 Q9.05 22.25 8.85 21.65 8.35 20.15 7.55 18.95 6.65 17.55 5.65 16.7 4.4 15.6 3.85 14.3 L2.8 11.5 2.6 10.5 Q2.55 10.1 1.15 7.65 -0.15 5.35 0.0 4.8 L1.55 6.45 Q1.7 6.2 2.6 6.75 L3.9 7.4 Q5.1 7.75 6.1 8.75 L7.2 9.5 Q8.8 10.3 10.75 10.25 L12.15 10.05 Q14.1 9.25 16.05 9.4 17.7 9.5 19.0 8.8 L19.95 8.15 20.6 7.15 21.5 5.15 21.75 3.75 22.0 1.85 22.45 1.2 Q23.0 0.55 23.65 0.6 24.25 0.65 24.3 1.8 L24.35 1.8 Q24.05 0.1 24.75 0.0 25.15 -0.1 25.25 0.75 L25.4 1.8 M15.2 27.0 L15.15 26.55 15.1 26.5 15.1 26.35 15.05 26.45 15.0 26.4 Q14.45 27.95 14.6 29.2 L14.65 29.2 14.75 29.15 14.8 29.25 15.05 29.35 15.2 29.35 Q15.55 28.15 15.2 27.0" fill="#f6d02c" fill-rule="evenodd" stroke="none"/>
    </g>
  </defs>
</svg>
